G04 #@! TF.GenerationSoftware,KiCad,Pcbnew,(5.1.0)-1*
G04 #@! TF.CreationDate,2019-05-14T00:20:19-06:00*
G04 #@! TF.ProjectId,laser-theremin,6c617365-722d-4746-9865-72656d696e2e,rev?*
G04 #@! TF.SameCoordinates,Original*
G04 #@! TF.FileFunction,Paste,Bot*
G04 #@! TF.FilePolarity,Positive*
%FSLAX46Y46*%
G04 Gerber Fmt 4.6, Leading zero omitted, Abs format (unit mm)*
G04 Created by KiCad (PCBNEW (5.1.0)-1) date 2019-05-14 00:20:19*
%MOMM*%
%LPD*%
G04 APERTURE LIST*
%ADD10R,0.500000X0.500000*%
%ADD11R,1.200000X2.200000*%
%ADD12R,1.600000X1.400000*%
%ADD13R,1.200000X1.400000*%
%ADD14R,0.700000X1.600000*%
%ADD15R,2.500000X1.250000*%
%ADD16R,1.060000X0.650000*%
%ADD17C,0.100000*%
%ADD18C,0.590000*%
%ADD19C,0.975000*%
%ADD20R,1.397000X1.397000*%
%ADD21R,1.143000X1.016000*%
%ADD22R,1.000000X1.597660*%
%ADD23O,1.500000X0.400000*%
%ADD24R,1.350000X3.400000*%
%ADD25R,1.016000X1.143000*%
%ADD26R,0.700000X0.450000*%
%ADD27R,1.550000X0.600000*%
%ADD28R,0.450000X0.600000*%
%ADD29R,0.600000X0.450000*%
%ADD30R,0.998220X2.247900*%
G04 APERTURE END LIST*
D10*
X113140000Y-102160000D03*
X113140000Y-94460000D03*
X113140000Y-101060000D03*
X113140000Y-99960000D03*
X113140000Y-98860000D03*
X113140000Y-97760000D03*
X113140000Y-96660000D03*
X113140000Y-95560000D03*
X110440000Y-99410000D03*
X110440000Y-98310000D03*
X110440000Y-97210000D03*
X104540000Y-100910000D03*
X108940000Y-100910000D03*
X107840000Y-100910000D03*
X106740000Y-100910000D03*
X105640000Y-100910000D03*
X108940000Y-95710000D03*
X107840000Y-95710000D03*
X106740000Y-95710000D03*
X105640000Y-95710000D03*
X104540000Y-95710000D03*
X103440000Y-96660000D03*
X103440000Y-99960000D03*
X103440000Y-102710000D03*
X103990000Y-101810000D03*
X104540000Y-102710000D03*
X105090000Y-101810000D03*
X105640000Y-102710000D03*
X106190000Y-101810000D03*
X106740000Y-102710000D03*
X107290000Y-101810000D03*
X107840000Y-102710000D03*
X108390000Y-101810000D03*
X108940000Y-102710000D03*
X109490000Y-101810000D03*
X110040000Y-102710000D03*
X110590000Y-101810000D03*
X111140000Y-102710000D03*
X112240000Y-102710000D03*
X112240000Y-101610000D03*
X111340000Y-101060000D03*
X112240000Y-100510000D03*
X111340000Y-99960000D03*
X112240000Y-99410000D03*
X111340000Y-98860000D03*
X112240000Y-98310000D03*
X111340000Y-97760000D03*
X112240000Y-97210000D03*
X111340000Y-96660000D03*
X112240000Y-96110000D03*
X111340000Y-95560000D03*
X112240000Y-95010000D03*
X112240000Y-93910000D03*
X111140000Y-93910000D03*
X110590000Y-94810000D03*
X110040000Y-93910000D03*
X109490000Y-94810000D03*
X108940000Y-93910000D03*
X108390000Y-94810000D03*
X107840000Y-93910000D03*
X107290000Y-94810000D03*
X106740000Y-93910000D03*
X106190000Y-94810000D03*
X105640000Y-93910000D03*
X105090000Y-94810000D03*
X104540000Y-93910000D03*
X103990000Y-94810000D03*
X103440000Y-93910000D03*
D11*
X144330000Y-68490000D03*
X159830000Y-68490000D03*
D12*
X158930000Y-78090000D03*
D13*
X144330000Y-78090000D03*
D14*
X152080000Y-78590000D03*
X153180000Y-78590000D03*
X154280000Y-78590000D03*
X150980000Y-78590000D03*
X149880000Y-78590000D03*
X148780000Y-78590000D03*
X147680000Y-78590000D03*
X146580000Y-78590000D03*
X145480000Y-78590000D03*
D15*
X190110000Y-77070000D03*
X190110000Y-79570000D03*
X190110000Y-82070000D03*
D16*
X179010000Y-77620000D03*
X179010000Y-79520000D03*
X181210000Y-79520000D03*
X181210000Y-78570000D03*
X181210000Y-77620000D03*
D17*
G36*
X149726958Y-80500710D02*
G01*
X149741276Y-80502834D01*
X149755317Y-80506351D01*
X149768946Y-80511228D01*
X149782031Y-80517417D01*
X149794447Y-80524858D01*
X149806073Y-80533481D01*
X149816798Y-80543202D01*
X149826519Y-80553927D01*
X149835142Y-80565553D01*
X149842583Y-80577969D01*
X149848772Y-80591054D01*
X149853649Y-80604683D01*
X149857166Y-80618724D01*
X149859290Y-80633042D01*
X149860000Y-80647500D01*
X149860000Y-80992500D01*
X149859290Y-81006958D01*
X149857166Y-81021276D01*
X149853649Y-81035317D01*
X149848772Y-81048946D01*
X149842583Y-81062031D01*
X149835142Y-81074447D01*
X149826519Y-81086073D01*
X149816798Y-81096798D01*
X149806073Y-81106519D01*
X149794447Y-81115142D01*
X149782031Y-81122583D01*
X149768946Y-81128772D01*
X149755317Y-81133649D01*
X149741276Y-81137166D01*
X149726958Y-81139290D01*
X149712500Y-81140000D01*
X149417500Y-81140000D01*
X149403042Y-81139290D01*
X149388724Y-81137166D01*
X149374683Y-81133649D01*
X149361054Y-81128772D01*
X149347969Y-81122583D01*
X149335553Y-81115142D01*
X149323927Y-81106519D01*
X149313202Y-81096798D01*
X149303481Y-81086073D01*
X149294858Y-81074447D01*
X149287417Y-81062031D01*
X149281228Y-81048946D01*
X149276351Y-81035317D01*
X149272834Y-81021276D01*
X149270710Y-81006958D01*
X149270000Y-80992500D01*
X149270000Y-80647500D01*
X149270710Y-80633042D01*
X149272834Y-80618724D01*
X149276351Y-80604683D01*
X149281228Y-80591054D01*
X149287417Y-80577969D01*
X149294858Y-80565553D01*
X149303481Y-80553927D01*
X149313202Y-80543202D01*
X149323927Y-80533481D01*
X149335553Y-80524858D01*
X149347969Y-80517417D01*
X149361054Y-80511228D01*
X149374683Y-80506351D01*
X149388724Y-80502834D01*
X149403042Y-80500710D01*
X149417500Y-80500000D01*
X149712500Y-80500000D01*
X149726958Y-80500710D01*
X149726958Y-80500710D01*
G37*
D18*
X149565000Y-80820000D03*
D17*
G36*
X150696958Y-80500710D02*
G01*
X150711276Y-80502834D01*
X150725317Y-80506351D01*
X150738946Y-80511228D01*
X150752031Y-80517417D01*
X150764447Y-80524858D01*
X150776073Y-80533481D01*
X150786798Y-80543202D01*
X150796519Y-80553927D01*
X150805142Y-80565553D01*
X150812583Y-80577969D01*
X150818772Y-80591054D01*
X150823649Y-80604683D01*
X150827166Y-80618724D01*
X150829290Y-80633042D01*
X150830000Y-80647500D01*
X150830000Y-80992500D01*
X150829290Y-81006958D01*
X150827166Y-81021276D01*
X150823649Y-81035317D01*
X150818772Y-81048946D01*
X150812583Y-81062031D01*
X150805142Y-81074447D01*
X150796519Y-81086073D01*
X150786798Y-81096798D01*
X150776073Y-81106519D01*
X150764447Y-81115142D01*
X150752031Y-81122583D01*
X150738946Y-81128772D01*
X150725317Y-81133649D01*
X150711276Y-81137166D01*
X150696958Y-81139290D01*
X150682500Y-81140000D01*
X150387500Y-81140000D01*
X150373042Y-81139290D01*
X150358724Y-81137166D01*
X150344683Y-81133649D01*
X150331054Y-81128772D01*
X150317969Y-81122583D01*
X150305553Y-81115142D01*
X150293927Y-81106519D01*
X150283202Y-81096798D01*
X150273481Y-81086073D01*
X150264858Y-81074447D01*
X150257417Y-81062031D01*
X150251228Y-81048946D01*
X150246351Y-81035317D01*
X150242834Y-81021276D01*
X150240710Y-81006958D01*
X150240000Y-80992500D01*
X150240000Y-80647500D01*
X150240710Y-80633042D01*
X150242834Y-80618724D01*
X150246351Y-80604683D01*
X150251228Y-80591054D01*
X150257417Y-80577969D01*
X150264858Y-80565553D01*
X150273481Y-80553927D01*
X150283202Y-80543202D01*
X150293927Y-80533481D01*
X150305553Y-80524858D01*
X150317969Y-80517417D01*
X150331054Y-80511228D01*
X150344683Y-80506351D01*
X150358724Y-80502834D01*
X150373042Y-80500710D01*
X150387500Y-80500000D01*
X150682500Y-80500000D01*
X150696958Y-80500710D01*
X150696958Y-80500710D01*
G37*
D18*
X150535000Y-80820000D03*
D17*
G36*
X129376958Y-74760710D02*
G01*
X129391276Y-74762834D01*
X129405317Y-74766351D01*
X129418946Y-74771228D01*
X129432031Y-74777417D01*
X129444447Y-74784858D01*
X129456073Y-74793481D01*
X129466798Y-74803202D01*
X129476519Y-74813927D01*
X129485142Y-74825553D01*
X129492583Y-74837969D01*
X129498772Y-74851054D01*
X129503649Y-74864683D01*
X129507166Y-74878724D01*
X129509290Y-74893042D01*
X129510000Y-74907500D01*
X129510000Y-75202500D01*
X129509290Y-75216958D01*
X129507166Y-75231276D01*
X129503649Y-75245317D01*
X129498772Y-75258946D01*
X129492583Y-75272031D01*
X129485142Y-75284447D01*
X129476519Y-75296073D01*
X129466798Y-75306798D01*
X129456073Y-75316519D01*
X129444447Y-75325142D01*
X129432031Y-75332583D01*
X129418946Y-75338772D01*
X129405317Y-75343649D01*
X129391276Y-75347166D01*
X129376958Y-75349290D01*
X129362500Y-75350000D01*
X129017500Y-75350000D01*
X129003042Y-75349290D01*
X128988724Y-75347166D01*
X128974683Y-75343649D01*
X128961054Y-75338772D01*
X128947969Y-75332583D01*
X128935553Y-75325142D01*
X128923927Y-75316519D01*
X128913202Y-75306798D01*
X128903481Y-75296073D01*
X128894858Y-75284447D01*
X128887417Y-75272031D01*
X128881228Y-75258946D01*
X128876351Y-75245317D01*
X128872834Y-75231276D01*
X128870710Y-75216958D01*
X128870000Y-75202500D01*
X128870000Y-74907500D01*
X128870710Y-74893042D01*
X128872834Y-74878724D01*
X128876351Y-74864683D01*
X128881228Y-74851054D01*
X128887417Y-74837969D01*
X128894858Y-74825553D01*
X128903481Y-74813927D01*
X128913202Y-74803202D01*
X128923927Y-74793481D01*
X128935553Y-74784858D01*
X128947969Y-74777417D01*
X128961054Y-74771228D01*
X128974683Y-74766351D01*
X128988724Y-74762834D01*
X129003042Y-74760710D01*
X129017500Y-74760000D01*
X129362500Y-74760000D01*
X129376958Y-74760710D01*
X129376958Y-74760710D01*
G37*
D18*
X129190000Y-75055000D03*
D17*
G36*
X129376958Y-73790710D02*
G01*
X129391276Y-73792834D01*
X129405317Y-73796351D01*
X129418946Y-73801228D01*
X129432031Y-73807417D01*
X129444447Y-73814858D01*
X129456073Y-73823481D01*
X129466798Y-73833202D01*
X129476519Y-73843927D01*
X129485142Y-73855553D01*
X129492583Y-73867969D01*
X129498772Y-73881054D01*
X129503649Y-73894683D01*
X129507166Y-73908724D01*
X129509290Y-73923042D01*
X129510000Y-73937500D01*
X129510000Y-74232500D01*
X129509290Y-74246958D01*
X129507166Y-74261276D01*
X129503649Y-74275317D01*
X129498772Y-74288946D01*
X129492583Y-74302031D01*
X129485142Y-74314447D01*
X129476519Y-74326073D01*
X129466798Y-74336798D01*
X129456073Y-74346519D01*
X129444447Y-74355142D01*
X129432031Y-74362583D01*
X129418946Y-74368772D01*
X129405317Y-74373649D01*
X129391276Y-74377166D01*
X129376958Y-74379290D01*
X129362500Y-74380000D01*
X129017500Y-74380000D01*
X129003042Y-74379290D01*
X128988724Y-74377166D01*
X128974683Y-74373649D01*
X128961054Y-74368772D01*
X128947969Y-74362583D01*
X128935553Y-74355142D01*
X128923927Y-74346519D01*
X128913202Y-74336798D01*
X128903481Y-74326073D01*
X128894858Y-74314447D01*
X128887417Y-74302031D01*
X128881228Y-74288946D01*
X128876351Y-74275317D01*
X128872834Y-74261276D01*
X128870710Y-74246958D01*
X128870000Y-74232500D01*
X128870000Y-73937500D01*
X128870710Y-73923042D01*
X128872834Y-73908724D01*
X128876351Y-73894683D01*
X128881228Y-73881054D01*
X128887417Y-73867969D01*
X128894858Y-73855553D01*
X128903481Y-73843927D01*
X128913202Y-73833202D01*
X128923927Y-73823481D01*
X128935553Y-73814858D01*
X128947969Y-73807417D01*
X128961054Y-73801228D01*
X128974683Y-73796351D01*
X128988724Y-73792834D01*
X129003042Y-73790710D01*
X129017500Y-73790000D01*
X129362500Y-73790000D01*
X129376958Y-73790710D01*
X129376958Y-73790710D01*
G37*
D18*
X129190000Y-74085000D03*
D17*
G36*
X184036958Y-79230710D02*
G01*
X184051276Y-79232834D01*
X184065317Y-79236351D01*
X184078946Y-79241228D01*
X184092031Y-79247417D01*
X184104447Y-79254858D01*
X184116073Y-79263481D01*
X184126798Y-79273202D01*
X184136519Y-79283927D01*
X184145142Y-79295553D01*
X184152583Y-79307969D01*
X184158772Y-79321054D01*
X184163649Y-79334683D01*
X184167166Y-79348724D01*
X184169290Y-79363042D01*
X184170000Y-79377500D01*
X184170000Y-79672500D01*
X184169290Y-79686958D01*
X184167166Y-79701276D01*
X184163649Y-79715317D01*
X184158772Y-79728946D01*
X184152583Y-79742031D01*
X184145142Y-79754447D01*
X184136519Y-79766073D01*
X184126798Y-79776798D01*
X184116073Y-79786519D01*
X184104447Y-79795142D01*
X184092031Y-79802583D01*
X184078946Y-79808772D01*
X184065317Y-79813649D01*
X184051276Y-79817166D01*
X184036958Y-79819290D01*
X184022500Y-79820000D01*
X183677500Y-79820000D01*
X183663042Y-79819290D01*
X183648724Y-79817166D01*
X183634683Y-79813649D01*
X183621054Y-79808772D01*
X183607969Y-79802583D01*
X183595553Y-79795142D01*
X183583927Y-79786519D01*
X183573202Y-79776798D01*
X183563481Y-79766073D01*
X183554858Y-79754447D01*
X183547417Y-79742031D01*
X183541228Y-79728946D01*
X183536351Y-79715317D01*
X183532834Y-79701276D01*
X183530710Y-79686958D01*
X183530000Y-79672500D01*
X183530000Y-79377500D01*
X183530710Y-79363042D01*
X183532834Y-79348724D01*
X183536351Y-79334683D01*
X183541228Y-79321054D01*
X183547417Y-79307969D01*
X183554858Y-79295553D01*
X183563481Y-79283927D01*
X183573202Y-79273202D01*
X183583927Y-79263481D01*
X183595553Y-79254858D01*
X183607969Y-79247417D01*
X183621054Y-79241228D01*
X183634683Y-79236351D01*
X183648724Y-79232834D01*
X183663042Y-79230710D01*
X183677500Y-79230000D01*
X184022500Y-79230000D01*
X184036958Y-79230710D01*
X184036958Y-79230710D01*
G37*
D18*
X183850000Y-79525000D03*
D17*
G36*
X184036958Y-78260710D02*
G01*
X184051276Y-78262834D01*
X184065317Y-78266351D01*
X184078946Y-78271228D01*
X184092031Y-78277417D01*
X184104447Y-78284858D01*
X184116073Y-78293481D01*
X184126798Y-78303202D01*
X184136519Y-78313927D01*
X184145142Y-78325553D01*
X184152583Y-78337969D01*
X184158772Y-78351054D01*
X184163649Y-78364683D01*
X184167166Y-78378724D01*
X184169290Y-78393042D01*
X184170000Y-78407500D01*
X184170000Y-78702500D01*
X184169290Y-78716958D01*
X184167166Y-78731276D01*
X184163649Y-78745317D01*
X184158772Y-78758946D01*
X184152583Y-78772031D01*
X184145142Y-78784447D01*
X184136519Y-78796073D01*
X184126798Y-78806798D01*
X184116073Y-78816519D01*
X184104447Y-78825142D01*
X184092031Y-78832583D01*
X184078946Y-78838772D01*
X184065317Y-78843649D01*
X184051276Y-78847166D01*
X184036958Y-78849290D01*
X184022500Y-78850000D01*
X183677500Y-78850000D01*
X183663042Y-78849290D01*
X183648724Y-78847166D01*
X183634683Y-78843649D01*
X183621054Y-78838772D01*
X183607969Y-78832583D01*
X183595553Y-78825142D01*
X183583927Y-78816519D01*
X183573202Y-78806798D01*
X183563481Y-78796073D01*
X183554858Y-78784447D01*
X183547417Y-78772031D01*
X183541228Y-78758946D01*
X183536351Y-78745317D01*
X183532834Y-78731276D01*
X183530710Y-78716958D01*
X183530000Y-78702500D01*
X183530000Y-78407500D01*
X183530710Y-78393042D01*
X183532834Y-78378724D01*
X183536351Y-78364683D01*
X183541228Y-78351054D01*
X183547417Y-78337969D01*
X183554858Y-78325553D01*
X183563481Y-78313927D01*
X183573202Y-78303202D01*
X183583927Y-78293481D01*
X183595553Y-78284858D01*
X183607969Y-78277417D01*
X183621054Y-78271228D01*
X183634683Y-78266351D01*
X183648724Y-78262834D01*
X183663042Y-78260710D01*
X183677500Y-78260000D01*
X184022500Y-78260000D01*
X184036958Y-78260710D01*
X184036958Y-78260710D01*
G37*
D18*
X183850000Y-78555000D03*
D17*
G36*
X116556958Y-98610710D02*
G01*
X116571276Y-98612834D01*
X116585317Y-98616351D01*
X116598946Y-98621228D01*
X116612031Y-98627417D01*
X116624447Y-98634858D01*
X116636073Y-98643481D01*
X116646798Y-98653202D01*
X116656519Y-98663927D01*
X116665142Y-98675553D01*
X116672583Y-98687969D01*
X116678772Y-98701054D01*
X116683649Y-98714683D01*
X116687166Y-98728724D01*
X116689290Y-98743042D01*
X116690000Y-98757500D01*
X116690000Y-99102500D01*
X116689290Y-99116958D01*
X116687166Y-99131276D01*
X116683649Y-99145317D01*
X116678772Y-99158946D01*
X116672583Y-99172031D01*
X116665142Y-99184447D01*
X116656519Y-99196073D01*
X116646798Y-99206798D01*
X116636073Y-99216519D01*
X116624447Y-99225142D01*
X116612031Y-99232583D01*
X116598946Y-99238772D01*
X116585317Y-99243649D01*
X116571276Y-99247166D01*
X116556958Y-99249290D01*
X116542500Y-99250000D01*
X116247500Y-99250000D01*
X116233042Y-99249290D01*
X116218724Y-99247166D01*
X116204683Y-99243649D01*
X116191054Y-99238772D01*
X116177969Y-99232583D01*
X116165553Y-99225142D01*
X116153927Y-99216519D01*
X116143202Y-99206798D01*
X116133481Y-99196073D01*
X116124858Y-99184447D01*
X116117417Y-99172031D01*
X116111228Y-99158946D01*
X116106351Y-99145317D01*
X116102834Y-99131276D01*
X116100710Y-99116958D01*
X116100000Y-99102500D01*
X116100000Y-98757500D01*
X116100710Y-98743042D01*
X116102834Y-98728724D01*
X116106351Y-98714683D01*
X116111228Y-98701054D01*
X116117417Y-98687969D01*
X116124858Y-98675553D01*
X116133481Y-98663927D01*
X116143202Y-98653202D01*
X116153927Y-98643481D01*
X116165553Y-98634858D01*
X116177969Y-98627417D01*
X116191054Y-98621228D01*
X116204683Y-98616351D01*
X116218724Y-98612834D01*
X116233042Y-98610710D01*
X116247500Y-98610000D01*
X116542500Y-98610000D01*
X116556958Y-98610710D01*
X116556958Y-98610710D01*
G37*
D18*
X116395000Y-98930000D03*
D17*
G36*
X115586958Y-98610710D02*
G01*
X115601276Y-98612834D01*
X115615317Y-98616351D01*
X115628946Y-98621228D01*
X115642031Y-98627417D01*
X115654447Y-98634858D01*
X115666073Y-98643481D01*
X115676798Y-98653202D01*
X115686519Y-98663927D01*
X115695142Y-98675553D01*
X115702583Y-98687969D01*
X115708772Y-98701054D01*
X115713649Y-98714683D01*
X115717166Y-98728724D01*
X115719290Y-98743042D01*
X115720000Y-98757500D01*
X115720000Y-99102500D01*
X115719290Y-99116958D01*
X115717166Y-99131276D01*
X115713649Y-99145317D01*
X115708772Y-99158946D01*
X115702583Y-99172031D01*
X115695142Y-99184447D01*
X115686519Y-99196073D01*
X115676798Y-99206798D01*
X115666073Y-99216519D01*
X115654447Y-99225142D01*
X115642031Y-99232583D01*
X115628946Y-99238772D01*
X115615317Y-99243649D01*
X115601276Y-99247166D01*
X115586958Y-99249290D01*
X115572500Y-99250000D01*
X115277500Y-99250000D01*
X115263042Y-99249290D01*
X115248724Y-99247166D01*
X115234683Y-99243649D01*
X115221054Y-99238772D01*
X115207969Y-99232583D01*
X115195553Y-99225142D01*
X115183927Y-99216519D01*
X115173202Y-99206798D01*
X115163481Y-99196073D01*
X115154858Y-99184447D01*
X115147417Y-99172031D01*
X115141228Y-99158946D01*
X115136351Y-99145317D01*
X115132834Y-99131276D01*
X115130710Y-99116958D01*
X115130000Y-99102500D01*
X115130000Y-98757500D01*
X115130710Y-98743042D01*
X115132834Y-98728724D01*
X115136351Y-98714683D01*
X115141228Y-98701054D01*
X115147417Y-98687969D01*
X115154858Y-98675553D01*
X115163481Y-98663927D01*
X115173202Y-98653202D01*
X115183927Y-98643481D01*
X115195553Y-98634858D01*
X115207969Y-98627417D01*
X115221054Y-98621228D01*
X115234683Y-98616351D01*
X115248724Y-98612834D01*
X115263042Y-98610710D01*
X115277500Y-98610000D01*
X115572500Y-98610000D01*
X115586958Y-98610710D01*
X115586958Y-98610710D01*
G37*
D18*
X115425000Y-98930000D03*
D17*
G36*
X184290142Y-74096174D02*
G01*
X184313803Y-74099684D01*
X184337007Y-74105496D01*
X184359529Y-74113554D01*
X184381153Y-74123782D01*
X184401670Y-74136079D01*
X184420883Y-74150329D01*
X184438607Y-74166393D01*
X184454671Y-74184117D01*
X184468921Y-74203330D01*
X184481218Y-74223847D01*
X184491446Y-74245471D01*
X184499504Y-74267993D01*
X184505316Y-74291197D01*
X184508826Y-74314858D01*
X184510000Y-74338750D01*
X184510000Y-74826250D01*
X184508826Y-74850142D01*
X184505316Y-74873803D01*
X184499504Y-74897007D01*
X184491446Y-74919529D01*
X184481218Y-74941153D01*
X184468921Y-74961670D01*
X184454671Y-74980883D01*
X184438607Y-74998607D01*
X184420883Y-75014671D01*
X184401670Y-75028921D01*
X184381153Y-75041218D01*
X184359529Y-75051446D01*
X184337007Y-75059504D01*
X184313803Y-75065316D01*
X184290142Y-75068826D01*
X184266250Y-75070000D01*
X183353750Y-75070000D01*
X183329858Y-75068826D01*
X183306197Y-75065316D01*
X183282993Y-75059504D01*
X183260471Y-75051446D01*
X183238847Y-75041218D01*
X183218330Y-75028921D01*
X183199117Y-75014671D01*
X183181393Y-74998607D01*
X183165329Y-74980883D01*
X183151079Y-74961670D01*
X183138782Y-74941153D01*
X183128554Y-74919529D01*
X183120496Y-74897007D01*
X183114684Y-74873803D01*
X183111174Y-74850142D01*
X183110000Y-74826250D01*
X183110000Y-74338750D01*
X183111174Y-74314858D01*
X183114684Y-74291197D01*
X183120496Y-74267993D01*
X183128554Y-74245471D01*
X183138782Y-74223847D01*
X183151079Y-74203330D01*
X183165329Y-74184117D01*
X183181393Y-74166393D01*
X183199117Y-74150329D01*
X183218330Y-74136079D01*
X183238847Y-74123782D01*
X183260471Y-74113554D01*
X183282993Y-74105496D01*
X183306197Y-74099684D01*
X183329858Y-74096174D01*
X183353750Y-74095000D01*
X184266250Y-74095000D01*
X184290142Y-74096174D01*
X184290142Y-74096174D01*
G37*
D19*
X183810000Y-74582500D03*
D17*
G36*
X184290142Y-75971174D02*
G01*
X184313803Y-75974684D01*
X184337007Y-75980496D01*
X184359529Y-75988554D01*
X184381153Y-75998782D01*
X184401670Y-76011079D01*
X184420883Y-76025329D01*
X184438607Y-76041393D01*
X184454671Y-76059117D01*
X184468921Y-76078330D01*
X184481218Y-76098847D01*
X184491446Y-76120471D01*
X184499504Y-76142993D01*
X184505316Y-76166197D01*
X184508826Y-76189858D01*
X184510000Y-76213750D01*
X184510000Y-76701250D01*
X184508826Y-76725142D01*
X184505316Y-76748803D01*
X184499504Y-76772007D01*
X184491446Y-76794529D01*
X184481218Y-76816153D01*
X184468921Y-76836670D01*
X184454671Y-76855883D01*
X184438607Y-76873607D01*
X184420883Y-76889671D01*
X184401670Y-76903921D01*
X184381153Y-76916218D01*
X184359529Y-76926446D01*
X184337007Y-76934504D01*
X184313803Y-76940316D01*
X184290142Y-76943826D01*
X184266250Y-76945000D01*
X183353750Y-76945000D01*
X183329858Y-76943826D01*
X183306197Y-76940316D01*
X183282993Y-76934504D01*
X183260471Y-76926446D01*
X183238847Y-76916218D01*
X183218330Y-76903921D01*
X183199117Y-76889671D01*
X183181393Y-76873607D01*
X183165329Y-76855883D01*
X183151079Y-76836670D01*
X183138782Y-76816153D01*
X183128554Y-76794529D01*
X183120496Y-76772007D01*
X183114684Y-76748803D01*
X183111174Y-76725142D01*
X183110000Y-76701250D01*
X183110000Y-76213750D01*
X183111174Y-76189858D01*
X183114684Y-76166197D01*
X183120496Y-76142993D01*
X183128554Y-76120471D01*
X183138782Y-76098847D01*
X183151079Y-76078330D01*
X183165329Y-76059117D01*
X183181393Y-76041393D01*
X183199117Y-76025329D01*
X183218330Y-76011079D01*
X183238847Y-75998782D01*
X183260471Y-75988554D01*
X183282993Y-75980496D01*
X183306197Y-75974684D01*
X183329858Y-75971174D01*
X183353750Y-75970000D01*
X184266250Y-75970000D01*
X184290142Y-75971174D01*
X184290142Y-75971174D01*
G37*
D19*
X183810000Y-76457500D03*
D17*
G36*
X105876958Y-80840710D02*
G01*
X105891276Y-80842834D01*
X105905317Y-80846351D01*
X105918946Y-80851228D01*
X105932031Y-80857417D01*
X105944447Y-80864858D01*
X105956073Y-80873481D01*
X105966798Y-80883202D01*
X105976519Y-80893927D01*
X105985142Y-80905553D01*
X105992583Y-80917969D01*
X105998772Y-80931054D01*
X106003649Y-80944683D01*
X106007166Y-80958724D01*
X106009290Y-80973042D01*
X106010000Y-80987500D01*
X106010000Y-81282500D01*
X106009290Y-81296958D01*
X106007166Y-81311276D01*
X106003649Y-81325317D01*
X105998772Y-81338946D01*
X105992583Y-81352031D01*
X105985142Y-81364447D01*
X105976519Y-81376073D01*
X105966798Y-81386798D01*
X105956073Y-81396519D01*
X105944447Y-81405142D01*
X105932031Y-81412583D01*
X105918946Y-81418772D01*
X105905317Y-81423649D01*
X105891276Y-81427166D01*
X105876958Y-81429290D01*
X105862500Y-81430000D01*
X105517500Y-81430000D01*
X105503042Y-81429290D01*
X105488724Y-81427166D01*
X105474683Y-81423649D01*
X105461054Y-81418772D01*
X105447969Y-81412583D01*
X105435553Y-81405142D01*
X105423927Y-81396519D01*
X105413202Y-81386798D01*
X105403481Y-81376073D01*
X105394858Y-81364447D01*
X105387417Y-81352031D01*
X105381228Y-81338946D01*
X105376351Y-81325317D01*
X105372834Y-81311276D01*
X105370710Y-81296958D01*
X105370000Y-81282500D01*
X105370000Y-80987500D01*
X105370710Y-80973042D01*
X105372834Y-80958724D01*
X105376351Y-80944683D01*
X105381228Y-80931054D01*
X105387417Y-80917969D01*
X105394858Y-80905553D01*
X105403481Y-80893927D01*
X105413202Y-80883202D01*
X105423927Y-80873481D01*
X105435553Y-80864858D01*
X105447969Y-80857417D01*
X105461054Y-80851228D01*
X105474683Y-80846351D01*
X105488724Y-80842834D01*
X105503042Y-80840710D01*
X105517500Y-80840000D01*
X105862500Y-80840000D01*
X105876958Y-80840710D01*
X105876958Y-80840710D01*
G37*
D18*
X105690000Y-81135000D03*
D17*
G36*
X105876958Y-81810710D02*
G01*
X105891276Y-81812834D01*
X105905317Y-81816351D01*
X105918946Y-81821228D01*
X105932031Y-81827417D01*
X105944447Y-81834858D01*
X105956073Y-81843481D01*
X105966798Y-81853202D01*
X105976519Y-81863927D01*
X105985142Y-81875553D01*
X105992583Y-81887969D01*
X105998772Y-81901054D01*
X106003649Y-81914683D01*
X106007166Y-81928724D01*
X106009290Y-81943042D01*
X106010000Y-81957500D01*
X106010000Y-82252500D01*
X106009290Y-82266958D01*
X106007166Y-82281276D01*
X106003649Y-82295317D01*
X105998772Y-82308946D01*
X105992583Y-82322031D01*
X105985142Y-82334447D01*
X105976519Y-82346073D01*
X105966798Y-82356798D01*
X105956073Y-82366519D01*
X105944447Y-82375142D01*
X105932031Y-82382583D01*
X105918946Y-82388772D01*
X105905317Y-82393649D01*
X105891276Y-82397166D01*
X105876958Y-82399290D01*
X105862500Y-82400000D01*
X105517500Y-82400000D01*
X105503042Y-82399290D01*
X105488724Y-82397166D01*
X105474683Y-82393649D01*
X105461054Y-82388772D01*
X105447969Y-82382583D01*
X105435553Y-82375142D01*
X105423927Y-82366519D01*
X105413202Y-82356798D01*
X105403481Y-82346073D01*
X105394858Y-82334447D01*
X105387417Y-82322031D01*
X105381228Y-82308946D01*
X105376351Y-82295317D01*
X105372834Y-82281276D01*
X105370710Y-82266958D01*
X105370000Y-82252500D01*
X105370000Y-81957500D01*
X105370710Y-81943042D01*
X105372834Y-81928724D01*
X105376351Y-81914683D01*
X105381228Y-81901054D01*
X105387417Y-81887969D01*
X105394858Y-81875553D01*
X105403481Y-81863927D01*
X105413202Y-81853202D01*
X105423927Y-81843481D01*
X105435553Y-81834858D01*
X105447969Y-81827417D01*
X105461054Y-81821228D01*
X105474683Y-81816351D01*
X105488724Y-81812834D01*
X105503042Y-81810710D01*
X105517500Y-81810000D01*
X105862500Y-81810000D01*
X105876958Y-81810710D01*
X105876958Y-81810710D01*
G37*
D18*
X105690000Y-82105000D03*
D17*
G36*
X105876958Y-84380710D02*
G01*
X105891276Y-84382834D01*
X105905317Y-84386351D01*
X105918946Y-84391228D01*
X105932031Y-84397417D01*
X105944447Y-84404858D01*
X105956073Y-84413481D01*
X105966798Y-84423202D01*
X105976519Y-84433927D01*
X105985142Y-84445553D01*
X105992583Y-84457969D01*
X105998772Y-84471054D01*
X106003649Y-84484683D01*
X106007166Y-84498724D01*
X106009290Y-84513042D01*
X106010000Y-84527500D01*
X106010000Y-84822500D01*
X106009290Y-84836958D01*
X106007166Y-84851276D01*
X106003649Y-84865317D01*
X105998772Y-84878946D01*
X105992583Y-84892031D01*
X105985142Y-84904447D01*
X105976519Y-84916073D01*
X105966798Y-84926798D01*
X105956073Y-84936519D01*
X105944447Y-84945142D01*
X105932031Y-84952583D01*
X105918946Y-84958772D01*
X105905317Y-84963649D01*
X105891276Y-84967166D01*
X105876958Y-84969290D01*
X105862500Y-84970000D01*
X105517500Y-84970000D01*
X105503042Y-84969290D01*
X105488724Y-84967166D01*
X105474683Y-84963649D01*
X105461054Y-84958772D01*
X105447969Y-84952583D01*
X105435553Y-84945142D01*
X105423927Y-84936519D01*
X105413202Y-84926798D01*
X105403481Y-84916073D01*
X105394858Y-84904447D01*
X105387417Y-84892031D01*
X105381228Y-84878946D01*
X105376351Y-84865317D01*
X105372834Y-84851276D01*
X105370710Y-84836958D01*
X105370000Y-84822500D01*
X105370000Y-84527500D01*
X105370710Y-84513042D01*
X105372834Y-84498724D01*
X105376351Y-84484683D01*
X105381228Y-84471054D01*
X105387417Y-84457969D01*
X105394858Y-84445553D01*
X105403481Y-84433927D01*
X105413202Y-84423202D01*
X105423927Y-84413481D01*
X105435553Y-84404858D01*
X105447969Y-84397417D01*
X105461054Y-84391228D01*
X105474683Y-84386351D01*
X105488724Y-84382834D01*
X105503042Y-84380710D01*
X105517500Y-84380000D01*
X105862500Y-84380000D01*
X105876958Y-84380710D01*
X105876958Y-84380710D01*
G37*
D18*
X105690000Y-84675000D03*
D17*
G36*
X105876958Y-83410710D02*
G01*
X105891276Y-83412834D01*
X105905317Y-83416351D01*
X105918946Y-83421228D01*
X105932031Y-83427417D01*
X105944447Y-83434858D01*
X105956073Y-83443481D01*
X105966798Y-83453202D01*
X105976519Y-83463927D01*
X105985142Y-83475553D01*
X105992583Y-83487969D01*
X105998772Y-83501054D01*
X106003649Y-83514683D01*
X106007166Y-83528724D01*
X106009290Y-83543042D01*
X106010000Y-83557500D01*
X106010000Y-83852500D01*
X106009290Y-83866958D01*
X106007166Y-83881276D01*
X106003649Y-83895317D01*
X105998772Y-83908946D01*
X105992583Y-83922031D01*
X105985142Y-83934447D01*
X105976519Y-83946073D01*
X105966798Y-83956798D01*
X105956073Y-83966519D01*
X105944447Y-83975142D01*
X105932031Y-83982583D01*
X105918946Y-83988772D01*
X105905317Y-83993649D01*
X105891276Y-83997166D01*
X105876958Y-83999290D01*
X105862500Y-84000000D01*
X105517500Y-84000000D01*
X105503042Y-83999290D01*
X105488724Y-83997166D01*
X105474683Y-83993649D01*
X105461054Y-83988772D01*
X105447969Y-83982583D01*
X105435553Y-83975142D01*
X105423927Y-83966519D01*
X105413202Y-83956798D01*
X105403481Y-83946073D01*
X105394858Y-83934447D01*
X105387417Y-83922031D01*
X105381228Y-83908946D01*
X105376351Y-83895317D01*
X105372834Y-83881276D01*
X105370710Y-83866958D01*
X105370000Y-83852500D01*
X105370000Y-83557500D01*
X105370710Y-83543042D01*
X105372834Y-83528724D01*
X105376351Y-83514683D01*
X105381228Y-83501054D01*
X105387417Y-83487969D01*
X105394858Y-83475553D01*
X105403481Y-83463927D01*
X105413202Y-83453202D01*
X105423927Y-83443481D01*
X105435553Y-83434858D01*
X105447969Y-83427417D01*
X105461054Y-83421228D01*
X105474683Y-83416351D01*
X105488724Y-83412834D01*
X105503042Y-83410710D01*
X105517500Y-83410000D01*
X105862500Y-83410000D01*
X105876958Y-83410710D01*
X105876958Y-83410710D01*
G37*
D18*
X105690000Y-83705000D03*
D20*
X130869000Y-78610000D03*
X134171000Y-78610000D03*
D21*
X108634000Y-83779000D03*
X108634000Y-82001000D03*
X110666000Y-82890000D03*
D22*
X102398280Y-79470000D03*
X102398280Y-86270000D03*
D23*
X102576080Y-81570000D03*
X102576080Y-82220000D03*
X102576080Y-82870000D03*
X102576080Y-83520000D03*
X102576080Y-84170000D03*
D24*
X178995000Y-74160000D03*
X181145000Y-74160000D03*
D25*
X132490000Y-72024000D03*
X131601000Y-74056000D03*
X133379000Y-74056000D03*
D17*
G36*
X135916958Y-73710710D02*
G01*
X135931276Y-73712834D01*
X135945317Y-73716351D01*
X135958946Y-73721228D01*
X135972031Y-73727417D01*
X135984447Y-73734858D01*
X135996073Y-73743481D01*
X136006798Y-73753202D01*
X136016519Y-73763927D01*
X136025142Y-73775553D01*
X136032583Y-73787969D01*
X136038772Y-73801054D01*
X136043649Y-73814683D01*
X136047166Y-73828724D01*
X136049290Y-73843042D01*
X136050000Y-73857500D01*
X136050000Y-74202500D01*
X136049290Y-74216958D01*
X136047166Y-74231276D01*
X136043649Y-74245317D01*
X136038772Y-74258946D01*
X136032583Y-74272031D01*
X136025142Y-74284447D01*
X136016519Y-74296073D01*
X136006798Y-74306798D01*
X135996073Y-74316519D01*
X135984447Y-74325142D01*
X135972031Y-74332583D01*
X135958946Y-74338772D01*
X135945317Y-74343649D01*
X135931276Y-74347166D01*
X135916958Y-74349290D01*
X135902500Y-74350000D01*
X135607500Y-74350000D01*
X135593042Y-74349290D01*
X135578724Y-74347166D01*
X135564683Y-74343649D01*
X135551054Y-74338772D01*
X135537969Y-74332583D01*
X135525553Y-74325142D01*
X135513927Y-74316519D01*
X135503202Y-74306798D01*
X135493481Y-74296073D01*
X135484858Y-74284447D01*
X135477417Y-74272031D01*
X135471228Y-74258946D01*
X135466351Y-74245317D01*
X135462834Y-74231276D01*
X135460710Y-74216958D01*
X135460000Y-74202500D01*
X135460000Y-73857500D01*
X135460710Y-73843042D01*
X135462834Y-73828724D01*
X135466351Y-73814683D01*
X135471228Y-73801054D01*
X135477417Y-73787969D01*
X135484858Y-73775553D01*
X135493481Y-73763927D01*
X135503202Y-73753202D01*
X135513927Y-73743481D01*
X135525553Y-73734858D01*
X135537969Y-73727417D01*
X135551054Y-73721228D01*
X135564683Y-73716351D01*
X135578724Y-73712834D01*
X135593042Y-73710710D01*
X135607500Y-73710000D01*
X135902500Y-73710000D01*
X135916958Y-73710710D01*
X135916958Y-73710710D01*
G37*
D18*
X135755000Y-74030000D03*
D17*
G36*
X136886958Y-73710710D02*
G01*
X136901276Y-73712834D01*
X136915317Y-73716351D01*
X136928946Y-73721228D01*
X136942031Y-73727417D01*
X136954447Y-73734858D01*
X136966073Y-73743481D01*
X136976798Y-73753202D01*
X136986519Y-73763927D01*
X136995142Y-73775553D01*
X137002583Y-73787969D01*
X137008772Y-73801054D01*
X137013649Y-73814683D01*
X137017166Y-73828724D01*
X137019290Y-73843042D01*
X137020000Y-73857500D01*
X137020000Y-74202500D01*
X137019290Y-74216958D01*
X137017166Y-74231276D01*
X137013649Y-74245317D01*
X137008772Y-74258946D01*
X137002583Y-74272031D01*
X136995142Y-74284447D01*
X136986519Y-74296073D01*
X136976798Y-74306798D01*
X136966073Y-74316519D01*
X136954447Y-74325142D01*
X136942031Y-74332583D01*
X136928946Y-74338772D01*
X136915317Y-74343649D01*
X136901276Y-74347166D01*
X136886958Y-74349290D01*
X136872500Y-74350000D01*
X136577500Y-74350000D01*
X136563042Y-74349290D01*
X136548724Y-74347166D01*
X136534683Y-74343649D01*
X136521054Y-74338772D01*
X136507969Y-74332583D01*
X136495553Y-74325142D01*
X136483927Y-74316519D01*
X136473202Y-74306798D01*
X136463481Y-74296073D01*
X136454858Y-74284447D01*
X136447417Y-74272031D01*
X136441228Y-74258946D01*
X136436351Y-74245317D01*
X136432834Y-74231276D01*
X136430710Y-74216958D01*
X136430000Y-74202500D01*
X136430000Y-73857500D01*
X136430710Y-73843042D01*
X136432834Y-73828724D01*
X136436351Y-73814683D01*
X136441228Y-73801054D01*
X136447417Y-73787969D01*
X136454858Y-73775553D01*
X136463481Y-73763927D01*
X136473202Y-73753202D01*
X136483927Y-73743481D01*
X136495553Y-73734858D01*
X136507969Y-73727417D01*
X136521054Y-73721228D01*
X136534683Y-73716351D01*
X136548724Y-73712834D01*
X136563042Y-73710710D01*
X136577500Y-73710000D01*
X136872500Y-73710000D01*
X136886958Y-73710710D01*
X136886958Y-73710710D01*
G37*
D18*
X136725000Y-74030000D03*
D17*
G36*
X107246958Y-80840710D02*
G01*
X107261276Y-80842834D01*
X107275317Y-80846351D01*
X107288946Y-80851228D01*
X107302031Y-80857417D01*
X107314447Y-80864858D01*
X107326073Y-80873481D01*
X107336798Y-80883202D01*
X107346519Y-80893927D01*
X107355142Y-80905553D01*
X107362583Y-80917969D01*
X107368772Y-80931054D01*
X107373649Y-80944683D01*
X107377166Y-80958724D01*
X107379290Y-80973042D01*
X107380000Y-80987500D01*
X107380000Y-81282500D01*
X107379290Y-81296958D01*
X107377166Y-81311276D01*
X107373649Y-81325317D01*
X107368772Y-81338946D01*
X107362583Y-81352031D01*
X107355142Y-81364447D01*
X107346519Y-81376073D01*
X107336798Y-81386798D01*
X107326073Y-81396519D01*
X107314447Y-81405142D01*
X107302031Y-81412583D01*
X107288946Y-81418772D01*
X107275317Y-81423649D01*
X107261276Y-81427166D01*
X107246958Y-81429290D01*
X107232500Y-81430000D01*
X106887500Y-81430000D01*
X106873042Y-81429290D01*
X106858724Y-81427166D01*
X106844683Y-81423649D01*
X106831054Y-81418772D01*
X106817969Y-81412583D01*
X106805553Y-81405142D01*
X106793927Y-81396519D01*
X106783202Y-81386798D01*
X106773481Y-81376073D01*
X106764858Y-81364447D01*
X106757417Y-81352031D01*
X106751228Y-81338946D01*
X106746351Y-81325317D01*
X106742834Y-81311276D01*
X106740710Y-81296958D01*
X106740000Y-81282500D01*
X106740000Y-80987500D01*
X106740710Y-80973042D01*
X106742834Y-80958724D01*
X106746351Y-80944683D01*
X106751228Y-80931054D01*
X106757417Y-80917969D01*
X106764858Y-80905553D01*
X106773481Y-80893927D01*
X106783202Y-80883202D01*
X106793927Y-80873481D01*
X106805553Y-80864858D01*
X106817969Y-80857417D01*
X106831054Y-80851228D01*
X106844683Y-80846351D01*
X106858724Y-80842834D01*
X106873042Y-80840710D01*
X106887500Y-80840000D01*
X107232500Y-80840000D01*
X107246958Y-80840710D01*
X107246958Y-80840710D01*
G37*
D18*
X107060000Y-81135000D03*
D17*
G36*
X107246958Y-81810710D02*
G01*
X107261276Y-81812834D01*
X107275317Y-81816351D01*
X107288946Y-81821228D01*
X107302031Y-81827417D01*
X107314447Y-81834858D01*
X107326073Y-81843481D01*
X107336798Y-81853202D01*
X107346519Y-81863927D01*
X107355142Y-81875553D01*
X107362583Y-81887969D01*
X107368772Y-81901054D01*
X107373649Y-81914683D01*
X107377166Y-81928724D01*
X107379290Y-81943042D01*
X107380000Y-81957500D01*
X107380000Y-82252500D01*
X107379290Y-82266958D01*
X107377166Y-82281276D01*
X107373649Y-82295317D01*
X107368772Y-82308946D01*
X107362583Y-82322031D01*
X107355142Y-82334447D01*
X107346519Y-82346073D01*
X107336798Y-82356798D01*
X107326073Y-82366519D01*
X107314447Y-82375142D01*
X107302031Y-82382583D01*
X107288946Y-82388772D01*
X107275317Y-82393649D01*
X107261276Y-82397166D01*
X107246958Y-82399290D01*
X107232500Y-82400000D01*
X106887500Y-82400000D01*
X106873042Y-82399290D01*
X106858724Y-82397166D01*
X106844683Y-82393649D01*
X106831054Y-82388772D01*
X106817969Y-82382583D01*
X106805553Y-82375142D01*
X106793927Y-82366519D01*
X106783202Y-82356798D01*
X106773481Y-82346073D01*
X106764858Y-82334447D01*
X106757417Y-82322031D01*
X106751228Y-82308946D01*
X106746351Y-82295317D01*
X106742834Y-82281276D01*
X106740710Y-82266958D01*
X106740000Y-82252500D01*
X106740000Y-81957500D01*
X106740710Y-81943042D01*
X106742834Y-81928724D01*
X106746351Y-81914683D01*
X106751228Y-81901054D01*
X106757417Y-81887969D01*
X106764858Y-81875553D01*
X106773481Y-81863927D01*
X106783202Y-81853202D01*
X106793927Y-81843481D01*
X106805553Y-81834858D01*
X106817969Y-81827417D01*
X106831054Y-81821228D01*
X106844683Y-81816351D01*
X106858724Y-81812834D01*
X106873042Y-81810710D01*
X106887500Y-81810000D01*
X107232500Y-81810000D01*
X107246958Y-81810710D01*
X107246958Y-81810710D01*
G37*
D18*
X107060000Y-82105000D03*
D17*
G36*
X107246958Y-84380710D02*
G01*
X107261276Y-84382834D01*
X107275317Y-84386351D01*
X107288946Y-84391228D01*
X107302031Y-84397417D01*
X107314447Y-84404858D01*
X107326073Y-84413481D01*
X107336798Y-84423202D01*
X107346519Y-84433927D01*
X107355142Y-84445553D01*
X107362583Y-84457969D01*
X107368772Y-84471054D01*
X107373649Y-84484683D01*
X107377166Y-84498724D01*
X107379290Y-84513042D01*
X107380000Y-84527500D01*
X107380000Y-84822500D01*
X107379290Y-84836958D01*
X107377166Y-84851276D01*
X107373649Y-84865317D01*
X107368772Y-84878946D01*
X107362583Y-84892031D01*
X107355142Y-84904447D01*
X107346519Y-84916073D01*
X107336798Y-84926798D01*
X107326073Y-84936519D01*
X107314447Y-84945142D01*
X107302031Y-84952583D01*
X107288946Y-84958772D01*
X107275317Y-84963649D01*
X107261276Y-84967166D01*
X107246958Y-84969290D01*
X107232500Y-84970000D01*
X106887500Y-84970000D01*
X106873042Y-84969290D01*
X106858724Y-84967166D01*
X106844683Y-84963649D01*
X106831054Y-84958772D01*
X106817969Y-84952583D01*
X106805553Y-84945142D01*
X106793927Y-84936519D01*
X106783202Y-84926798D01*
X106773481Y-84916073D01*
X106764858Y-84904447D01*
X106757417Y-84892031D01*
X106751228Y-84878946D01*
X106746351Y-84865317D01*
X106742834Y-84851276D01*
X106740710Y-84836958D01*
X106740000Y-84822500D01*
X106740000Y-84527500D01*
X106740710Y-84513042D01*
X106742834Y-84498724D01*
X106746351Y-84484683D01*
X106751228Y-84471054D01*
X106757417Y-84457969D01*
X106764858Y-84445553D01*
X106773481Y-84433927D01*
X106783202Y-84423202D01*
X106793927Y-84413481D01*
X106805553Y-84404858D01*
X106817969Y-84397417D01*
X106831054Y-84391228D01*
X106844683Y-84386351D01*
X106858724Y-84382834D01*
X106873042Y-84380710D01*
X106887500Y-84380000D01*
X107232500Y-84380000D01*
X107246958Y-84380710D01*
X107246958Y-84380710D01*
G37*
D18*
X107060000Y-84675000D03*
D17*
G36*
X107246958Y-83410710D02*
G01*
X107261276Y-83412834D01*
X107275317Y-83416351D01*
X107288946Y-83421228D01*
X107302031Y-83427417D01*
X107314447Y-83434858D01*
X107326073Y-83443481D01*
X107336798Y-83453202D01*
X107346519Y-83463927D01*
X107355142Y-83475553D01*
X107362583Y-83487969D01*
X107368772Y-83501054D01*
X107373649Y-83514683D01*
X107377166Y-83528724D01*
X107379290Y-83543042D01*
X107380000Y-83557500D01*
X107380000Y-83852500D01*
X107379290Y-83866958D01*
X107377166Y-83881276D01*
X107373649Y-83895317D01*
X107368772Y-83908946D01*
X107362583Y-83922031D01*
X107355142Y-83934447D01*
X107346519Y-83946073D01*
X107336798Y-83956798D01*
X107326073Y-83966519D01*
X107314447Y-83975142D01*
X107302031Y-83982583D01*
X107288946Y-83988772D01*
X107275317Y-83993649D01*
X107261276Y-83997166D01*
X107246958Y-83999290D01*
X107232500Y-84000000D01*
X106887500Y-84000000D01*
X106873042Y-83999290D01*
X106858724Y-83997166D01*
X106844683Y-83993649D01*
X106831054Y-83988772D01*
X106817969Y-83982583D01*
X106805553Y-83975142D01*
X106793927Y-83966519D01*
X106783202Y-83956798D01*
X106773481Y-83946073D01*
X106764858Y-83934447D01*
X106757417Y-83922031D01*
X106751228Y-83908946D01*
X106746351Y-83895317D01*
X106742834Y-83881276D01*
X106740710Y-83866958D01*
X106740000Y-83852500D01*
X106740000Y-83557500D01*
X106740710Y-83543042D01*
X106742834Y-83528724D01*
X106746351Y-83514683D01*
X106751228Y-83501054D01*
X106757417Y-83487969D01*
X106764858Y-83475553D01*
X106773481Y-83463927D01*
X106783202Y-83453202D01*
X106793927Y-83443481D01*
X106805553Y-83434858D01*
X106817969Y-83427417D01*
X106831054Y-83421228D01*
X106844683Y-83416351D01*
X106858724Y-83412834D01*
X106873042Y-83410710D01*
X106887500Y-83410000D01*
X107232500Y-83410000D01*
X107246958Y-83410710D01*
X107246958Y-83410710D01*
G37*
D18*
X107060000Y-83705000D03*
D17*
G36*
X179226958Y-80850710D02*
G01*
X179241276Y-80852834D01*
X179255317Y-80856351D01*
X179268946Y-80861228D01*
X179282031Y-80867417D01*
X179294447Y-80874858D01*
X179306073Y-80883481D01*
X179316798Y-80893202D01*
X179326519Y-80903927D01*
X179335142Y-80915553D01*
X179342583Y-80927969D01*
X179348772Y-80941054D01*
X179353649Y-80954683D01*
X179357166Y-80968724D01*
X179359290Y-80983042D01*
X179360000Y-80997500D01*
X179360000Y-81342500D01*
X179359290Y-81356958D01*
X179357166Y-81371276D01*
X179353649Y-81385317D01*
X179348772Y-81398946D01*
X179342583Y-81412031D01*
X179335142Y-81424447D01*
X179326519Y-81436073D01*
X179316798Y-81446798D01*
X179306073Y-81456519D01*
X179294447Y-81465142D01*
X179282031Y-81472583D01*
X179268946Y-81478772D01*
X179255317Y-81483649D01*
X179241276Y-81487166D01*
X179226958Y-81489290D01*
X179212500Y-81490000D01*
X178917500Y-81490000D01*
X178903042Y-81489290D01*
X178888724Y-81487166D01*
X178874683Y-81483649D01*
X178861054Y-81478772D01*
X178847969Y-81472583D01*
X178835553Y-81465142D01*
X178823927Y-81456519D01*
X178813202Y-81446798D01*
X178803481Y-81436073D01*
X178794858Y-81424447D01*
X178787417Y-81412031D01*
X178781228Y-81398946D01*
X178776351Y-81385317D01*
X178772834Y-81371276D01*
X178770710Y-81356958D01*
X178770000Y-81342500D01*
X178770000Y-80997500D01*
X178770710Y-80983042D01*
X178772834Y-80968724D01*
X178776351Y-80954683D01*
X178781228Y-80941054D01*
X178787417Y-80927969D01*
X178794858Y-80915553D01*
X178803481Y-80903927D01*
X178813202Y-80893202D01*
X178823927Y-80883481D01*
X178835553Y-80874858D01*
X178847969Y-80867417D01*
X178861054Y-80861228D01*
X178874683Y-80856351D01*
X178888724Y-80852834D01*
X178903042Y-80850710D01*
X178917500Y-80850000D01*
X179212500Y-80850000D01*
X179226958Y-80850710D01*
X179226958Y-80850710D01*
G37*
D18*
X179065000Y-81170000D03*
D17*
G36*
X178256958Y-80850710D02*
G01*
X178271276Y-80852834D01*
X178285317Y-80856351D01*
X178298946Y-80861228D01*
X178312031Y-80867417D01*
X178324447Y-80874858D01*
X178336073Y-80883481D01*
X178346798Y-80893202D01*
X178356519Y-80903927D01*
X178365142Y-80915553D01*
X178372583Y-80927969D01*
X178378772Y-80941054D01*
X178383649Y-80954683D01*
X178387166Y-80968724D01*
X178389290Y-80983042D01*
X178390000Y-80997500D01*
X178390000Y-81342500D01*
X178389290Y-81356958D01*
X178387166Y-81371276D01*
X178383649Y-81385317D01*
X178378772Y-81398946D01*
X178372583Y-81412031D01*
X178365142Y-81424447D01*
X178356519Y-81436073D01*
X178346798Y-81446798D01*
X178336073Y-81456519D01*
X178324447Y-81465142D01*
X178312031Y-81472583D01*
X178298946Y-81478772D01*
X178285317Y-81483649D01*
X178271276Y-81487166D01*
X178256958Y-81489290D01*
X178242500Y-81490000D01*
X177947500Y-81490000D01*
X177933042Y-81489290D01*
X177918724Y-81487166D01*
X177904683Y-81483649D01*
X177891054Y-81478772D01*
X177877969Y-81472583D01*
X177865553Y-81465142D01*
X177853927Y-81456519D01*
X177843202Y-81446798D01*
X177833481Y-81436073D01*
X177824858Y-81424447D01*
X177817417Y-81412031D01*
X177811228Y-81398946D01*
X177806351Y-81385317D01*
X177802834Y-81371276D01*
X177800710Y-81356958D01*
X177800000Y-81342500D01*
X177800000Y-80997500D01*
X177800710Y-80983042D01*
X177802834Y-80968724D01*
X177806351Y-80954683D01*
X177811228Y-80941054D01*
X177817417Y-80927969D01*
X177824858Y-80915553D01*
X177833481Y-80903927D01*
X177843202Y-80893202D01*
X177853927Y-80883481D01*
X177865553Y-80874858D01*
X177877969Y-80867417D01*
X177891054Y-80861228D01*
X177904683Y-80856351D01*
X177918724Y-80852834D01*
X177933042Y-80850710D01*
X177947500Y-80850000D01*
X178242500Y-80850000D01*
X178256958Y-80850710D01*
X178256958Y-80850710D01*
G37*
D18*
X178095000Y-81170000D03*
D17*
G36*
X180386958Y-80850710D02*
G01*
X180401276Y-80852834D01*
X180415317Y-80856351D01*
X180428946Y-80861228D01*
X180442031Y-80867417D01*
X180454447Y-80874858D01*
X180466073Y-80883481D01*
X180476798Y-80893202D01*
X180486519Y-80903927D01*
X180495142Y-80915553D01*
X180502583Y-80927969D01*
X180508772Y-80941054D01*
X180513649Y-80954683D01*
X180517166Y-80968724D01*
X180519290Y-80983042D01*
X180520000Y-80997500D01*
X180520000Y-81342500D01*
X180519290Y-81356958D01*
X180517166Y-81371276D01*
X180513649Y-81385317D01*
X180508772Y-81398946D01*
X180502583Y-81412031D01*
X180495142Y-81424447D01*
X180486519Y-81436073D01*
X180476798Y-81446798D01*
X180466073Y-81456519D01*
X180454447Y-81465142D01*
X180442031Y-81472583D01*
X180428946Y-81478772D01*
X180415317Y-81483649D01*
X180401276Y-81487166D01*
X180386958Y-81489290D01*
X180372500Y-81490000D01*
X180077500Y-81490000D01*
X180063042Y-81489290D01*
X180048724Y-81487166D01*
X180034683Y-81483649D01*
X180021054Y-81478772D01*
X180007969Y-81472583D01*
X179995553Y-81465142D01*
X179983927Y-81456519D01*
X179973202Y-81446798D01*
X179963481Y-81436073D01*
X179954858Y-81424447D01*
X179947417Y-81412031D01*
X179941228Y-81398946D01*
X179936351Y-81385317D01*
X179932834Y-81371276D01*
X179930710Y-81356958D01*
X179930000Y-81342500D01*
X179930000Y-80997500D01*
X179930710Y-80983042D01*
X179932834Y-80968724D01*
X179936351Y-80954683D01*
X179941228Y-80941054D01*
X179947417Y-80927969D01*
X179954858Y-80915553D01*
X179963481Y-80903927D01*
X179973202Y-80893202D01*
X179983927Y-80883481D01*
X179995553Y-80874858D01*
X180007969Y-80867417D01*
X180021054Y-80861228D01*
X180034683Y-80856351D01*
X180048724Y-80852834D01*
X180063042Y-80850710D01*
X180077500Y-80850000D01*
X180372500Y-80850000D01*
X180386958Y-80850710D01*
X180386958Y-80850710D01*
G37*
D18*
X180225000Y-81170000D03*
D17*
G36*
X181356958Y-80850710D02*
G01*
X181371276Y-80852834D01*
X181385317Y-80856351D01*
X181398946Y-80861228D01*
X181412031Y-80867417D01*
X181424447Y-80874858D01*
X181436073Y-80883481D01*
X181446798Y-80893202D01*
X181456519Y-80903927D01*
X181465142Y-80915553D01*
X181472583Y-80927969D01*
X181478772Y-80941054D01*
X181483649Y-80954683D01*
X181487166Y-80968724D01*
X181489290Y-80983042D01*
X181490000Y-80997500D01*
X181490000Y-81342500D01*
X181489290Y-81356958D01*
X181487166Y-81371276D01*
X181483649Y-81385317D01*
X181478772Y-81398946D01*
X181472583Y-81412031D01*
X181465142Y-81424447D01*
X181456519Y-81436073D01*
X181446798Y-81446798D01*
X181436073Y-81456519D01*
X181424447Y-81465142D01*
X181412031Y-81472583D01*
X181398946Y-81478772D01*
X181385317Y-81483649D01*
X181371276Y-81487166D01*
X181356958Y-81489290D01*
X181342500Y-81490000D01*
X181047500Y-81490000D01*
X181033042Y-81489290D01*
X181018724Y-81487166D01*
X181004683Y-81483649D01*
X180991054Y-81478772D01*
X180977969Y-81472583D01*
X180965553Y-81465142D01*
X180953927Y-81456519D01*
X180943202Y-81446798D01*
X180933481Y-81436073D01*
X180924858Y-81424447D01*
X180917417Y-81412031D01*
X180911228Y-81398946D01*
X180906351Y-81385317D01*
X180902834Y-81371276D01*
X180900710Y-81356958D01*
X180900000Y-81342500D01*
X180900000Y-80997500D01*
X180900710Y-80983042D01*
X180902834Y-80968724D01*
X180906351Y-80954683D01*
X180911228Y-80941054D01*
X180917417Y-80927969D01*
X180924858Y-80915553D01*
X180933481Y-80903927D01*
X180943202Y-80893202D01*
X180953927Y-80883481D01*
X180965553Y-80874858D01*
X180977969Y-80867417D01*
X180991054Y-80861228D01*
X181004683Y-80856351D01*
X181018724Y-80852834D01*
X181033042Y-80850710D01*
X181047500Y-80850000D01*
X181342500Y-80850000D01*
X181356958Y-80850710D01*
X181356958Y-80850710D01*
G37*
D18*
X181195000Y-81170000D03*
D17*
G36*
X179896958Y-82960710D02*
G01*
X179911276Y-82962834D01*
X179925317Y-82966351D01*
X179938946Y-82971228D01*
X179952031Y-82977417D01*
X179964447Y-82984858D01*
X179976073Y-82993481D01*
X179986798Y-83003202D01*
X179996519Y-83013927D01*
X180005142Y-83025553D01*
X180012583Y-83037969D01*
X180018772Y-83051054D01*
X180023649Y-83064683D01*
X180027166Y-83078724D01*
X180029290Y-83093042D01*
X180030000Y-83107500D01*
X180030000Y-83402500D01*
X180029290Y-83416958D01*
X180027166Y-83431276D01*
X180023649Y-83445317D01*
X180018772Y-83458946D01*
X180012583Y-83472031D01*
X180005142Y-83484447D01*
X179996519Y-83496073D01*
X179986798Y-83506798D01*
X179976073Y-83516519D01*
X179964447Y-83525142D01*
X179952031Y-83532583D01*
X179938946Y-83538772D01*
X179925317Y-83543649D01*
X179911276Y-83547166D01*
X179896958Y-83549290D01*
X179882500Y-83550000D01*
X179537500Y-83550000D01*
X179523042Y-83549290D01*
X179508724Y-83547166D01*
X179494683Y-83543649D01*
X179481054Y-83538772D01*
X179467969Y-83532583D01*
X179455553Y-83525142D01*
X179443927Y-83516519D01*
X179433202Y-83506798D01*
X179423481Y-83496073D01*
X179414858Y-83484447D01*
X179407417Y-83472031D01*
X179401228Y-83458946D01*
X179396351Y-83445317D01*
X179392834Y-83431276D01*
X179390710Y-83416958D01*
X179390000Y-83402500D01*
X179390000Y-83107500D01*
X179390710Y-83093042D01*
X179392834Y-83078724D01*
X179396351Y-83064683D01*
X179401228Y-83051054D01*
X179407417Y-83037969D01*
X179414858Y-83025553D01*
X179423481Y-83013927D01*
X179433202Y-83003202D01*
X179443927Y-82993481D01*
X179455553Y-82984858D01*
X179467969Y-82977417D01*
X179481054Y-82971228D01*
X179494683Y-82966351D01*
X179508724Y-82962834D01*
X179523042Y-82960710D01*
X179537500Y-82960000D01*
X179882500Y-82960000D01*
X179896958Y-82960710D01*
X179896958Y-82960710D01*
G37*
D18*
X179710000Y-83255000D03*
D17*
G36*
X179896958Y-83930710D02*
G01*
X179911276Y-83932834D01*
X179925317Y-83936351D01*
X179938946Y-83941228D01*
X179952031Y-83947417D01*
X179964447Y-83954858D01*
X179976073Y-83963481D01*
X179986798Y-83973202D01*
X179996519Y-83983927D01*
X180005142Y-83995553D01*
X180012583Y-84007969D01*
X180018772Y-84021054D01*
X180023649Y-84034683D01*
X180027166Y-84048724D01*
X180029290Y-84063042D01*
X180030000Y-84077500D01*
X180030000Y-84372500D01*
X180029290Y-84386958D01*
X180027166Y-84401276D01*
X180023649Y-84415317D01*
X180018772Y-84428946D01*
X180012583Y-84442031D01*
X180005142Y-84454447D01*
X179996519Y-84466073D01*
X179986798Y-84476798D01*
X179976073Y-84486519D01*
X179964447Y-84495142D01*
X179952031Y-84502583D01*
X179938946Y-84508772D01*
X179925317Y-84513649D01*
X179911276Y-84517166D01*
X179896958Y-84519290D01*
X179882500Y-84520000D01*
X179537500Y-84520000D01*
X179523042Y-84519290D01*
X179508724Y-84517166D01*
X179494683Y-84513649D01*
X179481054Y-84508772D01*
X179467969Y-84502583D01*
X179455553Y-84495142D01*
X179443927Y-84486519D01*
X179433202Y-84476798D01*
X179423481Y-84466073D01*
X179414858Y-84454447D01*
X179407417Y-84442031D01*
X179401228Y-84428946D01*
X179396351Y-84415317D01*
X179392834Y-84401276D01*
X179390710Y-84386958D01*
X179390000Y-84372500D01*
X179390000Y-84077500D01*
X179390710Y-84063042D01*
X179392834Y-84048724D01*
X179396351Y-84034683D01*
X179401228Y-84021054D01*
X179407417Y-84007969D01*
X179414858Y-83995553D01*
X179423481Y-83983927D01*
X179433202Y-83973202D01*
X179443927Y-83963481D01*
X179455553Y-83954858D01*
X179467969Y-83947417D01*
X179481054Y-83941228D01*
X179494683Y-83936351D01*
X179508724Y-83932834D01*
X179523042Y-83930710D01*
X179537500Y-83930000D01*
X179882500Y-83930000D01*
X179896958Y-83930710D01*
X179896958Y-83930710D01*
G37*
D18*
X179710000Y-84225000D03*
D17*
G36*
X186496958Y-84940710D02*
G01*
X186511276Y-84942834D01*
X186525317Y-84946351D01*
X186538946Y-84951228D01*
X186552031Y-84957417D01*
X186564447Y-84964858D01*
X186576073Y-84973481D01*
X186586798Y-84983202D01*
X186596519Y-84993927D01*
X186605142Y-85005553D01*
X186612583Y-85017969D01*
X186618772Y-85031054D01*
X186623649Y-85044683D01*
X186627166Y-85058724D01*
X186629290Y-85073042D01*
X186630000Y-85087500D01*
X186630000Y-85432500D01*
X186629290Y-85446958D01*
X186627166Y-85461276D01*
X186623649Y-85475317D01*
X186618772Y-85488946D01*
X186612583Y-85502031D01*
X186605142Y-85514447D01*
X186596519Y-85526073D01*
X186586798Y-85536798D01*
X186576073Y-85546519D01*
X186564447Y-85555142D01*
X186552031Y-85562583D01*
X186538946Y-85568772D01*
X186525317Y-85573649D01*
X186511276Y-85577166D01*
X186496958Y-85579290D01*
X186482500Y-85580000D01*
X186187500Y-85580000D01*
X186173042Y-85579290D01*
X186158724Y-85577166D01*
X186144683Y-85573649D01*
X186131054Y-85568772D01*
X186117969Y-85562583D01*
X186105553Y-85555142D01*
X186093927Y-85546519D01*
X186083202Y-85536798D01*
X186073481Y-85526073D01*
X186064858Y-85514447D01*
X186057417Y-85502031D01*
X186051228Y-85488946D01*
X186046351Y-85475317D01*
X186042834Y-85461276D01*
X186040710Y-85446958D01*
X186040000Y-85432500D01*
X186040000Y-85087500D01*
X186040710Y-85073042D01*
X186042834Y-85058724D01*
X186046351Y-85044683D01*
X186051228Y-85031054D01*
X186057417Y-85017969D01*
X186064858Y-85005553D01*
X186073481Y-84993927D01*
X186083202Y-84983202D01*
X186093927Y-84973481D01*
X186105553Y-84964858D01*
X186117969Y-84957417D01*
X186131054Y-84951228D01*
X186144683Y-84946351D01*
X186158724Y-84942834D01*
X186173042Y-84940710D01*
X186187500Y-84940000D01*
X186482500Y-84940000D01*
X186496958Y-84940710D01*
X186496958Y-84940710D01*
G37*
D18*
X186335000Y-85260000D03*
D17*
G36*
X185526958Y-84940710D02*
G01*
X185541276Y-84942834D01*
X185555317Y-84946351D01*
X185568946Y-84951228D01*
X185582031Y-84957417D01*
X185594447Y-84964858D01*
X185606073Y-84973481D01*
X185616798Y-84983202D01*
X185626519Y-84993927D01*
X185635142Y-85005553D01*
X185642583Y-85017969D01*
X185648772Y-85031054D01*
X185653649Y-85044683D01*
X185657166Y-85058724D01*
X185659290Y-85073042D01*
X185660000Y-85087500D01*
X185660000Y-85432500D01*
X185659290Y-85446958D01*
X185657166Y-85461276D01*
X185653649Y-85475317D01*
X185648772Y-85488946D01*
X185642583Y-85502031D01*
X185635142Y-85514447D01*
X185626519Y-85526073D01*
X185616798Y-85536798D01*
X185606073Y-85546519D01*
X185594447Y-85555142D01*
X185582031Y-85562583D01*
X185568946Y-85568772D01*
X185555317Y-85573649D01*
X185541276Y-85577166D01*
X185526958Y-85579290D01*
X185512500Y-85580000D01*
X185217500Y-85580000D01*
X185203042Y-85579290D01*
X185188724Y-85577166D01*
X185174683Y-85573649D01*
X185161054Y-85568772D01*
X185147969Y-85562583D01*
X185135553Y-85555142D01*
X185123927Y-85546519D01*
X185113202Y-85536798D01*
X185103481Y-85526073D01*
X185094858Y-85514447D01*
X185087417Y-85502031D01*
X185081228Y-85488946D01*
X185076351Y-85475317D01*
X185072834Y-85461276D01*
X185070710Y-85446958D01*
X185070000Y-85432500D01*
X185070000Y-85087500D01*
X185070710Y-85073042D01*
X185072834Y-85058724D01*
X185076351Y-85044683D01*
X185081228Y-85031054D01*
X185087417Y-85017969D01*
X185094858Y-85005553D01*
X185103481Y-84993927D01*
X185113202Y-84983202D01*
X185123927Y-84973481D01*
X185135553Y-84964858D01*
X185147969Y-84957417D01*
X185161054Y-84951228D01*
X185174683Y-84946351D01*
X185188724Y-84942834D01*
X185203042Y-84940710D01*
X185217500Y-84940000D01*
X185512500Y-84940000D01*
X185526958Y-84940710D01*
X185526958Y-84940710D01*
G37*
D18*
X185365000Y-85260000D03*
D17*
G36*
X102146958Y-89150710D02*
G01*
X102161276Y-89152834D01*
X102175317Y-89156351D01*
X102188946Y-89161228D01*
X102202031Y-89167417D01*
X102214447Y-89174858D01*
X102226073Y-89183481D01*
X102236798Y-89193202D01*
X102246519Y-89203927D01*
X102255142Y-89215553D01*
X102262583Y-89227969D01*
X102268772Y-89241054D01*
X102273649Y-89254683D01*
X102277166Y-89268724D01*
X102279290Y-89283042D01*
X102280000Y-89297500D01*
X102280000Y-89592500D01*
X102279290Y-89606958D01*
X102277166Y-89621276D01*
X102273649Y-89635317D01*
X102268772Y-89648946D01*
X102262583Y-89662031D01*
X102255142Y-89674447D01*
X102246519Y-89686073D01*
X102236798Y-89696798D01*
X102226073Y-89706519D01*
X102214447Y-89715142D01*
X102202031Y-89722583D01*
X102188946Y-89728772D01*
X102175317Y-89733649D01*
X102161276Y-89737166D01*
X102146958Y-89739290D01*
X102132500Y-89740000D01*
X101787500Y-89740000D01*
X101773042Y-89739290D01*
X101758724Y-89737166D01*
X101744683Y-89733649D01*
X101731054Y-89728772D01*
X101717969Y-89722583D01*
X101705553Y-89715142D01*
X101693927Y-89706519D01*
X101683202Y-89696798D01*
X101673481Y-89686073D01*
X101664858Y-89674447D01*
X101657417Y-89662031D01*
X101651228Y-89648946D01*
X101646351Y-89635317D01*
X101642834Y-89621276D01*
X101640710Y-89606958D01*
X101640000Y-89592500D01*
X101640000Y-89297500D01*
X101640710Y-89283042D01*
X101642834Y-89268724D01*
X101646351Y-89254683D01*
X101651228Y-89241054D01*
X101657417Y-89227969D01*
X101664858Y-89215553D01*
X101673481Y-89203927D01*
X101683202Y-89193202D01*
X101693927Y-89183481D01*
X101705553Y-89174858D01*
X101717969Y-89167417D01*
X101731054Y-89161228D01*
X101744683Y-89156351D01*
X101758724Y-89152834D01*
X101773042Y-89150710D01*
X101787500Y-89150000D01*
X102132500Y-89150000D01*
X102146958Y-89150710D01*
X102146958Y-89150710D01*
G37*
D18*
X101960000Y-89445000D03*
D17*
G36*
X102146958Y-88180710D02*
G01*
X102161276Y-88182834D01*
X102175317Y-88186351D01*
X102188946Y-88191228D01*
X102202031Y-88197417D01*
X102214447Y-88204858D01*
X102226073Y-88213481D01*
X102236798Y-88223202D01*
X102246519Y-88233927D01*
X102255142Y-88245553D01*
X102262583Y-88257969D01*
X102268772Y-88271054D01*
X102273649Y-88284683D01*
X102277166Y-88298724D01*
X102279290Y-88313042D01*
X102280000Y-88327500D01*
X102280000Y-88622500D01*
X102279290Y-88636958D01*
X102277166Y-88651276D01*
X102273649Y-88665317D01*
X102268772Y-88678946D01*
X102262583Y-88692031D01*
X102255142Y-88704447D01*
X102246519Y-88716073D01*
X102236798Y-88726798D01*
X102226073Y-88736519D01*
X102214447Y-88745142D01*
X102202031Y-88752583D01*
X102188946Y-88758772D01*
X102175317Y-88763649D01*
X102161276Y-88767166D01*
X102146958Y-88769290D01*
X102132500Y-88770000D01*
X101787500Y-88770000D01*
X101773042Y-88769290D01*
X101758724Y-88767166D01*
X101744683Y-88763649D01*
X101731054Y-88758772D01*
X101717969Y-88752583D01*
X101705553Y-88745142D01*
X101693927Y-88736519D01*
X101683202Y-88726798D01*
X101673481Y-88716073D01*
X101664858Y-88704447D01*
X101657417Y-88692031D01*
X101651228Y-88678946D01*
X101646351Y-88665317D01*
X101642834Y-88651276D01*
X101640710Y-88636958D01*
X101640000Y-88622500D01*
X101640000Y-88327500D01*
X101640710Y-88313042D01*
X101642834Y-88298724D01*
X101646351Y-88284683D01*
X101651228Y-88271054D01*
X101657417Y-88257969D01*
X101664858Y-88245553D01*
X101673481Y-88233927D01*
X101683202Y-88223202D01*
X101693927Y-88213481D01*
X101705553Y-88204858D01*
X101717969Y-88197417D01*
X101731054Y-88191228D01*
X101744683Y-88186351D01*
X101758724Y-88182834D01*
X101773042Y-88180710D01*
X101787500Y-88180000D01*
X102132500Y-88180000D01*
X102146958Y-88180710D01*
X102146958Y-88180710D01*
G37*
D18*
X101960000Y-88475000D03*
D17*
G36*
X187836958Y-76210710D02*
G01*
X187851276Y-76212834D01*
X187865317Y-76216351D01*
X187878946Y-76221228D01*
X187892031Y-76227417D01*
X187904447Y-76234858D01*
X187916073Y-76243481D01*
X187926798Y-76253202D01*
X187936519Y-76263927D01*
X187945142Y-76275553D01*
X187952583Y-76287969D01*
X187958772Y-76301054D01*
X187963649Y-76314683D01*
X187967166Y-76328724D01*
X187969290Y-76343042D01*
X187970000Y-76357500D01*
X187970000Y-76652500D01*
X187969290Y-76666958D01*
X187967166Y-76681276D01*
X187963649Y-76695317D01*
X187958772Y-76708946D01*
X187952583Y-76722031D01*
X187945142Y-76734447D01*
X187936519Y-76746073D01*
X187926798Y-76756798D01*
X187916073Y-76766519D01*
X187904447Y-76775142D01*
X187892031Y-76782583D01*
X187878946Y-76788772D01*
X187865317Y-76793649D01*
X187851276Y-76797166D01*
X187836958Y-76799290D01*
X187822500Y-76800000D01*
X187477500Y-76800000D01*
X187463042Y-76799290D01*
X187448724Y-76797166D01*
X187434683Y-76793649D01*
X187421054Y-76788772D01*
X187407969Y-76782583D01*
X187395553Y-76775142D01*
X187383927Y-76766519D01*
X187373202Y-76756798D01*
X187363481Y-76746073D01*
X187354858Y-76734447D01*
X187347417Y-76722031D01*
X187341228Y-76708946D01*
X187336351Y-76695317D01*
X187332834Y-76681276D01*
X187330710Y-76666958D01*
X187330000Y-76652500D01*
X187330000Y-76357500D01*
X187330710Y-76343042D01*
X187332834Y-76328724D01*
X187336351Y-76314683D01*
X187341228Y-76301054D01*
X187347417Y-76287969D01*
X187354858Y-76275553D01*
X187363481Y-76263927D01*
X187373202Y-76253202D01*
X187383927Y-76243481D01*
X187395553Y-76234858D01*
X187407969Y-76227417D01*
X187421054Y-76221228D01*
X187434683Y-76216351D01*
X187448724Y-76212834D01*
X187463042Y-76210710D01*
X187477500Y-76210000D01*
X187822500Y-76210000D01*
X187836958Y-76210710D01*
X187836958Y-76210710D01*
G37*
D18*
X187650000Y-76505000D03*
D17*
G36*
X187836958Y-77180710D02*
G01*
X187851276Y-77182834D01*
X187865317Y-77186351D01*
X187878946Y-77191228D01*
X187892031Y-77197417D01*
X187904447Y-77204858D01*
X187916073Y-77213481D01*
X187926798Y-77223202D01*
X187936519Y-77233927D01*
X187945142Y-77245553D01*
X187952583Y-77257969D01*
X187958772Y-77271054D01*
X187963649Y-77284683D01*
X187967166Y-77298724D01*
X187969290Y-77313042D01*
X187970000Y-77327500D01*
X187970000Y-77622500D01*
X187969290Y-77636958D01*
X187967166Y-77651276D01*
X187963649Y-77665317D01*
X187958772Y-77678946D01*
X187952583Y-77692031D01*
X187945142Y-77704447D01*
X187936519Y-77716073D01*
X187926798Y-77726798D01*
X187916073Y-77736519D01*
X187904447Y-77745142D01*
X187892031Y-77752583D01*
X187878946Y-77758772D01*
X187865317Y-77763649D01*
X187851276Y-77767166D01*
X187836958Y-77769290D01*
X187822500Y-77770000D01*
X187477500Y-77770000D01*
X187463042Y-77769290D01*
X187448724Y-77767166D01*
X187434683Y-77763649D01*
X187421054Y-77758772D01*
X187407969Y-77752583D01*
X187395553Y-77745142D01*
X187383927Y-77736519D01*
X187373202Y-77726798D01*
X187363481Y-77716073D01*
X187354858Y-77704447D01*
X187347417Y-77692031D01*
X187341228Y-77678946D01*
X187336351Y-77665317D01*
X187332834Y-77651276D01*
X187330710Y-77636958D01*
X187330000Y-77622500D01*
X187330000Y-77327500D01*
X187330710Y-77313042D01*
X187332834Y-77298724D01*
X187336351Y-77284683D01*
X187341228Y-77271054D01*
X187347417Y-77257969D01*
X187354858Y-77245553D01*
X187363481Y-77233927D01*
X187373202Y-77223202D01*
X187383927Y-77213481D01*
X187395553Y-77204858D01*
X187407969Y-77197417D01*
X187421054Y-77191228D01*
X187434683Y-77186351D01*
X187448724Y-77182834D01*
X187463042Y-77180710D01*
X187477500Y-77180000D01*
X187822500Y-77180000D01*
X187836958Y-77180710D01*
X187836958Y-77180710D01*
G37*
D18*
X187650000Y-77475000D03*
D17*
G36*
X194876958Y-87930710D02*
G01*
X194891276Y-87932834D01*
X194905317Y-87936351D01*
X194918946Y-87941228D01*
X194932031Y-87947417D01*
X194944447Y-87954858D01*
X194956073Y-87963481D01*
X194966798Y-87973202D01*
X194976519Y-87983927D01*
X194985142Y-87995553D01*
X194992583Y-88007969D01*
X194998772Y-88021054D01*
X195003649Y-88034683D01*
X195007166Y-88048724D01*
X195009290Y-88063042D01*
X195010000Y-88077500D01*
X195010000Y-88372500D01*
X195009290Y-88386958D01*
X195007166Y-88401276D01*
X195003649Y-88415317D01*
X194998772Y-88428946D01*
X194992583Y-88442031D01*
X194985142Y-88454447D01*
X194976519Y-88466073D01*
X194966798Y-88476798D01*
X194956073Y-88486519D01*
X194944447Y-88495142D01*
X194932031Y-88502583D01*
X194918946Y-88508772D01*
X194905317Y-88513649D01*
X194891276Y-88517166D01*
X194876958Y-88519290D01*
X194862500Y-88520000D01*
X194517500Y-88520000D01*
X194503042Y-88519290D01*
X194488724Y-88517166D01*
X194474683Y-88513649D01*
X194461054Y-88508772D01*
X194447969Y-88502583D01*
X194435553Y-88495142D01*
X194423927Y-88486519D01*
X194413202Y-88476798D01*
X194403481Y-88466073D01*
X194394858Y-88454447D01*
X194387417Y-88442031D01*
X194381228Y-88428946D01*
X194376351Y-88415317D01*
X194372834Y-88401276D01*
X194370710Y-88386958D01*
X194370000Y-88372500D01*
X194370000Y-88077500D01*
X194370710Y-88063042D01*
X194372834Y-88048724D01*
X194376351Y-88034683D01*
X194381228Y-88021054D01*
X194387417Y-88007969D01*
X194394858Y-87995553D01*
X194403481Y-87983927D01*
X194413202Y-87973202D01*
X194423927Y-87963481D01*
X194435553Y-87954858D01*
X194447969Y-87947417D01*
X194461054Y-87941228D01*
X194474683Y-87936351D01*
X194488724Y-87932834D01*
X194503042Y-87930710D01*
X194517500Y-87930000D01*
X194862500Y-87930000D01*
X194876958Y-87930710D01*
X194876958Y-87930710D01*
G37*
D18*
X194690000Y-88225000D03*
D17*
G36*
X194876958Y-88900710D02*
G01*
X194891276Y-88902834D01*
X194905317Y-88906351D01*
X194918946Y-88911228D01*
X194932031Y-88917417D01*
X194944447Y-88924858D01*
X194956073Y-88933481D01*
X194966798Y-88943202D01*
X194976519Y-88953927D01*
X194985142Y-88965553D01*
X194992583Y-88977969D01*
X194998772Y-88991054D01*
X195003649Y-89004683D01*
X195007166Y-89018724D01*
X195009290Y-89033042D01*
X195010000Y-89047500D01*
X195010000Y-89342500D01*
X195009290Y-89356958D01*
X195007166Y-89371276D01*
X195003649Y-89385317D01*
X194998772Y-89398946D01*
X194992583Y-89412031D01*
X194985142Y-89424447D01*
X194976519Y-89436073D01*
X194966798Y-89446798D01*
X194956073Y-89456519D01*
X194944447Y-89465142D01*
X194932031Y-89472583D01*
X194918946Y-89478772D01*
X194905317Y-89483649D01*
X194891276Y-89487166D01*
X194876958Y-89489290D01*
X194862500Y-89490000D01*
X194517500Y-89490000D01*
X194503042Y-89489290D01*
X194488724Y-89487166D01*
X194474683Y-89483649D01*
X194461054Y-89478772D01*
X194447969Y-89472583D01*
X194435553Y-89465142D01*
X194423927Y-89456519D01*
X194413202Y-89446798D01*
X194403481Y-89436073D01*
X194394858Y-89424447D01*
X194387417Y-89412031D01*
X194381228Y-89398946D01*
X194376351Y-89385317D01*
X194372834Y-89371276D01*
X194370710Y-89356958D01*
X194370000Y-89342500D01*
X194370000Y-89047500D01*
X194370710Y-89033042D01*
X194372834Y-89018724D01*
X194376351Y-89004683D01*
X194381228Y-88991054D01*
X194387417Y-88977969D01*
X194394858Y-88965553D01*
X194403481Y-88953927D01*
X194413202Y-88943202D01*
X194423927Y-88933481D01*
X194435553Y-88924858D01*
X194447969Y-88917417D01*
X194461054Y-88911228D01*
X194474683Y-88906351D01*
X194488724Y-88902834D01*
X194503042Y-88900710D01*
X194517500Y-88900000D01*
X194862500Y-88900000D01*
X194876958Y-88900710D01*
X194876958Y-88900710D01*
G37*
D18*
X194690000Y-89195000D03*
D17*
G36*
X141506958Y-97510710D02*
G01*
X141521276Y-97512834D01*
X141535317Y-97516351D01*
X141548946Y-97521228D01*
X141562031Y-97527417D01*
X141574447Y-97534858D01*
X141586073Y-97543481D01*
X141596798Y-97553202D01*
X141606519Y-97563927D01*
X141615142Y-97575553D01*
X141622583Y-97587969D01*
X141628772Y-97601054D01*
X141633649Y-97614683D01*
X141637166Y-97628724D01*
X141639290Y-97643042D01*
X141640000Y-97657500D01*
X141640000Y-98002500D01*
X141639290Y-98016958D01*
X141637166Y-98031276D01*
X141633649Y-98045317D01*
X141628772Y-98058946D01*
X141622583Y-98072031D01*
X141615142Y-98084447D01*
X141606519Y-98096073D01*
X141596798Y-98106798D01*
X141586073Y-98116519D01*
X141574447Y-98125142D01*
X141562031Y-98132583D01*
X141548946Y-98138772D01*
X141535317Y-98143649D01*
X141521276Y-98147166D01*
X141506958Y-98149290D01*
X141492500Y-98150000D01*
X141197500Y-98150000D01*
X141183042Y-98149290D01*
X141168724Y-98147166D01*
X141154683Y-98143649D01*
X141141054Y-98138772D01*
X141127969Y-98132583D01*
X141115553Y-98125142D01*
X141103927Y-98116519D01*
X141093202Y-98106798D01*
X141083481Y-98096073D01*
X141074858Y-98084447D01*
X141067417Y-98072031D01*
X141061228Y-98058946D01*
X141056351Y-98045317D01*
X141052834Y-98031276D01*
X141050710Y-98016958D01*
X141050000Y-98002500D01*
X141050000Y-97657500D01*
X141050710Y-97643042D01*
X141052834Y-97628724D01*
X141056351Y-97614683D01*
X141061228Y-97601054D01*
X141067417Y-97587969D01*
X141074858Y-97575553D01*
X141083481Y-97563927D01*
X141093202Y-97553202D01*
X141103927Y-97543481D01*
X141115553Y-97534858D01*
X141127969Y-97527417D01*
X141141054Y-97521228D01*
X141154683Y-97516351D01*
X141168724Y-97512834D01*
X141183042Y-97510710D01*
X141197500Y-97510000D01*
X141492500Y-97510000D01*
X141506958Y-97510710D01*
X141506958Y-97510710D01*
G37*
D18*
X141345000Y-97830000D03*
D17*
G36*
X140536958Y-97510710D02*
G01*
X140551276Y-97512834D01*
X140565317Y-97516351D01*
X140578946Y-97521228D01*
X140592031Y-97527417D01*
X140604447Y-97534858D01*
X140616073Y-97543481D01*
X140626798Y-97553202D01*
X140636519Y-97563927D01*
X140645142Y-97575553D01*
X140652583Y-97587969D01*
X140658772Y-97601054D01*
X140663649Y-97614683D01*
X140667166Y-97628724D01*
X140669290Y-97643042D01*
X140670000Y-97657500D01*
X140670000Y-98002500D01*
X140669290Y-98016958D01*
X140667166Y-98031276D01*
X140663649Y-98045317D01*
X140658772Y-98058946D01*
X140652583Y-98072031D01*
X140645142Y-98084447D01*
X140636519Y-98096073D01*
X140626798Y-98106798D01*
X140616073Y-98116519D01*
X140604447Y-98125142D01*
X140592031Y-98132583D01*
X140578946Y-98138772D01*
X140565317Y-98143649D01*
X140551276Y-98147166D01*
X140536958Y-98149290D01*
X140522500Y-98150000D01*
X140227500Y-98150000D01*
X140213042Y-98149290D01*
X140198724Y-98147166D01*
X140184683Y-98143649D01*
X140171054Y-98138772D01*
X140157969Y-98132583D01*
X140145553Y-98125142D01*
X140133927Y-98116519D01*
X140123202Y-98106798D01*
X140113481Y-98096073D01*
X140104858Y-98084447D01*
X140097417Y-98072031D01*
X140091228Y-98058946D01*
X140086351Y-98045317D01*
X140082834Y-98031276D01*
X140080710Y-98016958D01*
X140080000Y-98002500D01*
X140080000Y-97657500D01*
X140080710Y-97643042D01*
X140082834Y-97628724D01*
X140086351Y-97614683D01*
X140091228Y-97601054D01*
X140097417Y-97587969D01*
X140104858Y-97575553D01*
X140113481Y-97563927D01*
X140123202Y-97553202D01*
X140133927Y-97543481D01*
X140145553Y-97534858D01*
X140157969Y-97527417D01*
X140171054Y-97521228D01*
X140184683Y-97516351D01*
X140198724Y-97512834D01*
X140213042Y-97510710D01*
X140227500Y-97510000D01*
X140522500Y-97510000D01*
X140536958Y-97510710D01*
X140536958Y-97510710D01*
G37*
D18*
X140375000Y-97830000D03*
D17*
G36*
X144126958Y-97890710D02*
G01*
X144141276Y-97892834D01*
X144155317Y-97896351D01*
X144168946Y-97901228D01*
X144182031Y-97907417D01*
X144194447Y-97914858D01*
X144206073Y-97923481D01*
X144216798Y-97933202D01*
X144226519Y-97943927D01*
X144235142Y-97955553D01*
X144242583Y-97967969D01*
X144248772Y-97981054D01*
X144253649Y-97994683D01*
X144257166Y-98008724D01*
X144259290Y-98023042D01*
X144260000Y-98037500D01*
X144260000Y-98382500D01*
X144259290Y-98396958D01*
X144257166Y-98411276D01*
X144253649Y-98425317D01*
X144248772Y-98438946D01*
X144242583Y-98452031D01*
X144235142Y-98464447D01*
X144226519Y-98476073D01*
X144216798Y-98486798D01*
X144206073Y-98496519D01*
X144194447Y-98505142D01*
X144182031Y-98512583D01*
X144168946Y-98518772D01*
X144155317Y-98523649D01*
X144141276Y-98527166D01*
X144126958Y-98529290D01*
X144112500Y-98530000D01*
X143817500Y-98530000D01*
X143803042Y-98529290D01*
X143788724Y-98527166D01*
X143774683Y-98523649D01*
X143761054Y-98518772D01*
X143747969Y-98512583D01*
X143735553Y-98505142D01*
X143723927Y-98496519D01*
X143713202Y-98486798D01*
X143703481Y-98476073D01*
X143694858Y-98464447D01*
X143687417Y-98452031D01*
X143681228Y-98438946D01*
X143676351Y-98425317D01*
X143672834Y-98411276D01*
X143670710Y-98396958D01*
X143670000Y-98382500D01*
X143670000Y-98037500D01*
X143670710Y-98023042D01*
X143672834Y-98008724D01*
X143676351Y-97994683D01*
X143681228Y-97981054D01*
X143687417Y-97967969D01*
X143694858Y-97955553D01*
X143703481Y-97943927D01*
X143713202Y-97933202D01*
X143723927Y-97923481D01*
X143735553Y-97914858D01*
X143747969Y-97907417D01*
X143761054Y-97901228D01*
X143774683Y-97896351D01*
X143788724Y-97892834D01*
X143803042Y-97890710D01*
X143817500Y-97890000D01*
X144112500Y-97890000D01*
X144126958Y-97890710D01*
X144126958Y-97890710D01*
G37*
D18*
X143965000Y-98210000D03*
D17*
G36*
X143156958Y-97890710D02*
G01*
X143171276Y-97892834D01*
X143185317Y-97896351D01*
X143198946Y-97901228D01*
X143212031Y-97907417D01*
X143224447Y-97914858D01*
X143236073Y-97923481D01*
X143246798Y-97933202D01*
X143256519Y-97943927D01*
X143265142Y-97955553D01*
X143272583Y-97967969D01*
X143278772Y-97981054D01*
X143283649Y-97994683D01*
X143287166Y-98008724D01*
X143289290Y-98023042D01*
X143290000Y-98037500D01*
X143290000Y-98382500D01*
X143289290Y-98396958D01*
X143287166Y-98411276D01*
X143283649Y-98425317D01*
X143278772Y-98438946D01*
X143272583Y-98452031D01*
X143265142Y-98464447D01*
X143256519Y-98476073D01*
X143246798Y-98486798D01*
X143236073Y-98496519D01*
X143224447Y-98505142D01*
X143212031Y-98512583D01*
X143198946Y-98518772D01*
X143185317Y-98523649D01*
X143171276Y-98527166D01*
X143156958Y-98529290D01*
X143142500Y-98530000D01*
X142847500Y-98530000D01*
X142833042Y-98529290D01*
X142818724Y-98527166D01*
X142804683Y-98523649D01*
X142791054Y-98518772D01*
X142777969Y-98512583D01*
X142765553Y-98505142D01*
X142753927Y-98496519D01*
X142743202Y-98486798D01*
X142733481Y-98476073D01*
X142724858Y-98464447D01*
X142717417Y-98452031D01*
X142711228Y-98438946D01*
X142706351Y-98425317D01*
X142702834Y-98411276D01*
X142700710Y-98396958D01*
X142700000Y-98382500D01*
X142700000Y-98037500D01*
X142700710Y-98023042D01*
X142702834Y-98008724D01*
X142706351Y-97994683D01*
X142711228Y-97981054D01*
X142717417Y-97967969D01*
X142724858Y-97955553D01*
X142733481Y-97943927D01*
X142743202Y-97933202D01*
X142753927Y-97923481D01*
X142765553Y-97914858D01*
X142777969Y-97907417D01*
X142791054Y-97901228D01*
X142804683Y-97896351D01*
X142818724Y-97892834D01*
X142833042Y-97890710D01*
X142847500Y-97890000D01*
X143142500Y-97890000D01*
X143156958Y-97890710D01*
X143156958Y-97890710D01*
G37*
D18*
X142995000Y-98210000D03*
D17*
G36*
X141496958Y-95370710D02*
G01*
X141511276Y-95372834D01*
X141525317Y-95376351D01*
X141538946Y-95381228D01*
X141552031Y-95387417D01*
X141564447Y-95394858D01*
X141576073Y-95403481D01*
X141586798Y-95413202D01*
X141596519Y-95423927D01*
X141605142Y-95435553D01*
X141612583Y-95447969D01*
X141618772Y-95461054D01*
X141623649Y-95474683D01*
X141627166Y-95488724D01*
X141629290Y-95503042D01*
X141630000Y-95517500D01*
X141630000Y-95862500D01*
X141629290Y-95876958D01*
X141627166Y-95891276D01*
X141623649Y-95905317D01*
X141618772Y-95918946D01*
X141612583Y-95932031D01*
X141605142Y-95944447D01*
X141596519Y-95956073D01*
X141586798Y-95966798D01*
X141576073Y-95976519D01*
X141564447Y-95985142D01*
X141552031Y-95992583D01*
X141538946Y-95998772D01*
X141525317Y-96003649D01*
X141511276Y-96007166D01*
X141496958Y-96009290D01*
X141482500Y-96010000D01*
X141187500Y-96010000D01*
X141173042Y-96009290D01*
X141158724Y-96007166D01*
X141144683Y-96003649D01*
X141131054Y-95998772D01*
X141117969Y-95992583D01*
X141105553Y-95985142D01*
X141093927Y-95976519D01*
X141083202Y-95966798D01*
X141073481Y-95956073D01*
X141064858Y-95944447D01*
X141057417Y-95932031D01*
X141051228Y-95918946D01*
X141046351Y-95905317D01*
X141042834Y-95891276D01*
X141040710Y-95876958D01*
X141040000Y-95862500D01*
X141040000Y-95517500D01*
X141040710Y-95503042D01*
X141042834Y-95488724D01*
X141046351Y-95474683D01*
X141051228Y-95461054D01*
X141057417Y-95447969D01*
X141064858Y-95435553D01*
X141073481Y-95423927D01*
X141083202Y-95413202D01*
X141093927Y-95403481D01*
X141105553Y-95394858D01*
X141117969Y-95387417D01*
X141131054Y-95381228D01*
X141144683Y-95376351D01*
X141158724Y-95372834D01*
X141173042Y-95370710D01*
X141187500Y-95370000D01*
X141482500Y-95370000D01*
X141496958Y-95370710D01*
X141496958Y-95370710D01*
G37*
D18*
X141335000Y-95690000D03*
D17*
G36*
X140526958Y-95370710D02*
G01*
X140541276Y-95372834D01*
X140555317Y-95376351D01*
X140568946Y-95381228D01*
X140582031Y-95387417D01*
X140594447Y-95394858D01*
X140606073Y-95403481D01*
X140616798Y-95413202D01*
X140626519Y-95423927D01*
X140635142Y-95435553D01*
X140642583Y-95447969D01*
X140648772Y-95461054D01*
X140653649Y-95474683D01*
X140657166Y-95488724D01*
X140659290Y-95503042D01*
X140660000Y-95517500D01*
X140660000Y-95862500D01*
X140659290Y-95876958D01*
X140657166Y-95891276D01*
X140653649Y-95905317D01*
X140648772Y-95918946D01*
X140642583Y-95932031D01*
X140635142Y-95944447D01*
X140626519Y-95956073D01*
X140616798Y-95966798D01*
X140606073Y-95976519D01*
X140594447Y-95985142D01*
X140582031Y-95992583D01*
X140568946Y-95998772D01*
X140555317Y-96003649D01*
X140541276Y-96007166D01*
X140526958Y-96009290D01*
X140512500Y-96010000D01*
X140217500Y-96010000D01*
X140203042Y-96009290D01*
X140188724Y-96007166D01*
X140174683Y-96003649D01*
X140161054Y-95998772D01*
X140147969Y-95992583D01*
X140135553Y-95985142D01*
X140123927Y-95976519D01*
X140113202Y-95966798D01*
X140103481Y-95956073D01*
X140094858Y-95944447D01*
X140087417Y-95932031D01*
X140081228Y-95918946D01*
X140076351Y-95905317D01*
X140072834Y-95891276D01*
X140070710Y-95876958D01*
X140070000Y-95862500D01*
X140070000Y-95517500D01*
X140070710Y-95503042D01*
X140072834Y-95488724D01*
X140076351Y-95474683D01*
X140081228Y-95461054D01*
X140087417Y-95447969D01*
X140094858Y-95435553D01*
X140103481Y-95423927D01*
X140113202Y-95413202D01*
X140123927Y-95403481D01*
X140135553Y-95394858D01*
X140147969Y-95387417D01*
X140161054Y-95381228D01*
X140174683Y-95376351D01*
X140188724Y-95372834D01*
X140203042Y-95370710D01*
X140217500Y-95370000D01*
X140512500Y-95370000D01*
X140526958Y-95370710D01*
X140526958Y-95370710D01*
G37*
D18*
X140365000Y-95690000D03*
D17*
G36*
X155346958Y-97780710D02*
G01*
X155361276Y-97782834D01*
X155375317Y-97786351D01*
X155388946Y-97791228D01*
X155402031Y-97797417D01*
X155414447Y-97804858D01*
X155426073Y-97813481D01*
X155436798Y-97823202D01*
X155446519Y-97833927D01*
X155455142Y-97845553D01*
X155462583Y-97857969D01*
X155468772Y-97871054D01*
X155473649Y-97884683D01*
X155477166Y-97898724D01*
X155479290Y-97913042D01*
X155480000Y-97927500D01*
X155480000Y-98222500D01*
X155479290Y-98236958D01*
X155477166Y-98251276D01*
X155473649Y-98265317D01*
X155468772Y-98278946D01*
X155462583Y-98292031D01*
X155455142Y-98304447D01*
X155446519Y-98316073D01*
X155436798Y-98326798D01*
X155426073Y-98336519D01*
X155414447Y-98345142D01*
X155402031Y-98352583D01*
X155388946Y-98358772D01*
X155375317Y-98363649D01*
X155361276Y-98367166D01*
X155346958Y-98369290D01*
X155332500Y-98370000D01*
X154987500Y-98370000D01*
X154973042Y-98369290D01*
X154958724Y-98367166D01*
X154944683Y-98363649D01*
X154931054Y-98358772D01*
X154917969Y-98352583D01*
X154905553Y-98345142D01*
X154893927Y-98336519D01*
X154883202Y-98326798D01*
X154873481Y-98316073D01*
X154864858Y-98304447D01*
X154857417Y-98292031D01*
X154851228Y-98278946D01*
X154846351Y-98265317D01*
X154842834Y-98251276D01*
X154840710Y-98236958D01*
X154840000Y-98222500D01*
X154840000Y-97927500D01*
X154840710Y-97913042D01*
X154842834Y-97898724D01*
X154846351Y-97884683D01*
X154851228Y-97871054D01*
X154857417Y-97857969D01*
X154864858Y-97845553D01*
X154873481Y-97833927D01*
X154883202Y-97823202D01*
X154893927Y-97813481D01*
X154905553Y-97804858D01*
X154917969Y-97797417D01*
X154931054Y-97791228D01*
X154944683Y-97786351D01*
X154958724Y-97782834D01*
X154973042Y-97780710D01*
X154987500Y-97780000D01*
X155332500Y-97780000D01*
X155346958Y-97780710D01*
X155346958Y-97780710D01*
G37*
D18*
X155160000Y-98075000D03*
D17*
G36*
X155346958Y-96810710D02*
G01*
X155361276Y-96812834D01*
X155375317Y-96816351D01*
X155388946Y-96821228D01*
X155402031Y-96827417D01*
X155414447Y-96834858D01*
X155426073Y-96843481D01*
X155436798Y-96853202D01*
X155446519Y-96863927D01*
X155455142Y-96875553D01*
X155462583Y-96887969D01*
X155468772Y-96901054D01*
X155473649Y-96914683D01*
X155477166Y-96928724D01*
X155479290Y-96943042D01*
X155480000Y-96957500D01*
X155480000Y-97252500D01*
X155479290Y-97266958D01*
X155477166Y-97281276D01*
X155473649Y-97295317D01*
X155468772Y-97308946D01*
X155462583Y-97322031D01*
X155455142Y-97334447D01*
X155446519Y-97346073D01*
X155436798Y-97356798D01*
X155426073Y-97366519D01*
X155414447Y-97375142D01*
X155402031Y-97382583D01*
X155388946Y-97388772D01*
X155375317Y-97393649D01*
X155361276Y-97397166D01*
X155346958Y-97399290D01*
X155332500Y-97400000D01*
X154987500Y-97400000D01*
X154973042Y-97399290D01*
X154958724Y-97397166D01*
X154944683Y-97393649D01*
X154931054Y-97388772D01*
X154917969Y-97382583D01*
X154905553Y-97375142D01*
X154893927Y-97366519D01*
X154883202Y-97356798D01*
X154873481Y-97346073D01*
X154864858Y-97334447D01*
X154857417Y-97322031D01*
X154851228Y-97308946D01*
X154846351Y-97295317D01*
X154842834Y-97281276D01*
X154840710Y-97266958D01*
X154840000Y-97252500D01*
X154840000Y-96957500D01*
X154840710Y-96943042D01*
X154842834Y-96928724D01*
X154846351Y-96914683D01*
X154851228Y-96901054D01*
X154857417Y-96887969D01*
X154864858Y-96875553D01*
X154873481Y-96863927D01*
X154883202Y-96853202D01*
X154893927Y-96843481D01*
X154905553Y-96834858D01*
X154917969Y-96827417D01*
X154931054Y-96821228D01*
X154944683Y-96816351D01*
X154958724Y-96812834D01*
X154973042Y-96810710D01*
X154987500Y-96810000D01*
X155332500Y-96810000D01*
X155346958Y-96810710D01*
X155346958Y-96810710D01*
G37*
D18*
X155160000Y-97105000D03*
D26*
X188870000Y-87870000D03*
X186870000Y-87220000D03*
X186870000Y-88520000D03*
X184890000Y-88540000D03*
X184890000Y-89840000D03*
X182890000Y-89190000D03*
D17*
G36*
X181676958Y-89880710D02*
G01*
X181691276Y-89882834D01*
X181705317Y-89886351D01*
X181718946Y-89891228D01*
X181732031Y-89897417D01*
X181744447Y-89904858D01*
X181756073Y-89913481D01*
X181766798Y-89923202D01*
X181776519Y-89933927D01*
X181785142Y-89945553D01*
X181792583Y-89957969D01*
X181798772Y-89971054D01*
X181803649Y-89984683D01*
X181807166Y-89998724D01*
X181809290Y-90013042D01*
X181810000Y-90027500D01*
X181810000Y-90322500D01*
X181809290Y-90336958D01*
X181807166Y-90351276D01*
X181803649Y-90365317D01*
X181798772Y-90378946D01*
X181792583Y-90392031D01*
X181785142Y-90404447D01*
X181776519Y-90416073D01*
X181766798Y-90426798D01*
X181756073Y-90436519D01*
X181744447Y-90445142D01*
X181732031Y-90452583D01*
X181718946Y-90458772D01*
X181705317Y-90463649D01*
X181691276Y-90467166D01*
X181676958Y-90469290D01*
X181662500Y-90470000D01*
X181317500Y-90470000D01*
X181303042Y-90469290D01*
X181288724Y-90467166D01*
X181274683Y-90463649D01*
X181261054Y-90458772D01*
X181247969Y-90452583D01*
X181235553Y-90445142D01*
X181223927Y-90436519D01*
X181213202Y-90426798D01*
X181203481Y-90416073D01*
X181194858Y-90404447D01*
X181187417Y-90392031D01*
X181181228Y-90378946D01*
X181176351Y-90365317D01*
X181172834Y-90351276D01*
X181170710Y-90336958D01*
X181170000Y-90322500D01*
X181170000Y-90027500D01*
X181170710Y-90013042D01*
X181172834Y-89998724D01*
X181176351Y-89984683D01*
X181181228Y-89971054D01*
X181187417Y-89957969D01*
X181194858Y-89945553D01*
X181203481Y-89933927D01*
X181213202Y-89923202D01*
X181223927Y-89913481D01*
X181235553Y-89904858D01*
X181247969Y-89897417D01*
X181261054Y-89891228D01*
X181274683Y-89886351D01*
X181288724Y-89882834D01*
X181303042Y-89880710D01*
X181317500Y-89880000D01*
X181662500Y-89880000D01*
X181676958Y-89880710D01*
X181676958Y-89880710D01*
G37*
D18*
X181490000Y-90175000D03*
D17*
G36*
X181676958Y-88910710D02*
G01*
X181691276Y-88912834D01*
X181705317Y-88916351D01*
X181718946Y-88921228D01*
X181732031Y-88927417D01*
X181744447Y-88934858D01*
X181756073Y-88943481D01*
X181766798Y-88953202D01*
X181776519Y-88963927D01*
X181785142Y-88975553D01*
X181792583Y-88987969D01*
X181798772Y-89001054D01*
X181803649Y-89014683D01*
X181807166Y-89028724D01*
X181809290Y-89043042D01*
X181810000Y-89057500D01*
X181810000Y-89352500D01*
X181809290Y-89366958D01*
X181807166Y-89381276D01*
X181803649Y-89395317D01*
X181798772Y-89408946D01*
X181792583Y-89422031D01*
X181785142Y-89434447D01*
X181776519Y-89446073D01*
X181766798Y-89456798D01*
X181756073Y-89466519D01*
X181744447Y-89475142D01*
X181732031Y-89482583D01*
X181718946Y-89488772D01*
X181705317Y-89493649D01*
X181691276Y-89497166D01*
X181676958Y-89499290D01*
X181662500Y-89500000D01*
X181317500Y-89500000D01*
X181303042Y-89499290D01*
X181288724Y-89497166D01*
X181274683Y-89493649D01*
X181261054Y-89488772D01*
X181247969Y-89482583D01*
X181235553Y-89475142D01*
X181223927Y-89466519D01*
X181213202Y-89456798D01*
X181203481Y-89446073D01*
X181194858Y-89434447D01*
X181187417Y-89422031D01*
X181181228Y-89408946D01*
X181176351Y-89395317D01*
X181172834Y-89381276D01*
X181170710Y-89366958D01*
X181170000Y-89352500D01*
X181170000Y-89057500D01*
X181170710Y-89043042D01*
X181172834Y-89028724D01*
X181176351Y-89014683D01*
X181181228Y-89001054D01*
X181187417Y-88987969D01*
X181194858Y-88975553D01*
X181203481Y-88963927D01*
X181213202Y-88953202D01*
X181223927Y-88943481D01*
X181235553Y-88934858D01*
X181247969Y-88927417D01*
X181261054Y-88921228D01*
X181274683Y-88916351D01*
X181288724Y-88912834D01*
X181303042Y-88910710D01*
X181317500Y-88910000D01*
X181662500Y-88910000D01*
X181676958Y-88910710D01*
X181676958Y-88910710D01*
G37*
D18*
X181490000Y-89205000D03*
D17*
G36*
X190456958Y-87550710D02*
G01*
X190471276Y-87552834D01*
X190485317Y-87556351D01*
X190498946Y-87561228D01*
X190512031Y-87567417D01*
X190524447Y-87574858D01*
X190536073Y-87583481D01*
X190546798Y-87593202D01*
X190556519Y-87603927D01*
X190565142Y-87615553D01*
X190572583Y-87627969D01*
X190578772Y-87641054D01*
X190583649Y-87654683D01*
X190587166Y-87668724D01*
X190589290Y-87683042D01*
X190590000Y-87697500D01*
X190590000Y-87992500D01*
X190589290Y-88006958D01*
X190587166Y-88021276D01*
X190583649Y-88035317D01*
X190578772Y-88048946D01*
X190572583Y-88062031D01*
X190565142Y-88074447D01*
X190556519Y-88086073D01*
X190546798Y-88096798D01*
X190536073Y-88106519D01*
X190524447Y-88115142D01*
X190512031Y-88122583D01*
X190498946Y-88128772D01*
X190485317Y-88133649D01*
X190471276Y-88137166D01*
X190456958Y-88139290D01*
X190442500Y-88140000D01*
X190097500Y-88140000D01*
X190083042Y-88139290D01*
X190068724Y-88137166D01*
X190054683Y-88133649D01*
X190041054Y-88128772D01*
X190027969Y-88122583D01*
X190015553Y-88115142D01*
X190003927Y-88106519D01*
X189993202Y-88096798D01*
X189983481Y-88086073D01*
X189974858Y-88074447D01*
X189967417Y-88062031D01*
X189961228Y-88048946D01*
X189956351Y-88035317D01*
X189952834Y-88021276D01*
X189950710Y-88006958D01*
X189950000Y-87992500D01*
X189950000Y-87697500D01*
X189950710Y-87683042D01*
X189952834Y-87668724D01*
X189956351Y-87654683D01*
X189961228Y-87641054D01*
X189967417Y-87627969D01*
X189974858Y-87615553D01*
X189983481Y-87603927D01*
X189993202Y-87593202D01*
X190003927Y-87583481D01*
X190015553Y-87574858D01*
X190027969Y-87567417D01*
X190041054Y-87561228D01*
X190054683Y-87556351D01*
X190068724Y-87552834D01*
X190083042Y-87550710D01*
X190097500Y-87550000D01*
X190442500Y-87550000D01*
X190456958Y-87550710D01*
X190456958Y-87550710D01*
G37*
D18*
X190270000Y-87845000D03*
D17*
G36*
X190456958Y-86580710D02*
G01*
X190471276Y-86582834D01*
X190485317Y-86586351D01*
X190498946Y-86591228D01*
X190512031Y-86597417D01*
X190524447Y-86604858D01*
X190536073Y-86613481D01*
X190546798Y-86623202D01*
X190556519Y-86633927D01*
X190565142Y-86645553D01*
X190572583Y-86657969D01*
X190578772Y-86671054D01*
X190583649Y-86684683D01*
X190587166Y-86698724D01*
X190589290Y-86713042D01*
X190590000Y-86727500D01*
X190590000Y-87022500D01*
X190589290Y-87036958D01*
X190587166Y-87051276D01*
X190583649Y-87065317D01*
X190578772Y-87078946D01*
X190572583Y-87092031D01*
X190565142Y-87104447D01*
X190556519Y-87116073D01*
X190546798Y-87126798D01*
X190536073Y-87136519D01*
X190524447Y-87145142D01*
X190512031Y-87152583D01*
X190498946Y-87158772D01*
X190485317Y-87163649D01*
X190471276Y-87167166D01*
X190456958Y-87169290D01*
X190442500Y-87170000D01*
X190097500Y-87170000D01*
X190083042Y-87169290D01*
X190068724Y-87167166D01*
X190054683Y-87163649D01*
X190041054Y-87158772D01*
X190027969Y-87152583D01*
X190015553Y-87145142D01*
X190003927Y-87136519D01*
X189993202Y-87126798D01*
X189983481Y-87116073D01*
X189974858Y-87104447D01*
X189967417Y-87092031D01*
X189961228Y-87078946D01*
X189956351Y-87065317D01*
X189952834Y-87051276D01*
X189950710Y-87036958D01*
X189950000Y-87022500D01*
X189950000Y-86727500D01*
X189950710Y-86713042D01*
X189952834Y-86698724D01*
X189956351Y-86684683D01*
X189961228Y-86671054D01*
X189967417Y-86657969D01*
X189974858Y-86645553D01*
X189983481Y-86633927D01*
X189993202Y-86623202D01*
X190003927Y-86613481D01*
X190015553Y-86604858D01*
X190027969Y-86597417D01*
X190041054Y-86591228D01*
X190054683Y-86586351D01*
X190068724Y-86582834D01*
X190083042Y-86580710D01*
X190097500Y-86580000D01*
X190442500Y-86580000D01*
X190456958Y-86580710D01*
X190456958Y-86580710D01*
G37*
D18*
X190270000Y-86875000D03*
D17*
G36*
X186576958Y-79290710D02*
G01*
X186591276Y-79292834D01*
X186605317Y-79296351D01*
X186618946Y-79301228D01*
X186632031Y-79307417D01*
X186644447Y-79314858D01*
X186656073Y-79323481D01*
X186666798Y-79333202D01*
X186676519Y-79343927D01*
X186685142Y-79355553D01*
X186692583Y-79367969D01*
X186698772Y-79381054D01*
X186703649Y-79394683D01*
X186707166Y-79408724D01*
X186709290Y-79423042D01*
X186710000Y-79437500D01*
X186710000Y-79732500D01*
X186709290Y-79746958D01*
X186707166Y-79761276D01*
X186703649Y-79775317D01*
X186698772Y-79788946D01*
X186692583Y-79802031D01*
X186685142Y-79814447D01*
X186676519Y-79826073D01*
X186666798Y-79836798D01*
X186656073Y-79846519D01*
X186644447Y-79855142D01*
X186632031Y-79862583D01*
X186618946Y-79868772D01*
X186605317Y-79873649D01*
X186591276Y-79877166D01*
X186576958Y-79879290D01*
X186562500Y-79880000D01*
X186217500Y-79880000D01*
X186203042Y-79879290D01*
X186188724Y-79877166D01*
X186174683Y-79873649D01*
X186161054Y-79868772D01*
X186147969Y-79862583D01*
X186135553Y-79855142D01*
X186123927Y-79846519D01*
X186113202Y-79836798D01*
X186103481Y-79826073D01*
X186094858Y-79814447D01*
X186087417Y-79802031D01*
X186081228Y-79788946D01*
X186076351Y-79775317D01*
X186072834Y-79761276D01*
X186070710Y-79746958D01*
X186070000Y-79732500D01*
X186070000Y-79437500D01*
X186070710Y-79423042D01*
X186072834Y-79408724D01*
X186076351Y-79394683D01*
X186081228Y-79381054D01*
X186087417Y-79367969D01*
X186094858Y-79355553D01*
X186103481Y-79343927D01*
X186113202Y-79333202D01*
X186123927Y-79323481D01*
X186135553Y-79314858D01*
X186147969Y-79307417D01*
X186161054Y-79301228D01*
X186174683Y-79296351D01*
X186188724Y-79292834D01*
X186203042Y-79290710D01*
X186217500Y-79290000D01*
X186562500Y-79290000D01*
X186576958Y-79290710D01*
X186576958Y-79290710D01*
G37*
D18*
X186390000Y-79585000D03*
D17*
G36*
X186576958Y-78320710D02*
G01*
X186591276Y-78322834D01*
X186605317Y-78326351D01*
X186618946Y-78331228D01*
X186632031Y-78337417D01*
X186644447Y-78344858D01*
X186656073Y-78353481D01*
X186666798Y-78363202D01*
X186676519Y-78373927D01*
X186685142Y-78385553D01*
X186692583Y-78397969D01*
X186698772Y-78411054D01*
X186703649Y-78424683D01*
X186707166Y-78438724D01*
X186709290Y-78453042D01*
X186710000Y-78467500D01*
X186710000Y-78762500D01*
X186709290Y-78776958D01*
X186707166Y-78791276D01*
X186703649Y-78805317D01*
X186698772Y-78818946D01*
X186692583Y-78832031D01*
X186685142Y-78844447D01*
X186676519Y-78856073D01*
X186666798Y-78866798D01*
X186656073Y-78876519D01*
X186644447Y-78885142D01*
X186632031Y-78892583D01*
X186618946Y-78898772D01*
X186605317Y-78903649D01*
X186591276Y-78907166D01*
X186576958Y-78909290D01*
X186562500Y-78910000D01*
X186217500Y-78910000D01*
X186203042Y-78909290D01*
X186188724Y-78907166D01*
X186174683Y-78903649D01*
X186161054Y-78898772D01*
X186147969Y-78892583D01*
X186135553Y-78885142D01*
X186123927Y-78876519D01*
X186113202Y-78866798D01*
X186103481Y-78856073D01*
X186094858Y-78844447D01*
X186087417Y-78832031D01*
X186081228Y-78818946D01*
X186076351Y-78805317D01*
X186072834Y-78791276D01*
X186070710Y-78776958D01*
X186070000Y-78762500D01*
X186070000Y-78467500D01*
X186070710Y-78453042D01*
X186072834Y-78438724D01*
X186076351Y-78424683D01*
X186081228Y-78411054D01*
X186087417Y-78397969D01*
X186094858Y-78385553D01*
X186103481Y-78373927D01*
X186113202Y-78363202D01*
X186123927Y-78353481D01*
X186135553Y-78344858D01*
X186147969Y-78337417D01*
X186161054Y-78331228D01*
X186174683Y-78326351D01*
X186188724Y-78322834D01*
X186203042Y-78320710D01*
X186217500Y-78320000D01*
X186562500Y-78320000D01*
X186576958Y-78320710D01*
X186576958Y-78320710D01*
G37*
D18*
X186390000Y-78615000D03*
D17*
G36*
X186576958Y-76210710D02*
G01*
X186591276Y-76212834D01*
X186605317Y-76216351D01*
X186618946Y-76221228D01*
X186632031Y-76227417D01*
X186644447Y-76234858D01*
X186656073Y-76243481D01*
X186666798Y-76253202D01*
X186676519Y-76263927D01*
X186685142Y-76275553D01*
X186692583Y-76287969D01*
X186698772Y-76301054D01*
X186703649Y-76314683D01*
X186707166Y-76328724D01*
X186709290Y-76343042D01*
X186710000Y-76357500D01*
X186710000Y-76652500D01*
X186709290Y-76666958D01*
X186707166Y-76681276D01*
X186703649Y-76695317D01*
X186698772Y-76708946D01*
X186692583Y-76722031D01*
X186685142Y-76734447D01*
X186676519Y-76746073D01*
X186666798Y-76756798D01*
X186656073Y-76766519D01*
X186644447Y-76775142D01*
X186632031Y-76782583D01*
X186618946Y-76788772D01*
X186605317Y-76793649D01*
X186591276Y-76797166D01*
X186576958Y-76799290D01*
X186562500Y-76800000D01*
X186217500Y-76800000D01*
X186203042Y-76799290D01*
X186188724Y-76797166D01*
X186174683Y-76793649D01*
X186161054Y-76788772D01*
X186147969Y-76782583D01*
X186135553Y-76775142D01*
X186123927Y-76766519D01*
X186113202Y-76756798D01*
X186103481Y-76746073D01*
X186094858Y-76734447D01*
X186087417Y-76722031D01*
X186081228Y-76708946D01*
X186076351Y-76695317D01*
X186072834Y-76681276D01*
X186070710Y-76666958D01*
X186070000Y-76652500D01*
X186070000Y-76357500D01*
X186070710Y-76343042D01*
X186072834Y-76328724D01*
X186076351Y-76314683D01*
X186081228Y-76301054D01*
X186087417Y-76287969D01*
X186094858Y-76275553D01*
X186103481Y-76263927D01*
X186113202Y-76253202D01*
X186123927Y-76243481D01*
X186135553Y-76234858D01*
X186147969Y-76227417D01*
X186161054Y-76221228D01*
X186174683Y-76216351D01*
X186188724Y-76212834D01*
X186203042Y-76210710D01*
X186217500Y-76210000D01*
X186562500Y-76210000D01*
X186576958Y-76210710D01*
X186576958Y-76210710D01*
G37*
D18*
X186390000Y-76505000D03*
D17*
G36*
X186576958Y-77180710D02*
G01*
X186591276Y-77182834D01*
X186605317Y-77186351D01*
X186618946Y-77191228D01*
X186632031Y-77197417D01*
X186644447Y-77204858D01*
X186656073Y-77213481D01*
X186666798Y-77223202D01*
X186676519Y-77233927D01*
X186685142Y-77245553D01*
X186692583Y-77257969D01*
X186698772Y-77271054D01*
X186703649Y-77284683D01*
X186707166Y-77298724D01*
X186709290Y-77313042D01*
X186710000Y-77327500D01*
X186710000Y-77622500D01*
X186709290Y-77636958D01*
X186707166Y-77651276D01*
X186703649Y-77665317D01*
X186698772Y-77678946D01*
X186692583Y-77692031D01*
X186685142Y-77704447D01*
X186676519Y-77716073D01*
X186666798Y-77726798D01*
X186656073Y-77736519D01*
X186644447Y-77745142D01*
X186632031Y-77752583D01*
X186618946Y-77758772D01*
X186605317Y-77763649D01*
X186591276Y-77767166D01*
X186576958Y-77769290D01*
X186562500Y-77770000D01*
X186217500Y-77770000D01*
X186203042Y-77769290D01*
X186188724Y-77767166D01*
X186174683Y-77763649D01*
X186161054Y-77758772D01*
X186147969Y-77752583D01*
X186135553Y-77745142D01*
X186123927Y-77736519D01*
X186113202Y-77726798D01*
X186103481Y-77716073D01*
X186094858Y-77704447D01*
X186087417Y-77692031D01*
X186081228Y-77678946D01*
X186076351Y-77665317D01*
X186072834Y-77651276D01*
X186070710Y-77636958D01*
X186070000Y-77622500D01*
X186070000Y-77327500D01*
X186070710Y-77313042D01*
X186072834Y-77298724D01*
X186076351Y-77284683D01*
X186081228Y-77271054D01*
X186087417Y-77257969D01*
X186094858Y-77245553D01*
X186103481Y-77233927D01*
X186113202Y-77223202D01*
X186123927Y-77213481D01*
X186135553Y-77204858D01*
X186147969Y-77197417D01*
X186161054Y-77191228D01*
X186174683Y-77186351D01*
X186188724Y-77182834D01*
X186203042Y-77180710D01*
X186217500Y-77180000D01*
X186562500Y-77180000D01*
X186576958Y-77180710D01*
X186576958Y-77180710D01*
G37*
D18*
X186390000Y-77475000D03*
D17*
G36*
X186416958Y-89630710D02*
G01*
X186431276Y-89632834D01*
X186445317Y-89636351D01*
X186458946Y-89641228D01*
X186472031Y-89647417D01*
X186484447Y-89654858D01*
X186496073Y-89663481D01*
X186506798Y-89673202D01*
X186516519Y-89683927D01*
X186525142Y-89695553D01*
X186532583Y-89707969D01*
X186538772Y-89721054D01*
X186543649Y-89734683D01*
X186547166Y-89748724D01*
X186549290Y-89763042D01*
X186550000Y-89777500D01*
X186550000Y-90122500D01*
X186549290Y-90136958D01*
X186547166Y-90151276D01*
X186543649Y-90165317D01*
X186538772Y-90178946D01*
X186532583Y-90192031D01*
X186525142Y-90204447D01*
X186516519Y-90216073D01*
X186506798Y-90226798D01*
X186496073Y-90236519D01*
X186484447Y-90245142D01*
X186472031Y-90252583D01*
X186458946Y-90258772D01*
X186445317Y-90263649D01*
X186431276Y-90267166D01*
X186416958Y-90269290D01*
X186402500Y-90270000D01*
X186107500Y-90270000D01*
X186093042Y-90269290D01*
X186078724Y-90267166D01*
X186064683Y-90263649D01*
X186051054Y-90258772D01*
X186037969Y-90252583D01*
X186025553Y-90245142D01*
X186013927Y-90236519D01*
X186003202Y-90226798D01*
X185993481Y-90216073D01*
X185984858Y-90204447D01*
X185977417Y-90192031D01*
X185971228Y-90178946D01*
X185966351Y-90165317D01*
X185962834Y-90151276D01*
X185960710Y-90136958D01*
X185960000Y-90122500D01*
X185960000Y-89777500D01*
X185960710Y-89763042D01*
X185962834Y-89748724D01*
X185966351Y-89734683D01*
X185971228Y-89721054D01*
X185977417Y-89707969D01*
X185984858Y-89695553D01*
X185993481Y-89683927D01*
X186003202Y-89673202D01*
X186013927Y-89663481D01*
X186025553Y-89654858D01*
X186037969Y-89647417D01*
X186051054Y-89641228D01*
X186064683Y-89636351D01*
X186078724Y-89632834D01*
X186093042Y-89630710D01*
X186107500Y-89630000D01*
X186402500Y-89630000D01*
X186416958Y-89630710D01*
X186416958Y-89630710D01*
G37*
D18*
X186255000Y-89950000D03*
D17*
G36*
X187386958Y-89630710D02*
G01*
X187401276Y-89632834D01*
X187415317Y-89636351D01*
X187428946Y-89641228D01*
X187442031Y-89647417D01*
X187454447Y-89654858D01*
X187466073Y-89663481D01*
X187476798Y-89673202D01*
X187486519Y-89683927D01*
X187495142Y-89695553D01*
X187502583Y-89707969D01*
X187508772Y-89721054D01*
X187513649Y-89734683D01*
X187517166Y-89748724D01*
X187519290Y-89763042D01*
X187520000Y-89777500D01*
X187520000Y-90122500D01*
X187519290Y-90136958D01*
X187517166Y-90151276D01*
X187513649Y-90165317D01*
X187508772Y-90178946D01*
X187502583Y-90192031D01*
X187495142Y-90204447D01*
X187486519Y-90216073D01*
X187476798Y-90226798D01*
X187466073Y-90236519D01*
X187454447Y-90245142D01*
X187442031Y-90252583D01*
X187428946Y-90258772D01*
X187415317Y-90263649D01*
X187401276Y-90267166D01*
X187386958Y-90269290D01*
X187372500Y-90270000D01*
X187077500Y-90270000D01*
X187063042Y-90269290D01*
X187048724Y-90267166D01*
X187034683Y-90263649D01*
X187021054Y-90258772D01*
X187007969Y-90252583D01*
X186995553Y-90245142D01*
X186983927Y-90236519D01*
X186973202Y-90226798D01*
X186963481Y-90216073D01*
X186954858Y-90204447D01*
X186947417Y-90192031D01*
X186941228Y-90178946D01*
X186936351Y-90165317D01*
X186932834Y-90151276D01*
X186930710Y-90136958D01*
X186930000Y-90122500D01*
X186930000Y-89777500D01*
X186930710Y-89763042D01*
X186932834Y-89748724D01*
X186936351Y-89734683D01*
X186941228Y-89721054D01*
X186947417Y-89707969D01*
X186954858Y-89695553D01*
X186963481Y-89683927D01*
X186973202Y-89673202D01*
X186983927Y-89663481D01*
X186995553Y-89654858D01*
X187007969Y-89647417D01*
X187021054Y-89641228D01*
X187034683Y-89636351D01*
X187048724Y-89632834D01*
X187063042Y-89630710D01*
X187077500Y-89630000D01*
X187372500Y-89630000D01*
X187386958Y-89630710D01*
X187386958Y-89630710D01*
G37*
D18*
X187225000Y-89950000D03*
D17*
G36*
X185656958Y-86860710D02*
G01*
X185671276Y-86862834D01*
X185685317Y-86866351D01*
X185698946Y-86871228D01*
X185712031Y-86877417D01*
X185724447Y-86884858D01*
X185736073Y-86893481D01*
X185746798Y-86903202D01*
X185756519Y-86913927D01*
X185765142Y-86925553D01*
X185772583Y-86937969D01*
X185778772Y-86951054D01*
X185783649Y-86964683D01*
X185787166Y-86978724D01*
X185789290Y-86993042D01*
X185790000Y-87007500D01*
X185790000Y-87352500D01*
X185789290Y-87366958D01*
X185787166Y-87381276D01*
X185783649Y-87395317D01*
X185778772Y-87408946D01*
X185772583Y-87422031D01*
X185765142Y-87434447D01*
X185756519Y-87446073D01*
X185746798Y-87456798D01*
X185736073Y-87466519D01*
X185724447Y-87475142D01*
X185712031Y-87482583D01*
X185698946Y-87488772D01*
X185685317Y-87493649D01*
X185671276Y-87497166D01*
X185656958Y-87499290D01*
X185642500Y-87500000D01*
X185347500Y-87500000D01*
X185333042Y-87499290D01*
X185318724Y-87497166D01*
X185304683Y-87493649D01*
X185291054Y-87488772D01*
X185277969Y-87482583D01*
X185265553Y-87475142D01*
X185253927Y-87466519D01*
X185243202Y-87456798D01*
X185233481Y-87446073D01*
X185224858Y-87434447D01*
X185217417Y-87422031D01*
X185211228Y-87408946D01*
X185206351Y-87395317D01*
X185202834Y-87381276D01*
X185200710Y-87366958D01*
X185200000Y-87352500D01*
X185200000Y-87007500D01*
X185200710Y-86993042D01*
X185202834Y-86978724D01*
X185206351Y-86964683D01*
X185211228Y-86951054D01*
X185217417Y-86937969D01*
X185224858Y-86925553D01*
X185233481Y-86913927D01*
X185243202Y-86903202D01*
X185253927Y-86893481D01*
X185265553Y-86884858D01*
X185277969Y-86877417D01*
X185291054Y-86871228D01*
X185304683Y-86866351D01*
X185318724Y-86862834D01*
X185333042Y-86860710D01*
X185347500Y-86860000D01*
X185642500Y-86860000D01*
X185656958Y-86860710D01*
X185656958Y-86860710D01*
G37*
D18*
X185495000Y-87180000D03*
D17*
G36*
X184686958Y-86860710D02*
G01*
X184701276Y-86862834D01*
X184715317Y-86866351D01*
X184728946Y-86871228D01*
X184742031Y-86877417D01*
X184754447Y-86884858D01*
X184766073Y-86893481D01*
X184776798Y-86903202D01*
X184786519Y-86913927D01*
X184795142Y-86925553D01*
X184802583Y-86937969D01*
X184808772Y-86951054D01*
X184813649Y-86964683D01*
X184817166Y-86978724D01*
X184819290Y-86993042D01*
X184820000Y-87007500D01*
X184820000Y-87352500D01*
X184819290Y-87366958D01*
X184817166Y-87381276D01*
X184813649Y-87395317D01*
X184808772Y-87408946D01*
X184802583Y-87422031D01*
X184795142Y-87434447D01*
X184786519Y-87446073D01*
X184776798Y-87456798D01*
X184766073Y-87466519D01*
X184754447Y-87475142D01*
X184742031Y-87482583D01*
X184728946Y-87488772D01*
X184715317Y-87493649D01*
X184701276Y-87497166D01*
X184686958Y-87499290D01*
X184672500Y-87500000D01*
X184377500Y-87500000D01*
X184363042Y-87499290D01*
X184348724Y-87497166D01*
X184334683Y-87493649D01*
X184321054Y-87488772D01*
X184307969Y-87482583D01*
X184295553Y-87475142D01*
X184283927Y-87466519D01*
X184273202Y-87456798D01*
X184263481Y-87446073D01*
X184254858Y-87434447D01*
X184247417Y-87422031D01*
X184241228Y-87408946D01*
X184236351Y-87395317D01*
X184232834Y-87381276D01*
X184230710Y-87366958D01*
X184230000Y-87352500D01*
X184230000Y-87007500D01*
X184230710Y-86993042D01*
X184232834Y-86978724D01*
X184236351Y-86964683D01*
X184241228Y-86951054D01*
X184247417Y-86937969D01*
X184254858Y-86925553D01*
X184263481Y-86913927D01*
X184273202Y-86903202D01*
X184283927Y-86893481D01*
X184295553Y-86884858D01*
X184307969Y-86877417D01*
X184321054Y-86871228D01*
X184334683Y-86866351D01*
X184348724Y-86862834D01*
X184363042Y-86860710D01*
X184377500Y-86860000D01*
X184672500Y-86860000D01*
X184686958Y-86860710D01*
X184686958Y-86860710D01*
G37*
D18*
X184525000Y-87180000D03*
D17*
G36*
X102136958Y-91400710D02*
G01*
X102151276Y-91402834D01*
X102165317Y-91406351D01*
X102178946Y-91411228D01*
X102192031Y-91417417D01*
X102204447Y-91424858D01*
X102216073Y-91433481D01*
X102226798Y-91443202D01*
X102236519Y-91453927D01*
X102245142Y-91465553D01*
X102252583Y-91477969D01*
X102258772Y-91491054D01*
X102263649Y-91504683D01*
X102267166Y-91518724D01*
X102269290Y-91533042D01*
X102270000Y-91547500D01*
X102270000Y-91842500D01*
X102269290Y-91856958D01*
X102267166Y-91871276D01*
X102263649Y-91885317D01*
X102258772Y-91898946D01*
X102252583Y-91912031D01*
X102245142Y-91924447D01*
X102236519Y-91936073D01*
X102226798Y-91946798D01*
X102216073Y-91956519D01*
X102204447Y-91965142D01*
X102192031Y-91972583D01*
X102178946Y-91978772D01*
X102165317Y-91983649D01*
X102151276Y-91987166D01*
X102136958Y-91989290D01*
X102122500Y-91990000D01*
X101777500Y-91990000D01*
X101763042Y-91989290D01*
X101748724Y-91987166D01*
X101734683Y-91983649D01*
X101721054Y-91978772D01*
X101707969Y-91972583D01*
X101695553Y-91965142D01*
X101683927Y-91956519D01*
X101673202Y-91946798D01*
X101663481Y-91936073D01*
X101654858Y-91924447D01*
X101647417Y-91912031D01*
X101641228Y-91898946D01*
X101636351Y-91885317D01*
X101632834Y-91871276D01*
X101630710Y-91856958D01*
X101630000Y-91842500D01*
X101630000Y-91547500D01*
X101630710Y-91533042D01*
X101632834Y-91518724D01*
X101636351Y-91504683D01*
X101641228Y-91491054D01*
X101647417Y-91477969D01*
X101654858Y-91465553D01*
X101663481Y-91453927D01*
X101673202Y-91443202D01*
X101683927Y-91433481D01*
X101695553Y-91424858D01*
X101707969Y-91417417D01*
X101721054Y-91411228D01*
X101734683Y-91406351D01*
X101748724Y-91402834D01*
X101763042Y-91400710D01*
X101777500Y-91400000D01*
X102122500Y-91400000D01*
X102136958Y-91400710D01*
X102136958Y-91400710D01*
G37*
D18*
X101950000Y-91695000D03*
D17*
G36*
X102136958Y-90430710D02*
G01*
X102151276Y-90432834D01*
X102165317Y-90436351D01*
X102178946Y-90441228D01*
X102192031Y-90447417D01*
X102204447Y-90454858D01*
X102216073Y-90463481D01*
X102226798Y-90473202D01*
X102236519Y-90483927D01*
X102245142Y-90495553D01*
X102252583Y-90507969D01*
X102258772Y-90521054D01*
X102263649Y-90534683D01*
X102267166Y-90548724D01*
X102269290Y-90563042D01*
X102270000Y-90577500D01*
X102270000Y-90872500D01*
X102269290Y-90886958D01*
X102267166Y-90901276D01*
X102263649Y-90915317D01*
X102258772Y-90928946D01*
X102252583Y-90942031D01*
X102245142Y-90954447D01*
X102236519Y-90966073D01*
X102226798Y-90976798D01*
X102216073Y-90986519D01*
X102204447Y-90995142D01*
X102192031Y-91002583D01*
X102178946Y-91008772D01*
X102165317Y-91013649D01*
X102151276Y-91017166D01*
X102136958Y-91019290D01*
X102122500Y-91020000D01*
X101777500Y-91020000D01*
X101763042Y-91019290D01*
X101748724Y-91017166D01*
X101734683Y-91013649D01*
X101721054Y-91008772D01*
X101707969Y-91002583D01*
X101695553Y-90995142D01*
X101683927Y-90986519D01*
X101673202Y-90976798D01*
X101663481Y-90966073D01*
X101654858Y-90954447D01*
X101647417Y-90942031D01*
X101641228Y-90928946D01*
X101636351Y-90915317D01*
X101632834Y-90901276D01*
X101630710Y-90886958D01*
X101630000Y-90872500D01*
X101630000Y-90577500D01*
X101630710Y-90563042D01*
X101632834Y-90548724D01*
X101636351Y-90534683D01*
X101641228Y-90521054D01*
X101647417Y-90507969D01*
X101654858Y-90495553D01*
X101663481Y-90483927D01*
X101673202Y-90473202D01*
X101683927Y-90463481D01*
X101695553Y-90454858D01*
X101707969Y-90447417D01*
X101721054Y-90441228D01*
X101734683Y-90436351D01*
X101748724Y-90432834D01*
X101763042Y-90430710D01*
X101777500Y-90430000D01*
X102122500Y-90430000D01*
X102136958Y-90430710D01*
X102136958Y-90430710D01*
G37*
D18*
X101950000Y-90725000D03*
D17*
G36*
X194856958Y-90270710D02*
G01*
X194871276Y-90272834D01*
X194885317Y-90276351D01*
X194898946Y-90281228D01*
X194912031Y-90287417D01*
X194924447Y-90294858D01*
X194936073Y-90303481D01*
X194946798Y-90313202D01*
X194956519Y-90323927D01*
X194965142Y-90335553D01*
X194972583Y-90347969D01*
X194978772Y-90361054D01*
X194983649Y-90374683D01*
X194987166Y-90388724D01*
X194989290Y-90403042D01*
X194990000Y-90417500D01*
X194990000Y-90712500D01*
X194989290Y-90726958D01*
X194987166Y-90741276D01*
X194983649Y-90755317D01*
X194978772Y-90768946D01*
X194972583Y-90782031D01*
X194965142Y-90794447D01*
X194956519Y-90806073D01*
X194946798Y-90816798D01*
X194936073Y-90826519D01*
X194924447Y-90835142D01*
X194912031Y-90842583D01*
X194898946Y-90848772D01*
X194885317Y-90853649D01*
X194871276Y-90857166D01*
X194856958Y-90859290D01*
X194842500Y-90860000D01*
X194497500Y-90860000D01*
X194483042Y-90859290D01*
X194468724Y-90857166D01*
X194454683Y-90853649D01*
X194441054Y-90848772D01*
X194427969Y-90842583D01*
X194415553Y-90835142D01*
X194403927Y-90826519D01*
X194393202Y-90816798D01*
X194383481Y-90806073D01*
X194374858Y-90794447D01*
X194367417Y-90782031D01*
X194361228Y-90768946D01*
X194356351Y-90755317D01*
X194352834Y-90741276D01*
X194350710Y-90726958D01*
X194350000Y-90712500D01*
X194350000Y-90417500D01*
X194350710Y-90403042D01*
X194352834Y-90388724D01*
X194356351Y-90374683D01*
X194361228Y-90361054D01*
X194367417Y-90347969D01*
X194374858Y-90335553D01*
X194383481Y-90323927D01*
X194393202Y-90313202D01*
X194403927Y-90303481D01*
X194415553Y-90294858D01*
X194427969Y-90287417D01*
X194441054Y-90281228D01*
X194454683Y-90276351D01*
X194468724Y-90272834D01*
X194483042Y-90270710D01*
X194497500Y-90270000D01*
X194842500Y-90270000D01*
X194856958Y-90270710D01*
X194856958Y-90270710D01*
G37*
D18*
X194670000Y-90565000D03*
D17*
G36*
X194856958Y-91240710D02*
G01*
X194871276Y-91242834D01*
X194885317Y-91246351D01*
X194898946Y-91251228D01*
X194912031Y-91257417D01*
X194924447Y-91264858D01*
X194936073Y-91273481D01*
X194946798Y-91283202D01*
X194956519Y-91293927D01*
X194965142Y-91305553D01*
X194972583Y-91317969D01*
X194978772Y-91331054D01*
X194983649Y-91344683D01*
X194987166Y-91358724D01*
X194989290Y-91373042D01*
X194990000Y-91387500D01*
X194990000Y-91682500D01*
X194989290Y-91696958D01*
X194987166Y-91711276D01*
X194983649Y-91725317D01*
X194978772Y-91738946D01*
X194972583Y-91752031D01*
X194965142Y-91764447D01*
X194956519Y-91776073D01*
X194946798Y-91786798D01*
X194936073Y-91796519D01*
X194924447Y-91805142D01*
X194912031Y-91812583D01*
X194898946Y-91818772D01*
X194885317Y-91823649D01*
X194871276Y-91827166D01*
X194856958Y-91829290D01*
X194842500Y-91830000D01*
X194497500Y-91830000D01*
X194483042Y-91829290D01*
X194468724Y-91827166D01*
X194454683Y-91823649D01*
X194441054Y-91818772D01*
X194427969Y-91812583D01*
X194415553Y-91805142D01*
X194403927Y-91796519D01*
X194393202Y-91786798D01*
X194383481Y-91776073D01*
X194374858Y-91764447D01*
X194367417Y-91752031D01*
X194361228Y-91738946D01*
X194356351Y-91725317D01*
X194352834Y-91711276D01*
X194350710Y-91696958D01*
X194350000Y-91682500D01*
X194350000Y-91387500D01*
X194350710Y-91373042D01*
X194352834Y-91358724D01*
X194356351Y-91344683D01*
X194361228Y-91331054D01*
X194367417Y-91317969D01*
X194374858Y-91305553D01*
X194383481Y-91293927D01*
X194393202Y-91283202D01*
X194403927Y-91273481D01*
X194415553Y-91264858D01*
X194427969Y-91257417D01*
X194441054Y-91251228D01*
X194454683Y-91246351D01*
X194468724Y-91242834D01*
X194483042Y-91240710D01*
X194497500Y-91240000D01*
X194842500Y-91240000D01*
X194856958Y-91240710D01*
X194856958Y-91240710D01*
G37*
D18*
X194670000Y-91535000D03*
D17*
G36*
X139176958Y-97580710D02*
G01*
X139191276Y-97582834D01*
X139205317Y-97586351D01*
X139218946Y-97591228D01*
X139232031Y-97597417D01*
X139244447Y-97604858D01*
X139256073Y-97613481D01*
X139266798Y-97623202D01*
X139276519Y-97633927D01*
X139285142Y-97645553D01*
X139292583Y-97657969D01*
X139298772Y-97671054D01*
X139303649Y-97684683D01*
X139307166Y-97698724D01*
X139309290Y-97713042D01*
X139310000Y-97727500D01*
X139310000Y-98022500D01*
X139309290Y-98036958D01*
X139307166Y-98051276D01*
X139303649Y-98065317D01*
X139298772Y-98078946D01*
X139292583Y-98092031D01*
X139285142Y-98104447D01*
X139276519Y-98116073D01*
X139266798Y-98126798D01*
X139256073Y-98136519D01*
X139244447Y-98145142D01*
X139232031Y-98152583D01*
X139218946Y-98158772D01*
X139205317Y-98163649D01*
X139191276Y-98167166D01*
X139176958Y-98169290D01*
X139162500Y-98170000D01*
X138817500Y-98170000D01*
X138803042Y-98169290D01*
X138788724Y-98167166D01*
X138774683Y-98163649D01*
X138761054Y-98158772D01*
X138747969Y-98152583D01*
X138735553Y-98145142D01*
X138723927Y-98136519D01*
X138713202Y-98126798D01*
X138703481Y-98116073D01*
X138694858Y-98104447D01*
X138687417Y-98092031D01*
X138681228Y-98078946D01*
X138676351Y-98065317D01*
X138672834Y-98051276D01*
X138670710Y-98036958D01*
X138670000Y-98022500D01*
X138670000Y-97727500D01*
X138670710Y-97713042D01*
X138672834Y-97698724D01*
X138676351Y-97684683D01*
X138681228Y-97671054D01*
X138687417Y-97657969D01*
X138694858Y-97645553D01*
X138703481Y-97633927D01*
X138713202Y-97623202D01*
X138723927Y-97613481D01*
X138735553Y-97604858D01*
X138747969Y-97597417D01*
X138761054Y-97591228D01*
X138774683Y-97586351D01*
X138788724Y-97582834D01*
X138803042Y-97580710D01*
X138817500Y-97580000D01*
X139162500Y-97580000D01*
X139176958Y-97580710D01*
X139176958Y-97580710D01*
G37*
D18*
X138990000Y-97875000D03*
D17*
G36*
X139176958Y-96610710D02*
G01*
X139191276Y-96612834D01*
X139205317Y-96616351D01*
X139218946Y-96621228D01*
X139232031Y-96627417D01*
X139244447Y-96634858D01*
X139256073Y-96643481D01*
X139266798Y-96653202D01*
X139276519Y-96663927D01*
X139285142Y-96675553D01*
X139292583Y-96687969D01*
X139298772Y-96701054D01*
X139303649Y-96714683D01*
X139307166Y-96728724D01*
X139309290Y-96743042D01*
X139310000Y-96757500D01*
X139310000Y-97052500D01*
X139309290Y-97066958D01*
X139307166Y-97081276D01*
X139303649Y-97095317D01*
X139298772Y-97108946D01*
X139292583Y-97122031D01*
X139285142Y-97134447D01*
X139276519Y-97146073D01*
X139266798Y-97156798D01*
X139256073Y-97166519D01*
X139244447Y-97175142D01*
X139232031Y-97182583D01*
X139218946Y-97188772D01*
X139205317Y-97193649D01*
X139191276Y-97197166D01*
X139176958Y-97199290D01*
X139162500Y-97200000D01*
X138817500Y-97200000D01*
X138803042Y-97199290D01*
X138788724Y-97197166D01*
X138774683Y-97193649D01*
X138761054Y-97188772D01*
X138747969Y-97182583D01*
X138735553Y-97175142D01*
X138723927Y-97166519D01*
X138713202Y-97156798D01*
X138703481Y-97146073D01*
X138694858Y-97134447D01*
X138687417Y-97122031D01*
X138681228Y-97108946D01*
X138676351Y-97095317D01*
X138672834Y-97081276D01*
X138670710Y-97066958D01*
X138670000Y-97052500D01*
X138670000Y-96757500D01*
X138670710Y-96743042D01*
X138672834Y-96728724D01*
X138676351Y-96714683D01*
X138681228Y-96701054D01*
X138687417Y-96687969D01*
X138694858Y-96675553D01*
X138703481Y-96663927D01*
X138713202Y-96653202D01*
X138723927Y-96643481D01*
X138735553Y-96634858D01*
X138747969Y-96627417D01*
X138761054Y-96621228D01*
X138774683Y-96616351D01*
X138788724Y-96612834D01*
X138803042Y-96610710D01*
X138817500Y-96610000D01*
X139162500Y-96610000D01*
X139176958Y-96610710D01*
X139176958Y-96610710D01*
G37*
D18*
X138990000Y-96905000D03*
D17*
G36*
X144136958Y-95370710D02*
G01*
X144151276Y-95372834D01*
X144165317Y-95376351D01*
X144178946Y-95381228D01*
X144192031Y-95387417D01*
X144204447Y-95394858D01*
X144216073Y-95403481D01*
X144226798Y-95413202D01*
X144236519Y-95423927D01*
X144245142Y-95435553D01*
X144252583Y-95447969D01*
X144258772Y-95461054D01*
X144263649Y-95474683D01*
X144267166Y-95488724D01*
X144269290Y-95503042D01*
X144270000Y-95517500D01*
X144270000Y-95862500D01*
X144269290Y-95876958D01*
X144267166Y-95891276D01*
X144263649Y-95905317D01*
X144258772Y-95918946D01*
X144252583Y-95932031D01*
X144245142Y-95944447D01*
X144236519Y-95956073D01*
X144226798Y-95966798D01*
X144216073Y-95976519D01*
X144204447Y-95985142D01*
X144192031Y-95992583D01*
X144178946Y-95998772D01*
X144165317Y-96003649D01*
X144151276Y-96007166D01*
X144136958Y-96009290D01*
X144122500Y-96010000D01*
X143827500Y-96010000D01*
X143813042Y-96009290D01*
X143798724Y-96007166D01*
X143784683Y-96003649D01*
X143771054Y-95998772D01*
X143757969Y-95992583D01*
X143745553Y-95985142D01*
X143733927Y-95976519D01*
X143723202Y-95966798D01*
X143713481Y-95956073D01*
X143704858Y-95944447D01*
X143697417Y-95932031D01*
X143691228Y-95918946D01*
X143686351Y-95905317D01*
X143682834Y-95891276D01*
X143680710Y-95876958D01*
X143680000Y-95862500D01*
X143680000Y-95517500D01*
X143680710Y-95503042D01*
X143682834Y-95488724D01*
X143686351Y-95474683D01*
X143691228Y-95461054D01*
X143697417Y-95447969D01*
X143704858Y-95435553D01*
X143713481Y-95423927D01*
X143723202Y-95413202D01*
X143733927Y-95403481D01*
X143745553Y-95394858D01*
X143757969Y-95387417D01*
X143771054Y-95381228D01*
X143784683Y-95376351D01*
X143798724Y-95372834D01*
X143813042Y-95370710D01*
X143827500Y-95370000D01*
X144122500Y-95370000D01*
X144136958Y-95370710D01*
X144136958Y-95370710D01*
G37*
D18*
X143975000Y-95690000D03*
D17*
G36*
X143166958Y-95370710D02*
G01*
X143181276Y-95372834D01*
X143195317Y-95376351D01*
X143208946Y-95381228D01*
X143222031Y-95387417D01*
X143234447Y-95394858D01*
X143246073Y-95403481D01*
X143256798Y-95413202D01*
X143266519Y-95423927D01*
X143275142Y-95435553D01*
X143282583Y-95447969D01*
X143288772Y-95461054D01*
X143293649Y-95474683D01*
X143297166Y-95488724D01*
X143299290Y-95503042D01*
X143300000Y-95517500D01*
X143300000Y-95862500D01*
X143299290Y-95876958D01*
X143297166Y-95891276D01*
X143293649Y-95905317D01*
X143288772Y-95918946D01*
X143282583Y-95932031D01*
X143275142Y-95944447D01*
X143266519Y-95956073D01*
X143256798Y-95966798D01*
X143246073Y-95976519D01*
X143234447Y-95985142D01*
X143222031Y-95992583D01*
X143208946Y-95998772D01*
X143195317Y-96003649D01*
X143181276Y-96007166D01*
X143166958Y-96009290D01*
X143152500Y-96010000D01*
X142857500Y-96010000D01*
X142843042Y-96009290D01*
X142828724Y-96007166D01*
X142814683Y-96003649D01*
X142801054Y-95998772D01*
X142787969Y-95992583D01*
X142775553Y-95985142D01*
X142763927Y-95976519D01*
X142753202Y-95966798D01*
X142743481Y-95956073D01*
X142734858Y-95944447D01*
X142727417Y-95932031D01*
X142721228Y-95918946D01*
X142716351Y-95905317D01*
X142712834Y-95891276D01*
X142710710Y-95876958D01*
X142710000Y-95862500D01*
X142710000Y-95517500D01*
X142710710Y-95503042D01*
X142712834Y-95488724D01*
X142716351Y-95474683D01*
X142721228Y-95461054D01*
X142727417Y-95447969D01*
X142734858Y-95435553D01*
X142743481Y-95423927D01*
X142753202Y-95413202D01*
X142763927Y-95403481D01*
X142775553Y-95394858D01*
X142787969Y-95387417D01*
X142801054Y-95381228D01*
X142814683Y-95376351D01*
X142828724Y-95372834D01*
X142843042Y-95370710D01*
X142857500Y-95370000D01*
X143152500Y-95370000D01*
X143166958Y-95370710D01*
X143166958Y-95370710D01*
G37*
D18*
X143005000Y-95690000D03*
D17*
G36*
X150716958Y-101640710D02*
G01*
X150731276Y-101642834D01*
X150745317Y-101646351D01*
X150758946Y-101651228D01*
X150772031Y-101657417D01*
X150784447Y-101664858D01*
X150796073Y-101673481D01*
X150806798Y-101683202D01*
X150816519Y-101693927D01*
X150825142Y-101705553D01*
X150832583Y-101717969D01*
X150838772Y-101731054D01*
X150843649Y-101744683D01*
X150847166Y-101758724D01*
X150849290Y-101773042D01*
X150850000Y-101787500D01*
X150850000Y-102132500D01*
X150849290Y-102146958D01*
X150847166Y-102161276D01*
X150843649Y-102175317D01*
X150838772Y-102188946D01*
X150832583Y-102202031D01*
X150825142Y-102214447D01*
X150816519Y-102226073D01*
X150806798Y-102236798D01*
X150796073Y-102246519D01*
X150784447Y-102255142D01*
X150772031Y-102262583D01*
X150758946Y-102268772D01*
X150745317Y-102273649D01*
X150731276Y-102277166D01*
X150716958Y-102279290D01*
X150702500Y-102280000D01*
X150407500Y-102280000D01*
X150393042Y-102279290D01*
X150378724Y-102277166D01*
X150364683Y-102273649D01*
X150351054Y-102268772D01*
X150337969Y-102262583D01*
X150325553Y-102255142D01*
X150313927Y-102246519D01*
X150303202Y-102236798D01*
X150293481Y-102226073D01*
X150284858Y-102214447D01*
X150277417Y-102202031D01*
X150271228Y-102188946D01*
X150266351Y-102175317D01*
X150262834Y-102161276D01*
X150260710Y-102146958D01*
X150260000Y-102132500D01*
X150260000Y-101787500D01*
X150260710Y-101773042D01*
X150262834Y-101758724D01*
X150266351Y-101744683D01*
X150271228Y-101731054D01*
X150277417Y-101717969D01*
X150284858Y-101705553D01*
X150293481Y-101693927D01*
X150303202Y-101683202D01*
X150313927Y-101673481D01*
X150325553Y-101664858D01*
X150337969Y-101657417D01*
X150351054Y-101651228D01*
X150364683Y-101646351D01*
X150378724Y-101642834D01*
X150393042Y-101640710D01*
X150407500Y-101640000D01*
X150702500Y-101640000D01*
X150716958Y-101640710D01*
X150716958Y-101640710D01*
G37*
D18*
X150555000Y-101960000D03*
D17*
G36*
X149746958Y-101640710D02*
G01*
X149761276Y-101642834D01*
X149775317Y-101646351D01*
X149788946Y-101651228D01*
X149802031Y-101657417D01*
X149814447Y-101664858D01*
X149826073Y-101673481D01*
X149836798Y-101683202D01*
X149846519Y-101693927D01*
X149855142Y-101705553D01*
X149862583Y-101717969D01*
X149868772Y-101731054D01*
X149873649Y-101744683D01*
X149877166Y-101758724D01*
X149879290Y-101773042D01*
X149880000Y-101787500D01*
X149880000Y-102132500D01*
X149879290Y-102146958D01*
X149877166Y-102161276D01*
X149873649Y-102175317D01*
X149868772Y-102188946D01*
X149862583Y-102202031D01*
X149855142Y-102214447D01*
X149846519Y-102226073D01*
X149836798Y-102236798D01*
X149826073Y-102246519D01*
X149814447Y-102255142D01*
X149802031Y-102262583D01*
X149788946Y-102268772D01*
X149775317Y-102273649D01*
X149761276Y-102277166D01*
X149746958Y-102279290D01*
X149732500Y-102280000D01*
X149437500Y-102280000D01*
X149423042Y-102279290D01*
X149408724Y-102277166D01*
X149394683Y-102273649D01*
X149381054Y-102268772D01*
X149367969Y-102262583D01*
X149355553Y-102255142D01*
X149343927Y-102246519D01*
X149333202Y-102236798D01*
X149323481Y-102226073D01*
X149314858Y-102214447D01*
X149307417Y-102202031D01*
X149301228Y-102188946D01*
X149296351Y-102175317D01*
X149292834Y-102161276D01*
X149290710Y-102146958D01*
X149290000Y-102132500D01*
X149290000Y-101787500D01*
X149290710Y-101773042D01*
X149292834Y-101758724D01*
X149296351Y-101744683D01*
X149301228Y-101731054D01*
X149307417Y-101717969D01*
X149314858Y-101705553D01*
X149323481Y-101693927D01*
X149333202Y-101683202D01*
X149343927Y-101673481D01*
X149355553Y-101664858D01*
X149367969Y-101657417D01*
X149381054Y-101651228D01*
X149394683Y-101646351D01*
X149408724Y-101642834D01*
X149423042Y-101640710D01*
X149437500Y-101640000D01*
X149732500Y-101640000D01*
X149746958Y-101640710D01*
X149746958Y-101640710D01*
G37*
D18*
X149585000Y-101960000D03*
D17*
G36*
X125736958Y-110210710D02*
G01*
X125751276Y-110212834D01*
X125765317Y-110216351D01*
X125778946Y-110221228D01*
X125792031Y-110227417D01*
X125804447Y-110234858D01*
X125816073Y-110243481D01*
X125826798Y-110253202D01*
X125836519Y-110263927D01*
X125845142Y-110275553D01*
X125852583Y-110287969D01*
X125858772Y-110301054D01*
X125863649Y-110314683D01*
X125867166Y-110328724D01*
X125869290Y-110343042D01*
X125870000Y-110357500D01*
X125870000Y-110702500D01*
X125869290Y-110716958D01*
X125867166Y-110731276D01*
X125863649Y-110745317D01*
X125858772Y-110758946D01*
X125852583Y-110772031D01*
X125845142Y-110784447D01*
X125836519Y-110796073D01*
X125826798Y-110806798D01*
X125816073Y-110816519D01*
X125804447Y-110825142D01*
X125792031Y-110832583D01*
X125778946Y-110838772D01*
X125765317Y-110843649D01*
X125751276Y-110847166D01*
X125736958Y-110849290D01*
X125722500Y-110850000D01*
X125427500Y-110850000D01*
X125413042Y-110849290D01*
X125398724Y-110847166D01*
X125384683Y-110843649D01*
X125371054Y-110838772D01*
X125357969Y-110832583D01*
X125345553Y-110825142D01*
X125333927Y-110816519D01*
X125323202Y-110806798D01*
X125313481Y-110796073D01*
X125304858Y-110784447D01*
X125297417Y-110772031D01*
X125291228Y-110758946D01*
X125286351Y-110745317D01*
X125282834Y-110731276D01*
X125280710Y-110716958D01*
X125280000Y-110702500D01*
X125280000Y-110357500D01*
X125280710Y-110343042D01*
X125282834Y-110328724D01*
X125286351Y-110314683D01*
X125291228Y-110301054D01*
X125297417Y-110287969D01*
X125304858Y-110275553D01*
X125313481Y-110263927D01*
X125323202Y-110253202D01*
X125333927Y-110243481D01*
X125345553Y-110234858D01*
X125357969Y-110227417D01*
X125371054Y-110221228D01*
X125384683Y-110216351D01*
X125398724Y-110212834D01*
X125413042Y-110210710D01*
X125427500Y-110210000D01*
X125722500Y-110210000D01*
X125736958Y-110210710D01*
X125736958Y-110210710D01*
G37*
D18*
X125575000Y-110530000D03*
D17*
G36*
X124766958Y-110210710D02*
G01*
X124781276Y-110212834D01*
X124795317Y-110216351D01*
X124808946Y-110221228D01*
X124822031Y-110227417D01*
X124834447Y-110234858D01*
X124846073Y-110243481D01*
X124856798Y-110253202D01*
X124866519Y-110263927D01*
X124875142Y-110275553D01*
X124882583Y-110287969D01*
X124888772Y-110301054D01*
X124893649Y-110314683D01*
X124897166Y-110328724D01*
X124899290Y-110343042D01*
X124900000Y-110357500D01*
X124900000Y-110702500D01*
X124899290Y-110716958D01*
X124897166Y-110731276D01*
X124893649Y-110745317D01*
X124888772Y-110758946D01*
X124882583Y-110772031D01*
X124875142Y-110784447D01*
X124866519Y-110796073D01*
X124856798Y-110806798D01*
X124846073Y-110816519D01*
X124834447Y-110825142D01*
X124822031Y-110832583D01*
X124808946Y-110838772D01*
X124795317Y-110843649D01*
X124781276Y-110847166D01*
X124766958Y-110849290D01*
X124752500Y-110850000D01*
X124457500Y-110850000D01*
X124443042Y-110849290D01*
X124428724Y-110847166D01*
X124414683Y-110843649D01*
X124401054Y-110838772D01*
X124387969Y-110832583D01*
X124375553Y-110825142D01*
X124363927Y-110816519D01*
X124353202Y-110806798D01*
X124343481Y-110796073D01*
X124334858Y-110784447D01*
X124327417Y-110772031D01*
X124321228Y-110758946D01*
X124316351Y-110745317D01*
X124312834Y-110731276D01*
X124310710Y-110716958D01*
X124310000Y-110702500D01*
X124310000Y-110357500D01*
X124310710Y-110343042D01*
X124312834Y-110328724D01*
X124316351Y-110314683D01*
X124321228Y-110301054D01*
X124327417Y-110287969D01*
X124334858Y-110275553D01*
X124343481Y-110263927D01*
X124353202Y-110253202D01*
X124363927Y-110243481D01*
X124375553Y-110234858D01*
X124387969Y-110227417D01*
X124401054Y-110221228D01*
X124414683Y-110216351D01*
X124428724Y-110212834D01*
X124443042Y-110210710D01*
X124457500Y-110210000D01*
X124752500Y-110210000D01*
X124766958Y-110210710D01*
X124766958Y-110210710D01*
G37*
D18*
X124605000Y-110530000D03*
D17*
G36*
X143806958Y-110210710D02*
G01*
X143821276Y-110212834D01*
X143835317Y-110216351D01*
X143848946Y-110221228D01*
X143862031Y-110227417D01*
X143874447Y-110234858D01*
X143886073Y-110243481D01*
X143896798Y-110253202D01*
X143906519Y-110263927D01*
X143915142Y-110275553D01*
X143922583Y-110287969D01*
X143928772Y-110301054D01*
X143933649Y-110314683D01*
X143937166Y-110328724D01*
X143939290Y-110343042D01*
X143940000Y-110357500D01*
X143940000Y-110702500D01*
X143939290Y-110716958D01*
X143937166Y-110731276D01*
X143933649Y-110745317D01*
X143928772Y-110758946D01*
X143922583Y-110772031D01*
X143915142Y-110784447D01*
X143906519Y-110796073D01*
X143896798Y-110806798D01*
X143886073Y-110816519D01*
X143874447Y-110825142D01*
X143862031Y-110832583D01*
X143848946Y-110838772D01*
X143835317Y-110843649D01*
X143821276Y-110847166D01*
X143806958Y-110849290D01*
X143792500Y-110850000D01*
X143497500Y-110850000D01*
X143483042Y-110849290D01*
X143468724Y-110847166D01*
X143454683Y-110843649D01*
X143441054Y-110838772D01*
X143427969Y-110832583D01*
X143415553Y-110825142D01*
X143403927Y-110816519D01*
X143393202Y-110806798D01*
X143383481Y-110796073D01*
X143374858Y-110784447D01*
X143367417Y-110772031D01*
X143361228Y-110758946D01*
X143356351Y-110745317D01*
X143352834Y-110731276D01*
X143350710Y-110716958D01*
X143350000Y-110702500D01*
X143350000Y-110357500D01*
X143350710Y-110343042D01*
X143352834Y-110328724D01*
X143356351Y-110314683D01*
X143361228Y-110301054D01*
X143367417Y-110287969D01*
X143374858Y-110275553D01*
X143383481Y-110263927D01*
X143393202Y-110253202D01*
X143403927Y-110243481D01*
X143415553Y-110234858D01*
X143427969Y-110227417D01*
X143441054Y-110221228D01*
X143454683Y-110216351D01*
X143468724Y-110212834D01*
X143483042Y-110210710D01*
X143497500Y-110210000D01*
X143792500Y-110210000D01*
X143806958Y-110210710D01*
X143806958Y-110210710D01*
G37*
D18*
X143645000Y-110530000D03*
D17*
G36*
X144776958Y-110210710D02*
G01*
X144791276Y-110212834D01*
X144805317Y-110216351D01*
X144818946Y-110221228D01*
X144832031Y-110227417D01*
X144844447Y-110234858D01*
X144856073Y-110243481D01*
X144866798Y-110253202D01*
X144876519Y-110263927D01*
X144885142Y-110275553D01*
X144892583Y-110287969D01*
X144898772Y-110301054D01*
X144903649Y-110314683D01*
X144907166Y-110328724D01*
X144909290Y-110343042D01*
X144910000Y-110357500D01*
X144910000Y-110702500D01*
X144909290Y-110716958D01*
X144907166Y-110731276D01*
X144903649Y-110745317D01*
X144898772Y-110758946D01*
X144892583Y-110772031D01*
X144885142Y-110784447D01*
X144876519Y-110796073D01*
X144866798Y-110806798D01*
X144856073Y-110816519D01*
X144844447Y-110825142D01*
X144832031Y-110832583D01*
X144818946Y-110838772D01*
X144805317Y-110843649D01*
X144791276Y-110847166D01*
X144776958Y-110849290D01*
X144762500Y-110850000D01*
X144467500Y-110850000D01*
X144453042Y-110849290D01*
X144438724Y-110847166D01*
X144424683Y-110843649D01*
X144411054Y-110838772D01*
X144397969Y-110832583D01*
X144385553Y-110825142D01*
X144373927Y-110816519D01*
X144363202Y-110806798D01*
X144353481Y-110796073D01*
X144344858Y-110784447D01*
X144337417Y-110772031D01*
X144331228Y-110758946D01*
X144326351Y-110745317D01*
X144322834Y-110731276D01*
X144320710Y-110716958D01*
X144320000Y-110702500D01*
X144320000Y-110357500D01*
X144320710Y-110343042D01*
X144322834Y-110328724D01*
X144326351Y-110314683D01*
X144331228Y-110301054D01*
X144337417Y-110287969D01*
X144344858Y-110275553D01*
X144353481Y-110263927D01*
X144363202Y-110253202D01*
X144373927Y-110243481D01*
X144385553Y-110234858D01*
X144397969Y-110227417D01*
X144411054Y-110221228D01*
X144424683Y-110216351D01*
X144438724Y-110212834D01*
X144453042Y-110210710D01*
X144467500Y-110210000D01*
X144762500Y-110210000D01*
X144776958Y-110210710D01*
X144776958Y-110210710D01*
G37*
D18*
X144615000Y-110530000D03*
D17*
G36*
X163836958Y-110210710D02*
G01*
X163851276Y-110212834D01*
X163865317Y-110216351D01*
X163878946Y-110221228D01*
X163892031Y-110227417D01*
X163904447Y-110234858D01*
X163916073Y-110243481D01*
X163926798Y-110253202D01*
X163936519Y-110263927D01*
X163945142Y-110275553D01*
X163952583Y-110287969D01*
X163958772Y-110301054D01*
X163963649Y-110314683D01*
X163967166Y-110328724D01*
X163969290Y-110343042D01*
X163970000Y-110357500D01*
X163970000Y-110702500D01*
X163969290Y-110716958D01*
X163967166Y-110731276D01*
X163963649Y-110745317D01*
X163958772Y-110758946D01*
X163952583Y-110772031D01*
X163945142Y-110784447D01*
X163936519Y-110796073D01*
X163926798Y-110806798D01*
X163916073Y-110816519D01*
X163904447Y-110825142D01*
X163892031Y-110832583D01*
X163878946Y-110838772D01*
X163865317Y-110843649D01*
X163851276Y-110847166D01*
X163836958Y-110849290D01*
X163822500Y-110850000D01*
X163527500Y-110850000D01*
X163513042Y-110849290D01*
X163498724Y-110847166D01*
X163484683Y-110843649D01*
X163471054Y-110838772D01*
X163457969Y-110832583D01*
X163445553Y-110825142D01*
X163433927Y-110816519D01*
X163423202Y-110806798D01*
X163413481Y-110796073D01*
X163404858Y-110784447D01*
X163397417Y-110772031D01*
X163391228Y-110758946D01*
X163386351Y-110745317D01*
X163382834Y-110731276D01*
X163380710Y-110716958D01*
X163380000Y-110702500D01*
X163380000Y-110357500D01*
X163380710Y-110343042D01*
X163382834Y-110328724D01*
X163386351Y-110314683D01*
X163391228Y-110301054D01*
X163397417Y-110287969D01*
X163404858Y-110275553D01*
X163413481Y-110263927D01*
X163423202Y-110253202D01*
X163433927Y-110243481D01*
X163445553Y-110234858D01*
X163457969Y-110227417D01*
X163471054Y-110221228D01*
X163484683Y-110216351D01*
X163498724Y-110212834D01*
X163513042Y-110210710D01*
X163527500Y-110210000D01*
X163822500Y-110210000D01*
X163836958Y-110210710D01*
X163836958Y-110210710D01*
G37*
D18*
X163675000Y-110530000D03*
D17*
G36*
X162866958Y-110210710D02*
G01*
X162881276Y-110212834D01*
X162895317Y-110216351D01*
X162908946Y-110221228D01*
X162922031Y-110227417D01*
X162934447Y-110234858D01*
X162946073Y-110243481D01*
X162956798Y-110253202D01*
X162966519Y-110263927D01*
X162975142Y-110275553D01*
X162982583Y-110287969D01*
X162988772Y-110301054D01*
X162993649Y-110314683D01*
X162997166Y-110328724D01*
X162999290Y-110343042D01*
X163000000Y-110357500D01*
X163000000Y-110702500D01*
X162999290Y-110716958D01*
X162997166Y-110731276D01*
X162993649Y-110745317D01*
X162988772Y-110758946D01*
X162982583Y-110772031D01*
X162975142Y-110784447D01*
X162966519Y-110796073D01*
X162956798Y-110806798D01*
X162946073Y-110816519D01*
X162934447Y-110825142D01*
X162922031Y-110832583D01*
X162908946Y-110838772D01*
X162895317Y-110843649D01*
X162881276Y-110847166D01*
X162866958Y-110849290D01*
X162852500Y-110850000D01*
X162557500Y-110850000D01*
X162543042Y-110849290D01*
X162528724Y-110847166D01*
X162514683Y-110843649D01*
X162501054Y-110838772D01*
X162487969Y-110832583D01*
X162475553Y-110825142D01*
X162463927Y-110816519D01*
X162453202Y-110806798D01*
X162443481Y-110796073D01*
X162434858Y-110784447D01*
X162427417Y-110772031D01*
X162421228Y-110758946D01*
X162416351Y-110745317D01*
X162412834Y-110731276D01*
X162410710Y-110716958D01*
X162410000Y-110702500D01*
X162410000Y-110357500D01*
X162410710Y-110343042D01*
X162412834Y-110328724D01*
X162416351Y-110314683D01*
X162421228Y-110301054D01*
X162427417Y-110287969D01*
X162434858Y-110275553D01*
X162443481Y-110263927D01*
X162453202Y-110253202D01*
X162463927Y-110243481D01*
X162475553Y-110234858D01*
X162487969Y-110227417D01*
X162501054Y-110221228D01*
X162514683Y-110216351D01*
X162528724Y-110212834D01*
X162543042Y-110210710D01*
X162557500Y-110210000D01*
X162852500Y-110210000D01*
X162866958Y-110210710D01*
X162866958Y-110210710D01*
G37*
D18*
X162705000Y-110530000D03*
D17*
G36*
X181896958Y-110210710D02*
G01*
X181911276Y-110212834D01*
X181925317Y-110216351D01*
X181938946Y-110221228D01*
X181952031Y-110227417D01*
X181964447Y-110234858D01*
X181976073Y-110243481D01*
X181986798Y-110253202D01*
X181996519Y-110263927D01*
X182005142Y-110275553D01*
X182012583Y-110287969D01*
X182018772Y-110301054D01*
X182023649Y-110314683D01*
X182027166Y-110328724D01*
X182029290Y-110343042D01*
X182030000Y-110357500D01*
X182030000Y-110702500D01*
X182029290Y-110716958D01*
X182027166Y-110731276D01*
X182023649Y-110745317D01*
X182018772Y-110758946D01*
X182012583Y-110772031D01*
X182005142Y-110784447D01*
X181996519Y-110796073D01*
X181986798Y-110806798D01*
X181976073Y-110816519D01*
X181964447Y-110825142D01*
X181952031Y-110832583D01*
X181938946Y-110838772D01*
X181925317Y-110843649D01*
X181911276Y-110847166D01*
X181896958Y-110849290D01*
X181882500Y-110850000D01*
X181587500Y-110850000D01*
X181573042Y-110849290D01*
X181558724Y-110847166D01*
X181544683Y-110843649D01*
X181531054Y-110838772D01*
X181517969Y-110832583D01*
X181505553Y-110825142D01*
X181493927Y-110816519D01*
X181483202Y-110806798D01*
X181473481Y-110796073D01*
X181464858Y-110784447D01*
X181457417Y-110772031D01*
X181451228Y-110758946D01*
X181446351Y-110745317D01*
X181442834Y-110731276D01*
X181440710Y-110716958D01*
X181440000Y-110702500D01*
X181440000Y-110357500D01*
X181440710Y-110343042D01*
X181442834Y-110328724D01*
X181446351Y-110314683D01*
X181451228Y-110301054D01*
X181457417Y-110287969D01*
X181464858Y-110275553D01*
X181473481Y-110263927D01*
X181483202Y-110253202D01*
X181493927Y-110243481D01*
X181505553Y-110234858D01*
X181517969Y-110227417D01*
X181531054Y-110221228D01*
X181544683Y-110216351D01*
X181558724Y-110212834D01*
X181573042Y-110210710D01*
X181587500Y-110210000D01*
X181882500Y-110210000D01*
X181896958Y-110210710D01*
X181896958Y-110210710D01*
G37*
D18*
X181735000Y-110530000D03*
D17*
G36*
X182866958Y-110210710D02*
G01*
X182881276Y-110212834D01*
X182895317Y-110216351D01*
X182908946Y-110221228D01*
X182922031Y-110227417D01*
X182934447Y-110234858D01*
X182946073Y-110243481D01*
X182956798Y-110253202D01*
X182966519Y-110263927D01*
X182975142Y-110275553D01*
X182982583Y-110287969D01*
X182988772Y-110301054D01*
X182993649Y-110314683D01*
X182997166Y-110328724D01*
X182999290Y-110343042D01*
X183000000Y-110357500D01*
X183000000Y-110702500D01*
X182999290Y-110716958D01*
X182997166Y-110731276D01*
X182993649Y-110745317D01*
X182988772Y-110758946D01*
X182982583Y-110772031D01*
X182975142Y-110784447D01*
X182966519Y-110796073D01*
X182956798Y-110806798D01*
X182946073Y-110816519D01*
X182934447Y-110825142D01*
X182922031Y-110832583D01*
X182908946Y-110838772D01*
X182895317Y-110843649D01*
X182881276Y-110847166D01*
X182866958Y-110849290D01*
X182852500Y-110850000D01*
X182557500Y-110850000D01*
X182543042Y-110849290D01*
X182528724Y-110847166D01*
X182514683Y-110843649D01*
X182501054Y-110838772D01*
X182487969Y-110832583D01*
X182475553Y-110825142D01*
X182463927Y-110816519D01*
X182453202Y-110806798D01*
X182443481Y-110796073D01*
X182434858Y-110784447D01*
X182427417Y-110772031D01*
X182421228Y-110758946D01*
X182416351Y-110745317D01*
X182412834Y-110731276D01*
X182410710Y-110716958D01*
X182410000Y-110702500D01*
X182410000Y-110357500D01*
X182410710Y-110343042D01*
X182412834Y-110328724D01*
X182416351Y-110314683D01*
X182421228Y-110301054D01*
X182427417Y-110287969D01*
X182434858Y-110275553D01*
X182443481Y-110263927D01*
X182453202Y-110253202D01*
X182463927Y-110243481D01*
X182475553Y-110234858D01*
X182487969Y-110227417D01*
X182501054Y-110221228D01*
X182514683Y-110216351D01*
X182528724Y-110212834D01*
X182543042Y-110210710D01*
X182557500Y-110210000D01*
X182852500Y-110210000D01*
X182866958Y-110210710D01*
X182866958Y-110210710D01*
G37*
D18*
X182705000Y-110530000D03*
D17*
G36*
X149596958Y-92940710D02*
G01*
X149611276Y-92942834D01*
X149625317Y-92946351D01*
X149638946Y-92951228D01*
X149652031Y-92957417D01*
X149664447Y-92964858D01*
X149676073Y-92973481D01*
X149686798Y-92983202D01*
X149696519Y-92993927D01*
X149705142Y-93005553D01*
X149712583Y-93017969D01*
X149718772Y-93031054D01*
X149723649Y-93044683D01*
X149727166Y-93058724D01*
X149729290Y-93073042D01*
X149730000Y-93087500D01*
X149730000Y-93432500D01*
X149729290Y-93446958D01*
X149727166Y-93461276D01*
X149723649Y-93475317D01*
X149718772Y-93488946D01*
X149712583Y-93502031D01*
X149705142Y-93514447D01*
X149696519Y-93526073D01*
X149686798Y-93536798D01*
X149676073Y-93546519D01*
X149664447Y-93555142D01*
X149652031Y-93562583D01*
X149638946Y-93568772D01*
X149625317Y-93573649D01*
X149611276Y-93577166D01*
X149596958Y-93579290D01*
X149582500Y-93580000D01*
X149287500Y-93580000D01*
X149273042Y-93579290D01*
X149258724Y-93577166D01*
X149244683Y-93573649D01*
X149231054Y-93568772D01*
X149217969Y-93562583D01*
X149205553Y-93555142D01*
X149193927Y-93546519D01*
X149183202Y-93536798D01*
X149173481Y-93526073D01*
X149164858Y-93514447D01*
X149157417Y-93502031D01*
X149151228Y-93488946D01*
X149146351Y-93475317D01*
X149142834Y-93461276D01*
X149140710Y-93446958D01*
X149140000Y-93432500D01*
X149140000Y-93087500D01*
X149140710Y-93073042D01*
X149142834Y-93058724D01*
X149146351Y-93044683D01*
X149151228Y-93031054D01*
X149157417Y-93017969D01*
X149164858Y-93005553D01*
X149173481Y-92993927D01*
X149183202Y-92983202D01*
X149193927Y-92973481D01*
X149205553Y-92964858D01*
X149217969Y-92957417D01*
X149231054Y-92951228D01*
X149244683Y-92946351D01*
X149258724Y-92942834D01*
X149273042Y-92940710D01*
X149287500Y-92940000D01*
X149582500Y-92940000D01*
X149596958Y-92940710D01*
X149596958Y-92940710D01*
G37*
D18*
X149435000Y-93260000D03*
D17*
G36*
X150566958Y-92940710D02*
G01*
X150581276Y-92942834D01*
X150595317Y-92946351D01*
X150608946Y-92951228D01*
X150622031Y-92957417D01*
X150634447Y-92964858D01*
X150646073Y-92973481D01*
X150656798Y-92983202D01*
X150666519Y-92993927D01*
X150675142Y-93005553D01*
X150682583Y-93017969D01*
X150688772Y-93031054D01*
X150693649Y-93044683D01*
X150697166Y-93058724D01*
X150699290Y-93073042D01*
X150700000Y-93087500D01*
X150700000Y-93432500D01*
X150699290Y-93446958D01*
X150697166Y-93461276D01*
X150693649Y-93475317D01*
X150688772Y-93488946D01*
X150682583Y-93502031D01*
X150675142Y-93514447D01*
X150666519Y-93526073D01*
X150656798Y-93536798D01*
X150646073Y-93546519D01*
X150634447Y-93555142D01*
X150622031Y-93562583D01*
X150608946Y-93568772D01*
X150595317Y-93573649D01*
X150581276Y-93577166D01*
X150566958Y-93579290D01*
X150552500Y-93580000D01*
X150257500Y-93580000D01*
X150243042Y-93579290D01*
X150228724Y-93577166D01*
X150214683Y-93573649D01*
X150201054Y-93568772D01*
X150187969Y-93562583D01*
X150175553Y-93555142D01*
X150163927Y-93546519D01*
X150153202Y-93536798D01*
X150143481Y-93526073D01*
X150134858Y-93514447D01*
X150127417Y-93502031D01*
X150121228Y-93488946D01*
X150116351Y-93475317D01*
X150112834Y-93461276D01*
X150110710Y-93446958D01*
X150110000Y-93432500D01*
X150110000Y-93087500D01*
X150110710Y-93073042D01*
X150112834Y-93058724D01*
X150116351Y-93044683D01*
X150121228Y-93031054D01*
X150127417Y-93017969D01*
X150134858Y-93005553D01*
X150143481Y-92993927D01*
X150153202Y-92983202D01*
X150163927Y-92973481D01*
X150175553Y-92964858D01*
X150187969Y-92957417D01*
X150201054Y-92951228D01*
X150214683Y-92946351D01*
X150228724Y-92942834D01*
X150243042Y-92940710D01*
X150257500Y-92940000D01*
X150552500Y-92940000D01*
X150566958Y-92940710D01*
X150566958Y-92940710D01*
G37*
D18*
X150405000Y-93260000D03*
D17*
G36*
X102436958Y-74530710D02*
G01*
X102451276Y-74532834D01*
X102465317Y-74536351D01*
X102478946Y-74541228D01*
X102492031Y-74547417D01*
X102504447Y-74554858D01*
X102516073Y-74563481D01*
X102526798Y-74573202D01*
X102536519Y-74583927D01*
X102545142Y-74595553D01*
X102552583Y-74607969D01*
X102558772Y-74621054D01*
X102563649Y-74634683D01*
X102567166Y-74648724D01*
X102569290Y-74663042D01*
X102570000Y-74677500D01*
X102570000Y-75022500D01*
X102569290Y-75036958D01*
X102567166Y-75051276D01*
X102563649Y-75065317D01*
X102558772Y-75078946D01*
X102552583Y-75092031D01*
X102545142Y-75104447D01*
X102536519Y-75116073D01*
X102526798Y-75126798D01*
X102516073Y-75136519D01*
X102504447Y-75145142D01*
X102492031Y-75152583D01*
X102478946Y-75158772D01*
X102465317Y-75163649D01*
X102451276Y-75167166D01*
X102436958Y-75169290D01*
X102422500Y-75170000D01*
X102127500Y-75170000D01*
X102113042Y-75169290D01*
X102098724Y-75167166D01*
X102084683Y-75163649D01*
X102071054Y-75158772D01*
X102057969Y-75152583D01*
X102045553Y-75145142D01*
X102033927Y-75136519D01*
X102023202Y-75126798D01*
X102013481Y-75116073D01*
X102004858Y-75104447D01*
X101997417Y-75092031D01*
X101991228Y-75078946D01*
X101986351Y-75065317D01*
X101982834Y-75051276D01*
X101980710Y-75036958D01*
X101980000Y-75022500D01*
X101980000Y-74677500D01*
X101980710Y-74663042D01*
X101982834Y-74648724D01*
X101986351Y-74634683D01*
X101991228Y-74621054D01*
X101997417Y-74607969D01*
X102004858Y-74595553D01*
X102013481Y-74583927D01*
X102023202Y-74573202D01*
X102033927Y-74563481D01*
X102045553Y-74554858D01*
X102057969Y-74547417D01*
X102071054Y-74541228D01*
X102084683Y-74536351D01*
X102098724Y-74532834D01*
X102113042Y-74530710D01*
X102127500Y-74530000D01*
X102422500Y-74530000D01*
X102436958Y-74530710D01*
X102436958Y-74530710D01*
G37*
D18*
X102275000Y-74850000D03*
D17*
G36*
X101466958Y-74530710D02*
G01*
X101481276Y-74532834D01*
X101495317Y-74536351D01*
X101508946Y-74541228D01*
X101522031Y-74547417D01*
X101534447Y-74554858D01*
X101546073Y-74563481D01*
X101556798Y-74573202D01*
X101566519Y-74583927D01*
X101575142Y-74595553D01*
X101582583Y-74607969D01*
X101588772Y-74621054D01*
X101593649Y-74634683D01*
X101597166Y-74648724D01*
X101599290Y-74663042D01*
X101600000Y-74677500D01*
X101600000Y-75022500D01*
X101599290Y-75036958D01*
X101597166Y-75051276D01*
X101593649Y-75065317D01*
X101588772Y-75078946D01*
X101582583Y-75092031D01*
X101575142Y-75104447D01*
X101566519Y-75116073D01*
X101556798Y-75126798D01*
X101546073Y-75136519D01*
X101534447Y-75145142D01*
X101522031Y-75152583D01*
X101508946Y-75158772D01*
X101495317Y-75163649D01*
X101481276Y-75167166D01*
X101466958Y-75169290D01*
X101452500Y-75170000D01*
X101157500Y-75170000D01*
X101143042Y-75169290D01*
X101128724Y-75167166D01*
X101114683Y-75163649D01*
X101101054Y-75158772D01*
X101087969Y-75152583D01*
X101075553Y-75145142D01*
X101063927Y-75136519D01*
X101053202Y-75126798D01*
X101043481Y-75116073D01*
X101034858Y-75104447D01*
X101027417Y-75092031D01*
X101021228Y-75078946D01*
X101016351Y-75065317D01*
X101012834Y-75051276D01*
X101010710Y-75036958D01*
X101010000Y-75022500D01*
X101010000Y-74677500D01*
X101010710Y-74663042D01*
X101012834Y-74648724D01*
X101016351Y-74634683D01*
X101021228Y-74621054D01*
X101027417Y-74607969D01*
X101034858Y-74595553D01*
X101043481Y-74583927D01*
X101053202Y-74573202D01*
X101063927Y-74563481D01*
X101075553Y-74554858D01*
X101087969Y-74547417D01*
X101101054Y-74541228D01*
X101114683Y-74536351D01*
X101128724Y-74532834D01*
X101143042Y-74530710D01*
X101157500Y-74530000D01*
X101452500Y-74530000D01*
X101466958Y-74530710D01*
X101466958Y-74530710D01*
G37*
D18*
X101305000Y-74850000D03*
D17*
G36*
X101466958Y-76010710D02*
G01*
X101481276Y-76012834D01*
X101495317Y-76016351D01*
X101508946Y-76021228D01*
X101522031Y-76027417D01*
X101534447Y-76034858D01*
X101546073Y-76043481D01*
X101556798Y-76053202D01*
X101566519Y-76063927D01*
X101575142Y-76075553D01*
X101582583Y-76087969D01*
X101588772Y-76101054D01*
X101593649Y-76114683D01*
X101597166Y-76128724D01*
X101599290Y-76143042D01*
X101600000Y-76157500D01*
X101600000Y-76502500D01*
X101599290Y-76516958D01*
X101597166Y-76531276D01*
X101593649Y-76545317D01*
X101588772Y-76558946D01*
X101582583Y-76572031D01*
X101575142Y-76584447D01*
X101566519Y-76596073D01*
X101556798Y-76606798D01*
X101546073Y-76616519D01*
X101534447Y-76625142D01*
X101522031Y-76632583D01*
X101508946Y-76638772D01*
X101495317Y-76643649D01*
X101481276Y-76647166D01*
X101466958Y-76649290D01*
X101452500Y-76650000D01*
X101157500Y-76650000D01*
X101143042Y-76649290D01*
X101128724Y-76647166D01*
X101114683Y-76643649D01*
X101101054Y-76638772D01*
X101087969Y-76632583D01*
X101075553Y-76625142D01*
X101063927Y-76616519D01*
X101053202Y-76606798D01*
X101043481Y-76596073D01*
X101034858Y-76584447D01*
X101027417Y-76572031D01*
X101021228Y-76558946D01*
X101016351Y-76545317D01*
X101012834Y-76531276D01*
X101010710Y-76516958D01*
X101010000Y-76502500D01*
X101010000Y-76157500D01*
X101010710Y-76143042D01*
X101012834Y-76128724D01*
X101016351Y-76114683D01*
X101021228Y-76101054D01*
X101027417Y-76087969D01*
X101034858Y-76075553D01*
X101043481Y-76063927D01*
X101053202Y-76053202D01*
X101063927Y-76043481D01*
X101075553Y-76034858D01*
X101087969Y-76027417D01*
X101101054Y-76021228D01*
X101114683Y-76016351D01*
X101128724Y-76012834D01*
X101143042Y-76010710D01*
X101157500Y-76010000D01*
X101452500Y-76010000D01*
X101466958Y-76010710D01*
X101466958Y-76010710D01*
G37*
D18*
X101305000Y-76330000D03*
D17*
G36*
X102436958Y-76010710D02*
G01*
X102451276Y-76012834D01*
X102465317Y-76016351D01*
X102478946Y-76021228D01*
X102492031Y-76027417D01*
X102504447Y-76034858D01*
X102516073Y-76043481D01*
X102526798Y-76053202D01*
X102536519Y-76063927D01*
X102545142Y-76075553D01*
X102552583Y-76087969D01*
X102558772Y-76101054D01*
X102563649Y-76114683D01*
X102567166Y-76128724D01*
X102569290Y-76143042D01*
X102570000Y-76157500D01*
X102570000Y-76502500D01*
X102569290Y-76516958D01*
X102567166Y-76531276D01*
X102563649Y-76545317D01*
X102558772Y-76558946D01*
X102552583Y-76572031D01*
X102545142Y-76584447D01*
X102536519Y-76596073D01*
X102526798Y-76606798D01*
X102516073Y-76616519D01*
X102504447Y-76625142D01*
X102492031Y-76632583D01*
X102478946Y-76638772D01*
X102465317Y-76643649D01*
X102451276Y-76647166D01*
X102436958Y-76649290D01*
X102422500Y-76650000D01*
X102127500Y-76650000D01*
X102113042Y-76649290D01*
X102098724Y-76647166D01*
X102084683Y-76643649D01*
X102071054Y-76638772D01*
X102057969Y-76632583D01*
X102045553Y-76625142D01*
X102033927Y-76616519D01*
X102023202Y-76606798D01*
X102013481Y-76596073D01*
X102004858Y-76584447D01*
X101997417Y-76572031D01*
X101991228Y-76558946D01*
X101986351Y-76545317D01*
X101982834Y-76531276D01*
X101980710Y-76516958D01*
X101980000Y-76502500D01*
X101980000Y-76157500D01*
X101980710Y-76143042D01*
X101982834Y-76128724D01*
X101986351Y-76114683D01*
X101991228Y-76101054D01*
X101997417Y-76087969D01*
X102004858Y-76075553D01*
X102013481Y-76063927D01*
X102023202Y-76053202D01*
X102033927Y-76043481D01*
X102045553Y-76034858D01*
X102057969Y-76027417D01*
X102071054Y-76021228D01*
X102084683Y-76016351D01*
X102098724Y-76012834D01*
X102113042Y-76010710D01*
X102127500Y-76010000D01*
X102422500Y-76010000D01*
X102436958Y-76010710D01*
X102436958Y-76010710D01*
G37*
D18*
X102275000Y-76330000D03*
D16*
X181560000Y-85220000D03*
X181560000Y-84270000D03*
X181560000Y-83320000D03*
X183760000Y-83320000D03*
X183760000Y-85220000D03*
D27*
X147360000Y-99495000D03*
X147360000Y-98225000D03*
X147360000Y-96955000D03*
X147360000Y-95685000D03*
X152760000Y-95685000D03*
X152760000Y-96955000D03*
X152760000Y-98225000D03*
X152760000Y-99495000D03*
D17*
G36*
X123846958Y-80380710D02*
G01*
X123861276Y-80382834D01*
X123875317Y-80386351D01*
X123888946Y-80391228D01*
X123902031Y-80397417D01*
X123914447Y-80404858D01*
X123926073Y-80413481D01*
X123936798Y-80423202D01*
X123946519Y-80433927D01*
X123955142Y-80445553D01*
X123962583Y-80457969D01*
X123968772Y-80471054D01*
X123973649Y-80484683D01*
X123977166Y-80498724D01*
X123979290Y-80513042D01*
X123980000Y-80527500D01*
X123980000Y-80822500D01*
X123979290Y-80836958D01*
X123977166Y-80851276D01*
X123973649Y-80865317D01*
X123968772Y-80878946D01*
X123962583Y-80892031D01*
X123955142Y-80904447D01*
X123946519Y-80916073D01*
X123936798Y-80926798D01*
X123926073Y-80936519D01*
X123914447Y-80945142D01*
X123902031Y-80952583D01*
X123888946Y-80958772D01*
X123875317Y-80963649D01*
X123861276Y-80967166D01*
X123846958Y-80969290D01*
X123832500Y-80970000D01*
X123487500Y-80970000D01*
X123473042Y-80969290D01*
X123458724Y-80967166D01*
X123444683Y-80963649D01*
X123431054Y-80958772D01*
X123417969Y-80952583D01*
X123405553Y-80945142D01*
X123393927Y-80936519D01*
X123383202Y-80926798D01*
X123373481Y-80916073D01*
X123364858Y-80904447D01*
X123357417Y-80892031D01*
X123351228Y-80878946D01*
X123346351Y-80865317D01*
X123342834Y-80851276D01*
X123340710Y-80836958D01*
X123340000Y-80822500D01*
X123340000Y-80527500D01*
X123340710Y-80513042D01*
X123342834Y-80498724D01*
X123346351Y-80484683D01*
X123351228Y-80471054D01*
X123357417Y-80457969D01*
X123364858Y-80445553D01*
X123373481Y-80433927D01*
X123383202Y-80423202D01*
X123393927Y-80413481D01*
X123405553Y-80404858D01*
X123417969Y-80397417D01*
X123431054Y-80391228D01*
X123444683Y-80386351D01*
X123458724Y-80382834D01*
X123473042Y-80380710D01*
X123487500Y-80380000D01*
X123832500Y-80380000D01*
X123846958Y-80380710D01*
X123846958Y-80380710D01*
G37*
D18*
X123660000Y-80675000D03*
D17*
G36*
X123846958Y-81350710D02*
G01*
X123861276Y-81352834D01*
X123875317Y-81356351D01*
X123888946Y-81361228D01*
X123902031Y-81367417D01*
X123914447Y-81374858D01*
X123926073Y-81383481D01*
X123936798Y-81393202D01*
X123946519Y-81403927D01*
X123955142Y-81415553D01*
X123962583Y-81427969D01*
X123968772Y-81441054D01*
X123973649Y-81454683D01*
X123977166Y-81468724D01*
X123979290Y-81483042D01*
X123980000Y-81497500D01*
X123980000Y-81792500D01*
X123979290Y-81806958D01*
X123977166Y-81821276D01*
X123973649Y-81835317D01*
X123968772Y-81848946D01*
X123962583Y-81862031D01*
X123955142Y-81874447D01*
X123946519Y-81886073D01*
X123936798Y-81896798D01*
X123926073Y-81906519D01*
X123914447Y-81915142D01*
X123902031Y-81922583D01*
X123888946Y-81928772D01*
X123875317Y-81933649D01*
X123861276Y-81937166D01*
X123846958Y-81939290D01*
X123832500Y-81940000D01*
X123487500Y-81940000D01*
X123473042Y-81939290D01*
X123458724Y-81937166D01*
X123444683Y-81933649D01*
X123431054Y-81928772D01*
X123417969Y-81922583D01*
X123405553Y-81915142D01*
X123393927Y-81906519D01*
X123383202Y-81896798D01*
X123373481Y-81886073D01*
X123364858Y-81874447D01*
X123357417Y-81862031D01*
X123351228Y-81848946D01*
X123346351Y-81835317D01*
X123342834Y-81821276D01*
X123340710Y-81806958D01*
X123340000Y-81792500D01*
X123340000Y-81497500D01*
X123340710Y-81483042D01*
X123342834Y-81468724D01*
X123346351Y-81454683D01*
X123351228Y-81441054D01*
X123357417Y-81427969D01*
X123364858Y-81415553D01*
X123373481Y-81403927D01*
X123383202Y-81393202D01*
X123393927Y-81383481D01*
X123405553Y-81374858D01*
X123417969Y-81367417D01*
X123431054Y-81361228D01*
X123444683Y-81356351D01*
X123458724Y-81352834D01*
X123473042Y-81350710D01*
X123487500Y-81350000D01*
X123832500Y-81350000D01*
X123846958Y-81350710D01*
X123846958Y-81350710D01*
G37*
D18*
X123660000Y-81645000D03*
D17*
G36*
X119336958Y-74210710D02*
G01*
X119351276Y-74212834D01*
X119365317Y-74216351D01*
X119378946Y-74221228D01*
X119392031Y-74227417D01*
X119404447Y-74234858D01*
X119416073Y-74243481D01*
X119426798Y-74253202D01*
X119436519Y-74263927D01*
X119445142Y-74275553D01*
X119452583Y-74287969D01*
X119458772Y-74301054D01*
X119463649Y-74314683D01*
X119467166Y-74328724D01*
X119469290Y-74343042D01*
X119470000Y-74357500D01*
X119470000Y-74702500D01*
X119469290Y-74716958D01*
X119467166Y-74731276D01*
X119463649Y-74745317D01*
X119458772Y-74758946D01*
X119452583Y-74772031D01*
X119445142Y-74784447D01*
X119436519Y-74796073D01*
X119426798Y-74806798D01*
X119416073Y-74816519D01*
X119404447Y-74825142D01*
X119392031Y-74832583D01*
X119378946Y-74838772D01*
X119365317Y-74843649D01*
X119351276Y-74847166D01*
X119336958Y-74849290D01*
X119322500Y-74850000D01*
X119027500Y-74850000D01*
X119013042Y-74849290D01*
X118998724Y-74847166D01*
X118984683Y-74843649D01*
X118971054Y-74838772D01*
X118957969Y-74832583D01*
X118945553Y-74825142D01*
X118933927Y-74816519D01*
X118923202Y-74806798D01*
X118913481Y-74796073D01*
X118904858Y-74784447D01*
X118897417Y-74772031D01*
X118891228Y-74758946D01*
X118886351Y-74745317D01*
X118882834Y-74731276D01*
X118880710Y-74716958D01*
X118880000Y-74702500D01*
X118880000Y-74357500D01*
X118880710Y-74343042D01*
X118882834Y-74328724D01*
X118886351Y-74314683D01*
X118891228Y-74301054D01*
X118897417Y-74287969D01*
X118904858Y-74275553D01*
X118913481Y-74263927D01*
X118923202Y-74253202D01*
X118933927Y-74243481D01*
X118945553Y-74234858D01*
X118957969Y-74227417D01*
X118971054Y-74221228D01*
X118984683Y-74216351D01*
X118998724Y-74212834D01*
X119013042Y-74210710D01*
X119027500Y-74210000D01*
X119322500Y-74210000D01*
X119336958Y-74210710D01*
X119336958Y-74210710D01*
G37*
D18*
X119175000Y-74530000D03*
D17*
G36*
X120306958Y-74210710D02*
G01*
X120321276Y-74212834D01*
X120335317Y-74216351D01*
X120348946Y-74221228D01*
X120362031Y-74227417D01*
X120374447Y-74234858D01*
X120386073Y-74243481D01*
X120396798Y-74253202D01*
X120406519Y-74263927D01*
X120415142Y-74275553D01*
X120422583Y-74287969D01*
X120428772Y-74301054D01*
X120433649Y-74314683D01*
X120437166Y-74328724D01*
X120439290Y-74343042D01*
X120440000Y-74357500D01*
X120440000Y-74702500D01*
X120439290Y-74716958D01*
X120437166Y-74731276D01*
X120433649Y-74745317D01*
X120428772Y-74758946D01*
X120422583Y-74772031D01*
X120415142Y-74784447D01*
X120406519Y-74796073D01*
X120396798Y-74806798D01*
X120386073Y-74816519D01*
X120374447Y-74825142D01*
X120362031Y-74832583D01*
X120348946Y-74838772D01*
X120335317Y-74843649D01*
X120321276Y-74847166D01*
X120306958Y-74849290D01*
X120292500Y-74850000D01*
X119997500Y-74850000D01*
X119983042Y-74849290D01*
X119968724Y-74847166D01*
X119954683Y-74843649D01*
X119941054Y-74838772D01*
X119927969Y-74832583D01*
X119915553Y-74825142D01*
X119903927Y-74816519D01*
X119893202Y-74806798D01*
X119883481Y-74796073D01*
X119874858Y-74784447D01*
X119867417Y-74772031D01*
X119861228Y-74758946D01*
X119856351Y-74745317D01*
X119852834Y-74731276D01*
X119850710Y-74716958D01*
X119850000Y-74702500D01*
X119850000Y-74357500D01*
X119850710Y-74343042D01*
X119852834Y-74328724D01*
X119856351Y-74314683D01*
X119861228Y-74301054D01*
X119867417Y-74287969D01*
X119874858Y-74275553D01*
X119883481Y-74263927D01*
X119893202Y-74253202D01*
X119903927Y-74243481D01*
X119915553Y-74234858D01*
X119927969Y-74227417D01*
X119941054Y-74221228D01*
X119954683Y-74216351D01*
X119968724Y-74212834D01*
X119983042Y-74210710D01*
X119997500Y-74210000D01*
X120292500Y-74210000D01*
X120306958Y-74210710D01*
X120306958Y-74210710D01*
G37*
D18*
X120145000Y-74530000D03*
D17*
G36*
X183356958Y-71580710D02*
G01*
X183371276Y-71582834D01*
X183385317Y-71586351D01*
X183398946Y-71591228D01*
X183412031Y-71597417D01*
X183424447Y-71604858D01*
X183436073Y-71613481D01*
X183446798Y-71623202D01*
X183456519Y-71633927D01*
X183465142Y-71645553D01*
X183472583Y-71657969D01*
X183478772Y-71671054D01*
X183483649Y-71684683D01*
X183487166Y-71698724D01*
X183489290Y-71713042D01*
X183490000Y-71727500D01*
X183490000Y-72022500D01*
X183489290Y-72036958D01*
X183487166Y-72051276D01*
X183483649Y-72065317D01*
X183478772Y-72078946D01*
X183472583Y-72092031D01*
X183465142Y-72104447D01*
X183456519Y-72116073D01*
X183446798Y-72126798D01*
X183436073Y-72136519D01*
X183424447Y-72145142D01*
X183412031Y-72152583D01*
X183398946Y-72158772D01*
X183385317Y-72163649D01*
X183371276Y-72167166D01*
X183356958Y-72169290D01*
X183342500Y-72170000D01*
X182997500Y-72170000D01*
X182983042Y-72169290D01*
X182968724Y-72167166D01*
X182954683Y-72163649D01*
X182941054Y-72158772D01*
X182927969Y-72152583D01*
X182915553Y-72145142D01*
X182903927Y-72136519D01*
X182893202Y-72126798D01*
X182883481Y-72116073D01*
X182874858Y-72104447D01*
X182867417Y-72092031D01*
X182861228Y-72078946D01*
X182856351Y-72065317D01*
X182852834Y-72051276D01*
X182850710Y-72036958D01*
X182850000Y-72022500D01*
X182850000Y-71727500D01*
X182850710Y-71713042D01*
X182852834Y-71698724D01*
X182856351Y-71684683D01*
X182861228Y-71671054D01*
X182867417Y-71657969D01*
X182874858Y-71645553D01*
X182883481Y-71633927D01*
X182893202Y-71623202D01*
X182903927Y-71613481D01*
X182915553Y-71604858D01*
X182927969Y-71597417D01*
X182941054Y-71591228D01*
X182954683Y-71586351D01*
X182968724Y-71582834D01*
X182983042Y-71580710D01*
X182997500Y-71580000D01*
X183342500Y-71580000D01*
X183356958Y-71580710D01*
X183356958Y-71580710D01*
G37*
D18*
X183170000Y-71875000D03*
D17*
G36*
X183356958Y-72550710D02*
G01*
X183371276Y-72552834D01*
X183385317Y-72556351D01*
X183398946Y-72561228D01*
X183412031Y-72567417D01*
X183424447Y-72574858D01*
X183436073Y-72583481D01*
X183446798Y-72593202D01*
X183456519Y-72603927D01*
X183465142Y-72615553D01*
X183472583Y-72627969D01*
X183478772Y-72641054D01*
X183483649Y-72654683D01*
X183487166Y-72668724D01*
X183489290Y-72683042D01*
X183490000Y-72697500D01*
X183490000Y-72992500D01*
X183489290Y-73006958D01*
X183487166Y-73021276D01*
X183483649Y-73035317D01*
X183478772Y-73048946D01*
X183472583Y-73062031D01*
X183465142Y-73074447D01*
X183456519Y-73086073D01*
X183446798Y-73096798D01*
X183436073Y-73106519D01*
X183424447Y-73115142D01*
X183412031Y-73122583D01*
X183398946Y-73128772D01*
X183385317Y-73133649D01*
X183371276Y-73137166D01*
X183356958Y-73139290D01*
X183342500Y-73140000D01*
X182997500Y-73140000D01*
X182983042Y-73139290D01*
X182968724Y-73137166D01*
X182954683Y-73133649D01*
X182941054Y-73128772D01*
X182927969Y-73122583D01*
X182915553Y-73115142D01*
X182903927Y-73106519D01*
X182893202Y-73096798D01*
X182883481Y-73086073D01*
X182874858Y-73074447D01*
X182867417Y-73062031D01*
X182861228Y-73048946D01*
X182856351Y-73035317D01*
X182852834Y-73021276D01*
X182850710Y-73006958D01*
X182850000Y-72992500D01*
X182850000Y-72697500D01*
X182850710Y-72683042D01*
X182852834Y-72668724D01*
X182856351Y-72654683D01*
X182861228Y-72641054D01*
X182867417Y-72627969D01*
X182874858Y-72615553D01*
X182883481Y-72603927D01*
X182893202Y-72593202D01*
X182903927Y-72583481D01*
X182915553Y-72574858D01*
X182927969Y-72567417D01*
X182941054Y-72561228D01*
X182954683Y-72556351D01*
X182968724Y-72552834D01*
X182983042Y-72550710D01*
X182997500Y-72550000D01*
X183342500Y-72550000D01*
X183356958Y-72550710D01*
X183356958Y-72550710D01*
G37*
D18*
X183170000Y-72845000D03*
D17*
G36*
X105686958Y-110200710D02*
G01*
X105701276Y-110202834D01*
X105715317Y-110206351D01*
X105728946Y-110211228D01*
X105742031Y-110217417D01*
X105754447Y-110224858D01*
X105766073Y-110233481D01*
X105776798Y-110243202D01*
X105786519Y-110253927D01*
X105795142Y-110265553D01*
X105802583Y-110277969D01*
X105808772Y-110291054D01*
X105813649Y-110304683D01*
X105817166Y-110318724D01*
X105819290Y-110333042D01*
X105820000Y-110347500D01*
X105820000Y-110692500D01*
X105819290Y-110706958D01*
X105817166Y-110721276D01*
X105813649Y-110735317D01*
X105808772Y-110748946D01*
X105802583Y-110762031D01*
X105795142Y-110774447D01*
X105786519Y-110786073D01*
X105776798Y-110796798D01*
X105766073Y-110806519D01*
X105754447Y-110815142D01*
X105742031Y-110822583D01*
X105728946Y-110828772D01*
X105715317Y-110833649D01*
X105701276Y-110837166D01*
X105686958Y-110839290D01*
X105672500Y-110840000D01*
X105377500Y-110840000D01*
X105363042Y-110839290D01*
X105348724Y-110837166D01*
X105334683Y-110833649D01*
X105321054Y-110828772D01*
X105307969Y-110822583D01*
X105295553Y-110815142D01*
X105283927Y-110806519D01*
X105273202Y-110796798D01*
X105263481Y-110786073D01*
X105254858Y-110774447D01*
X105247417Y-110762031D01*
X105241228Y-110748946D01*
X105236351Y-110735317D01*
X105232834Y-110721276D01*
X105230710Y-110706958D01*
X105230000Y-110692500D01*
X105230000Y-110347500D01*
X105230710Y-110333042D01*
X105232834Y-110318724D01*
X105236351Y-110304683D01*
X105241228Y-110291054D01*
X105247417Y-110277969D01*
X105254858Y-110265553D01*
X105263481Y-110253927D01*
X105273202Y-110243202D01*
X105283927Y-110233481D01*
X105295553Y-110224858D01*
X105307969Y-110217417D01*
X105321054Y-110211228D01*
X105334683Y-110206351D01*
X105348724Y-110202834D01*
X105363042Y-110200710D01*
X105377500Y-110200000D01*
X105672500Y-110200000D01*
X105686958Y-110200710D01*
X105686958Y-110200710D01*
G37*
D18*
X105525000Y-110520000D03*
D17*
G36*
X106656958Y-110200710D02*
G01*
X106671276Y-110202834D01*
X106685317Y-110206351D01*
X106698946Y-110211228D01*
X106712031Y-110217417D01*
X106724447Y-110224858D01*
X106736073Y-110233481D01*
X106746798Y-110243202D01*
X106756519Y-110253927D01*
X106765142Y-110265553D01*
X106772583Y-110277969D01*
X106778772Y-110291054D01*
X106783649Y-110304683D01*
X106787166Y-110318724D01*
X106789290Y-110333042D01*
X106790000Y-110347500D01*
X106790000Y-110692500D01*
X106789290Y-110706958D01*
X106787166Y-110721276D01*
X106783649Y-110735317D01*
X106778772Y-110748946D01*
X106772583Y-110762031D01*
X106765142Y-110774447D01*
X106756519Y-110786073D01*
X106746798Y-110796798D01*
X106736073Y-110806519D01*
X106724447Y-110815142D01*
X106712031Y-110822583D01*
X106698946Y-110828772D01*
X106685317Y-110833649D01*
X106671276Y-110837166D01*
X106656958Y-110839290D01*
X106642500Y-110840000D01*
X106347500Y-110840000D01*
X106333042Y-110839290D01*
X106318724Y-110837166D01*
X106304683Y-110833649D01*
X106291054Y-110828772D01*
X106277969Y-110822583D01*
X106265553Y-110815142D01*
X106253927Y-110806519D01*
X106243202Y-110796798D01*
X106233481Y-110786073D01*
X106224858Y-110774447D01*
X106217417Y-110762031D01*
X106211228Y-110748946D01*
X106206351Y-110735317D01*
X106202834Y-110721276D01*
X106200710Y-110706958D01*
X106200000Y-110692500D01*
X106200000Y-110347500D01*
X106200710Y-110333042D01*
X106202834Y-110318724D01*
X106206351Y-110304683D01*
X106211228Y-110291054D01*
X106217417Y-110277969D01*
X106224858Y-110265553D01*
X106233481Y-110253927D01*
X106243202Y-110243202D01*
X106253927Y-110233481D01*
X106265553Y-110224858D01*
X106277969Y-110217417D01*
X106291054Y-110211228D01*
X106304683Y-110206351D01*
X106318724Y-110202834D01*
X106333042Y-110200710D01*
X106347500Y-110200000D01*
X106642500Y-110200000D01*
X106656958Y-110200710D01*
X106656958Y-110200710D01*
G37*
D18*
X106495000Y-110520000D03*
D17*
G36*
X106676958Y-109070710D02*
G01*
X106691276Y-109072834D01*
X106705317Y-109076351D01*
X106718946Y-109081228D01*
X106732031Y-109087417D01*
X106744447Y-109094858D01*
X106756073Y-109103481D01*
X106766798Y-109113202D01*
X106776519Y-109123927D01*
X106785142Y-109135553D01*
X106792583Y-109147969D01*
X106798772Y-109161054D01*
X106803649Y-109174683D01*
X106807166Y-109188724D01*
X106809290Y-109203042D01*
X106810000Y-109217500D01*
X106810000Y-109512500D01*
X106809290Y-109526958D01*
X106807166Y-109541276D01*
X106803649Y-109555317D01*
X106798772Y-109568946D01*
X106792583Y-109582031D01*
X106785142Y-109594447D01*
X106776519Y-109606073D01*
X106766798Y-109616798D01*
X106756073Y-109626519D01*
X106744447Y-109635142D01*
X106732031Y-109642583D01*
X106718946Y-109648772D01*
X106705317Y-109653649D01*
X106691276Y-109657166D01*
X106676958Y-109659290D01*
X106662500Y-109660000D01*
X106317500Y-109660000D01*
X106303042Y-109659290D01*
X106288724Y-109657166D01*
X106274683Y-109653649D01*
X106261054Y-109648772D01*
X106247969Y-109642583D01*
X106235553Y-109635142D01*
X106223927Y-109626519D01*
X106213202Y-109616798D01*
X106203481Y-109606073D01*
X106194858Y-109594447D01*
X106187417Y-109582031D01*
X106181228Y-109568946D01*
X106176351Y-109555317D01*
X106172834Y-109541276D01*
X106170710Y-109526958D01*
X106170000Y-109512500D01*
X106170000Y-109217500D01*
X106170710Y-109203042D01*
X106172834Y-109188724D01*
X106176351Y-109174683D01*
X106181228Y-109161054D01*
X106187417Y-109147969D01*
X106194858Y-109135553D01*
X106203481Y-109123927D01*
X106213202Y-109113202D01*
X106223927Y-109103481D01*
X106235553Y-109094858D01*
X106247969Y-109087417D01*
X106261054Y-109081228D01*
X106274683Y-109076351D01*
X106288724Y-109072834D01*
X106303042Y-109070710D01*
X106317500Y-109070000D01*
X106662500Y-109070000D01*
X106676958Y-109070710D01*
X106676958Y-109070710D01*
G37*
D18*
X106490000Y-109365000D03*
D17*
G36*
X106676958Y-108100710D02*
G01*
X106691276Y-108102834D01*
X106705317Y-108106351D01*
X106718946Y-108111228D01*
X106732031Y-108117417D01*
X106744447Y-108124858D01*
X106756073Y-108133481D01*
X106766798Y-108143202D01*
X106776519Y-108153927D01*
X106785142Y-108165553D01*
X106792583Y-108177969D01*
X106798772Y-108191054D01*
X106803649Y-108204683D01*
X106807166Y-108218724D01*
X106809290Y-108233042D01*
X106810000Y-108247500D01*
X106810000Y-108542500D01*
X106809290Y-108556958D01*
X106807166Y-108571276D01*
X106803649Y-108585317D01*
X106798772Y-108598946D01*
X106792583Y-108612031D01*
X106785142Y-108624447D01*
X106776519Y-108636073D01*
X106766798Y-108646798D01*
X106756073Y-108656519D01*
X106744447Y-108665142D01*
X106732031Y-108672583D01*
X106718946Y-108678772D01*
X106705317Y-108683649D01*
X106691276Y-108687166D01*
X106676958Y-108689290D01*
X106662500Y-108690000D01*
X106317500Y-108690000D01*
X106303042Y-108689290D01*
X106288724Y-108687166D01*
X106274683Y-108683649D01*
X106261054Y-108678772D01*
X106247969Y-108672583D01*
X106235553Y-108665142D01*
X106223927Y-108656519D01*
X106213202Y-108646798D01*
X106203481Y-108636073D01*
X106194858Y-108624447D01*
X106187417Y-108612031D01*
X106181228Y-108598946D01*
X106176351Y-108585317D01*
X106172834Y-108571276D01*
X106170710Y-108556958D01*
X106170000Y-108542500D01*
X106170000Y-108247500D01*
X106170710Y-108233042D01*
X106172834Y-108218724D01*
X106176351Y-108204683D01*
X106181228Y-108191054D01*
X106187417Y-108177969D01*
X106194858Y-108165553D01*
X106203481Y-108153927D01*
X106213202Y-108143202D01*
X106223927Y-108133481D01*
X106235553Y-108124858D01*
X106247969Y-108117417D01*
X106261054Y-108111228D01*
X106274683Y-108106351D01*
X106288724Y-108102834D01*
X106303042Y-108100710D01*
X106317500Y-108100000D01*
X106662500Y-108100000D01*
X106676958Y-108100710D01*
X106676958Y-108100710D01*
G37*
D18*
X106490000Y-108395000D03*
D17*
G36*
X125756958Y-108090710D02*
G01*
X125771276Y-108092834D01*
X125785317Y-108096351D01*
X125798946Y-108101228D01*
X125812031Y-108107417D01*
X125824447Y-108114858D01*
X125836073Y-108123481D01*
X125846798Y-108133202D01*
X125856519Y-108143927D01*
X125865142Y-108155553D01*
X125872583Y-108167969D01*
X125878772Y-108181054D01*
X125883649Y-108194683D01*
X125887166Y-108208724D01*
X125889290Y-108223042D01*
X125890000Y-108237500D01*
X125890000Y-108532500D01*
X125889290Y-108546958D01*
X125887166Y-108561276D01*
X125883649Y-108575317D01*
X125878772Y-108588946D01*
X125872583Y-108602031D01*
X125865142Y-108614447D01*
X125856519Y-108626073D01*
X125846798Y-108636798D01*
X125836073Y-108646519D01*
X125824447Y-108655142D01*
X125812031Y-108662583D01*
X125798946Y-108668772D01*
X125785317Y-108673649D01*
X125771276Y-108677166D01*
X125756958Y-108679290D01*
X125742500Y-108680000D01*
X125397500Y-108680000D01*
X125383042Y-108679290D01*
X125368724Y-108677166D01*
X125354683Y-108673649D01*
X125341054Y-108668772D01*
X125327969Y-108662583D01*
X125315553Y-108655142D01*
X125303927Y-108646519D01*
X125293202Y-108636798D01*
X125283481Y-108626073D01*
X125274858Y-108614447D01*
X125267417Y-108602031D01*
X125261228Y-108588946D01*
X125256351Y-108575317D01*
X125252834Y-108561276D01*
X125250710Y-108546958D01*
X125250000Y-108532500D01*
X125250000Y-108237500D01*
X125250710Y-108223042D01*
X125252834Y-108208724D01*
X125256351Y-108194683D01*
X125261228Y-108181054D01*
X125267417Y-108167969D01*
X125274858Y-108155553D01*
X125283481Y-108143927D01*
X125293202Y-108133202D01*
X125303927Y-108123481D01*
X125315553Y-108114858D01*
X125327969Y-108107417D01*
X125341054Y-108101228D01*
X125354683Y-108096351D01*
X125368724Y-108092834D01*
X125383042Y-108090710D01*
X125397500Y-108090000D01*
X125742500Y-108090000D01*
X125756958Y-108090710D01*
X125756958Y-108090710D01*
G37*
D18*
X125570000Y-108385000D03*
D17*
G36*
X125756958Y-109060710D02*
G01*
X125771276Y-109062834D01*
X125785317Y-109066351D01*
X125798946Y-109071228D01*
X125812031Y-109077417D01*
X125824447Y-109084858D01*
X125836073Y-109093481D01*
X125846798Y-109103202D01*
X125856519Y-109113927D01*
X125865142Y-109125553D01*
X125872583Y-109137969D01*
X125878772Y-109151054D01*
X125883649Y-109164683D01*
X125887166Y-109178724D01*
X125889290Y-109193042D01*
X125890000Y-109207500D01*
X125890000Y-109502500D01*
X125889290Y-109516958D01*
X125887166Y-109531276D01*
X125883649Y-109545317D01*
X125878772Y-109558946D01*
X125872583Y-109572031D01*
X125865142Y-109584447D01*
X125856519Y-109596073D01*
X125846798Y-109606798D01*
X125836073Y-109616519D01*
X125824447Y-109625142D01*
X125812031Y-109632583D01*
X125798946Y-109638772D01*
X125785317Y-109643649D01*
X125771276Y-109647166D01*
X125756958Y-109649290D01*
X125742500Y-109650000D01*
X125397500Y-109650000D01*
X125383042Y-109649290D01*
X125368724Y-109647166D01*
X125354683Y-109643649D01*
X125341054Y-109638772D01*
X125327969Y-109632583D01*
X125315553Y-109625142D01*
X125303927Y-109616519D01*
X125293202Y-109606798D01*
X125283481Y-109596073D01*
X125274858Y-109584447D01*
X125267417Y-109572031D01*
X125261228Y-109558946D01*
X125256351Y-109545317D01*
X125252834Y-109531276D01*
X125250710Y-109516958D01*
X125250000Y-109502500D01*
X125250000Y-109207500D01*
X125250710Y-109193042D01*
X125252834Y-109178724D01*
X125256351Y-109164683D01*
X125261228Y-109151054D01*
X125267417Y-109137969D01*
X125274858Y-109125553D01*
X125283481Y-109113927D01*
X125293202Y-109103202D01*
X125303927Y-109093481D01*
X125315553Y-109084858D01*
X125327969Y-109077417D01*
X125341054Y-109071228D01*
X125354683Y-109066351D01*
X125368724Y-109062834D01*
X125383042Y-109060710D01*
X125397500Y-109060000D01*
X125742500Y-109060000D01*
X125756958Y-109060710D01*
X125756958Y-109060710D01*
G37*
D18*
X125570000Y-109355000D03*
D17*
G36*
X144806958Y-109020710D02*
G01*
X144821276Y-109022834D01*
X144835317Y-109026351D01*
X144848946Y-109031228D01*
X144862031Y-109037417D01*
X144874447Y-109044858D01*
X144886073Y-109053481D01*
X144896798Y-109063202D01*
X144906519Y-109073927D01*
X144915142Y-109085553D01*
X144922583Y-109097969D01*
X144928772Y-109111054D01*
X144933649Y-109124683D01*
X144937166Y-109138724D01*
X144939290Y-109153042D01*
X144940000Y-109167500D01*
X144940000Y-109462500D01*
X144939290Y-109476958D01*
X144937166Y-109491276D01*
X144933649Y-109505317D01*
X144928772Y-109518946D01*
X144922583Y-109532031D01*
X144915142Y-109544447D01*
X144906519Y-109556073D01*
X144896798Y-109566798D01*
X144886073Y-109576519D01*
X144874447Y-109585142D01*
X144862031Y-109592583D01*
X144848946Y-109598772D01*
X144835317Y-109603649D01*
X144821276Y-109607166D01*
X144806958Y-109609290D01*
X144792500Y-109610000D01*
X144447500Y-109610000D01*
X144433042Y-109609290D01*
X144418724Y-109607166D01*
X144404683Y-109603649D01*
X144391054Y-109598772D01*
X144377969Y-109592583D01*
X144365553Y-109585142D01*
X144353927Y-109576519D01*
X144343202Y-109566798D01*
X144333481Y-109556073D01*
X144324858Y-109544447D01*
X144317417Y-109532031D01*
X144311228Y-109518946D01*
X144306351Y-109505317D01*
X144302834Y-109491276D01*
X144300710Y-109476958D01*
X144300000Y-109462500D01*
X144300000Y-109167500D01*
X144300710Y-109153042D01*
X144302834Y-109138724D01*
X144306351Y-109124683D01*
X144311228Y-109111054D01*
X144317417Y-109097969D01*
X144324858Y-109085553D01*
X144333481Y-109073927D01*
X144343202Y-109063202D01*
X144353927Y-109053481D01*
X144365553Y-109044858D01*
X144377969Y-109037417D01*
X144391054Y-109031228D01*
X144404683Y-109026351D01*
X144418724Y-109022834D01*
X144433042Y-109020710D01*
X144447500Y-109020000D01*
X144792500Y-109020000D01*
X144806958Y-109020710D01*
X144806958Y-109020710D01*
G37*
D18*
X144620000Y-109315000D03*
D17*
G36*
X144806958Y-108050710D02*
G01*
X144821276Y-108052834D01*
X144835317Y-108056351D01*
X144848946Y-108061228D01*
X144862031Y-108067417D01*
X144874447Y-108074858D01*
X144886073Y-108083481D01*
X144896798Y-108093202D01*
X144906519Y-108103927D01*
X144915142Y-108115553D01*
X144922583Y-108127969D01*
X144928772Y-108141054D01*
X144933649Y-108154683D01*
X144937166Y-108168724D01*
X144939290Y-108183042D01*
X144940000Y-108197500D01*
X144940000Y-108492500D01*
X144939290Y-108506958D01*
X144937166Y-108521276D01*
X144933649Y-108535317D01*
X144928772Y-108548946D01*
X144922583Y-108562031D01*
X144915142Y-108574447D01*
X144906519Y-108586073D01*
X144896798Y-108596798D01*
X144886073Y-108606519D01*
X144874447Y-108615142D01*
X144862031Y-108622583D01*
X144848946Y-108628772D01*
X144835317Y-108633649D01*
X144821276Y-108637166D01*
X144806958Y-108639290D01*
X144792500Y-108640000D01*
X144447500Y-108640000D01*
X144433042Y-108639290D01*
X144418724Y-108637166D01*
X144404683Y-108633649D01*
X144391054Y-108628772D01*
X144377969Y-108622583D01*
X144365553Y-108615142D01*
X144353927Y-108606519D01*
X144343202Y-108596798D01*
X144333481Y-108586073D01*
X144324858Y-108574447D01*
X144317417Y-108562031D01*
X144311228Y-108548946D01*
X144306351Y-108535317D01*
X144302834Y-108521276D01*
X144300710Y-108506958D01*
X144300000Y-108492500D01*
X144300000Y-108197500D01*
X144300710Y-108183042D01*
X144302834Y-108168724D01*
X144306351Y-108154683D01*
X144311228Y-108141054D01*
X144317417Y-108127969D01*
X144324858Y-108115553D01*
X144333481Y-108103927D01*
X144343202Y-108093202D01*
X144353927Y-108083481D01*
X144365553Y-108074858D01*
X144377969Y-108067417D01*
X144391054Y-108061228D01*
X144404683Y-108056351D01*
X144418724Y-108052834D01*
X144433042Y-108050710D01*
X144447500Y-108050000D01*
X144792500Y-108050000D01*
X144806958Y-108050710D01*
X144806958Y-108050710D01*
G37*
D18*
X144620000Y-108345000D03*
D17*
G36*
X163856958Y-108050710D02*
G01*
X163871276Y-108052834D01*
X163885317Y-108056351D01*
X163898946Y-108061228D01*
X163912031Y-108067417D01*
X163924447Y-108074858D01*
X163936073Y-108083481D01*
X163946798Y-108093202D01*
X163956519Y-108103927D01*
X163965142Y-108115553D01*
X163972583Y-108127969D01*
X163978772Y-108141054D01*
X163983649Y-108154683D01*
X163987166Y-108168724D01*
X163989290Y-108183042D01*
X163990000Y-108197500D01*
X163990000Y-108492500D01*
X163989290Y-108506958D01*
X163987166Y-108521276D01*
X163983649Y-108535317D01*
X163978772Y-108548946D01*
X163972583Y-108562031D01*
X163965142Y-108574447D01*
X163956519Y-108586073D01*
X163946798Y-108596798D01*
X163936073Y-108606519D01*
X163924447Y-108615142D01*
X163912031Y-108622583D01*
X163898946Y-108628772D01*
X163885317Y-108633649D01*
X163871276Y-108637166D01*
X163856958Y-108639290D01*
X163842500Y-108640000D01*
X163497500Y-108640000D01*
X163483042Y-108639290D01*
X163468724Y-108637166D01*
X163454683Y-108633649D01*
X163441054Y-108628772D01*
X163427969Y-108622583D01*
X163415553Y-108615142D01*
X163403927Y-108606519D01*
X163393202Y-108596798D01*
X163383481Y-108586073D01*
X163374858Y-108574447D01*
X163367417Y-108562031D01*
X163361228Y-108548946D01*
X163356351Y-108535317D01*
X163352834Y-108521276D01*
X163350710Y-108506958D01*
X163350000Y-108492500D01*
X163350000Y-108197500D01*
X163350710Y-108183042D01*
X163352834Y-108168724D01*
X163356351Y-108154683D01*
X163361228Y-108141054D01*
X163367417Y-108127969D01*
X163374858Y-108115553D01*
X163383481Y-108103927D01*
X163393202Y-108093202D01*
X163403927Y-108083481D01*
X163415553Y-108074858D01*
X163427969Y-108067417D01*
X163441054Y-108061228D01*
X163454683Y-108056351D01*
X163468724Y-108052834D01*
X163483042Y-108050710D01*
X163497500Y-108050000D01*
X163842500Y-108050000D01*
X163856958Y-108050710D01*
X163856958Y-108050710D01*
G37*
D18*
X163670000Y-108345000D03*
D17*
G36*
X163856958Y-109020710D02*
G01*
X163871276Y-109022834D01*
X163885317Y-109026351D01*
X163898946Y-109031228D01*
X163912031Y-109037417D01*
X163924447Y-109044858D01*
X163936073Y-109053481D01*
X163946798Y-109063202D01*
X163956519Y-109073927D01*
X163965142Y-109085553D01*
X163972583Y-109097969D01*
X163978772Y-109111054D01*
X163983649Y-109124683D01*
X163987166Y-109138724D01*
X163989290Y-109153042D01*
X163990000Y-109167500D01*
X163990000Y-109462500D01*
X163989290Y-109476958D01*
X163987166Y-109491276D01*
X163983649Y-109505317D01*
X163978772Y-109518946D01*
X163972583Y-109532031D01*
X163965142Y-109544447D01*
X163956519Y-109556073D01*
X163946798Y-109566798D01*
X163936073Y-109576519D01*
X163924447Y-109585142D01*
X163912031Y-109592583D01*
X163898946Y-109598772D01*
X163885317Y-109603649D01*
X163871276Y-109607166D01*
X163856958Y-109609290D01*
X163842500Y-109610000D01*
X163497500Y-109610000D01*
X163483042Y-109609290D01*
X163468724Y-109607166D01*
X163454683Y-109603649D01*
X163441054Y-109598772D01*
X163427969Y-109592583D01*
X163415553Y-109585142D01*
X163403927Y-109576519D01*
X163393202Y-109566798D01*
X163383481Y-109556073D01*
X163374858Y-109544447D01*
X163367417Y-109532031D01*
X163361228Y-109518946D01*
X163356351Y-109505317D01*
X163352834Y-109491276D01*
X163350710Y-109476958D01*
X163350000Y-109462500D01*
X163350000Y-109167500D01*
X163350710Y-109153042D01*
X163352834Y-109138724D01*
X163356351Y-109124683D01*
X163361228Y-109111054D01*
X163367417Y-109097969D01*
X163374858Y-109085553D01*
X163383481Y-109073927D01*
X163393202Y-109063202D01*
X163403927Y-109053481D01*
X163415553Y-109044858D01*
X163427969Y-109037417D01*
X163441054Y-109031228D01*
X163454683Y-109026351D01*
X163468724Y-109022834D01*
X163483042Y-109020710D01*
X163497500Y-109020000D01*
X163842500Y-109020000D01*
X163856958Y-109020710D01*
X163856958Y-109020710D01*
G37*
D18*
X163670000Y-109315000D03*
D17*
G36*
X182906958Y-109010710D02*
G01*
X182921276Y-109012834D01*
X182935317Y-109016351D01*
X182948946Y-109021228D01*
X182962031Y-109027417D01*
X182974447Y-109034858D01*
X182986073Y-109043481D01*
X182996798Y-109053202D01*
X183006519Y-109063927D01*
X183015142Y-109075553D01*
X183022583Y-109087969D01*
X183028772Y-109101054D01*
X183033649Y-109114683D01*
X183037166Y-109128724D01*
X183039290Y-109143042D01*
X183040000Y-109157500D01*
X183040000Y-109452500D01*
X183039290Y-109466958D01*
X183037166Y-109481276D01*
X183033649Y-109495317D01*
X183028772Y-109508946D01*
X183022583Y-109522031D01*
X183015142Y-109534447D01*
X183006519Y-109546073D01*
X182996798Y-109556798D01*
X182986073Y-109566519D01*
X182974447Y-109575142D01*
X182962031Y-109582583D01*
X182948946Y-109588772D01*
X182935317Y-109593649D01*
X182921276Y-109597166D01*
X182906958Y-109599290D01*
X182892500Y-109600000D01*
X182547500Y-109600000D01*
X182533042Y-109599290D01*
X182518724Y-109597166D01*
X182504683Y-109593649D01*
X182491054Y-109588772D01*
X182477969Y-109582583D01*
X182465553Y-109575142D01*
X182453927Y-109566519D01*
X182443202Y-109556798D01*
X182433481Y-109546073D01*
X182424858Y-109534447D01*
X182417417Y-109522031D01*
X182411228Y-109508946D01*
X182406351Y-109495317D01*
X182402834Y-109481276D01*
X182400710Y-109466958D01*
X182400000Y-109452500D01*
X182400000Y-109157500D01*
X182400710Y-109143042D01*
X182402834Y-109128724D01*
X182406351Y-109114683D01*
X182411228Y-109101054D01*
X182417417Y-109087969D01*
X182424858Y-109075553D01*
X182433481Y-109063927D01*
X182443202Y-109053202D01*
X182453927Y-109043481D01*
X182465553Y-109034858D01*
X182477969Y-109027417D01*
X182491054Y-109021228D01*
X182504683Y-109016351D01*
X182518724Y-109012834D01*
X182533042Y-109010710D01*
X182547500Y-109010000D01*
X182892500Y-109010000D01*
X182906958Y-109010710D01*
X182906958Y-109010710D01*
G37*
D18*
X182720000Y-109305000D03*
D17*
G36*
X182906958Y-108040710D02*
G01*
X182921276Y-108042834D01*
X182935317Y-108046351D01*
X182948946Y-108051228D01*
X182962031Y-108057417D01*
X182974447Y-108064858D01*
X182986073Y-108073481D01*
X182996798Y-108083202D01*
X183006519Y-108093927D01*
X183015142Y-108105553D01*
X183022583Y-108117969D01*
X183028772Y-108131054D01*
X183033649Y-108144683D01*
X183037166Y-108158724D01*
X183039290Y-108173042D01*
X183040000Y-108187500D01*
X183040000Y-108482500D01*
X183039290Y-108496958D01*
X183037166Y-108511276D01*
X183033649Y-108525317D01*
X183028772Y-108538946D01*
X183022583Y-108552031D01*
X183015142Y-108564447D01*
X183006519Y-108576073D01*
X182996798Y-108586798D01*
X182986073Y-108596519D01*
X182974447Y-108605142D01*
X182962031Y-108612583D01*
X182948946Y-108618772D01*
X182935317Y-108623649D01*
X182921276Y-108627166D01*
X182906958Y-108629290D01*
X182892500Y-108630000D01*
X182547500Y-108630000D01*
X182533042Y-108629290D01*
X182518724Y-108627166D01*
X182504683Y-108623649D01*
X182491054Y-108618772D01*
X182477969Y-108612583D01*
X182465553Y-108605142D01*
X182453927Y-108596519D01*
X182443202Y-108586798D01*
X182433481Y-108576073D01*
X182424858Y-108564447D01*
X182417417Y-108552031D01*
X182411228Y-108538946D01*
X182406351Y-108525317D01*
X182402834Y-108511276D01*
X182400710Y-108496958D01*
X182400000Y-108482500D01*
X182400000Y-108187500D01*
X182400710Y-108173042D01*
X182402834Y-108158724D01*
X182406351Y-108144683D01*
X182411228Y-108131054D01*
X182417417Y-108117969D01*
X182424858Y-108105553D01*
X182433481Y-108093927D01*
X182443202Y-108083202D01*
X182453927Y-108073481D01*
X182465553Y-108064858D01*
X182477969Y-108057417D01*
X182491054Y-108051228D01*
X182504683Y-108046351D01*
X182518724Y-108042834D01*
X182533042Y-108040710D01*
X182547500Y-108040000D01*
X182892500Y-108040000D01*
X182906958Y-108040710D01*
X182906958Y-108040710D01*
G37*
D18*
X182720000Y-108335000D03*
D28*
X104780000Y-89150000D03*
X104780000Y-91250000D03*
D29*
X194570000Y-94060000D03*
X192470000Y-94060000D03*
D30*
X194270000Y-97271500D03*
X192370000Y-97271500D03*
X189570000Y-97271500D03*
X185160000Y-103748500D03*
X193610000Y-103748500D03*
X190760000Y-103748500D03*
X187910000Y-103748500D03*
X187220000Y-97271500D03*
D20*
X119770000Y-112279000D03*
X119770000Y-115581000D03*
M02*
