M48
; DRILL file {KiCad (5.1.0)-1} date 5/14/2019 12:14:10 AM
; FORMAT={3:3/ absolute / metric / suppress leading zeros}
; #@! TF.CreationDate,2019-05-14T00:14:10-06:00
; #@! TF.GenerationSoftware,Kicad,Pcbnew,(5.1.0)-1
FMAT,2
METRIC,TZ
T1C0.400
T2C0.450
T3C0.650
T4C0.800
T5C1.000
T6C1.020
T7C1.200
T8C1.470
T9C2.000
T10C0.500
T11C0.900
T12C1.000
T13C1.200
T14C1.750
T15C3.988
%
G90
G05
T1
X99500Y-92630
X100100Y-75590
X100450Y-104130
X100725Y-90125
X103150Y-103930
X103555Y-91695
X103720Y-86790
X104310Y-106020
X104330Y-87600
X105970Y-91970
X106300Y-79720
X106300Y-85520
X106440Y-99690
X106580Y-91070
X107060Y-96950
X107070Y-98910
X107410Y-108040
X107520Y-89040
X107890Y-98250
X108020Y-110520
X108240Y-88320
X108730Y-98980
X109090Y-89070
X109160Y-66480
X109440Y-97220
X109780Y-107650
X109870Y-88330
X109920Y-67200
X110150Y-100600
X110300Y-91280
X112020Y-69290
X112390Y-79780
X112390Y-82890
X112400Y-87550
X113390Y-93010
X113420Y-89810
X114360Y-103580
X114390Y-101620
X114480Y-98860
X114790Y-94820
X115140Y-102890
X115430Y-86300
X115660Y-100260
X116355Y-85453
X116355Y-102145
X117050Y-84650
X117050Y-101330
X117330Y-72620
X118200Y-78900
X119240Y-99020
X119240Y-101260
X120930Y-69290
X121050Y-97020
X121460Y-111780
X122230Y-80670
X122840Y-92820
X123080Y-110530
X126580Y-107410
X127570Y-110530
X128820Y-107010
X129470Y-76590
X131290Y-102810
X132530Y-76590
X134100Y-86290
X134210Y-80630
X135870Y-76620
X136620Y-102820
X137650Y-86590
X139250Y-83370
X139270Y-80600
X139480Y-111910
X139540Y-87590
X142300Y-110530
X143090Y-96910
X143090Y-101100
X143100Y-94140
X145310Y-88540
X145310Y-89940
X145310Y-91340
X145610Y-106960
X146030Y-89240
X146040Y-90640
X146280Y-82870
X146320Y-71400
X146320Y-74370
X146730Y-110530
X147750Y-80550
X147880Y-106290
X149860Y-76570
X151050Y-76610
X151830Y-72880
X151830Y-101960
X152080Y-80560
X153200Y-80550
X155200Y-99440
X157550Y-99450
X161250Y-110530
X163300Y-80170
X163320Y-84420
X163330Y-88770
X164680Y-107250
X166060Y-110530
X166910Y-105520
X167630Y-70600
X168410Y-69220
X169170Y-70610
X172410Y-74330
X173080Y-100320
X173140Y-80520
X173150Y-83770
X173950Y-69380
X174000Y-71380
X174750Y-89180
X175190Y-80120
X175190Y-83260
X175240Y-87760
X176090Y-102820
X177630Y-64720
X178160Y-102330
X180090Y-110530
X180320Y-90220
X182550Y-77630
X182590Y-79540
X182710Y-104580
X183460Y-87160
X183520Y-98800
X183630Y-103440
X183690Y-107000
X183940Y-88570
X184820Y-110530
X185100Y-78290
X185100Y-80760
X185550Y-84340
X186960Y-91310
X187660Y-78590
X187660Y-82800
X187820Y-84900
X188040Y-86570
X190260Y-91850
X190280Y-89190
X190620Y-94060
X192490Y-84870
X193450Y-89440
X194570Y-92920
T3
X99850Y-106290
X99850Y-107560
X99850Y-108830
X99850Y-110100
X99850Y-111370
X101120Y-106290
X101120Y-107560
X101120Y-108830
X101120Y-110100
X101120Y-111370
T4
X164430Y-70340
X164430Y-72880
X164430Y-75420
X164430Y-77960
T5
X186260Y-69710
X186260Y-72250
X188800Y-69710
X188800Y-72250
X191340Y-69710
X191340Y-72250
X123670Y-84430
X123670Y-98930
X126170Y-98930
X128670Y-84430
X128670Y-98930
X114760Y-121070
X117300Y-121070
X119840Y-121070
X122380Y-121070
X171880Y-121070
X174420Y-121070
X176960Y-121070
X179500Y-121070
X102910Y-69710
X102910Y-72250
X105450Y-69710
X105450Y-72250
X107990Y-69710
X107990Y-72250
T6
X126450Y-72000
X139150Y-72000
T7
X123065Y-117460
X128065Y-119560
X161165Y-117460
X166165Y-119560
X103990Y-117440
X108990Y-119540
X180215Y-117460
X185215Y-119560
X142115Y-117460
X147115Y-119560
T8
X130565Y-117660
X131875Y-116200
X168665Y-117660
X169975Y-116200
X111490Y-117640
X112800Y-116180
X187715Y-117660
X189025Y-116200
X149615Y-117660
X150925Y-116200
T10
X101850Y-80870
X101850Y-84870
T11
X192860Y-76170
X192860Y-82970
T12
X164190Y-91950
X166190Y-88486
X166190Y-95414
X168190Y-84650
X168190Y-99250
X170190Y-88486
X170190Y-95414
X172190Y-91950
X186707Y-100510
X193708Y-100510
X147150Y-68090
X155130Y-68090
T13
X133285Y-109460
X171385Y-109460
X114210Y-109440
X190435Y-109460
X152335Y-109460
T15
X108990Y-113640
X185215Y-113660
X147115Y-113660
X128065Y-113660
X166165Y-113660
T2
G00X100200Y-79645
M15
G01X99100Y-79645
M16
G05
G00X100200Y-86095
M15
G01X99100Y-86095
M16
G05
T8
G00X125583Y-117996
M15
G01X125527Y-118824
M16
G05
G00X163683Y-117996
M15
G01X163627Y-118824
M16
G05
G00X106508Y-117976
M15
G01X106452Y-118804
M16
G05
G00X182733Y-117996
M15
G01X182677Y-118824
M16
G05
G00X144633Y-117996
M15
G01X144577Y-118824
M16
G05
T9
G00X120570Y-91180
M15
G01X120570Y-91680
M16
G05
G00X131770Y-91180
M15
G01X131770Y-91680
M16
G05
T14
G00X103910Y-113640
M15
G01X103510Y-113640
M16
G05
G00X114470Y-113640
M15
G01X114070Y-113640
M16
G05
G00X180135Y-113660
M15
G01X179735Y-113660
M16
G05
G00X190695Y-113660
M15
G01X190295Y-113660
M16
G05
G00X142035Y-113660
M15
G01X141635Y-113660
M16
G05
G00X152595Y-113660
M15
G01X152195Y-113660
M16
G05
G00X122985Y-113660
M15
G01X122585Y-113660
M16
G05
G00X133545Y-113660
M15
G01X133145Y-113660
M16
G05
G00X161085Y-113660
M15
G01X160685Y-113660
M16
G05
G00X171645Y-113660
M15
G01X171245Y-113660
M16
G05
T0
M30
