G04 #@! TF.GenerationSoftware,KiCad,Pcbnew,(5.1.0)-1*
G04 #@! TF.CreationDate,2019-06-03T00:00:13-06:00*
G04 #@! TF.ProjectId,laser-theremin,6c617365-722d-4746-9865-72656d696e2e,rev?*
G04 #@! TF.SameCoordinates,Original*
G04 #@! TF.FileFunction,Soldermask,Top*
G04 #@! TF.FilePolarity,Negative*
%FSLAX46Y46*%
G04 Gerber Fmt 4.6, Leading zero omitted, Abs format (unit mm)*
G04 Created by KiCad (PCBNEW (5.1.0)-1) date 2019-06-03 00:00:13*
%MOMM*%
%LPD*%
G04 APERTURE LIST*
%ADD10C,0.010000*%
%ADD11C,2.200000*%
%ADD12O,3.600000X3.900000*%
%ADD13C,1.385520*%
%ADD14C,1.388060*%
%ADD15C,2.650000*%
%ADD16C,2.650000*%
%ADD17O,2.550000X2.150000*%
%ADD18C,1.600000*%
%ADD19C,2.400000*%
%ADD20C,4.387800*%
%ADD21R,2.400000X2.400000*%
%ADD22C,2.100000*%
%ADD23O,2.100000X2.100000*%
%ADD24C,1.300000*%
%ADD25R,1.400000X0.950000*%
%ADD26O,2.550000X1.450000*%
%ADD27C,0.900000*%
%ADD28R,1.898600X1.299160*%
%ADD29R,1.162000X1.289000*%
%ADD30O,2.400000X1.600000*%
%ADD31C,1.400000*%
%ADD32R,2.100000X2.100000*%
%ADD33C,1.900000*%
%ADD34O,1.400000X1.400000*%
%ADD35R,1.400000X1.400000*%
G04 APERTURE END LIST*
D10*
G36*
X139938595Y-87488031D02*
G01*
X140018501Y-87752614D01*
X140217020Y-88482111D01*
X140376750Y-89225886D01*
X140497447Y-89980711D01*
X140578865Y-90743355D01*
X140620759Y-91510591D01*
X140622883Y-92279188D01*
X140584993Y-93045917D01*
X140506844Y-93807550D01*
X140488482Y-93943864D01*
X140432867Y-94302546D01*
X140364567Y-94677439D01*
X140286104Y-95057078D01*
X140200000Y-95430000D01*
X140108776Y-95784741D01*
X140014953Y-96109838D01*
X140004879Y-96142347D01*
X139928002Y-96388614D01*
X135378625Y-96388614D01*
X135378625Y-87477257D01*
X139938595Y-87488031D01*
X139938595Y-87488031D01*
G37*
X139938595Y-87488031D02*
X140018501Y-87752614D01*
X140217020Y-88482111D01*
X140376750Y-89225886D01*
X140497447Y-89980711D01*
X140578865Y-90743355D01*
X140620759Y-91510591D01*
X140622883Y-92279188D01*
X140584993Y-93045917D01*
X140506844Y-93807550D01*
X140488482Y-93943864D01*
X140432867Y-94302546D01*
X140364567Y-94677439D01*
X140286104Y-95057078D01*
X140200000Y-95430000D01*
X140108776Y-95784741D01*
X140014953Y-96109838D01*
X140004879Y-96142347D01*
X139928002Y-96388614D01*
X135378625Y-96388614D01*
X135378625Y-87477257D01*
X139938595Y-87488031D01*
G36*
X158944644Y-96369375D02*
G01*
X150500776Y-96369375D01*
X150480000Y-96290000D01*
X150405313Y-95988421D01*
X150331182Y-95658318D01*
X150260503Y-95313435D01*
X150196173Y-94967516D01*
X150173004Y-94832761D01*
X150048750Y-93966874D01*
X149965343Y-93096793D01*
X149922728Y-92224868D01*
X149920852Y-91353451D01*
X149959661Y-90484891D01*
X150039100Y-89621541D01*
X150159115Y-88765749D01*
X150319652Y-87919867D01*
X150333720Y-87855083D01*
X150420693Y-87458208D01*
X158944644Y-87458208D01*
X158944644Y-96369375D01*
X158944644Y-96369375D01*
G37*
X158944644Y-96369375D02*
X150500776Y-96369375D01*
X150480000Y-96290000D01*
X150405313Y-95988421D01*
X150331182Y-95658318D01*
X150260503Y-95313435D01*
X150196173Y-94967516D01*
X150173004Y-94832761D01*
X150048750Y-93966874D01*
X149965343Y-93096793D01*
X149922728Y-92224868D01*
X149920852Y-91353451D01*
X149959661Y-90484891D01*
X150039100Y-89621541D01*
X150159115Y-88765749D01*
X150319652Y-87919867D01*
X150333720Y-87855083D01*
X150420693Y-87458208D01*
X158944644Y-87458208D01*
X158944644Y-96369375D01*
D11*
X126170000Y-98930000D03*
X128670000Y-84430000D03*
X123670000Y-84430000D03*
X123670000Y-98930000D03*
X128670000Y-98930000D03*
D12*
X131770000Y-91430000D03*
X120570000Y-91430000D03*
D13*
X99974000Y-104250000D03*
X102006000Y-104250000D03*
D14*
X100990000Y-111870000D03*
D15*
X106480000Y-118390000D03*
D16*
X106505506Y-118015868D02*
X106454494Y-118764132D01*
D17*
X114270000Y-113640000D03*
X103710000Y-113640000D03*
D18*
X114210000Y-109440000D03*
D19*
X108990000Y-119540000D03*
X103990000Y-117440000D03*
D15*
X111490000Y-117640000D03*
D20*
X108990000Y-113640000D03*
D15*
X112145005Y-116910004D03*
D16*
X112800000Y-116180000D02*
X111490010Y-117640008D01*
D15*
X125555000Y-118410000D03*
D16*
X125580506Y-118035868D02*
X125529494Y-118784132D01*
D17*
X133345000Y-113660000D03*
X122785000Y-113660000D03*
D18*
X133285000Y-109460000D03*
D19*
X128065000Y-119560000D03*
X123065000Y-117460000D03*
D15*
X130565000Y-117660000D03*
D20*
X128065000Y-113660000D03*
D15*
X131220005Y-116930004D03*
D16*
X131875000Y-116200000D02*
X130565010Y-117660008D01*
D15*
X144605000Y-118410000D03*
D16*
X144630506Y-118035868D02*
X144579494Y-118784132D01*
D17*
X152395000Y-113660000D03*
X141835000Y-113660000D03*
D18*
X152335000Y-109460000D03*
D19*
X147115000Y-119560000D03*
X142115000Y-117460000D03*
D15*
X149615000Y-117660000D03*
D20*
X147115000Y-113660000D03*
D15*
X150270005Y-116930004D03*
D16*
X150925000Y-116200000D02*
X149615010Y-117660008D01*
D15*
X163655000Y-118410000D03*
D16*
X163680506Y-118035868D02*
X163629494Y-118784132D01*
D17*
X171445000Y-113660000D03*
X160885000Y-113660000D03*
D18*
X171385000Y-109460000D03*
D19*
X166165000Y-119560000D03*
X161165000Y-117460000D03*
D15*
X168665000Y-117660000D03*
D20*
X166165000Y-113660000D03*
D15*
X169320005Y-116930004D03*
D16*
X169975000Y-116200000D02*
X168665010Y-117660008D01*
D15*
X182705000Y-118410000D03*
D16*
X182730506Y-118035868D02*
X182679494Y-118784132D01*
D17*
X190495000Y-113660000D03*
X179935000Y-113660000D03*
D18*
X190435000Y-109460000D03*
D19*
X185215000Y-119560000D03*
X180215000Y-117460000D03*
D15*
X187715000Y-117660000D03*
D20*
X185215000Y-113660000D03*
D15*
X188370005Y-116930004D03*
D16*
X189025000Y-116200000D02*
X187715010Y-117660008D01*
D19*
X139150000Y-72000000D03*
D21*
X126450000Y-72000000D03*
D22*
X191340000Y-69710000D03*
D23*
X191340000Y-72250000D03*
D22*
X188800000Y-69710000D03*
D23*
X188800000Y-72250000D03*
X186260000Y-69710000D03*
X186260000Y-72250000D03*
D22*
X107990000Y-69710000D03*
D23*
X107990000Y-72250000D03*
D22*
X105450000Y-69710000D03*
D23*
X105450000Y-72250000D03*
X102910000Y-69710000D03*
X102910000Y-72250000D03*
D18*
X155130000Y-68090000D03*
X147150000Y-68090000D03*
D24*
X192860000Y-76170000D03*
X192860000Y-82970000D03*
D25*
X99510000Y-91750000D03*
X99510000Y-91000000D03*
X99510000Y-90250000D03*
X99510000Y-89500000D03*
X99510000Y-88750000D03*
X99510000Y-88000000D03*
X101910000Y-91750000D03*
X101910000Y-89500000D03*
X101910000Y-88750000D03*
X101910000Y-88000000D03*
X101910000Y-90250000D03*
X101910000Y-91000000D03*
X194670000Y-91000000D03*
X194670000Y-90250000D03*
X194670000Y-88000000D03*
X194670000Y-88750000D03*
X194670000Y-89500000D03*
X194670000Y-91750000D03*
X192270000Y-88000000D03*
X192270000Y-88750000D03*
X192270000Y-89500000D03*
X192270000Y-90250000D03*
X192270000Y-91000000D03*
X192270000Y-91750000D03*
D26*
X99650000Y-79645000D03*
D27*
X101850000Y-80870000D03*
X101850000Y-84870000D03*
D26*
X99650000Y-86095000D03*
D28*
X114231440Y-69301540D03*
X114231440Y-72598460D03*
X119128560Y-72598460D03*
X119128560Y-69301540D03*
X180778560Y-69371540D03*
X180778560Y-72668460D03*
X175881440Y-72668460D03*
X175881440Y-69371540D03*
D29*
X109782000Y-108910000D03*
X108258000Y-108910000D03*
X127303000Y-108910000D03*
X128827000Y-108910000D03*
X147877000Y-108910000D03*
X146353000Y-108910000D03*
X165403000Y-108910000D03*
X166927000Y-108910000D03*
X184453000Y-108910000D03*
X185977000Y-108910000D03*
D30*
X164430000Y-70340000D03*
X164430000Y-72880000D03*
X164430000Y-75420000D03*
X164430000Y-77960000D03*
D31*
X186707420Y-99710000D03*
X193707660Y-99710000D03*
D32*
X171870000Y-121040000D03*
D23*
X174410000Y-121040000D03*
X176950000Y-121040000D03*
X179490000Y-121040000D03*
X122350000Y-121050000D03*
X119810000Y-121050000D03*
X117270000Y-121050000D03*
D32*
X114730000Y-121050000D03*
D33*
X164210000Y-91960000D03*
X164745898Y-89960000D03*
X166210000Y-88495898D03*
X168210000Y-87960000D03*
X170210000Y-88495898D03*
X171674102Y-89960000D03*
X172210000Y-91960000D03*
X171674102Y-93960000D03*
X170210000Y-95424102D03*
X168210000Y-95960000D03*
X166210000Y-95424102D03*
X164745898Y-93960000D03*
X168210000Y-91960000D03*
X166210000Y-91960000D03*
X167210000Y-90227949D03*
X169210000Y-90227949D03*
X170210000Y-91960000D03*
X169210000Y-93692051D03*
X167210000Y-93692051D03*
X163013848Y-88960000D03*
X165210000Y-86763848D03*
X171210000Y-86763848D03*
X173406152Y-88960000D03*
X173406152Y-94960000D03*
X171210000Y-97156152D03*
X165210000Y-97156152D03*
X163013848Y-94960000D03*
D34*
X105170000Y-109940000D03*
X106440000Y-109940000D03*
X104970000Y-108670000D03*
X106240000Y-108670000D03*
X105170000Y-107400000D03*
X106440000Y-107400000D03*
X104970000Y-106130000D03*
X106240000Y-106130000D03*
X105170000Y-104860000D03*
D35*
X106440000Y-104860000D03*
M02*
