G04 #@! TF.GenerationSoftware,KiCad,Pcbnew,(5.1.0)-1*
G04 #@! TF.CreationDate,2019-06-03T00:00:13-06:00*
G04 #@! TF.ProjectId,laser-theremin,6c617365-722d-4746-9865-72656d696e2e,rev?*
G04 #@! TF.SameCoordinates,Original*
G04 #@! TF.FileFunction,Other,User*
%FSLAX46Y46*%
G04 Gerber Fmt 4.6, Leading zero omitted, Abs format (unit mm)*
G04 Created by KiCad (PCBNEW (5.1.0)-1) date 2019-06-03 00:00:13*
%MOMM*%
%LPD*%
G04 APERTURE LIST*
%ADD10C,0.120000*%
%ADD11C,0.150000*%
%ADD12C,0.050000*%
G04 APERTURE END LIST*
D10*
X111510000Y-110520000D02*
X111510000Y-107370000D01*
X111500000Y-107370000D02*
X106500000Y-107370000D01*
X106500000Y-107390000D02*
X106500000Y-110540000D01*
X106500000Y-110540000D02*
X111500000Y-110540000D01*
D11*
X99465000Y-123195000D02*
X99465000Y-104145000D01*
X118515000Y-104145000D02*
X118515000Y-123195000D01*
X118515000Y-123195000D02*
X99465000Y-123195000D01*
X99465000Y-104145000D02*
X118515000Y-104145000D01*
D10*
X130585000Y-110540000D02*
X130585000Y-107390000D01*
X130575000Y-107390000D02*
X125575000Y-107390000D01*
X125575000Y-107410000D02*
X125575000Y-110560000D01*
X125575000Y-110560000D02*
X130575000Y-110560000D01*
D11*
X118540000Y-123215000D02*
X118540000Y-104165000D01*
X137590000Y-104165000D02*
X137590000Y-123215000D01*
X137590000Y-123215000D02*
X118540000Y-123215000D01*
X118540000Y-104165000D02*
X137590000Y-104165000D01*
D10*
X149635000Y-110540000D02*
X149635000Y-107390000D01*
X149625000Y-107390000D02*
X144625000Y-107390000D01*
X144625000Y-107410000D02*
X144625000Y-110560000D01*
X144625000Y-110560000D02*
X149625000Y-110560000D01*
D11*
X137590000Y-123215000D02*
X137590000Y-104165000D01*
X156640000Y-104165000D02*
X156640000Y-123215000D01*
X156640000Y-123215000D02*
X137590000Y-123215000D01*
X137590000Y-104165000D02*
X156640000Y-104165000D01*
D10*
X168685000Y-110540000D02*
X168685000Y-107390000D01*
X168675000Y-107390000D02*
X163675000Y-107390000D01*
X163675000Y-107410000D02*
X163675000Y-110560000D01*
X163675000Y-110560000D02*
X168675000Y-110560000D01*
D11*
X156640000Y-123215000D02*
X156640000Y-104165000D01*
X175690000Y-104165000D02*
X175690000Y-123215000D01*
X175690000Y-123215000D02*
X156640000Y-123215000D01*
X156640000Y-104165000D02*
X175690000Y-104165000D01*
D10*
X187735000Y-110540000D02*
X187735000Y-107390000D01*
X187725000Y-107390000D02*
X182725000Y-107390000D01*
X182725000Y-107410000D02*
X182725000Y-110560000D01*
X182725000Y-110560000D02*
X187725000Y-110560000D01*
D11*
X175690000Y-123215000D02*
X175690000Y-104165000D01*
X194740000Y-104165000D02*
X194740000Y-123215000D01*
X194740000Y-123215000D02*
X175690000Y-123215000D01*
X175690000Y-104165000D02*
X194740000Y-104165000D01*
D10*
X182550000Y-73980000D02*
X182550000Y-67980000D01*
X195050000Y-73980000D02*
X195050000Y-67980000D01*
X182550000Y-73980000D02*
X195050000Y-73980000D01*
X182550000Y-67980000D02*
X195050000Y-67980000D01*
X99200000Y-73980000D02*
X99200000Y-67980000D01*
X111700000Y-73980000D02*
X111700000Y-67980000D01*
X99200000Y-73980000D02*
X111700000Y-73980000D01*
X99200000Y-67980000D02*
X111700000Y-67980000D01*
X98860000Y-92420000D02*
X98860000Y-87360000D01*
X98860000Y-87360000D02*
X102560000Y-87350000D01*
X102560000Y-87350000D02*
X102560000Y-92410000D01*
X102560000Y-92410000D02*
X98860000Y-92420000D01*
X195320000Y-92410000D02*
X191620000Y-92420000D01*
X195320000Y-87350000D02*
X195320000Y-92410000D01*
X191620000Y-87360000D02*
X195320000Y-87350000D01*
X191620000Y-92420000D02*
X191620000Y-87360000D01*
D12*
X113230000Y-73700000D02*
X113230000Y-68200000D01*
X120130000Y-73700000D02*
X113230000Y-73700000D01*
X120130000Y-68200000D02*
X120130000Y-73700000D01*
X113230000Y-68200000D02*
X120130000Y-68200000D01*
X174880000Y-68270000D02*
X181780000Y-68270000D01*
X181780000Y-68270000D02*
X181780000Y-73770000D01*
X181780000Y-73770000D02*
X174880000Y-73770000D01*
X174880000Y-73770000D02*
X174880000Y-68270000D01*
X110413000Y-108215500D02*
X110413000Y-109604500D01*
X107627000Y-108215500D02*
X110413000Y-108215500D01*
X107627000Y-109604500D02*
X107627000Y-108215500D01*
X110413000Y-109604500D02*
X107627000Y-109604500D01*
X129458000Y-109604500D02*
X126672000Y-109604500D01*
X126672000Y-109604500D02*
X126672000Y-108215500D01*
X126672000Y-108215500D02*
X129458000Y-108215500D01*
X129458000Y-108215500D02*
X129458000Y-109604500D01*
X148508000Y-108215500D02*
X148508000Y-109604500D01*
X145722000Y-108215500D02*
X148508000Y-108215500D01*
X145722000Y-109604500D02*
X145722000Y-108215500D01*
X148508000Y-109604500D02*
X145722000Y-109604500D01*
X167558000Y-109604500D02*
X164772000Y-109604500D01*
X164772000Y-109604500D02*
X164772000Y-108215500D01*
X164772000Y-108215500D02*
X167558000Y-108215500D01*
X167558000Y-108215500D02*
X167558000Y-109604500D01*
X186608000Y-109604500D02*
X183822000Y-109604500D01*
X183822000Y-109604500D02*
X183822000Y-108215500D01*
X183822000Y-108215500D02*
X186608000Y-108215500D01*
X186608000Y-108215500D02*
X186608000Y-109604500D01*
X165680000Y-69490000D02*
X165680000Y-78810000D01*
X165680000Y-78810000D02*
X163180000Y-78810000D01*
X163180000Y-78810000D02*
X163180000Y-69490000D01*
X163180000Y-69490000D02*
X165680000Y-69490000D01*
X170070000Y-122840000D02*
X181270000Y-122840000D01*
X181270000Y-122840000D02*
X181270000Y-119240000D01*
X181270000Y-119240000D02*
X170070000Y-119240000D01*
X170070000Y-119240000D02*
X170070000Y-122840000D01*
X112930000Y-119250000D02*
X112930000Y-122850000D01*
X124130000Y-119250000D02*
X112930000Y-119250000D01*
X124130000Y-122850000D02*
X124130000Y-119250000D01*
X112930000Y-122850000D02*
X124130000Y-122850000D01*
M02*
