G04 #@! TF.GenerationSoftware,KiCad,Pcbnew,(5.1.0)-1*
G04 #@! TF.CreationDate,2019-06-18T01:36:36-06:00*
G04 #@! TF.ProjectId,laser-theremin,6c617365-722d-4746-9865-72656d696e2e,rev?*
G04 #@! TF.SameCoordinates,Original*
G04 #@! TF.FileFunction,Other,Fab,Top*
%FSLAX46Y46*%
G04 Gerber Fmt 4.6, Leading zero omitted, Abs format (unit mm)*
G04 Created by KiCad (PCBNEW (5.1.0)-1) date 2019-06-18 01:36:36*
%MOMM*%
%LPD*%
G04 APERTURE LIST*
%ADD10C,0.100000*%
%ADD11C,0.150000*%
%ADD12C,0.300000*%
%ADD13C,0.400000*%
G04 APERTURE END LIST*
D10*
D11*
X177002200Y-166007200D02*
X177002200Y-198007200D01*
X285002200Y-198007200D01*
X285002200Y-166007200D01*
X177002200Y-166007200D01*
D10*
D11*
X10000000Y-10000000D02*
X10000000Y-200007200D01*
X287002200Y-200007200D01*
X287002200Y-10000000D01*
X10000000Y-10000000D01*
D10*
D11*
X12000000Y-12000000D02*
X12000000Y-198007200D01*
X285002200Y-198007200D01*
X285002200Y-12000000D01*
X12000000Y-12000000D01*
D10*
D11*
X60000000Y-12000000D02*
X60000000Y-10000000D01*
D10*
D11*
X110000000Y-12000000D02*
X110000000Y-10000000D01*
D10*
D11*
X160000000Y-12000000D02*
X160000000Y-10000000D01*
D10*
D11*
X210000000Y-12000000D02*
X210000000Y-10000000D01*
D10*
D11*
X260000000Y-12000000D02*
X260000000Y-10000000D01*
D10*
D11*
X36065476Y-11588095D02*
X35322619Y-11588095D01*
X35694047Y-11588095D02*
X35694047Y-10288095D01*
X35570238Y-10473809D01*
X35446428Y-10597619D01*
X35322619Y-10659523D01*
D10*
D11*
X85322619Y-10411904D02*
X85384523Y-10350000D01*
X85508333Y-10288095D01*
X85817857Y-10288095D01*
X85941666Y-10350000D01*
X86003571Y-10411904D01*
X86065476Y-10535714D01*
X86065476Y-10659523D01*
X86003571Y-10845238D01*
X85260714Y-11588095D01*
X86065476Y-11588095D01*
D10*
D11*
X135260714Y-10288095D02*
X136065476Y-10288095D01*
X135632142Y-10783333D01*
X135817857Y-10783333D01*
X135941666Y-10845238D01*
X136003571Y-10907142D01*
X136065476Y-11030952D01*
X136065476Y-11340476D01*
X136003571Y-11464285D01*
X135941666Y-11526190D01*
X135817857Y-11588095D01*
X135446428Y-11588095D01*
X135322619Y-11526190D01*
X135260714Y-11464285D01*
D10*
D11*
X185941666Y-10721428D02*
X185941666Y-11588095D01*
X185632142Y-10226190D02*
X185322619Y-11154761D01*
X186127380Y-11154761D01*
D10*
D11*
X236003571Y-10288095D02*
X235384523Y-10288095D01*
X235322619Y-10907142D01*
X235384523Y-10845238D01*
X235508333Y-10783333D01*
X235817857Y-10783333D01*
X235941666Y-10845238D01*
X236003571Y-10907142D01*
X236065476Y-11030952D01*
X236065476Y-11340476D01*
X236003571Y-11464285D01*
X235941666Y-11526190D01*
X235817857Y-11588095D01*
X235508333Y-11588095D01*
X235384523Y-11526190D01*
X235322619Y-11464285D01*
D10*
D11*
X285941666Y-10288095D02*
X285694047Y-10288095D01*
X285570238Y-10350000D01*
X285508333Y-10411904D01*
X285384523Y-10597619D01*
X285322619Y-10845238D01*
X285322619Y-11340476D01*
X285384523Y-11464285D01*
X285446428Y-11526190D01*
X285570238Y-11588095D01*
X285817857Y-11588095D01*
X285941666Y-11526190D01*
X286003571Y-11464285D01*
X286065476Y-11340476D01*
X286065476Y-11030952D01*
X286003571Y-10907142D01*
X285941666Y-10845238D01*
X285817857Y-10783333D01*
X285570238Y-10783333D01*
X285446428Y-10845238D01*
X285384523Y-10907142D01*
X285322619Y-11030952D01*
D10*
D11*
X60000000Y-198007200D02*
X60000000Y-200007200D01*
D10*
D11*
X110000000Y-198007200D02*
X110000000Y-200007200D01*
D10*
D11*
X160000000Y-198007200D02*
X160000000Y-200007200D01*
D10*
D11*
X210000000Y-198007200D02*
X210000000Y-200007200D01*
D10*
D11*
X260000000Y-198007200D02*
X260000000Y-200007200D01*
D10*
D11*
X36065476Y-199595295D02*
X35322619Y-199595295D01*
X35694047Y-199595295D02*
X35694047Y-198295295D01*
X35570238Y-198481009D01*
X35446428Y-198604819D01*
X35322619Y-198666723D01*
D10*
D11*
X85322619Y-198419104D02*
X85384523Y-198357200D01*
X85508333Y-198295295D01*
X85817857Y-198295295D01*
X85941666Y-198357200D01*
X86003571Y-198419104D01*
X86065476Y-198542914D01*
X86065476Y-198666723D01*
X86003571Y-198852438D01*
X85260714Y-199595295D01*
X86065476Y-199595295D01*
D10*
D11*
X135260714Y-198295295D02*
X136065476Y-198295295D01*
X135632142Y-198790533D01*
X135817857Y-198790533D01*
X135941666Y-198852438D01*
X136003571Y-198914342D01*
X136065476Y-199038152D01*
X136065476Y-199347676D01*
X136003571Y-199471485D01*
X135941666Y-199533390D01*
X135817857Y-199595295D01*
X135446428Y-199595295D01*
X135322619Y-199533390D01*
X135260714Y-199471485D01*
D10*
D11*
X185941666Y-198728628D02*
X185941666Y-199595295D01*
X185632142Y-198233390D02*
X185322619Y-199161961D01*
X186127380Y-199161961D01*
D10*
D11*
X236003571Y-198295295D02*
X235384523Y-198295295D01*
X235322619Y-198914342D01*
X235384523Y-198852438D01*
X235508333Y-198790533D01*
X235817857Y-198790533D01*
X235941666Y-198852438D01*
X236003571Y-198914342D01*
X236065476Y-199038152D01*
X236065476Y-199347676D01*
X236003571Y-199471485D01*
X235941666Y-199533390D01*
X235817857Y-199595295D01*
X235508333Y-199595295D01*
X235384523Y-199533390D01*
X235322619Y-199471485D01*
D10*
D11*
X285941666Y-198295295D02*
X285694047Y-198295295D01*
X285570238Y-198357200D01*
X285508333Y-198419104D01*
X285384523Y-198604819D01*
X285322619Y-198852438D01*
X285322619Y-199347676D01*
X285384523Y-199471485D01*
X285446428Y-199533390D01*
X285570238Y-199595295D01*
X285817857Y-199595295D01*
X285941666Y-199533390D01*
X286003571Y-199471485D01*
X286065476Y-199347676D01*
X286065476Y-199038152D01*
X286003571Y-198914342D01*
X285941666Y-198852438D01*
X285817857Y-198790533D01*
X285570238Y-198790533D01*
X285446428Y-198852438D01*
X285384523Y-198914342D01*
X285322619Y-199038152D01*
D10*
D11*
X10000000Y-60000000D02*
X12000000Y-60000000D01*
D10*
D11*
X10000000Y-110000000D02*
X12000000Y-110000000D01*
D10*
D11*
X10000000Y-160000000D02*
X12000000Y-160000000D01*
D10*
D11*
X10690476Y-35216666D02*
X11309523Y-35216666D01*
X10566666Y-35588095D02*
X11000000Y-34288095D01*
X11433333Y-35588095D01*
D10*
D11*
X11092857Y-84907142D02*
X11278571Y-84969047D01*
X11340476Y-85030952D01*
X11402380Y-85154761D01*
X11402380Y-85340476D01*
X11340476Y-85464285D01*
X11278571Y-85526190D01*
X11154761Y-85588095D01*
X10659523Y-85588095D01*
X10659523Y-84288095D01*
X11092857Y-84288095D01*
X11216666Y-84350000D01*
X11278571Y-84411904D01*
X11340476Y-84535714D01*
X11340476Y-84659523D01*
X11278571Y-84783333D01*
X11216666Y-84845238D01*
X11092857Y-84907142D01*
X10659523Y-84907142D01*
D10*
D11*
X11402380Y-135464285D02*
X11340476Y-135526190D01*
X11154761Y-135588095D01*
X11030952Y-135588095D01*
X10845238Y-135526190D01*
X10721428Y-135402380D01*
X10659523Y-135278571D01*
X10597619Y-135030952D01*
X10597619Y-134845238D01*
X10659523Y-134597619D01*
X10721428Y-134473809D01*
X10845238Y-134350000D01*
X11030952Y-134288095D01*
X11154761Y-134288095D01*
X11340476Y-134350000D01*
X11402380Y-134411904D01*
D10*
D11*
X10659523Y-185588095D02*
X10659523Y-184288095D01*
X10969047Y-184288095D01*
X11154761Y-184350000D01*
X11278571Y-184473809D01*
X11340476Y-184597619D01*
X11402380Y-184845238D01*
X11402380Y-185030952D01*
X11340476Y-185278571D01*
X11278571Y-185402380D01*
X11154761Y-185526190D01*
X10969047Y-185588095D01*
X10659523Y-185588095D01*
D10*
D11*
X287002200Y-60000000D02*
X285002200Y-60000000D01*
D10*
D11*
X287002200Y-110000000D02*
X285002200Y-110000000D01*
D10*
D11*
X287002200Y-160000000D02*
X285002200Y-160000000D01*
D10*
D11*
X285692676Y-35216666D02*
X286311723Y-35216666D01*
X285568866Y-35588095D02*
X286002200Y-34288095D01*
X286435533Y-35588095D01*
D10*
D11*
X286095057Y-84907142D02*
X286280771Y-84969047D01*
X286342676Y-85030952D01*
X286404580Y-85154761D01*
X286404580Y-85340476D01*
X286342676Y-85464285D01*
X286280771Y-85526190D01*
X286156961Y-85588095D01*
X285661723Y-85588095D01*
X285661723Y-84288095D01*
X286095057Y-84288095D01*
X286218866Y-84350000D01*
X286280771Y-84411904D01*
X286342676Y-84535714D01*
X286342676Y-84659523D01*
X286280771Y-84783333D01*
X286218866Y-84845238D01*
X286095057Y-84907142D01*
X285661723Y-84907142D01*
D10*
D11*
X286404580Y-135464285D02*
X286342676Y-135526190D01*
X286156961Y-135588095D01*
X286033152Y-135588095D01*
X285847438Y-135526190D01*
X285723628Y-135402380D01*
X285661723Y-135278571D01*
X285599819Y-135030952D01*
X285599819Y-134845238D01*
X285661723Y-134597619D01*
X285723628Y-134473809D01*
X285847438Y-134350000D01*
X286033152Y-134288095D01*
X286156961Y-134288095D01*
X286342676Y-134350000D01*
X286404580Y-134411904D01*
D10*
D11*
X285661723Y-185588095D02*
X285661723Y-184288095D01*
X285971247Y-184288095D01*
X286156961Y-184350000D01*
X286280771Y-184473809D01*
X286342676Y-184597619D01*
X286404580Y-184845238D01*
X286404580Y-185030952D01*
X286342676Y-185278571D01*
X286280771Y-185402380D01*
X286156961Y-185526190D01*
X285971247Y-185588095D01*
X285661723Y-185588095D01*
D10*
D11*
X200434342Y-193785771D02*
X200434342Y-192285771D01*
X200791485Y-192285771D01*
X201005771Y-192357200D01*
X201148628Y-192500057D01*
X201220057Y-192642914D01*
X201291485Y-192928628D01*
X201291485Y-193142914D01*
X201220057Y-193428628D01*
X201148628Y-193571485D01*
X201005771Y-193714342D01*
X200791485Y-193785771D01*
X200434342Y-193785771D01*
X202577200Y-193785771D02*
X202577200Y-193000057D01*
X202505771Y-192857200D01*
X202362914Y-192785771D01*
X202077200Y-192785771D01*
X201934342Y-192857200D01*
X202577200Y-193714342D02*
X202434342Y-193785771D01*
X202077200Y-193785771D01*
X201934342Y-193714342D01*
X201862914Y-193571485D01*
X201862914Y-193428628D01*
X201934342Y-193285771D01*
X202077200Y-193214342D01*
X202434342Y-193214342D01*
X202577200Y-193142914D01*
X203077200Y-192785771D02*
X203648628Y-192785771D01*
X203291485Y-192285771D02*
X203291485Y-193571485D01*
X203362914Y-193714342D01*
X203505771Y-193785771D01*
X203648628Y-193785771D01*
X204720057Y-193714342D02*
X204577200Y-193785771D01*
X204291485Y-193785771D01*
X204148628Y-193714342D01*
X204077200Y-193571485D01*
X204077200Y-193000057D01*
X204148628Y-192857200D01*
X204291485Y-192785771D01*
X204577200Y-192785771D01*
X204720057Y-192857200D01*
X204791485Y-193000057D01*
X204791485Y-193142914D01*
X204077200Y-193285771D01*
X205434342Y-193642914D02*
X205505771Y-193714342D01*
X205434342Y-193785771D01*
X205362914Y-193714342D01*
X205434342Y-193642914D01*
X205434342Y-193785771D01*
X205434342Y-192857200D02*
X205505771Y-192928628D01*
X205434342Y-193000057D01*
X205362914Y-192928628D01*
X205434342Y-192857200D01*
X205434342Y-193000057D01*
D10*
D11*
X177002200Y-194507200D02*
X285002200Y-194507200D01*
D10*
D11*
X178434342Y-196585771D02*
X178434342Y-195085771D01*
X179291485Y-196585771D02*
X178648628Y-195728628D01*
X179291485Y-195085771D02*
X178434342Y-195942914D01*
X179934342Y-196585771D02*
X179934342Y-195585771D01*
X179934342Y-195085771D02*
X179862914Y-195157200D01*
X179934342Y-195228628D01*
X180005771Y-195157200D01*
X179934342Y-195085771D01*
X179934342Y-195228628D01*
X181505771Y-196442914D02*
X181434342Y-196514342D01*
X181220057Y-196585771D01*
X181077200Y-196585771D01*
X180862914Y-196514342D01*
X180720057Y-196371485D01*
X180648628Y-196228628D01*
X180577200Y-195942914D01*
X180577200Y-195728628D01*
X180648628Y-195442914D01*
X180720057Y-195300057D01*
X180862914Y-195157200D01*
X181077200Y-195085771D01*
X181220057Y-195085771D01*
X181434342Y-195157200D01*
X181505771Y-195228628D01*
X182791485Y-196585771D02*
X182791485Y-195800057D01*
X182720057Y-195657200D01*
X182577200Y-195585771D01*
X182291485Y-195585771D01*
X182148628Y-195657200D01*
X182791485Y-196514342D02*
X182648628Y-196585771D01*
X182291485Y-196585771D01*
X182148628Y-196514342D01*
X182077200Y-196371485D01*
X182077200Y-196228628D01*
X182148628Y-196085771D01*
X182291485Y-196014342D01*
X182648628Y-196014342D01*
X182791485Y-195942914D01*
X184148628Y-196585771D02*
X184148628Y-195085771D01*
X184148628Y-196514342D02*
X184005771Y-196585771D01*
X183720057Y-196585771D01*
X183577200Y-196514342D01*
X183505771Y-196442914D01*
X183434342Y-196300057D01*
X183434342Y-195871485D01*
X183505771Y-195728628D01*
X183577200Y-195657200D01*
X183720057Y-195585771D01*
X184005771Y-195585771D01*
X184148628Y-195657200D01*
X186005771Y-195800057D02*
X186505771Y-195800057D01*
X186720057Y-196585771D02*
X186005771Y-196585771D01*
X186005771Y-195085771D01*
X186720057Y-195085771D01*
X187362914Y-196442914D02*
X187434342Y-196514342D01*
X187362914Y-196585771D01*
X187291485Y-196514342D01*
X187362914Y-196442914D01*
X187362914Y-196585771D01*
X188077200Y-196585771D02*
X188077200Y-195085771D01*
X188434342Y-195085771D01*
X188648628Y-195157200D01*
X188791485Y-195300057D01*
X188862914Y-195442914D01*
X188934342Y-195728628D01*
X188934342Y-195942914D01*
X188862914Y-196228628D01*
X188791485Y-196371485D01*
X188648628Y-196514342D01*
X188434342Y-196585771D01*
X188077200Y-196585771D01*
X189577200Y-196442914D02*
X189648628Y-196514342D01*
X189577200Y-196585771D01*
X189505771Y-196514342D01*
X189577200Y-196442914D01*
X189577200Y-196585771D01*
X190220057Y-196157200D02*
X190934342Y-196157200D01*
X190077200Y-196585771D02*
X190577200Y-195085771D01*
X191077200Y-196585771D01*
X191577200Y-196442914D02*
X191648628Y-196514342D01*
X191577200Y-196585771D01*
X191505771Y-196514342D01*
X191577200Y-196442914D01*
X191577200Y-196585771D01*
X194577200Y-196585771D02*
X194577200Y-195085771D01*
X194720057Y-196014342D02*
X195148628Y-196585771D01*
X195148628Y-195585771D02*
X194577200Y-196157200D01*
X195791485Y-196585771D02*
X195791485Y-195585771D01*
X195791485Y-195085771D02*
X195720057Y-195157200D01*
X195791485Y-195228628D01*
X195862914Y-195157200D01*
X195791485Y-195085771D01*
X195791485Y-195228628D01*
X197148628Y-196514342D02*
X197005771Y-196585771D01*
X196720057Y-196585771D01*
X196577200Y-196514342D01*
X196505771Y-196442914D01*
X196434342Y-196300057D01*
X196434342Y-195871485D01*
X196505771Y-195728628D01*
X196577200Y-195657200D01*
X196720057Y-195585771D01*
X197005771Y-195585771D01*
X197148628Y-195657200D01*
X198434342Y-196585771D02*
X198434342Y-195800057D01*
X198362914Y-195657200D01*
X198220057Y-195585771D01*
X197934342Y-195585771D01*
X197791485Y-195657200D01*
X198434342Y-196514342D02*
X198291485Y-196585771D01*
X197934342Y-196585771D01*
X197791485Y-196514342D01*
X197720057Y-196371485D01*
X197720057Y-196228628D01*
X197791485Y-196085771D01*
X197934342Y-196014342D01*
X198291485Y-196014342D01*
X198434342Y-195942914D01*
X199791485Y-196585771D02*
X199791485Y-195085771D01*
X199791485Y-196514342D02*
X199648628Y-196585771D01*
X199362914Y-196585771D01*
X199220057Y-196514342D01*
X199148628Y-196442914D01*
X199077200Y-196300057D01*
X199077200Y-195871485D01*
X199148628Y-195728628D01*
X199220057Y-195657200D01*
X199362914Y-195585771D01*
X199648628Y-195585771D01*
X199791485Y-195657200D01*
X202077200Y-197157200D02*
X202005771Y-197085771D01*
X201862914Y-196871485D01*
X201791485Y-196728628D01*
X201720057Y-196514342D01*
X201648628Y-196157200D01*
X201648628Y-195871485D01*
X201720057Y-195514342D01*
X201791485Y-195300057D01*
X201862914Y-195157200D01*
X202005771Y-194942914D01*
X202077200Y-194871485D01*
X203362914Y-195085771D02*
X202648628Y-195085771D01*
X202577200Y-195800057D01*
X202648628Y-195728628D01*
X202791485Y-195657200D01*
X203148628Y-195657200D01*
X203291485Y-195728628D01*
X203362914Y-195800057D01*
X203434342Y-195942914D01*
X203434342Y-196300057D01*
X203362914Y-196442914D01*
X203291485Y-196514342D01*
X203148628Y-196585771D01*
X202791485Y-196585771D01*
X202648628Y-196514342D01*
X202577200Y-196442914D01*
X204077200Y-196442914D02*
X204148628Y-196514342D01*
X204077200Y-196585771D01*
X204005771Y-196514342D01*
X204077200Y-196442914D01*
X204077200Y-196585771D01*
X205577200Y-196585771D02*
X204720057Y-196585771D01*
X205148628Y-196585771D02*
X205148628Y-195085771D01*
X205005771Y-195300057D01*
X204862914Y-195442914D01*
X204720057Y-195514342D01*
X206220057Y-196442914D02*
X206291485Y-196514342D01*
X206220057Y-196585771D01*
X206148628Y-196514342D01*
X206220057Y-196442914D01*
X206220057Y-196585771D01*
X207220057Y-195085771D02*
X207362914Y-195085771D01*
X207505771Y-195157200D01*
X207577200Y-195228628D01*
X207648628Y-195371485D01*
X207720057Y-195657200D01*
X207720057Y-196014342D01*
X207648628Y-196300057D01*
X207577200Y-196442914D01*
X207505771Y-196514342D01*
X207362914Y-196585771D01*
X207220057Y-196585771D01*
X207077200Y-196514342D01*
X207005771Y-196442914D01*
X206934342Y-196300057D01*
X206862914Y-196014342D01*
X206862914Y-195657200D01*
X206934342Y-195371485D01*
X207005771Y-195228628D01*
X207077200Y-195157200D01*
X207220057Y-195085771D01*
X208220057Y-197157200D02*
X208291485Y-197085771D01*
X208434342Y-196871485D01*
X208505771Y-196728628D01*
X208577200Y-196514342D01*
X208648628Y-196157200D01*
X208648628Y-195871485D01*
X208577200Y-195514342D01*
X208505771Y-195300057D01*
X208434342Y-195157200D01*
X208291485Y-194942914D01*
X208220057Y-194871485D01*
X209362914Y-196014342D02*
X210505771Y-196014342D01*
X212005771Y-196585771D02*
X211148628Y-196585771D01*
X211577200Y-196585771D02*
X211577200Y-195085771D01*
X211434342Y-195300057D01*
X211291485Y-195442914D01*
X211148628Y-195514342D01*
D10*
D11*
X177002200Y-191507200D02*
X285002200Y-191507200D01*
D10*
D12*
X264411485Y-193785771D02*
X263911485Y-193071485D01*
X263554342Y-193785771D02*
X263554342Y-192285771D01*
X264125771Y-192285771D01*
X264268628Y-192357200D01*
X264340057Y-192428628D01*
X264411485Y-192571485D01*
X264411485Y-192785771D01*
X264340057Y-192928628D01*
X264268628Y-193000057D01*
X264125771Y-193071485D01*
X263554342Y-193071485D01*
X265625771Y-193714342D02*
X265482914Y-193785771D01*
X265197200Y-193785771D01*
X265054342Y-193714342D01*
X264982914Y-193571485D01*
X264982914Y-193000057D01*
X265054342Y-192857200D01*
X265197200Y-192785771D01*
X265482914Y-192785771D01*
X265625771Y-192857200D01*
X265697200Y-193000057D01*
X265697200Y-193142914D01*
X264982914Y-193285771D01*
X266197200Y-192785771D02*
X266554342Y-193785771D01*
X266911485Y-192785771D01*
X267482914Y-193642914D02*
X267554342Y-193714342D01*
X267482914Y-193785771D01*
X267411485Y-193714342D01*
X267482914Y-193642914D01*
X267482914Y-193785771D01*
X267482914Y-192857200D02*
X267554342Y-192928628D01*
X267482914Y-193000057D01*
X267411485Y-192928628D01*
X267482914Y-192857200D01*
X267482914Y-193000057D01*
D10*
D11*
X178362914Y-193714342D02*
X178577200Y-193785771D01*
X178934342Y-193785771D01*
X179077200Y-193714342D01*
X179148628Y-193642914D01*
X179220057Y-193500057D01*
X179220057Y-193357200D01*
X179148628Y-193214342D01*
X179077200Y-193142914D01*
X178934342Y-193071485D01*
X178648628Y-193000057D01*
X178505771Y-192928628D01*
X178434342Y-192857200D01*
X178362914Y-192714342D01*
X178362914Y-192571485D01*
X178434342Y-192428628D01*
X178505771Y-192357200D01*
X178648628Y-192285771D01*
X179005771Y-192285771D01*
X179220057Y-192357200D01*
X179862914Y-193785771D02*
X179862914Y-192785771D01*
X179862914Y-192285771D02*
X179791485Y-192357200D01*
X179862914Y-192428628D01*
X179934342Y-192357200D01*
X179862914Y-192285771D01*
X179862914Y-192428628D01*
X180434342Y-192785771D02*
X181220057Y-192785771D01*
X180434342Y-193785771D01*
X181220057Y-193785771D01*
X182362914Y-193714342D02*
X182220057Y-193785771D01*
X181934342Y-193785771D01*
X181791485Y-193714342D01*
X181720057Y-193571485D01*
X181720057Y-193000057D01*
X181791485Y-192857200D01*
X181934342Y-192785771D01*
X182220057Y-192785771D01*
X182362914Y-192857200D01*
X182434342Y-193000057D01*
X182434342Y-193142914D01*
X181720057Y-193285771D01*
X183077200Y-193642914D02*
X183148628Y-193714342D01*
X183077200Y-193785771D01*
X183005771Y-193714342D01*
X183077200Y-193642914D01*
X183077200Y-193785771D01*
X183077200Y-192857200D02*
X183148628Y-192928628D01*
X183077200Y-193000057D01*
X183005771Y-192928628D01*
X183077200Y-192857200D01*
X183077200Y-193000057D01*
X184862914Y-193357200D02*
X185577200Y-193357200D01*
X184720057Y-193785771D02*
X185220057Y-192285771D01*
X185720057Y-193785771D01*
X186862914Y-192785771D02*
X186862914Y-193785771D01*
X186505771Y-192214342D02*
X186148628Y-193285771D01*
X187077200Y-193285771D01*
D10*
D11*
X263434342Y-196585771D02*
X263434342Y-195085771D01*
X264791485Y-196585771D02*
X264791485Y-195085771D01*
X264791485Y-196514342D02*
X264648628Y-196585771D01*
X264362914Y-196585771D01*
X264220057Y-196514342D01*
X264148628Y-196442914D01*
X264077200Y-196300057D01*
X264077200Y-195871485D01*
X264148628Y-195728628D01*
X264220057Y-195657200D01*
X264362914Y-195585771D01*
X264648628Y-195585771D01*
X264791485Y-195657200D01*
X265505771Y-196442914D02*
X265577200Y-196514342D01*
X265505771Y-196585771D01*
X265434342Y-196514342D01*
X265505771Y-196442914D01*
X265505771Y-196585771D01*
X265505771Y-195657200D02*
X265577200Y-195728628D01*
X265505771Y-195800057D01*
X265434342Y-195728628D01*
X265505771Y-195657200D01*
X265505771Y-195800057D01*
X268148628Y-196585771D02*
X267291485Y-196585771D01*
X267720057Y-196585771D02*
X267720057Y-195085771D01*
X267577200Y-195300057D01*
X267434342Y-195442914D01*
X267291485Y-195514342D01*
X269862914Y-195014342D02*
X268577200Y-196942914D01*
X271148628Y-196585771D02*
X270291485Y-196585771D01*
X270720057Y-196585771D02*
X270720057Y-195085771D01*
X270577200Y-195300057D01*
X270434342Y-195442914D01*
X270291485Y-195514342D01*
D10*
D11*
X177002200Y-187507200D02*
X285002200Y-187507200D01*
D10*
D13*
X178714580Y-188211961D02*
X179857438Y-188211961D01*
X179036009Y-190211961D02*
X179286009Y-188211961D01*
X180274104Y-190211961D02*
X180440771Y-188878628D01*
X180524104Y-188211961D02*
X180416961Y-188307200D01*
X180500295Y-188402438D01*
X180607438Y-188307200D01*
X180524104Y-188211961D01*
X180500295Y-188402438D01*
X181107438Y-188878628D02*
X181869342Y-188878628D01*
X181476485Y-188211961D02*
X181262200Y-189926247D01*
X181333628Y-190116723D01*
X181512200Y-190211961D01*
X181702676Y-190211961D01*
X182655057Y-190211961D02*
X182476485Y-190116723D01*
X182405057Y-189926247D01*
X182619342Y-188211961D01*
X184190771Y-190116723D02*
X183988390Y-190211961D01*
X183607438Y-190211961D01*
X183428866Y-190116723D01*
X183357438Y-189926247D01*
X183452676Y-189164342D01*
X183571723Y-188973866D01*
X183774104Y-188878628D01*
X184155057Y-188878628D01*
X184333628Y-188973866D01*
X184405057Y-189164342D01*
X184381247Y-189354819D01*
X183405057Y-189545295D01*
X185155057Y-190021485D02*
X185238390Y-190116723D01*
X185131247Y-190211961D01*
X185047914Y-190116723D01*
X185155057Y-190021485D01*
X185131247Y-190211961D01*
X185286009Y-188973866D02*
X185369342Y-189069104D01*
X185262200Y-189164342D01*
X185178866Y-189069104D01*
X185286009Y-188973866D01*
X185262200Y-189164342D01*
D10*
D11*
X178934342Y-185600057D02*
X178434342Y-185600057D01*
X178434342Y-186385771D02*
X178434342Y-184885771D01*
X179148628Y-184885771D01*
X179720057Y-186385771D02*
X179720057Y-185385771D01*
X179720057Y-184885771D02*
X179648628Y-184957200D01*
X179720057Y-185028628D01*
X179791485Y-184957200D01*
X179720057Y-184885771D01*
X179720057Y-185028628D01*
X180648628Y-186385771D02*
X180505771Y-186314342D01*
X180434342Y-186171485D01*
X180434342Y-184885771D01*
X181791485Y-186314342D02*
X181648628Y-186385771D01*
X181362914Y-186385771D01*
X181220057Y-186314342D01*
X181148628Y-186171485D01*
X181148628Y-185600057D01*
X181220057Y-185457200D01*
X181362914Y-185385771D01*
X181648628Y-185385771D01*
X181791485Y-185457200D01*
X181862914Y-185600057D01*
X181862914Y-185742914D01*
X181148628Y-185885771D01*
X182505771Y-186242914D02*
X182577200Y-186314342D01*
X182505771Y-186385771D01*
X182434342Y-186314342D01*
X182505771Y-186242914D01*
X182505771Y-186385771D01*
X182505771Y-185457200D02*
X182577200Y-185528628D01*
X182505771Y-185600057D01*
X182434342Y-185528628D01*
X182505771Y-185457200D01*
X182505771Y-185600057D01*
X184577200Y-186385771D02*
X184434342Y-186314342D01*
X184362914Y-186171485D01*
X184362914Y-184885771D01*
X185791485Y-186385771D02*
X185791485Y-185600057D01*
X185720057Y-185457200D01*
X185577200Y-185385771D01*
X185291485Y-185385771D01*
X185148628Y-185457200D01*
X185791485Y-186314342D02*
X185648628Y-186385771D01*
X185291485Y-186385771D01*
X185148628Y-186314342D01*
X185077200Y-186171485D01*
X185077200Y-186028628D01*
X185148628Y-185885771D01*
X185291485Y-185814342D01*
X185648628Y-185814342D01*
X185791485Y-185742914D01*
X186434342Y-186314342D02*
X186577200Y-186385771D01*
X186862914Y-186385771D01*
X187005771Y-186314342D01*
X187077200Y-186171485D01*
X187077200Y-186100057D01*
X187005771Y-185957200D01*
X186862914Y-185885771D01*
X186648628Y-185885771D01*
X186505771Y-185814342D01*
X186434342Y-185671485D01*
X186434342Y-185600057D01*
X186505771Y-185457200D01*
X186648628Y-185385771D01*
X186862914Y-185385771D01*
X187005771Y-185457200D01*
X188291485Y-186314342D02*
X188148628Y-186385771D01*
X187862914Y-186385771D01*
X187720057Y-186314342D01*
X187648628Y-186171485D01*
X187648628Y-185600057D01*
X187720057Y-185457200D01*
X187862914Y-185385771D01*
X188148628Y-185385771D01*
X188291485Y-185457200D01*
X188362914Y-185600057D01*
X188362914Y-185742914D01*
X187648628Y-185885771D01*
X189005771Y-186385771D02*
X189005771Y-185385771D01*
X189005771Y-185671485D02*
X189077200Y-185528628D01*
X189148628Y-185457200D01*
X189291485Y-185385771D01*
X189434342Y-185385771D01*
X189934342Y-185814342D02*
X191077200Y-185814342D01*
X191577200Y-185385771D02*
X192148628Y-185385771D01*
X191791485Y-184885771D02*
X191791485Y-186171485D01*
X191862914Y-186314342D01*
X192005771Y-186385771D01*
X192148628Y-186385771D01*
X192648628Y-186385771D02*
X192648628Y-184885771D01*
X193291485Y-186385771D02*
X193291485Y-185600057D01*
X193220057Y-185457200D01*
X193077200Y-185385771D01*
X192862914Y-185385771D01*
X192720057Y-185457200D01*
X192648628Y-185528628D01*
X194577200Y-186314342D02*
X194434342Y-186385771D01*
X194148628Y-186385771D01*
X194005771Y-186314342D01*
X193934342Y-186171485D01*
X193934342Y-185600057D01*
X194005771Y-185457200D01*
X194148628Y-185385771D01*
X194434342Y-185385771D01*
X194577200Y-185457200D01*
X194648628Y-185600057D01*
X194648628Y-185742914D01*
X193934342Y-185885771D01*
X195291485Y-186385771D02*
X195291485Y-185385771D01*
X195291485Y-185671485D02*
X195362914Y-185528628D01*
X195434342Y-185457200D01*
X195577200Y-185385771D01*
X195720057Y-185385771D01*
X196791485Y-186314342D02*
X196648628Y-186385771D01*
X196362914Y-186385771D01*
X196220057Y-186314342D01*
X196148628Y-186171485D01*
X196148628Y-185600057D01*
X196220057Y-185457200D01*
X196362914Y-185385771D01*
X196648628Y-185385771D01*
X196791485Y-185457200D01*
X196862914Y-185600057D01*
X196862914Y-185742914D01*
X196148628Y-185885771D01*
X197505771Y-186385771D02*
X197505771Y-185385771D01*
X197505771Y-185528628D02*
X197577200Y-185457200D01*
X197720057Y-185385771D01*
X197934342Y-185385771D01*
X198077200Y-185457200D01*
X198148628Y-185600057D01*
X198148628Y-186385771D01*
X198148628Y-185600057D02*
X198220057Y-185457200D01*
X198362914Y-185385771D01*
X198577200Y-185385771D01*
X198720057Y-185457200D01*
X198791485Y-185600057D01*
X198791485Y-186385771D01*
X199505771Y-186385771D02*
X199505771Y-185385771D01*
X199505771Y-184885771D02*
X199434342Y-184957200D01*
X199505771Y-185028628D01*
X199577200Y-184957200D01*
X199505771Y-184885771D01*
X199505771Y-185028628D01*
X200220057Y-185385771D02*
X200220057Y-186385771D01*
X200220057Y-185528628D02*
X200291485Y-185457200D01*
X200434342Y-185385771D01*
X200648628Y-185385771D01*
X200791485Y-185457200D01*
X200862914Y-185600057D01*
X200862914Y-186385771D01*
X201577200Y-186242914D02*
X201648628Y-186314342D01*
X201577200Y-186385771D01*
X201505771Y-186314342D01*
X201577200Y-186242914D01*
X201577200Y-186385771D01*
X202291485Y-186385771D02*
X202291485Y-184885771D01*
X202434342Y-185814342D02*
X202862914Y-186385771D01*
X202862914Y-185385771D02*
X202291485Y-185957200D01*
X203505771Y-186385771D02*
X203505771Y-185385771D01*
X203505771Y-184885771D02*
X203434342Y-184957200D01*
X203505771Y-185028628D01*
X203577200Y-184957200D01*
X203505771Y-184885771D01*
X203505771Y-185028628D01*
X204862914Y-186314342D02*
X204720057Y-186385771D01*
X204434342Y-186385771D01*
X204291485Y-186314342D01*
X204220057Y-186242914D01*
X204148628Y-186100057D01*
X204148628Y-185671485D01*
X204220057Y-185528628D01*
X204291485Y-185457200D01*
X204434342Y-185385771D01*
X204720057Y-185385771D01*
X204862914Y-185457200D01*
X206148628Y-186385771D02*
X206148628Y-185600057D01*
X206077200Y-185457200D01*
X205934342Y-185385771D01*
X205648628Y-185385771D01*
X205505771Y-185457200D01*
X206148628Y-186314342D02*
X206005771Y-186385771D01*
X205648628Y-186385771D01*
X205505771Y-186314342D01*
X205434342Y-186171485D01*
X205434342Y-186028628D01*
X205505771Y-185885771D01*
X205648628Y-185814342D01*
X206005771Y-185814342D01*
X206148628Y-185742914D01*
X207505771Y-186385771D02*
X207505771Y-184885771D01*
X207505771Y-186314342D02*
X207362914Y-186385771D01*
X207077200Y-186385771D01*
X206934342Y-186314342D01*
X206862914Y-186242914D01*
X206791485Y-186100057D01*
X206791485Y-185671485D01*
X206862914Y-185528628D01*
X206934342Y-185457200D01*
X207077200Y-185385771D01*
X207362914Y-185385771D01*
X207505771Y-185457200D01*
X207862914Y-186528628D02*
X209005771Y-186528628D01*
X209362914Y-185385771D02*
X209362914Y-186885771D01*
X209362914Y-185457200D02*
X209505771Y-185385771D01*
X209791485Y-185385771D01*
X209934342Y-185457200D01*
X210005771Y-185528628D01*
X210077200Y-185671485D01*
X210077200Y-186100057D01*
X210005771Y-186242914D01*
X209934342Y-186314342D01*
X209791485Y-186385771D01*
X209505771Y-186385771D01*
X209362914Y-186314342D01*
X211362914Y-186314342D02*
X211220057Y-186385771D01*
X210934342Y-186385771D01*
X210791485Y-186314342D01*
X210720057Y-186242914D01*
X210648628Y-186100057D01*
X210648628Y-185671485D01*
X210720057Y-185528628D01*
X210791485Y-185457200D01*
X210934342Y-185385771D01*
X211220057Y-185385771D01*
X211362914Y-185457200D01*
X212005771Y-186385771D02*
X212005771Y-184885771D01*
X212005771Y-185457200D02*
X212148628Y-185385771D01*
X212434342Y-185385771D01*
X212577200Y-185457200D01*
X212648628Y-185528628D01*
X212720057Y-185671485D01*
X212720057Y-186100057D01*
X212648628Y-186242914D01*
X212577200Y-186314342D01*
X212434342Y-186385771D01*
X212148628Y-186385771D01*
X212005771Y-186314342D01*
D10*
D11*
X177002200Y-181507200D02*
X285002200Y-181507200D01*
D10*
D11*
X178362914Y-183614342D02*
X178577200Y-183685771D01*
X178934342Y-183685771D01*
X179077200Y-183614342D01*
X179148628Y-183542914D01*
X179220057Y-183400057D01*
X179220057Y-183257200D01*
X179148628Y-183114342D01*
X179077200Y-183042914D01*
X178934342Y-182971485D01*
X178648628Y-182900057D01*
X178505771Y-182828628D01*
X178434342Y-182757200D01*
X178362914Y-182614342D01*
X178362914Y-182471485D01*
X178434342Y-182328628D01*
X178505771Y-182257200D01*
X178648628Y-182185771D01*
X179005771Y-182185771D01*
X179220057Y-182257200D01*
X179862914Y-183685771D02*
X179862914Y-182185771D01*
X180505771Y-183685771D02*
X180505771Y-182900057D01*
X180434342Y-182757200D01*
X180291485Y-182685771D01*
X180077200Y-182685771D01*
X179934342Y-182757200D01*
X179862914Y-182828628D01*
X181791485Y-183614342D02*
X181648628Y-183685771D01*
X181362914Y-183685771D01*
X181220057Y-183614342D01*
X181148628Y-183471485D01*
X181148628Y-182900057D01*
X181220057Y-182757200D01*
X181362914Y-182685771D01*
X181648628Y-182685771D01*
X181791485Y-182757200D01*
X181862914Y-182900057D01*
X181862914Y-183042914D01*
X181148628Y-183185771D01*
X183077200Y-183614342D02*
X182934342Y-183685771D01*
X182648628Y-183685771D01*
X182505771Y-183614342D01*
X182434342Y-183471485D01*
X182434342Y-182900057D01*
X182505771Y-182757200D01*
X182648628Y-182685771D01*
X182934342Y-182685771D01*
X183077200Y-182757200D01*
X183148628Y-182900057D01*
X183148628Y-183042914D01*
X182434342Y-183185771D01*
X183577200Y-182685771D02*
X184148628Y-182685771D01*
X183791485Y-182185771D02*
X183791485Y-183471485D01*
X183862914Y-183614342D01*
X184005771Y-183685771D01*
X184148628Y-183685771D01*
X184648628Y-183542914D02*
X184720057Y-183614342D01*
X184648628Y-183685771D01*
X184577200Y-183614342D01*
X184648628Y-183542914D01*
X184648628Y-183685771D01*
X184648628Y-182757200D02*
X184720057Y-182828628D01*
X184648628Y-182900057D01*
X184577200Y-182828628D01*
X184648628Y-182757200D01*
X184648628Y-182900057D01*
D10*
D11*
X197002200Y-191507200D02*
X197002200Y-194507200D01*
D10*
D11*
X261002200Y-191507200D02*
X261002200Y-198007200D01*
D10*
X184415000Y-109310000D02*
X184415000Y-108510000D01*
X186015000Y-109310000D02*
X184415000Y-109310000D01*
X186015000Y-108510000D02*
X186015000Y-109310000D01*
X184415000Y-108510000D02*
X186015000Y-108510000D01*
X108220000Y-109310000D02*
X108220000Y-108510000D01*
X109820000Y-109310000D02*
X108220000Y-109310000D01*
X109820000Y-108510000D02*
X109820000Y-109310000D01*
X108220000Y-108510000D02*
X109820000Y-108510000D01*
X127265000Y-109310000D02*
X127265000Y-108510000D01*
X128865000Y-109310000D02*
X127265000Y-109310000D01*
X128865000Y-108510000D02*
X128865000Y-109310000D01*
X127265000Y-108510000D02*
X128865000Y-108510000D01*
X146315000Y-109310000D02*
X146315000Y-108510000D01*
X147915000Y-109310000D02*
X146315000Y-109310000D01*
X147915000Y-108510000D02*
X147915000Y-109310000D01*
X146315000Y-108510000D02*
X147915000Y-108510000D01*
X165365000Y-109310000D02*
X165365000Y-108510000D01*
X166965000Y-109310000D02*
X165365000Y-109310000D01*
X166965000Y-108510000D02*
X166965000Y-109310000D01*
X165365000Y-108510000D02*
X166965000Y-108510000D01*
X114100000Y-69486960D02*
X115136960Y-68450000D01*
X119100000Y-73450000D02*
X114100000Y-73450000D01*
X114100000Y-73450000D02*
X114100000Y-69487600D01*
X119100000Y-68450000D02*
X119100000Y-73450000D01*
X115137600Y-68450000D02*
X119100000Y-68450000D01*
X175750000Y-69556960D02*
X176786960Y-68520000D01*
X180750000Y-73520000D02*
X175750000Y-73520000D01*
X175750000Y-73520000D02*
X175750000Y-69557600D01*
X180750000Y-68520000D02*
X180750000Y-73520000D01*
X176787600Y-68520000D02*
X180750000Y-68520000D01*
X170600000Y-121675000D02*
X170600000Y-119770000D01*
X170600000Y-119770000D02*
X180760000Y-119770000D01*
X180760000Y-119770000D02*
X180760000Y-122310000D01*
X180760000Y-122310000D02*
X171235000Y-122310000D01*
X171235000Y-122310000D02*
X170600000Y-121675000D01*
X114095000Y-122320000D02*
X113460000Y-121685000D01*
X123620000Y-122320000D02*
X114095000Y-122320000D01*
X123620000Y-119780000D02*
X123620000Y-122320000D01*
X113460000Y-119780000D02*
X123620000Y-119780000D01*
X113460000Y-121685000D02*
X113460000Y-119780000D01*
D11*
X184547142Y-111862380D02*
X184070952Y-111862380D01*
X184070952Y-110862380D01*
X184880476Y-111338571D02*
X185213809Y-111338571D01*
X185356666Y-111862380D02*
X184880476Y-111862380D01*
X184880476Y-110862380D01*
X185356666Y-110862380D01*
X185785238Y-111862380D02*
X185785238Y-110862380D01*
X186023333Y-110862380D01*
X186166190Y-110910000D01*
X186261428Y-111005238D01*
X186309047Y-111100476D01*
X186356666Y-111290952D01*
X186356666Y-111433809D01*
X186309047Y-111624285D01*
X186261428Y-111719523D01*
X186166190Y-111814761D01*
X186023333Y-111862380D01*
X185785238Y-111862380D01*
X184000714Y-107837380D02*
X184000714Y-106837380D01*
X184238809Y-106837380D01*
X184381666Y-106885000D01*
X184476904Y-106980238D01*
X184524523Y-107075476D01*
X184572142Y-107265952D01*
X184572142Y-107408809D01*
X184524523Y-107599285D01*
X184476904Y-107694523D01*
X184381666Y-107789761D01*
X184238809Y-107837380D01*
X184000714Y-107837380D01*
X185524523Y-107837380D02*
X184953095Y-107837380D01*
X185238809Y-107837380D02*
X185238809Y-106837380D01*
X185143571Y-106980238D01*
X185048333Y-107075476D01*
X184953095Y-107123095D01*
X186476904Y-107837380D02*
X185905476Y-107837380D01*
X186191190Y-107837380D02*
X186191190Y-106837380D01*
X186095952Y-106980238D01*
X186000714Y-107075476D01*
X185905476Y-107123095D01*
X108367142Y-111612380D02*
X107890952Y-111612380D01*
X107890952Y-110612380D01*
X108700476Y-111088571D02*
X109033809Y-111088571D01*
X109176666Y-111612380D02*
X108700476Y-111612380D01*
X108700476Y-110612380D01*
X109176666Y-110612380D01*
X109605238Y-111612380D02*
X109605238Y-110612380D01*
X109843333Y-110612380D01*
X109986190Y-110660000D01*
X110081428Y-110755238D01*
X110129047Y-110850476D01*
X110176666Y-111040952D01*
X110176666Y-111183809D01*
X110129047Y-111374285D01*
X110081428Y-111469523D01*
X109986190Y-111564761D01*
X109843333Y-111612380D01*
X109605238Y-111612380D01*
X108281904Y-107837380D02*
X108281904Y-106837380D01*
X108520000Y-106837380D01*
X108662857Y-106885000D01*
X108758095Y-106980238D01*
X108805714Y-107075476D01*
X108853333Y-107265952D01*
X108853333Y-107408809D01*
X108805714Y-107599285D01*
X108758095Y-107694523D01*
X108662857Y-107789761D01*
X108520000Y-107837380D01*
X108281904Y-107837380D01*
X109186666Y-106837380D02*
X109853333Y-106837380D01*
X109424761Y-107837380D01*
X127397142Y-111622380D02*
X126920952Y-111622380D01*
X126920952Y-110622380D01*
X127730476Y-111098571D02*
X128063809Y-111098571D01*
X128206666Y-111622380D02*
X127730476Y-111622380D01*
X127730476Y-110622380D01*
X128206666Y-110622380D01*
X128635238Y-111622380D02*
X128635238Y-110622380D01*
X128873333Y-110622380D01*
X129016190Y-110670000D01*
X129111428Y-110765238D01*
X129159047Y-110860476D01*
X129206666Y-111050952D01*
X129206666Y-111193809D01*
X129159047Y-111384285D01*
X129111428Y-111479523D01*
X129016190Y-111574761D01*
X128873333Y-111622380D01*
X128635238Y-111622380D01*
X127326904Y-107837380D02*
X127326904Y-106837380D01*
X127565000Y-106837380D01*
X127707857Y-106885000D01*
X127803095Y-106980238D01*
X127850714Y-107075476D01*
X127898333Y-107265952D01*
X127898333Y-107408809D01*
X127850714Y-107599285D01*
X127803095Y-107694523D01*
X127707857Y-107789761D01*
X127565000Y-107837380D01*
X127326904Y-107837380D01*
X128469761Y-107265952D02*
X128374523Y-107218333D01*
X128326904Y-107170714D01*
X128279285Y-107075476D01*
X128279285Y-107027857D01*
X128326904Y-106932619D01*
X128374523Y-106885000D01*
X128469761Y-106837380D01*
X128660238Y-106837380D01*
X128755476Y-106885000D01*
X128803095Y-106932619D01*
X128850714Y-107027857D01*
X128850714Y-107075476D01*
X128803095Y-107170714D01*
X128755476Y-107218333D01*
X128660238Y-107265952D01*
X128469761Y-107265952D01*
X128374523Y-107313571D01*
X128326904Y-107361190D01*
X128279285Y-107456428D01*
X128279285Y-107646904D01*
X128326904Y-107742142D01*
X128374523Y-107789761D01*
X128469761Y-107837380D01*
X128660238Y-107837380D01*
X128755476Y-107789761D01*
X128803095Y-107742142D01*
X128850714Y-107646904D01*
X128850714Y-107456428D01*
X128803095Y-107361190D01*
X128755476Y-107313571D01*
X128660238Y-107265952D01*
X146477142Y-111562380D02*
X146000952Y-111562380D01*
X146000952Y-110562380D01*
X146810476Y-111038571D02*
X147143809Y-111038571D01*
X147286666Y-111562380D02*
X146810476Y-111562380D01*
X146810476Y-110562380D01*
X147286666Y-110562380D01*
X147715238Y-111562380D02*
X147715238Y-110562380D01*
X147953333Y-110562380D01*
X148096190Y-110610000D01*
X148191428Y-110705238D01*
X148239047Y-110800476D01*
X148286666Y-110990952D01*
X148286666Y-111133809D01*
X148239047Y-111324285D01*
X148191428Y-111419523D01*
X148096190Y-111514761D01*
X147953333Y-111562380D01*
X147715238Y-111562380D01*
X146376904Y-107837380D02*
X146376904Y-106837380D01*
X146615000Y-106837380D01*
X146757857Y-106885000D01*
X146853095Y-106980238D01*
X146900714Y-107075476D01*
X146948333Y-107265952D01*
X146948333Y-107408809D01*
X146900714Y-107599285D01*
X146853095Y-107694523D01*
X146757857Y-107789761D01*
X146615000Y-107837380D01*
X146376904Y-107837380D01*
X147424523Y-107837380D02*
X147615000Y-107837380D01*
X147710238Y-107789761D01*
X147757857Y-107742142D01*
X147853095Y-107599285D01*
X147900714Y-107408809D01*
X147900714Y-107027857D01*
X147853095Y-106932619D01*
X147805476Y-106885000D01*
X147710238Y-106837380D01*
X147519761Y-106837380D01*
X147424523Y-106885000D01*
X147376904Y-106932619D01*
X147329285Y-107027857D01*
X147329285Y-107265952D01*
X147376904Y-107361190D01*
X147424523Y-107408809D01*
X147519761Y-107456428D01*
X147710238Y-107456428D01*
X147805476Y-107408809D01*
X147853095Y-107361190D01*
X147900714Y-107265952D01*
X165537142Y-111622380D02*
X165060952Y-111622380D01*
X165060952Y-110622380D01*
X165870476Y-111098571D02*
X166203809Y-111098571D01*
X166346666Y-111622380D02*
X165870476Y-111622380D01*
X165870476Y-110622380D01*
X166346666Y-110622380D01*
X166775238Y-111622380D02*
X166775238Y-110622380D01*
X167013333Y-110622380D01*
X167156190Y-110670000D01*
X167251428Y-110765238D01*
X167299047Y-110860476D01*
X167346666Y-111050952D01*
X167346666Y-111193809D01*
X167299047Y-111384285D01*
X167251428Y-111479523D01*
X167156190Y-111574761D01*
X167013333Y-111622380D01*
X166775238Y-111622380D01*
X164950714Y-107837380D02*
X164950714Y-106837380D01*
X165188809Y-106837380D01*
X165331666Y-106885000D01*
X165426904Y-106980238D01*
X165474523Y-107075476D01*
X165522142Y-107265952D01*
X165522142Y-107408809D01*
X165474523Y-107599285D01*
X165426904Y-107694523D01*
X165331666Y-107789761D01*
X165188809Y-107837380D01*
X164950714Y-107837380D01*
X166474523Y-107837380D02*
X165903095Y-107837380D01*
X166188809Y-107837380D02*
X166188809Y-106837380D01*
X166093571Y-106980238D01*
X165998333Y-107075476D01*
X165903095Y-107123095D01*
X167093571Y-106837380D02*
X167188809Y-106837380D01*
X167284047Y-106885000D01*
X167331666Y-106932619D01*
X167379285Y-107027857D01*
X167426904Y-107218333D01*
X167426904Y-107456428D01*
X167379285Y-107646904D01*
X167331666Y-107742142D01*
X167284047Y-107789761D01*
X167188809Y-107837380D01*
X167093571Y-107837380D01*
X166998333Y-107789761D01*
X166950714Y-107742142D01*
X166903095Y-107646904D01*
X166855476Y-107456428D01*
X166855476Y-107218333D01*
X166903095Y-107027857D01*
X166950714Y-106932619D01*
X166998333Y-106885000D01*
X167093571Y-106837380D01*
X113989523Y-75479761D02*
X114132380Y-75527380D01*
X114370476Y-75527380D01*
X114465714Y-75479761D01*
X114513333Y-75432142D01*
X114560952Y-75336904D01*
X114560952Y-75241666D01*
X114513333Y-75146428D01*
X114465714Y-75098809D01*
X114370476Y-75051190D01*
X114180000Y-75003571D01*
X114084761Y-74955952D01*
X114037142Y-74908333D01*
X113989523Y-74813095D01*
X113989523Y-74717857D01*
X114037142Y-74622619D01*
X114084761Y-74575000D01*
X114180000Y-74527380D01*
X114418095Y-74527380D01*
X114560952Y-74575000D01*
X114989523Y-75527380D02*
X114989523Y-74527380D01*
X115560952Y-75527380D02*
X115132380Y-74955952D01*
X115560952Y-74527380D02*
X114989523Y-75098809D01*
X116418095Y-74527380D02*
X116227619Y-74527380D01*
X116132380Y-74575000D01*
X116084761Y-74622619D01*
X115989523Y-74765476D01*
X115941904Y-74955952D01*
X115941904Y-75336904D01*
X115989523Y-75432142D01*
X116037142Y-75479761D01*
X116132380Y-75527380D01*
X116322857Y-75527380D01*
X116418095Y-75479761D01*
X116465714Y-75432142D01*
X116513333Y-75336904D01*
X116513333Y-75098809D01*
X116465714Y-75003571D01*
X116418095Y-74955952D01*
X116322857Y-74908333D01*
X116132380Y-74908333D01*
X116037142Y-74955952D01*
X115989523Y-75003571D01*
X115941904Y-75098809D01*
X117084761Y-74955952D02*
X116989523Y-74908333D01*
X116941904Y-74860714D01*
X116894285Y-74765476D01*
X116894285Y-74717857D01*
X116941904Y-74622619D01*
X116989523Y-74575000D01*
X117084761Y-74527380D01*
X117275238Y-74527380D01*
X117370476Y-74575000D01*
X117418095Y-74622619D01*
X117465714Y-74717857D01*
X117465714Y-74765476D01*
X117418095Y-74860714D01*
X117370476Y-74908333D01*
X117275238Y-74955952D01*
X117084761Y-74955952D01*
X116989523Y-75003571D01*
X116941904Y-75051190D01*
X116894285Y-75146428D01*
X116894285Y-75336904D01*
X116941904Y-75432142D01*
X116989523Y-75479761D01*
X117084761Y-75527380D01*
X117275238Y-75527380D01*
X117370476Y-75479761D01*
X117418095Y-75432142D01*
X117465714Y-75336904D01*
X117465714Y-75146428D01*
X117418095Y-75051190D01*
X117370476Y-75003571D01*
X117275238Y-74955952D01*
X118418095Y-75527380D02*
X117846666Y-75527380D01*
X118132380Y-75527380D02*
X118132380Y-74527380D01*
X118037142Y-74670238D01*
X117941904Y-74765476D01*
X117846666Y-74813095D01*
X118799047Y-74622619D02*
X118846666Y-74575000D01*
X118941904Y-74527380D01*
X119180000Y-74527380D01*
X119275238Y-74575000D01*
X119322857Y-74622619D01*
X119370476Y-74717857D01*
X119370476Y-74813095D01*
X119322857Y-74955952D01*
X118751428Y-75527380D01*
X119370476Y-75527380D01*
X115941904Y-71402380D02*
X115941904Y-70402380D01*
X116180000Y-70402380D01*
X116322857Y-70450000D01*
X116418095Y-70545238D01*
X116465714Y-70640476D01*
X116513333Y-70830952D01*
X116513333Y-70973809D01*
X116465714Y-71164285D01*
X116418095Y-71259523D01*
X116322857Y-71354761D01*
X116180000Y-71402380D01*
X115941904Y-71402380D01*
X117418095Y-70402380D02*
X116941904Y-70402380D01*
X116894285Y-70878571D01*
X116941904Y-70830952D01*
X117037142Y-70783333D01*
X117275238Y-70783333D01*
X117370476Y-70830952D01*
X117418095Y-70878571D01*
X117465714Y-70973809D01*
X117465714Y-71211904D01*
X117418095Y-71307142D01*
X117370476Y-71354761D01*
X117275238Y-71402380D01*
X117037142Y-71402380D01*
X116941904Y-71354761D01*
X116894285Y-71307142D01*
X175639523Y-75549761D02*
X175782380Y-75597380D01*
X176020476Y-75597380D01*
X176115714Y-75549761D01*
X176163333Y-75502142D01*
X176210952Y-75406904D01*
X176210952Y-75311666D01*
X176163333Y-75216428D01*
X176115714Y-75168809D01*
X176020476Y-75121190D01*
X175830000Y-75073571D01*
X175734761Y-75025952D01*
X175687142Y-74978333D01*
X175639523Y-74883095D01*
X175639523Y-74787857D01*
X175687142Y-74692619D01*
X175734761Y-74645000D01*
X175830000Y-74597380D01*
X176068095Y-74597380D01*
X176210952Y-74645000D01*
X176639523Y-75597380D02*
X176639523Y-74597380D01*
X177210952Y-75597380D02*
X176782380Y-75025952D01*
X177210952Y-74597380D02*
X176639523Y-75168809D01*
X178068095Y-74597380D02*
X177877619Y-74597380D01*
X177782380Y-74645000D01*
X177734761Y-74692619D01*
X177639523Y-74835476D01*
X177591904Y-75025952D01*
X177591904Y-75406904D01*
X177639523Y-75502142D01*
X177687142Y-75549761D01*
X177782380Y-75597380D01*
X177972857Y-75597380D01*
X178068095Y-75549761D01*
X178115714Y-75502142D01*
X178163333Y-75406904D01*
X178163333Y-75168809D01*
X178115714Y-75073571D01*
X178068095Y-75025952D01*
X177972857Y-74978333D01*
X177782380Y-74978333D01*
X177687142Y-75025952D01*
X177639523Y-75073571D01*
X177591904Y-75168809D01*
X178734761Y-75025952D02*
X178639523Y-74978333D01*
X178591904Y-74930714D01*
X178544285Y-74835476D01*
X178544285Y-74787857D01*
X178591904Y-74692619D01*
X178639523Y-74645000D01*
X178734761Y-74597380D01*
X178925238Y-74597380D01*
X179020476Y-74645000D01*
X179068095Y-74692619D01*
X179115714Y-74787857D01*
X179115714Y-74835476D01*
X179068095Y-74930714D01*
X179020476Y-74978333D01*
X178925238Y-75025952D01*
X178734761Y-75025952D01*
X178639523Y-75073571D01*
X178591904Y-75121190D01*
X178544285Y-75216428D01*
X178544285Y-75406904D01*
X178591904Y-75502142D01*
X178639523Y-75549761D01*
X178734761Y-75597380D01*
X178925238Y-75597380D01*
X179020476Y-75549761D01*
X179068095Y-75502142D01*
X179115714Y-75406904D01*
X179115714Y-75216428D01*
X179068095Y-75121190D01*
X179020476Y-75073571D01*
X178925238Y-75025952D01*
X180068095Y-75597380D02*
X179496666Y-75597380D01*
X179782380Y-75597380D02*
X179782380Y-74597380D01*
X179687142Y-74740238D01*
X179591904Y-74835476D01*
X179496666Y-74883095D01*
X180449047Y-74692619D02*
X180496666Y-74645000D01*
X180591904Y-74597380D01*
X180830000Y-74597380D01*
X180925238Y-74645000D01*
X180972857Y-74692619D01*
X181020476Y-74787857D01*
X181020476Y-74883095D01*
X180972857Y-75025952D01*
X180401428Y-75597380D01*
X181020476Y-75597380D01*
X177591904Y-71472380D02*
X177591904Y-70472380D01*
X177830000Y-70472380D01*
X177972857Y-70520000D01*
X178068095Y-70615238D01*
X178115714Y-70710476D01*
X178163333Y-70900952D01*
X178163333Y-71043809D01*
X178115714Y-71234285D01*
X178068095Y-71329523D01*
X177972857Y-71424761D01*
X177830000Y-71472380D01*
X177591904Y-71472380D01*
X179020476Y-70472380D02*
X178830000Y-70472380D01*
X178734761Y-70520000D01*
X178687142Y-70567619D01*
X178591904Y-70710476D01*
X178544285Y-70900952D01*
X178544285Y-71281904D01*
X178591904Y-71377142D01*
X178639523Y-71424761D01*
X178734761Y-71472380D01*
X178925238Y-71472380D01*
X179020476Y-71424761D01*
X179068095Y-71377142D01*
X179115714Y-71281904D01*
X179115714Y-71043809D01*
X179068095Y-70948571D01*
X179020476Y-70900952D01*
X178925238Y-70853333D01*
X178734761Y-70853333D01*
X178639523Y-70900952D01*
X178591904Y-70948571D01*
X178544285Y-71043809D01*
X189678095Y-89822380D02*
X189678095Y-90631904D01*
X189725714Y-90727142D01*
X189773333Y-90774761D01*
X189868571Y-90822380D01*
X190059047Y-90822380D01*
X190154285Y-90774761D01*
X190201904Y-90727142D01*
X190249523Y-90631904D01*
X190249523Y-89822380D01*
X191201904Y-89822380D02*
X190725714Y-89822380D01*
X190678095Y-90298571D01*
X190725714Y-90250952D01*
X190820952Y-90203333D01*
X191059047Y-90203333D01*
X191154285Y-90250952D01*
X191201904Y-90298571D01*
X191249523Y-90393809D01*
X191249523Y-90631904D01*
X191201904Y-90727142D01*
X191154285Y-90774761D01*
X191059047Y-90822380D01*
X190820952Y-90822380D01*
X190725714Y-90774761D01*
X190678095Y-90727142D01*
X185010952Y-88372380D02*
X185344285Y-89372380D01*
X185677619Y-88372380D01*
X186487142Y-89372380D02*
X186010952Y-89372380D01*
X186010952Y-88372380D01*
X187249047Y-88372380D02*
X187058571Y-88372380D01*
X186963333Y-88420000D01*
X186915714Y-88467619D01*
X186820476Y-88610476D01*
X186772857Y-88800952D01*
X186772857Y-89181904D01*
X186820476Y-89277142D01*
X186868095Y-89324761D01*
X186963333Y-89372380D01*
X187153809Y-89372380D01*
X187249047Y-89324761D01*
X187296666Y-89277142D01*
X187344285Y-89181904D01*
X187344285Y-88943809D01*
X187296666Y-88848571D01*
X187249047Y-88800952D01*
X187153809Y-88753333D01*
X186963333Y-88753333D01*
X186868095Y-88800952D01*
X186820476Y-88848571D01*
X186772857Y-88943809D01*
X188296666Y-89372380D02*
X187725238Y-89372380D01*
X188010952Y-89372380D02*
X188010952Y-88372380D01*
X187915714Y-88515238D01*
X187820476Y-88610476D01*
X187725238Y-88658095D01*
X188868095Y-88800952D02*
X188772857Y-88753333D01*
X188725238Y-88705714D01*
X188677619Y-88610476D01*
X188677619Y-88562857D01*
X188725238Y-88467619D01*
X188772857Y-88420000D01*
X188868095Y-88372380D01*
X189058571Y-88372380D01*
X189153809Y-88420000D01*
X189201428Y-88467619D01*
X189249047Y-88562857D01*
X189249047Y-88610476D01*
X189201428Y-88705714D01*
X189153809Y-88753333D01*
X189058571Y-88800952D01*
X188868095Y-88800952D01*
X188772857Y-88848571D01*
X188725238Y-88896190D01*
X188677619Y-88991428D01*
X188677619Y-89181904D01*
X188725238Y-89277142D01*
X188772857Y-89324761D01*
X188868095Y-89372380D01*
X189058571Y-89372380D01*
X189153809Y-89324761D01*
X189201428Y-89277142D01*
X189249047Y-89181904D01*
X189249047Y-88991428D01*
X189201428Y-88896190D01*
X189153809Y-88848571D01*
X189058571Y-88800952D01*
X189868095Y-88372380D02*
X189963333Y-88372380D01*
X190058571Y-88420000D01*
X190106190Y-88467619D01*
X190153809Y-88562857D01*
X190201428Y-88753333D01*
X190201428Y-88991428D01*
X190153809Y-89181904D01*
X190106190Y-89277142D01*
X190058571Y-89324761D01*
X189963333Y-89372380D01*
X189868095Y-89372380D01*
X189772857Y-89324761D01*
X189725238Y-89277142D01*
X189677619Y-89181904D01*
X189630000Y-88991428D01*
X189630000Y-88753333D01*
X189677619Y-88562857D01*
X189725238Y-88467619D01*
X189772857Y-88420000D01*
X189868095Y-88372380D01*
X190534761Y-88372380D02*
X191201428Y-89372380D01*
X191201428Y-88372380D02*
X190534761Y-89372380D01*
X103308095Y-88492380D02*
X103308095Y-89301904D01*
X103355714Y-89397142D01*
X103403333Y-89444761D01*
X103498571Y-89492380D01*
X103689047Y-89492380D01*
X103784285Y-89444761D01*
X103831904Y-89397142D01*
X103879523Y-89301904D01*
X103879523Y-88492380D01*
X104784285Y-88825714D02*
X104784285Y-89492380D01*
X104546190Y-88444761D02*
X104308095Y-89159047D01*
X104927142Y-89159047D01*
X103190952Y-90012380D02*
X103524285Y-91012380D01*
X103857619Y-90012380D01*
X104667142Y-91012380D02*
X104190952Y-91012380D01*
X104190952Y-90012380D01*
X105429047Y-90012380D02*
X105238571Y-90012380D01*
X105143333Y-90060000D01*
X105095714Y-90107619D01*
X105000476Y-90250476D01*
X104952857Y-90440952D01*
X104952857Y-90821904D01*
X105000476Y-90917142D01*
X105048095Y-90964761D01*
X105143333Y-91012380D01*
X105333809Y-91012380D01*
X105429047Y-90964761D01*
X105476666Y-90917142D01*
X105524285Y-90821904D01*
X105524285Y-90583809D01*
X105476666Y-90488571D01*
X105429047Y-90440952D01*
X105333809Y-90393333D01*
X105143333Y-90393333D01*
X105048095Y-90440952D01*
X105000476Y-90488571D01*
X104952857Y-90583809D01*
X106476666Y-91012380D02*
X105905238Y-91012380D01*
X106190952Y-91012380D02*
X106190952Y-90012380D01*
X106095714Y-90155238D01*
X106000476Y-90250476D01*
X105905238Y-90298095D01*
X107048095Y-90440952D02*
X106952857Y-90393333D01*
X106905238Y-90345714D01*
X106857619Y-90250476D01*
X106857619Y-90202857D01*
X106905238Y-90107619D01*
X106952857Y-90060000D01*
X107048095Y-90012380D01*
X107238571Y-90012380D01*
X107333809Y-90060000D01*
X107381428Y-90107619D01*
X107429047Y-90202857D01*
X107429047Y-90250476D01*
X107381428Y-90345714D01*
X107333809Y-90393333D01*
X107238571Y-90440952D01*
X107048095Y-90440952D01*
X106952857Y-90488571D01*
X106905238Y-90536190D01*
X106857619Y-90631428D01*
X106857619Y-90821904D01*
X106905238Y-90917142D01*
X106952857Y-90964761D01*
X107048095Y-91012380D01*
X107238571Y-91012380D01*
X107333809Y-90964761D01*
X107381428Y-90917142D01*
X107429047Y-90821904D01*
X107429047Y-90631428D01*
X107381428Y-90536190D01*
X107333809Y-90488571D01*
X107238571Y-90440952D01*
X108048095Y-90012380D02*
X108143333Y-90012380D01*
X108238571Y-90060000D01*
X108286190Y-90107619D01*
X108333809Y-90202857D01*
X108381428Y-90393333D01*
X108381428Y-90631428D01*
X108333809Y-90821904D01*
X108286190Y-90917142D01*
X108238571Y-90964761D01*
X108143333Y-91012380D01*
X108048095Y-91012380D01*
X107952857Y-90964761D01*
X107905238Y-90917142D01*
X107857619Y-90821904D01*
X107810000Y-90631428D01*
X107810000Y-90393333D01*
X107857619Y-90202857D01*
X107905238Y-90107619D01*
X107952857Y-90060000D01*
X108048095Y-90012380D01*
X108714761Y-90012380D02*
X109381428Y-91012380D01*
X109381428Y-90012380D02*
X108714761Y-91012380D01*
X123674761Y-87762380D02*
X124008095Y-88762380D01*
X124341428Y-87762380D01*
X124817619Y-88762380D02*
X124722380Y-88714761D01*
X124674761Y-88667142D01*
X124627142Y-88571904D01*
X124627142Y-88286190D01*
X124674761Y-88190952D01*
X124722380Y-88143333D01*
X124817619Y-88095714D01*
X124960476Y-88095714D01*
X125055714Y-88143333D01*
X125103333Y-88190952D01*
X125150952Y-88286190D01*
X125150952Y-88571904D01*
X125103333Y-88667142D01*
X125055714Y-88714761D01*
X124960476Y-88762380D01*
X124817619Y-88762380D01*
X125722380Y-88762380D02*
X125627142Y-88714761D01*
X125579523Y-88619523D01*
X125579523Y-87762380D01*
X126531904Y-88095714D02*
X126531904Y-88762380D01*
X126103333Y-88095714D02*
X126103333Y-88619523D01*
X126150952Y-88714761D01*
X126246190Y-88762380D01*
X126389047Y-88762380D01*
X126484285Y-88714761D01*
X126531904Y-88667142D01*
X127008095Y-88762380D02*
X127008095Y-88095714D01*
X127008095Y-88190952D02*
X127055714Y-88143333D01*
X127150952Y-88095714D01*
X127293809Y-88095714D01*
X127389047Y-88143333D01*
X127436666Y-88238571D01*
X127436666Y-88762380D01*
X127436666Y-88238571D02*
X127484285Y-88143333D01*
X127579523Y-88095714D01*
X127722380Y-88095714D01*
X127817619Y-88143333D01*
X127865238Y-88238571D01*
X127865238Y-88762380D01*
X128722380Y-88714761D02*
X128627142Y-88762380D01*
X128436666Y-88762380D01*
X128341428Y-88714761D01*
X128293809Y-88619523D01*
X128293809Y-88238571D01*
X128341428Y-88143333D01*
X128436666Y-88095714D01*
X128627142Y-88095714D01*
X128722380Y-88143333D01*
X128770000Y-88238571D01*
X128770000Y-88333809D01*
X128293809Y-88429047D01*
X107616666Y-114864761D02*
X107759523Y-114912380D01*
X107997619Y-114912380D01*
X108092857Y-114864761D01*
X108140476Y-114817142D01*
X108188095Y-114721904D01*
X108188095Y-114626666D01*
X108140476Y-114531428D01*
X108092857Y-114483809D01*
X107997619Y-114436190D01*
X107807142Y-114388571D01*
X107711904Y-114340952D01*
X107664285Y-114293333D01*
X107616666Y-114198095D01*
X107616666Y-114102857D01*
X107664285Y-114007619D01*
X107711904Y-113960000D01*
X107807142Y-113912380D01*
X108045238Y-113912380D01*
X108188095Y-113960000D01*
X108521428Y-113912380D02*
X108759523Y-114912380D01*
X108950000Y-114198095D01*
X109140476Y-114912380D01*
X109378571Y-113912380D01*
X109711904Y-114007619D02*
X109759523Y-113960000D01*
X109854761Y-113912380D01*
X110092857Y-113912380D01*
X110188095Y-113960000D01*
X110235714Y-114007619D01*
X110283333Y-114102857D01*
X110283333Y-114198095D01*
X110235714Y-114340952D01*
X109664285Y-114912380D01*
X110283333Y-114912380D01*
X126896666Y-114884761D02*
X127039523Y-114932380D01*
X127277619Y-114932380D01*
X127372857Y-114884761D01*
X127420476Y-114837142D01*
X127468095Y-114741904D01*
X127468095Y-114646666D01*
X127420476Y-114551428D01*
X127372857Y-114503809D01*
X127277619Y-114456190D01*
X127087142Y-114408571D01*
X126991904Y-114360952D01*
X126944285Y-114313333D01*
X126896666Y-114218095D01*
X126896666Y-114122857D01*
X126944285Y-114027619D01*
X126991904Y-113980000D01*
X127087142Y-113932380D01*
X127325238Y-113932380D01*
X127468095Y-113980000D01*
X127801428Y-113932380D02*
X128039523Y-114932380D01*
X128230000Y-114218095D01*
X128420476Y-114932380D01*
X128658571Y-113932380D01*
X128944285Y-113932380D02*
X129563333Y-113932380D01*
X129230000Y-114313333D01*
X129372857Y-114313333D01*
X129468095Y-114360952D01*
X129515714Y-114408571D01*
X129563333Y-114503809D01*
X129563333Y-114741904D01*
X129515714Y-114837142D01*
X129468095Y-114884761D01*
X129372857Y-114932380D01*
X129087142Y-114932380D01*
X128991904Y-114884761D01*
X128944285Y-114837142D01*
X145886666Y-114864761D02*
X146029523Y-114912380D01*
X146267619Y-114912380D01*
X146362857Y-114864761D01*
X146410476Y-114817142D01*
X146458095Y-114721904D01*
X146458095Y-114626666D01*
X146410476Y-114531428D01*
X146362857Y-114483809D01*
X146267619Y-114436190D01*
X146077142Y-114388571D01*
X145981904Y-114340952D01*
X145934285Y-114293333D01*
X145886666Y-114198095D01*
X145886666Y-114102857D01*
X145934285Y-114007619D01*
X145981904Y-113960000D01*
X146077142Y-113912380D01*
X146315238Y-113912380D01*
X146458095Y-113960000D01*
X146791428Y-113912380D02*
X147029523Y-114912380D01*
X147220000Y-114198095D01*
X147410476Y-114912380D01*
X147648571Y-113912380D01*
X148458095Y-114245714D02*
X148458095Y-114912380D01*
X148220000Y-113864761D02*
X147981904Y-114579047D01*
X148600952Y-114579047D01*
X164806666Y-114824761D02*
X164949523Y-114872380D01*
X165187619Y-114872380D01*
X165282857Y-114824761D01*
X165330476Y-114777142D01*
X165378095Y-114681904D01*
X165378095Y-114586666D01*
X165330476Y-114491428D01*
X165282857Y-114443809D01*
X165187619Y-114396190D01*
X164997142Y-114348571D01*
X164901904Y-114300952D01*
X164854285Y-114253333D01*
X164806666Y-114158095D01*
X164806666Y-114062857D01*
X164854285Y-113967619D01*
X164901904Y-113920000D01*
X164997142Y-113872380D01*
X165235238Y-113872380D01*
X165378095Y-113920000D01*
X165711428Y-113872380D02*
X165949523Y-114872380D01*
X166140000Y-114158095D01*
X166330476Y-114872380D01*
X166568571Y-113872380D01*
X167425714Y-113872380D02*
X166949523Y-113872380D01*
X166901904Y-114348571D01*
X166949523Y-114300952D01*
X167044761Y-114253333D01*
X167282857Y-114253333D01*
X167378095Y-114300952D01*
X167425714Y-114348571D01*
X167473333Y-114443809D01*
X167473333Y-114681904D01*
X167425714Y-114777142D01*
X167378095Y-114824761D01*
X167282857Y-114872380D01*
X167044761Y-114872380D01*
X166949523Y-114824761D01*
X166901904Y-114777142D01*
X183936666Y-114764761D02*
X184079523Y-114812380D01*
X184317619Y-114812380D01*
X184412857Y-114764761D01*
X184460476Y-114717142D01*
X184508095Y-114621904D01*
X184508095Y-114526666D01*
X184460476Y-114431428D01*
X184412857Y-114383809D01*
X184317619Y-114336190D01*
X184127142Y-114288571D01*
X184031904Y-114240952D01*
X183984285Y-114193333D01*
X183936666Y-114098095D01*
X183936666Y-114002857D01*
X183984285Y-113907619D01*
X184031904Y-113860000D01*
X184127142Y-113812380D01*
X184365238Y-113812380D01*
X184508095Y-113860000D01*
X184841428Y-113812380D02*
X185079523Y-114812380D01*
X185270000Y-114098095D01*
X185460476Y-114812380D01*
X185698571Y-113812380D01*
X186508095Y-113812380D02*
X186317619Y-113812380D01*
X186222380Y-113860000D01*
X186174761Y-113907619D01*
X186079523Y-114050476D01*
X186031904Y-114240952D01*
X186031904Y-114621904D01*
X186079523Y-114717142D01*
X186127142Y-114764761D01*
X186222380Y-114812380D01*
X186412857Y-114812380D01*
X186508095Y-114764761D01*
X186555714Y-114717142D01*
X186603333Y-114621904D01*
X186603333Y-114383809D01*
X186555714Y-114288571D01*
X186508095Y-114240952D01*
X186412857Y-114193333D01*
X186222380Y-114193333D01*
X186127142Y-114240952D01*
X186079523Y-114288571D01*
X186031904Y-114383809D01*
X187990476Y-70432380D02*
X188657142Y-71432380D01*
X188657142Y-70432380D02*
X187990476Y-71432380D01*
X189561904Y-71432380D02*
X188990476Y-71432380D01*
X189276190Y-71432380D02*
X189276190Y-70432380D01*
X189180952Y-70575238D01*
X189085714Y-70670476D01*
X188990476Y-70718095D01*
X104640476Y-70432380D02*
X105307142Y-71432380D01*
X105307142Y-70432380D02*
X104640476Y-71432380D01*
X105640476Y-70527619D02*
X105688095Y-70480000D01*
X105783333Y-70432380D01*
X106021428Y-70432380D01*
X106116666Y-70480000D01*
X106164285Y-70527619D01*
X106211904Y-70622857D01*
X106211904Y-70718095D01*
X106164285Y-70860952D01*
X105592857Y-71432380D01*
X106211904Y-71432380D01*
X161692380Y-75582380D02*
X161692380Y-75391904D01*
X161740000Y-75296666D01*
X161835238Y-75201428D01*
X162025714Y-75153809D01*
X162359047Y-75153809D01*
X162549523Y-75201428D01*
X162644761Y-75296666D01*
X162692380Y-75391904D01*
X162692380Y-75582380D01*
X162644761Y-75677619D01*
X162549523Y-75772857D01*
X162359047Y-75820476D01*
X162025714Y-75820476D01*
X161835238Y-75772857D01*
X161740000Y-75677619D01*
X161692380Y-75582380D01*
X162692380Y-74249047D02*
X162692380Y-74725238D01*
X161692380Y-74725238D01*
X162168571Y-73915714D02*
X162168571Y-73582380D01*
X162692380Y-73439523D02*
X162692380Y-73915714D01*
X161692380Y-73915714D01*
X161692380Y-73439523D01*
X162692380Y-73010952D02*
X161692380Y-73010952D01*
X161692380Y-72772857D01*
X161740000Y-72630000D01*
X161835238Y-72534761D01*
X161930476Y-72487142D01*
X162120952Y-72439523D01*
X162263809Y-72439523D01*
X162454285Y-72487142D01*
X162549523Y-72534761D01*
X162644761Y-72630000D01*
X162692380Y-72772857D01*
X162692380Y-73010952D01*
X164206666Y-73622380D02*
X164206666Y-74336666D01*
X164159047Y-74479523D01*
X164063809Y-74574761D01*
X163920952Y-74622380D01*
X163825714Y-74622380D01*
X164587619Y-73622380D02*
X165254285Y-73622380D01*
X164825714Y-74622380D01*
X182347619Y-121702380D02*
X182014285Y-121226190D01*
X181776190Y-121702380D02*
X181776190Y-120702380D01*
X182157142Y-120702380D01*
X182252380Y-120750000D01*
X182300000Y-120797619D01*
X182347619Y-120892857D01*
X182347619Y-121035714D01*
X182300000Y-121130952D01*
X182252380Y-121178571D01*
X182157142Y-121226190D01*
X181776190Y-121226190D01*
X183204761Y-121702380D02*
X183204761Y-121178571D01*
X183157142Y-121083333D01*
X183061904Y-121035714D01*
X182871428Y-121035714D01*
X182776190Y-121083333D01*
X183204761Y-121654761D02*
X183109523Y-121702380D01*
X182871428Y-121702380D01*
X182776190Y-121654761D01*
X182728571Y-121559523D01*
X182728571Y-121464285D01*
X182776190Y-121369047D01*
X182871428Y-121321428D01*
X183109523Y-121321428D01*
X183204761Y-121273809D01*
X184109523Y-121654761D02*
X184014285Y-121702380D01*
X183823809Y-121702380D01*
X183728571Y-121654761D01*
X183680952Y-121607142D01*
X183633333Y-121511904D01*
X183633333Y-121226190D01*
X183680952Y-121130952D01*
X183728571Y-121083333D01*
X183823809Y-121035714D01*
X184014285Y-121035714D01*
X184109523Y-121083333D01*
X184538095Y-121702380D02*
X184538095Y-120702380D01*
X184633333Y-121321428D02*
X184919047Y-121702380D01*
X184919047Y-121035714D02*
X184538095Y-121416666D01*
X185300000Y-120797619D02*
X185347619Y-120750000D01*
X185442857Y-120702380D01*
X185680952Y-120702380D01*
X185776190Y-120750000D01*
X185823809Y-120797619D01*
X185871428Y-120892857D01*
X185871428Y-120988095D01*
X185823809Y-121130952D01*
X185252380Y-121702380D01*
X185871428Y-121702380D01*
X176586666Y-120902380D02*
X176586666Y-121616666D01*
X176539047Y-121759523D01*
X176443809Y-121854761D01*
X176300952Y-121902380D01*
X176205714Y-121902380D01*
X177539047Y-120902380D02*
X177062857Y-120902380D01*
X177015238Y-121378571D01*
X177062857Y-121330952D01*
X177158095Y-121283333D01*
X177396190Y-121283333D01*
X177491428Y-121330952D01*
X177539047Y-121378571D01*
X177586666Y-121473809D01*
X177586666Y-121711904D01*
X177539047Y-121807142D01*
X177491428Y-121854761D01*
X177396190Y-121902380D01*
X177158095Y-121902380D01*
X177062857Y-121854761D01*
X177015238Y-121807142D01*
X125047619Y-121632380D02*
X124714285Y-121156190D01*
X124476190Y-121632380D02*
X124476190Y-120632380D01*
X124857142Y-120632380D01*
X124952380Y-120680000D01*
X125000000Y-120727619D01*
X125047619Y-120822857D01*
X125047619Y-120965714D01*
X125000000Y-121060952D01*
X124952380Y-121108571D01*
X124857142Y-121156190D01*
X124476190Y-121156190D01*
X125904761Y-121632380D02*
X125904761Y-121108571D01*
X125857142Y-121013333D01*
X125761904Y-120965714D01*
X125571428Y-120965714D01*
X125476190Y-121013333D01*
X125904761Y-121584761D02*
X125809523Y-121632380D01*
X125571428Y-121632380D01*
X125476190Y-121584761D01*
X125428571Y-121489523D01*
X125428571Y-121394285D01*
X125476190Y-121299047D01*
X125571428Y-121251428D01*
X125809523Y-121251428D01*
X125904761Y-121203809D01*
X126809523Y-121584761D02*
X126714285Y-121632380D01*
X126523809Y-121632380D01*
X126428571Y-121584761D01*
X126380952Y-121537142D01*
X126333333Y-121441904D01*
X126333333Y-121156190D01*
X126380952Y-121060952D01*
X126428571Y-121013333D01*
X126523809Y-120965714D01*
X126714285Y-120965714D01*
X126809523Y-121013333D01*
X127238095Y-121632380D02*
X127238095Y-120632380D01*
X127333333Y-121251428D02*
X127619047Y-121632380D01*
X127619047Y-120965714D02*
X127238095Y-121346666D01*
X128571428Y-121632380D02*
X128000000Y-121632380D01*
X128285714Y-121632380D02*
X128285714Y-120632380D01*
X128190476Y-120775238D01*
X128095238Y-120870476D01*
X128000000Y-120918095D01*
X119366666Y-120632380D02*
X119366666Y-121346666D01*
X119319047Y-121489523D01*
X119223809Y-121584761D01*
X119080952Y-121632380D01*
X118985714Y-121632380D01*
X119890476Y-121632380D02*
X120080952Y-121632380D01*
X120176190Y-121584761D01*
X120223809Y-121537142D01*
X120319047Y-121394285D01*
X120366666Y-121203809D01*
X120366666Y-120822857D01*
X120319047Y-120727619D01*
X120271428Y-120680000D01*
X120176190Y-120632380D01*
X119985714Y-120632380D01*
X119890476Y-120680000D01*
X119842857Y-120727619D01*
X119795238Y-120822857D01*
X119795238Y-121060952D01*
X119842857Y-121156190D01*
X119890476Y-121203809D01*
X119985714Y-121251428D01*
X120176190Y-121251428D01*
X120271428Y-121203809D01*
X120319047Y-121156190D01*
X120366666Y-121060952D01*
M02*
