G04 #@! TF.GenerationSoftware,KiCad,Pcbnew,(5.1.0)-1*
G04 #@! TF.CreationDate,2019-06-18T01:36:36-06:00*
G04 #@! TF.ProjectId,laser-theremin,6c617365-722d-4746-9865-72656d696e2e,rev?*
G04 #@! TF.SameCoordinates,Original*
G04 #@! TF.FileFunction,Copper,L1,Top*
G04 #@! TF.FilePolarity,Positive*
%FSLAX46Y46*%
G04 Gerber Fmt 4.6, Leading zero omitted, Abs format (unit mm)*
G04 Created by KiCad (PCBNEW (5.1.0)-1) date 2019-06-18 01:36:36*
%MOMM*%
%LPD*%
G04 APERTURE LIST*
%ADD10C,0.100000*%
%ADD11C,0.150000*%
%ADD12C,0.300000*%
%ADD13C,0.400000*%
%ADD14C,0.010000*%
%ADD15R,0.762000X0.889000*%
%ADD16O,1.000000X1.000000*%
%ADD17R,1.000000X1.000000*%
%ADD18R,1.498600X0.899160*%
%ADD19R,1.200000X0.550000*%
%ADD20C,1.800000*%
%ADD21O,3.200000X3.500000*%
%ADD22C,2.250000*%
%ADD23C,2.250000*%
%ADD24C,2.000000*%
%ADD25R,2.000000X2.000000*%
%ADD26C,1.700000*%
%ADD27O,1.700000X1.700000*%
%ADD28C,1.200000*%
%ADD29O,2.150000X1.050000*%
%ADD30O,2.000000X1.200000*%
%ADD31R,1.700000X1.700000*%
%ADD32C,0.800000*%
%ADD33C,0.177800*%
%ADD34C,0.381000*%
%ADD35C,0.508000*%
%ADD36C,0.254000*%
%ADD37C,0.304800*%
%ADD38C,0.200000*%
G04 APERTURE END LIST*
D10*
D11*
X177002200Y-166007200D02*
X177002200Y-198007200D01*
X285002200Y-198007200D01*
X285002200Y-166007200D01*
X177002200Y-166007200D01*
D10*
D11*
X10000000Y-10000000D02*
X10000000Y-200007200D01*
X287002200Y-200007200D01*
X287002200Y-10000000D01*
X10000000Y-10000000D01*
D10*
D11*
X12000000Y-12000000D02*
X12000000Y-198007200D01*
X285002200Y-198007200D01*
X285002200Y-12000000D01*
X12000000Y-12000000D01*
D10*
D11*
X60000000Y-12000000D02*
X60000000Y-10000000D01*
D10*
D11*
X110000000Y-12000000D02*
X110000000Y-10000000D01*
D10*
D11*
X160000000Y-12000000D02*
X160000000Y-10000000D01*
D10*
D11*
X210000000Y-12000000D02*
X210000000Y-10000000D01*
D10*
D11*
X260000000Y-12000000D02*
X260000000Y-10000000D01*
D10*
D11*
X36065476Y-11588095D02*
X35322619Y-11588095D01*
X35694047Y-11588095D02*
X35694047Y-10288095D01*
X35570238Y-10473809D01*
X35446428Y-10597619D01*
X35322619Y-10659523D01*
D10*
D11*
X85322619Y-10411904D02*
X85384523Y-10350000D01*
X85508333Y-10288095D01*
X85817857Y-10288095D01*
X85941666Y-10350000D01*
X86003571Y-10411904D01*
X86065476Y-10535714D01*
X86065476Y-10659523D01*
X86003571Y-10845238D01*
X85260714Y-11588095D01*
X86065476Y-11588095D01*
D10*
D11*
X135260714Y-10288095D02*
X136065476Y-10288095D01*
X135632142Y-10783333D01*
X135817857Y-10783333D01*
X135941666Y-10845238D01*
X136003571Y-10907142D01*
X136065476Y-11030952D01*
X136065476Y-11340476D01*
X136003571Y-11464285D01*
X135941666Y-11526190D01*
X135817857Y-11588095D01*
X135446428Y-11588095D01*
X135322619Y-11526190D01*
X135260714Y-11464285D01*
D10*
D11*
X185941666Y-10721428D02*
X185941666Y-11588095D01*
X185632142Y-10226190D02*
X185322619Y-11154761D01*
X186127380Y-11154761D01*
D10*
D11*
X236003571Y-10288095D02*
X235384523Y-10288095D01*
X235322619Y-10907142D01*
X235384523Y-10845238D01*
X235508333Y-10783333D01*
X235817857Y-10783333D01*
X235941666Y-10845238D01*
X236003571Y-10907142D01*
X236065476Y-11030952D01*
X236065476Y-11340476D01*
X236003571Y-11464285D01*
X235941666Y-11526190D01*
X235817857Y-11588095D01*
X235508333Y-11588095D01*
X235384523Y-11526190D01*
X235322619Y-11464285D01*
D10*
D11*
X285941666Y-10288095D02*
X285694047Y-10288095D01*
X285570238Y-10350000D01*
X285508333Y-10411904D01*
X285384523Y-10597619D01*
X285322619Y-10845238D01*
X285322619Y-11340476D01*
X285384523Y-11464285D01*
X285446428Y-11526190D01*
X285570238Y-11588095D01*
X285817857Y-11588095D01*
X285941666Y-11526190D01*
X286003571Y-11464285D01*
X286065476Y-11340476D01*
X286065476Y-11030952D01*
X286003571Y-10907142D01*
X285941666Y-10845238D01*
X285817857Y-10783333D01*
X285570238Y-10783333D01*
X285446428Y-10845238D01*
X285384523Y-10907142D01*
X285322619Y-11030952D01*
D10*
D11*
X60000000Y-198007200D02*
X60000000Y-200007200D01*
D10*
D11*
X110000000Y-198007200D02*
X110000000Y-200007200D01*
D10*
D11*
X160000000Y-198007200D02*
X160000000Y-200007200D01*
D10*
D11*
X210000000Y-198007200D02*
X210000000Y-200007200D01*
D10*
D11*
X260000000Y-198007200D02*
X260000000Y-200007200D01*
D10*
D11*
X36065476Y-199595295D02*
X35322619Y-199595295D01*
X35694047Y-199595295D02*
X35694047Y-198295295D01*
X35570238Y-198481009D01*
X35446428Y-198604819D01*
X35322619Y-198666723D01*
D10*
D11*
X85322619Y-198419104D02*
X85384523Y-198357200D01*
X85508333Y-198295295D01*
X85817857Y-198295295D01*
X85941666Y-198357200D01*
X86003571Y-198419104D01*
X86065476Y-198542914D01*
X86065476Y-198666723D01*
X86003571Y-198852438D01*
X85260714Y-199595295D01*
X86065476Y-199595295D01*
D10*
D11*
X135260714Y-198295295D02*
X136065476Y-198295295D01*
X135632142Y-198790533D01*
X135817857Y-198790533D01*
X135941666Y-198852438D01*
X136003571Y-198914342D01*
X136065476Y-199038152D01*
X136065476Y-199347676D01*
X136003571Y-199471485D01*
X135941666Y-199533390D01*
X135817857Y-199595295D01*
X135446428Y-199595295D01*
X135322619Y-199533390D01*
X135260714Y-199471485D01*
D10*
D11*
X185941666Y-198728628D02*
X185941666Y-199595295D01*
X185632142Y-198233390D02*
X185322619Y-199161961D01*
X186127380Y-199161961D01*
D10*
D11*
X236003571Y-198295295D02*
X235384523Y-198295295D01*
X235322619Y-198914342D01*
X235384523Y-198852438D01*
X235508333Y-198790533D01*
X235817857Y-198790533D01*
X235941666Y-198852438D01*
X236003571Y-198914342D01*
X236065476Y-199038152D01*
X236065476Y-199347676D01*
X236003571Y-199471485D01*
X235941666Y-199533390D01*
X235817857Y-199595295D01*
X235508333Y-199595295D01*
X235384523Y-199533390D01*
X235322619Y-199471485D01*
D10*
D11*
X285941666Y-198295295D02*
X285694047Y-198295295D01*
X285570238Y-198357200D01*
X285508333Y-198419104D01*
X285384523Y-198604819D01*
X285322619Y-198852438D01*
X285322619Y-199347676D01*
X285384523Y-199471485D01*
X285446428Y-199533390D01*
X285570238Y-199595295D01*
X285817857Y-199595295D01*
X285941666Y-199533390D01*
X286003571Y-199471485D01*
X286065476Y-199347676D01*
X286065476Y-199038152D01*
X286003571Y-198914342D01*
X285941666Y-198852438D01*
X285817857Y-198790533D01*
X285570238Y-198790533D01*
X285446428Y-198852438D01*
X285384523Y-198914342D01*
X285322619Y-199038152D01*
D10*
D11*
X10000000Y-60000000D02*
X12000000Y-60000000D01*
D10*
D11*
X10000000Y-110000000D02*
X12000000Y-110000000D01*
D10*
D11*
X10000000Y-160000000D02*
X12000000Y-160000000D01*
D10*
D11*
X10690476Y-35216666D02*
X11309523Y-35216666D01*
X10566666Y-35588095D02*
X11000000Y-34288095D01*
X11433333Y-35588095D01*
D10*
D11*
X11092857Y-84907142D02*
X11278571Y-84969047D01*
X11340476Y-85030952D01*
X11402380Y-85154761D01*
X11402380Y-85340476D01*
X11340476Y-85464285D01*
X11278571Y-85526190D01*
X11154761Y-85588095D01*
X10659523Y-85588095D01*
X10659523Y-84288095D01*
X11092857Y-84288095D01*
X11216666Y-84350000D01*
X11278571Y-84411904D01*
X11340476Y-84535714D01*
X11340476Y-84659523D01*
X11278571Y-84783333D01*
X11216666Y-84845238D01*
X11092857Y-84907142D01*
X10659523Y-84907142D01*
D10*
D11*
X11402380Y-135464285D02*
X11340476Y-135526190D01*
X11154761Y-135588095D01*
X11030952Y-135588095D01*
X10845238Y-135526190D01*
X10721428Y-135402380D01*
X10659523Y-135278571D01*
X10597619Y-135030952D01*
X10597619Y-134845238D01*
X10659523Y-134597619D01*
X10721428Y-134473809D01*
X10845238Y-134350000D01*
X11030952Y-134288095D01*
X11154761Y-134288095D01*
X11340476Y-134350000D01*
X11402380Y-134411904D01*
D10*
D11*
X10659523Y-185588095D02*
X10659523Y-184288095D01*
X10969047Y-184288095D01*
X11154761Y-184350000D01*
X11278571Y-184473809D01*
X11340476Y-184597619D01*
X11402380Y-184845238D01*
X11402380Y-185030952D01*
X11340476Y-185278571D01*
X11278571Y-185402380D01*
X11154761Y-185526190D01*
X10969047Y-185588095D01*
X10659523Y-185588095D01*
D10*
D11*
X287002200Y-60000000D02*
X285002200Y-60000000D01*
D10*
D11*
X287002200Y-110000000D02*
X285002200Y-110000000D01*
D10*
D11*
X287002200Y-160000000D02*
X285002200Y-160000000D01*
D10*
D11*
X285692676Y-35216666D02*
X286311723Y-35216666D01*
X285568866Y-35588095D02*
X286002200Y-34288095D01*
X286435533Y-35588095D01*
D10*
D11*
X286095057Y-84907142D02*
X286280771Y-84969047D01*
X286342676Y-85030952D01*
X286404580Y-85154761D01*
X286404580Y-85340476D01*
X286342676Y-85464285D01*
X286280771Y-85526190D01*
X286156961Y-85588095D01*
X285661723Y-85588095D01*
X285661723Y-84288095D01*
X286095057Y-84288095D01*
X286218866Y-84350000D01*
X286280771Y-84411904D01*
X286342676Y-84535714D01*
X286342676Y-84659523D01*
X286280771Y-84783333D01*
X286218866Y-84845238D01*
X286095057Y-84907142D01*
X285661723Y-84907142D01*
D10*
D11*
X286404580Y-135464285D02*
X286342676Y-135526190D01*
X286156961Y-135588095D01*
X286033152Y-135588095D01*
X285847438Y-135526190D01*
X285723628Y-135402380D01*
X285661723Y-135278571D01*
X285599819Y-135030952D01*
X285599819Y-134845238D01*
X285661723Y-134597619D01*
X285723628Y-134473809D01*
X285847438Y-134350000D01*
X286033152Y-134288095D01*
X286156961Y-134288095D01*
X286342676Y-134350000D01*
X286404580Y-134411904D01*
D10*
D11*
X285661723Y-185588095D02*
X285661723Y-184288095D01*
X285971247Y-184288095D01*
X286156961Y-184350000D01*
X286280771Y-184473809D01*
X286342676Y-184597619D01*
X286404580Y-184845238D01*
X286404580Y-185030952D01*
X286342676Y-185278571D01*
X286280771Y-185402380D01*
X286156961Y-185526190D01*
X285971247Y-185588095D01*
X285661723Y-185588095D01*
D10*
D11*
X200434342Y-193785771D02*
X200434342Y-192285771D01*
X200791485Y-192285771D01*
X201005771Y-192357200D01*
X201148628Y-192500057D01*
X201220057Y-192642914D01*
X201291485Y-192928628D01*
X201291485Y-193142914D01*
X201220057Y-193428628D01*
X201148628Y-193571485D01*
X201005771Y-193714342D01*
X200791485Y-193785771D01*
X200434342Y-193785771D01*
X202577200Y-193785771D02*
X202577200Y-193000057D01*
X202505771Y-192857200D01*
X202362914Y-192785771D01*
X202077200Y-192785771D01*
X201934342Y-192857200D01*
X202577200Y-193714342D02*
X202434342Y-193785771D01*
X202077200Y-193785771D01*
X201934342Y-193714342D01*
X201862914Y-193571485D01*
X201862914Y-193428628D01*
X201934342Y-193285771D01*
X202077200Y-193214342D01*
X202434342Y-193214342D01*
X202577200Y-193142914D01*
X203077200Y-192785771D02*
X203648628Y-192785771D01*
X203291485Y-192285771D02*
X203291485Y-193571485D01*
X203362914Y-193714342D01*
X203505771Y-193785771D01*
X203648628Y-193785771D01*
X204720057Y-193714342D02*
X204577200Y-193785771D01*
X204291485Y-193785771D01*
X204148628Y-193714342D01*
X204077200Y-193571485D01*
X204077200Y-193000057D01*
X204148628Y-192857200D01*
X204291485Y-192785771D01*
X204577200Y-192785771D01*
X204720057Y-192857200D01*
X204791485Y-193000057D01*
X204791485Y-193142914D01*
X204077200Y-193285771D01*
X205434342Y-193642914D02*
X205505771Y-193714342D01*
X205434342Y-193785771D01*
X205362914Y-193714342D01*
X205434342Y-193642914D01*
X205434342Y-193785771D01*
X205434342Y-192857200D02*
X205505771Y-192928628D01*
X205434342Y-193000057D01*
X205362914Y-192928628D01*
X205434342Y-192857200D01*
X205434342Y-193000057D01*
D10*
D11*
X177002200Y-194507200D02*
X285002200Y-194507200D01*
D10*
D11*
X178434342Y-196585771D02*
X178434342Y-195085771D01*
X179291485Y-196585771D02*
X178648628Y-195728628D01*
X179291485Y-195085771D02*
X178434342Y-195942914D01*
X179934342Y-196585771D02*
X179934342Y-195585771D01*
X179934342Y-195085771D02*
X179862914Y-195157200D01*
X179934342Y-195228628D01*
X180005771Y-195157200D01*
X179934342Y-195085771D01*
X179934342Y-195228628D01*
X181505771Y-196442914D02*
X181434342Y-196514342D01*
X181220057Y-196585771D01*
X181077200Y-196585771D01*
X180862914Y-196514342D01*
X180720057Y-196371485D01*
X180648628Y-196228628D01*
X180577200Y-195942914D01*
X180577200Y-195728628D01*
X180648628Y-195442914D01*
X180720057Y-195300057D01*
X180862914Y-195157200D01*
X181077200Y-195085771D01*
X181220057Y-195085771D01*
X181434342Y-195157200D01*
X181505771Y-195228628D01*
X182791485Y-196585771D02*
X182791485Y-195800057D01*
X182720057Y-195657200D01*
X182577200Y-195585771D01*
X182291485Y-195585771D01*
X182148628Y-195657200D01*
X182791485Y-196514342D02*
X182648628Y-196585771D01*
X182291485Y-196585771D01*
X182148628Y-196514342D01*
X182077200Y-196371485D01*
X182077200Y-196228628D01*
X182148628Y-196085771D01*
X182291485Y-196014342D01*
X182648628Y-196014342D01*
X182791485Y-195942914D01*
X184148628Y-196585771D02*
X184148628Y-195085771D01*
X184148628Y-196514342D02*
X184005771Y-196585771D01*
X183720057Y-196585771D01*
X183577200Y-196514342D01*
X183505771Y-196442914D01*
X183434342Y-196300057D01*
X183434342Y-195871485D01*
X183505771Y-195728628D01*
X183577200Y-195657200D01*
X183720057Y-195585771D01*
X184005771Y-195585771D01*
X184148628Y-195657200D01*
X186005771Y-195800057D02*
X186505771Y-195800057D01*
X186720057Y-196585771D02*
X186005771Y-196585771D01*
X186005771Y-195085771D01*
X186720057Y-195085771D01*
X187362914Y-196442914D02*
X187434342Y-196514342D01*
X187362914Y-196585771D01*
X187291485Y-196514342D01*
X187362914Y-196442914D01*
X187362914Y-196585771D01*
X188077200Y-196585771D02*
X188077200Y-195085771D01*
X188434342Y-195085771D01*
X188648628Y-195157200D01*
X188791485Y-195300057D01*
X188862914Y-195442914D01*
X188934342Y-195728628D01*
X188934342Y-195942914D01*
X188862914Y-196228628D01*
X188791485Y-196371485D01*
X188648628Y-196514342D01*
X188434342Y-196585771D01*
X188077200Y-196585771D01*
X189577200Y-196442914D02*
X189648628Y-196514342D01*
X189577200Y-196585771D01*
X189505771Y-196514342D01*
X189577200Y-196442914D01*
X189577200Y-196585771D01*
X190220057Y-196157200D02*
X190934342Y-196157200D01*
X190077200Y-196585771D02*
X190577200Y-195085771D01*
X191077200Y-196585771D01*
X191577200Y-196442914D02*
X191648628Y-196514342D01*
X191577200Y-196585771D01*
X191505771Y-196514342D01*
X191577200Y-196442914D01*
X191577200Y-196585771D01*
X194577200Y-196585771D02*
X194577200Y-195085771D01*
X194720057Y-196014342D02*
X195148628Y-196585771D01*
X195148628Y-195585771D02*
X194577200Y-196157200D01*
X195791485Y-196585771D02*
X195791485Y-195585771D01*
X195791485Y-195085771D02*
X195720057Y-195157200D01*
X195791485Y-195228628D01*
X195862914Y-195157200D01*
X195791485Y-195085771D01*
X195791485Y-195228628D01*
X197148628Y-196514342D02*
X197005771Y-196585771D01*
X196720057Y-196585771D01*
X196577200Y-196514342D01*
X196505771Y-196442914D01*
X196434342Y-196300057D01*
X196434342Y-195871485D01*
X196505771Y-195728628D01*
X196577200Y-195657200D01*
X196720057Y-195585771D01*
X197005771Y-195585771D01*
X197148628Y-195657200D01*
X198434342Y-196585771D02*
X198434342Y-195800057D01*
X198362914Y-195657200D01*
X198220057Y-195585771D01*
X197934342Y-195585771D01*
X197791485Y-195657200D01*
X198434342Y-196514342D02*
X198291485Y-196585771D01*
X197934342Y-196585771D01*
X197791485Y-196514342D01*
X197720057Y-196371485D01*
X197720057Y-196228628D01*
X197791485Y-196085771D01*
X197934342Y-196014342D01*
X198291485Y-196014342D01*
X198434342Y-195942914D01*
X199791485Y-196585771D02*
X199791485Y-195085771D01*
X199791485Y-196514342D02*
X199648628Y-196585771D01*
X199362914Y-196585771D01*
X199220057Y-196514342D01*
X199148628Y-196442914D01*
X199077200Y-196300057D01*
X199077200Y-195871485D01*
X199148628Y-195728628D01*
X199220057Y-195657200D01*
X199362914Y-195585771D01*
X199648628Y-195585771D01*
X199791485Y-195657200D01*
X202077200Y-197157200D02*
X202005771Y-197085771D01*
X201862914Y-196871485D01*
X201791485Y-196728628D01*
X201720057Y-196514342D01*
X201648628Y-196157200D01*
X201648628Y-195871485D01*
X201720057Y-195514342D01*
X201791485Y-195300057D01*
X201862914Y-195157200D01*
X202005771Y-194942914D01*
X202077200Y-194871485D01*
X203362914Y-195085771D02*
X202648628Y-195085771D01*
X202577200Y-195800057D01*
X202648628Y-195728628D01*
X202791485Y-195657200D01*
X203148628Y-195657200D01*
X203291485Y-195728628D01*
X203362914Y-195800057D01*
X203434342Y-195942914D01*
X203434342Y-196300057D01*
X203362914Y-196442914D01*
X203291485Y-196514342D01*
X203148628Y-196585771D01*
X202791485Y-196585771D01*
X202648628Y-196514342D01*
X202577200Y-196442914D01*
X204077200Y-196442914D02*
X204148628Y-196514342D01*
X204077200Y-196585771D01*
X204005771Y-196514342D01*
X204077200Y-196442914D01*
X204077200Y-196585771D01*
X205577200Y-196585771D02*
X204720057Y-196585771D01*
X205148628Y-196585771D02*
X205148628Y-195085771D01*
X205005771Y-195300057D01*
X204862914Y-195442914D01*
X204720057Y-195514342D01*
X206220057Y-196442914D02*
X206291485Y-196514342D01*
X206220057Y-196585771D01*
X206148628Y-196514342D01*
X206220057Y-196442914D01*
X206220057Y-196585771D01*
X207220057Y-195085771D02*
X207362914Y-195085771D01*
X207505771Y-195157200D01*
X207577200Y-195228628D01*
X207648628Y-195371485D01*
X207720057Y-195657200D01*
X207720057Y-196014342D01*
X207648628Y-196300057D01*
X207577200Y-196442914D01*
X207505771Y-196514342D01*
X207362914Y-196585771D01*
X207220057Y-196585771D01*
X207077200Y-196514342D01*
X207005771Y-196442914D01*
X206934342Y-196300057D01*
X206862914Y-196014342D01*
X206862914Y-195657200D01*
X206934342Y-195371485D01*
X207005771Y-195228628D01*
X207077200Y-195157200D01*
X207220057Y-195085771D01*
X208220057Y-197157200D02*
X208291485Y-197085771D01*
X208434342Y-196871485D01*
X208505771Y-196728628D01*
X208577200Y-196514342D01*
X208648628Y-196157200D01*
X208648628Y-195871485D01*
X208577200Y-195514342D01*
X208505771Y-195300057D01*
X208434342Y-195157200D01*
X208291485Y-194942914D01*
X208220057Y-194871485D01*
X209362914Y-196014342D02*
X210505771Y-196014342D01*
X212005771Y-196585771D02*
X211148628Y-196585771D01*
X211577200Y-196585771D02*
X211577200Y-195085771D01*
X211434342Y-195300057D01*
X211291485Y-195442914D01*
X211148628Y-195514342D01*
D10*
D11*
X177002200Y-191507200D02*
X285002200Y-191507200D01*
D10*
D12*
X264411485Y-193785771D02*
X263911485Y-193071485D01*
X263554342Y-193785771D02*
X263554342Y-192285771D01*
X264125771Y-192285771D01*
X264268628Y-192357200D01*
X264340057Y-192428628D01*
X264411485Y-192571485D01*
X264411485Y-192785771D01*
X264340057Y-192928628D01*
X264268628Y-193000057D01*
X264125771Y-193071485D01*
X263554342Y-193071485D01*
X265625771Y-193714342D02*
X265482914Y-193785771D01*
X265197200Y-193785771D01*
X265054342Y-193714342D01*
X264982914Y-193571485D01*
X264982914Y-193000057D01*
X265054342Y-192857200D01*
X265197200Y-192785771D01*
X265482914Y-192785771D01*
X265625771Y-192857200D01*
X265697200Y-193000057D01*
X265697200Y-193142914D01*
X264982914Y-193285771D01*
X266197200Y-192785771D02*
X266554342Y-193785771D01*
X266911485Y-192785771D01*
X267482914Y-193642914D02*
X267554342Y-193714342D01*
X267482914Y-193785771D01*
X267411485Y-193714342D01*
X267482914Y-193642914D01*
X267482914Y-193785771D01*
X267482914Y-192857200D02*
X267554342Y-192928628D01*
X267482914Y-193000057D01*
X267411485Y-192928628D01*
X267482914Y-192857200D01*
X267482914Y-193000057D01*
D10*
D11*
X178362914Y-193714342D02*
X178577200Y-193785771D01*
X178934342Y-193785771D01*
X179077200Y-193714342D01*
X179148628Y-193642914D01*
X179220057Y-193500057D01*
X179220057Y-193357200D01*
X179148628Y-193214342D01*
X179077200Y-193142914D01*
X178934342Y-193071485D01*
X178648628Y-193000057D01*
X178505771Y-192928628D01*
X178434342Y-192857200D01*
X178362914Y-192714342D01*
X178362914Y-192571485D01*
X178434342Y-192428628D01*
X178505771Y-192357200D01*
X178648628Y-192285771D01*
X179005771Y-192285771D01*
X179220057Y-192357200D01*
X179862914Y-193785771D02*
X179862914Y-192785771D01*
X179862914Y-192285771D02*
X179791485Y-192357200D01*
X179862914Y-192428628D01*
X179934342Y-192357200D01*
X179862914Y-192285771D01*
X179862914Y-192428628D01*
X180434342Y-192785771D02*
X181220057Y-192785771D01*
X180434342Y-193785771D01*
X181220057Y-193785771D01*
X182362914Y-193714342D02*
X182220057Y-193785771D01*
X181934342Y-193785771D01*
X181791485Y-193714342D01*
X181720057Y-193571485D01*
X181720057Y-193000057D01*
X181791485Y-192857200D01*
X181934342Y-192785771D01*
X182220057Y-192785771D01*
X182362914Y-192857200D01*
X182434342Y-193000057D01*
X182434342Y-193142914D01*
X181720057Y-193285771D01*
X183077200Y-193642914D02*
X183148628Y-193714342D01*
X183077200Y-193785771D01*
X183005771Y-193714342D01*
X183077200Y-193642914D01*
X183077200Y-193785771D01*
X183077200Y-192857200D02*
X183148628Y-192928628D01*
X183077200Y-193000057D01*
X183005771Y-192928628D01*
X183077200Y-192857200D01*
X183077200Y-193000057D01*
X184862914Y-193357200D02*
X185577200Y-193357200D01*
X184720057Y-193785771D02*
X185220057Y-192285771D01*
X185720057Y-193785771D01*
X186862914Y-192785771D02*
X186862914Y-193785771D01*
X186505771Y-192214342D02*
X186148628Y-193285771D01*
X187077200Y-193285771D01*
D10*
D11*
X263434342Y-196585771D02*
X263434342Y-195085771D01*
X264791485Y-196585771D02*
X264791485Y-195085771D01*
X264791485Y-196514342D02*
X264648628Y-196585771D01*
X264362914Y-196585771D01*
X264220057Y-196514342D01*
X264148628Y-196442914D01*
X264077200Y-196300057D01*
X264077200Y-195871485D01*
X264148628Y-195728628D01*
X264220057Y-195657200D01*
X264362914Y-195585771D01*
X264648628Y-195585771D01*
X264791485Y-195657200D01*
X265505771Y-196442914D02*
X265577200Y-196514342D01*
X265505771Y-196585771D01*
X265434342Y-196514342D01*
X265505771Y-196442914D01*
X265505771Y-196585771D01*
X265505771Y-195657200D02*
X265577200Y-195728628D01*
X265505771Y-195800057D01*
X265434342Y-195728628D01*
X265505771Y-195657200D01*
X265505771Y-195800057D01*
X268148628Y-196585771D02*
X267291485Y-196585771D01*
X267720057Y-196585771D02*
X267720057Y-195085771D01*
X267577200Y-195300057D01*
X267434342Y-195442914D01*
X267291485Y-195514342D01*
X269862914Y-195014342D02*
X268577200Y-196942914D01*
X271148628Y-196585771D02*
X270291485Y-196585771D01*
X270720057Y-196585771D02*
X270720057Y-195085771D01*
X270577200Y-195300057D01*
X270434342Y-195442914D01*
X270291485Y-195514342D01*
D10*
D11*
X177002200Y-187507200D02*
X285002200Y-187507200D01*
D10*
D13*
X178714580Y-188211961D02*
X179857438Y-188211961D01*
X179036009Y-190211961D02*
X179286009Y-188211961D01*
X180274104Y-190211961D02*
X180440771Y-188878628D01*
X180524104Y-188211961D02*
X180416961Y-188307200D01*
X180500295Y-188402438D01*
X180607438Y-188307200D01*
X180524104Y-188211961D01*
X180500295Y-188402438D01*
X181107438Y-188878628D02*
X181869342Y-188878628D01*
X181476485Y-188211961D02*
X181262200Y-189926247D01*
X181333628Y-190116723D01*
X181512200Y-190211961D01*
X181702676Y-190211961D01*
X182655057Y-190211961D02*
X182476485Y-190116723D01*
X182405057Y-189926247D01*
X182619342Y-188211961D01*
X184190771Y-190116723D02*
X183988390Y-190211961D01*
X183607438Y-190211961D01*
X183428866Y-190116723D01*
X183357438Y-189926247D01*
X183452676Y-189164342D01*
X183571723Y-188973866D01*
X183774104Y-188878628D01*
X184155057Y-188878628D01*
X184333628Y-188973866D01*
X184405057Y-189164342D01*
X184381247Y-189354819D01*
X183405057Y-189545295D01*
X185155057Y-190021485D02*
X185238390Y-190116723D01*
X185131247Y-190211961D01*
X185047914Y-190116723D01*
X185155057Y-190021485D01*
X185131247Y-190211961D01*
X185286009Y-188973866D02*
X185369342Y-189069104D01*
X185262200Y-189164342D01*
X185178866Y-189069104D01*
X185286009Y-188973866D01*
X185262200Y-189164342D01*
D10*
D11*
X178934342Y-185600057D02*
X178434342Y-185600057D01*
X178434342Y-186385771D02*
X178434342Y-184885771D01*
X179148628Y-184885771D01*
X179720057Y-186385771D02*
X179720057Y-185385771D01*
X179720057Y-184885771D02*
X179648628Y-184957200D01*
X179720057Y-185028628D01*
X179791485Y-184957200D01*
X179720057Y-184885771D01*
X179720057Y-185028628D01*
X180648628Y-186385771D02*
X180505771Y-186314342D01*
X180434342Y-186171485D01*
X180434342Y-184885771D01*
X181791485Y-186314342D02*
X181648628Y-186385771D01*
X181362914Y-186385771D01*
X181220057Y-186314342D01*
X181148628Y-186171485D01*
X181148628Y-185600057D01*
X181220057Y-185457200D01*
X181362914Y-185385771D01*
X181648628Y-185385771D01*
X181791485Y-185457200D01*
X181862914Y-185600057D01*
X181862914Y-185742914D01*
X181148628Y-185885771D01*
X182505771Y-186242914D02*
X182577200Y-186314342D01*
X182505771Y-186385771D01*
X182434342Y-186314342D01*
X182505771Y-186242914D01*
X182505771Y-186385771D01*
X182505771Y-185457200D02*
X182577200Y-185528628D01*
X182505771Y-185600057D01*
X182434342Y-185528628D01*
X182505771Y-185457200D01*
X182505771Y-185600057D01*
X184577200Y-186385771D02*
X184434342Y-186314342D01*
X184362914Y-186171485D01*
X184362914Y-184885771D01*
X185791485Y-186385771D02*
X185791485Y-185600057D01*
X185720057Y-185457200D01*
X185577200Y-185385771D01*
X185291485Y-185385771D01*
X185148628Y-185457200D01*
X185791485Y-186314342D02*
X185648628Y-186385771D01*
X185291485Y-186385771D01*
X185148628Y-186314342D01*
X185077200Y-186171485D01*
X185077200Y-186028628D01*
X185148628Y-185885771D01*
X185291485Y-185814342D01*
X185648628Y-185814342D01*
X185791485Y-185742914D01*
X186434342Y-186314342D02*
X186577200Y-186385771D01*
X186862914Y-186385771D01*
X187005771Y-186314342D01*
X187077200Y-186171485D01*
X187077200Y-186100057D01*
X187005771Y-185957200D01*
X186862914Y-185885771D01*
X186648628Y-185885771D01*
X186505771Y-185814342D01*
X186434342Y-185671485D01*
X186434342Y-185600057D01*
X186505771Y-185457200D01*
X186648628Y-185385771D01*
X186862914Y-185385771D01*
X187005771Y-185457200D01*
X188291485Y-186314342D02*
X188148628Y-186385771D01*
X187862914Y-186385771D01*
X187720057Y-186314342D01*
X187648628Y-186171485D01*
X187648628Y-185600057D01*
X187720057Y-185457200D01*
X187862914Y-185385771D01*
X188148628Y-185385771D01*
X188291485Y-185457200D01*
X188362914Y-185600057D01*
X188362914Y-185742914D01*
X187648628Y-185885771D01*
X189005771Y-186385771D02*
X189005771Y-185385771D01*
X189005771Y-185671485D02*
X189077200Y-185528628D01*
X189148628Y-185457200D01*
X189291485Y-185385771D01*
X189434342Y-185385771D01*
X189934342Y-185814342D02*
X191077200Y-185814342D01*
X191577200Y-185385771D02*
X192148628Y-185385771D01*
X191791485Y-184885771D02*
X191791485Y-186171485D01*
X191862914Y-186314342D01*
X192005771Y-186385771D01*
X192148628Y-186385771D01*
X192648628Y-186385771D02*
X192648628Y-184885771D01*
X193291485Y-186385771D02*
X193291485Y-185600057D01*
X193220057Y-185457200D01*
X193077200Y-185385771D01*
X192862914Y-185385771D01*
X192720057Y-185457200D01*
X192648628Y-185528628D01*
X194577200Y-186314342D02*
X194434342Y-186385771D01*
X194148628Y-186385771D01*
X194005771Y-186314342D01*
X193934342Y-186171485D01*
X193934342Y-185600057D01*
X194005771Y-185457200D01*
X194148628Y-185385771D01*
X194434342Y-185385771D01*
X194577200Y-185457200D01*
X194648628Y-185600057D01*
X194648628Y-185742914D01*
X193934342Y-185885771D01*
X195291485Y-186385771D02*
X195291485Y-185385771D01*
X195291485Y-185671485D02*
X195362914Y-185528628D01*
X195434342Y-185457200D01*
X195577200Y-185385771D01*
X195720057Y-185385771D01*
X196791485Y-186314342D02*
X196648628Y-186385771D01*
X196362914Y-186385771D01*
X196220057Y-186314342D01*
X196148628Y-186171485D01*
X196148628Y-185600057D01*
X196220057Y-185457200D01*
X196362914Y-185385771D01*
X196648628Y-185385771D01*
X196791485Y-185457200D01*
X196862914Y-185600057D01*
X196862914Y-185742914D01*
X196148628Y-185885771D01*
X197505771Y-186385771D02*
X197505771Y-185385771D01*
X197505771Y-185528628D02*
X197577200Y-185457200D01*
X197720057Y-185385771D01*
X197934342Y-185385771D01*
X198077200Y-185457200D01*
X198148628Y-185600057D01*
X198148628Y-186385771D01*
X198148628Y-185600057D02*
X198220057Y-185457200D01*
X198362914Y-185385771D01*
X198577200Y-185385771D01*
X198720057Y-185457200D01*
X198791485Y-185600057D01*
X198791485Y-186385771D01*
X199505771Y-186385771D02*
X199505771Y-185385771D01*
X199505771Y-184885771D02*
X199434342Y-184957200D01*
X199505771Y-185028628D01*
X199577200Y-184957200D01*
X199505771Y-184885771D01*
X199505771Y-185028628D01*
X200220057Y-185385771D02*
X200220057Y-186385771D01*
X200220057Y-185528628D02*
X200291485Y-185457200D01*
X200434342Y-185385771D01*
X200648628Y-185385771D01*
X200791485Y-185457200D01*
X200862914Y-185600057D01*
X200862914Y-186385771D01*
X201577200Y-186242914D02*
X201648628Y-186314342D01*
X201577200Y-186385771D01*
X201505771Y-186314342D01*
X201577200Y-186242914D01*
X201577200Y-186385771D01*
X202291485Y-186385771D02*
X202291485Y-184885771D01*
X202434342Y-185814342D02*
X202862914Y-186385771D01*
X202862914Y-185385771D02*
X202291485Y-185957200D01*
X203505771Y-186385771D02*
X203505771Y-185385771D01*
X203505771Y-184885771D02*
X203434342Y-184957200D01*
X203505771Y-185028628D01*
X203577200Y-184957200D01*
X203505771Y-184885771D01*
X203505771Y-185028628D01*
X204862914Y-186314342D02*
X204720057Y-186385771D01*
X204434342Y-186385771D01*
X204291485Y-186314342D01*
X204220057Y-186242914D01*
X204148628Y-186100057D01*
X204148628Y-185671485D01*
X204220057Y-185528628D01*
X204291485Y-185457200D01*
X204434342Y-185385771D01*
X204720057Y-185385771D01*
X204862914Y-185457200D01*
X206148628Y-186385771D02*
X206148628Y-185600057D01*
X206077200Y-185457200D01*
X205934342Y-185385771D01*
X205648628Y-185385771D01*
X205505771Y-185457200D01*
X206148628Y-186314342D02*
X206005771Y-186385771D01*
X205648628Y-186385771D01*
X205505771Y-186314342D01*
X205434342Y-186171485D01*
X205434342Y-186028628D01*
X205505771Y-185885771D01*
X205648628Y-185814342D01*
X206005771Y-185814342D01*
X206148628Y-185742914D01*
X207505771Y-186385771D02*
X207505771Y-184885771D01*
X207505771Y-186314342D02*
X207362914Y-186385771D01*
X207077200Y-186385771D01*
X206934342Y-186314342D01*
X206862914Y-186242914D01*
X206791485Y-186100057D01*
X206791485Y-185671485D01*
X206862914Y-185528628D01*
X206934342Y-185457200D01*
X207077200Y-185385771D01*
X207362914Y-185385771D01*
X207505771Y-185457200D01*
X207862914Y-186528628D02*
X209005771Y-186528628D01*
X209362914Y-185385771D02*
X209362914Y-186885771D01*
X209362914Y-185457200D02*
X209505771Y-185385771D01*
X209791485Y-185385771D01*
X209934342Y-185457200D01*
X210005771Y-185528628D01*
X210077200Y-185671485D01*
X210077200Y-186100057D01*
X210005771Y-186242914D01*
X209934342Y-186314342D01*
X209791485Y-186385771D01*
X209505771Y-186385771D01*
X209362914Y-186314342D01*
X211362914Y-186314342D02*
X211220057Y-186385771D01*
X210934342Y-186385771D01*
X210791485Y-186314342D01*
X210720057Y-186242914D01*
X210648628Y-186100057D01*
X210648628Y-185671485D01*
X210720057Y-185528628D01*
X210791485Y-185457200D01*
X210934342Y-185385771D01*
X211220057Y-185385771D01*
X211362914Y-185457200D01*
X212005771Y-186385771D02*
X212005771Y-184885771D01*
X212005771Y-185457200D02*
X212148628Y-185385771D01*
X212434342Y-185385771D01*
X212577200Y-185457200D01*
X212648628Y-185528628D01*
X212720057Y-185671485D01*
X212720057Y-186100057D01*
X212648628Y-186242914D01*
X212577200Y-186314342D01*
X212434342Y-186385771D01*
X212148628Y-186385771D01*
X212005771Y-186314342D01*
D10*
D11*
X177002200Y-181507200D02*
X285002200Y-181507200D01*
D10*
D11*
X178362914Y-183614342D02*
X178577200Y-183685771D01*
X178934342Y-183685771D01*
X179077200Y-183614342D01*
X179148628Y-183542914D01*
X179220057Y-183400057D01*
X179220057Y-183257200D01*
X179148628Y-183114342D01*
X179077200Y-183042914D01*
X178934342Y-182971485D01*
X178648628Y-182900057D01*
X178505771Y-182828628D01*
X178434342Y-182757200D01*
X178362914Y-182614342D01*
X178362914Y-182471485D01*
X178434342Y-182328628D01*
X178505771Y-182257200D01*
X178648628Y-182185771D01*
X179005771Y-182185771D01*
X179220057Y-182257200D01*
X179862914Y-183685771D02*
X179862914Y-182185771D01*
X180505771Y-183685771D02*
X180505771Y-182900057D01*
X180434342Y-182757200D01*
X180291485Y-182685771D01*
X180077200Y-182685771D01*
X179934342Y-182757200D01*
X179862914Y-182828628D01*
X181791485Y-183614342D02*
X181648628Y-183685771D01*
X181362914Y-183685771D01*
X181220057Y-183614342D01*
X181148628Y-183471485D01*
X181148628Y-182900057D01*
X181220057Y-182757200D01*
X181362914Y-182685771D01*
X181648628Y-182685771D01*
X181791485Y-182757200D01*
X181862914Y-182900057D01*
X181862914Y-183042914D01*
X181148628Y-183185771D01*
X183077200Y-183614342D02*
X182934342Y-183685771D01*
X182648628Y-183685771D01*
X182505771Y-183614342D01*
X182434342Y-183471485D01*
X182434342Y-182900057D01*
X182505771Y-182757200D01*
X182648628Y-182685771D01*
X182934342Y-182685771D01*
X183077200Y-182757200D01*
X183148628Y-182900057D01*
X183148628Y-183042914D01*
X182434342Y-183185771D01*
X183577200Y-182685771D02*
X184148628Y-182685771D01*
X183791485Y-182185771D02*
X183791485Y-183471485D01*
X183862914Y-183614342D01*
X184005771Y-183685771D01*
X184148628Y-183685771D01*
X184648628Y-183542914D02*
X184720057Y-183614342D01*
X184648628Y-183685771D01*
X184577200Y-183614342D01*
X184648628Y-183542914D01*
X184648628Y-183685771D01*
X184648628Y-182757200D02*
X184720057Y-182828628D01*
X184648628Y-182900057D01*
X184577200Y-182828628D01*
X184648628Y-182757200D01*
X184648628Y-182900057D01*
D10*
D11*
X197002200Y-191507200D02*
X197002200Y-194507200D01*
D10*
D11*
X261002200Y-191507200D02*
X261002200Y-198007200D01*
D14*
G36*
X158948000Y-96408500D02*
G01*
X150504132Y-96408500D01*
X150483356Y-96329125D01*
X150408669Y-96027546D01*
X150334538Y-95697443D01*
X150263859Y-95352560D01*
X150199529Y-95006641D01*
X150176360Y-94871886D01*
X150052106Y-94005999D01*
X149968699Y-93135918D01*
X149926084Y-92263993D01*
X149924208Y-91392576D01*
X149963017Y-90524016D01*
X150042456Y-89660666D01*
X150162471Y-88804874D01*
X150323008Y-87958992D01*
X150337076Y-87894208D01*
X150424049Y-87497333D01*
X158948000Y-87497333D01*
X158948000Y-96408500D01*
X158948000Y-96408500D01*
G37*
X158948000Y-96408500D02*
X150504132Y-96408500D01*
X150483356Y-96329125D01*
X150408669Y-96027546D01*
X150334538Y-95697443D01*
X150263859Y-95352560D01*
X150199529Y-95006641D01*
X150176360Y-94871886D01*
X150052106Y-94005999D01*
X149968699Y-93135918D01*
X149926084Y-92263993D01*
X149924208Y-91392576D01*
X149963017Y-90524016D01*
X150042456Y-89660666D01*
X150162471Y-88804874D01*
X150323008Y-87958992D01*
X150337076Y-87894208D01*
X150424049Y-87497333D01*
X158948000Y-87497333D01*
X158948000Y-96408500D01*
G36*
X139949470Y-87507917D02*
G01*
X140029376Y-87772500D01*
X140227895Y-88501997D01*
X140387625Y-89245772D01*
X140508322Y-90000597D01*
X140589740Y-90763241D01*
X140631634Y-91530477D01*
X140633758Y-92299074D01*
X140595868Y-93065803D01*
X140517719Y-93827436D01*
X140499357Y-93963750D01*
X140443742Y-94322432D01*
X140375442Y-94697325D01*
X140296979Y-95076964D01*
X140210875Y-95449886D01*
X140119651Y-95804627D01*
X140025828Y-96129724D01*
X140015754Y-96162233D01*
X139938877Y-96408500D01*
X135389500Y-96408500D01*
X135389500Y-87497143D01*
X139949470Y-87507917D01*
X139949470Y-87507917D01*
G37*
X139949470Y-87507917D02*
X140029376Y-87772500D01*
X140227895Y-88501997D01*
X140387625Y-89245772D01*
X140508322Y-90000597D01*
X140589740Y-90763241D01*
X140631634Y-91530477D01*
X140633758Y-92299074D01*
X140595868Y-93065803D01*
X140517719Y-93827436D01*
X140499357Y-93963750D01*
X140443742Y-94322432D01*
X140375442Y-94697325D01*
X140296979Y-95076964D01*
X140210875Y-95449886D01*
X140119651Y-95804627D01*
X140025828Y-96129724D01*
X140015754Y-96162233D01*
X139938877Y-96408500D01*
X135389500Y-96408500D01*
X135389500Y-87497143D01*
X139949470Y-87507917D01*
D15*
X184453000Y-108910000D03*
X185977000Y-108910000D03*
X108258000Y-108910000D03*
X109782000Y-108910000D03*
X127303000Y-108910000D03*
X128827000Y-108910000D03*
X146353000Y-108910000D03*
X147877000Y-108910000D03*
X165403000Y-108910000D03*
X166927000Y-108910000D03*
D16*
X105220000Y-109940000D03*
X106490000Y-109940000D03*
X104920000Y-108670000D03*
X106190000Y-108670000D03*
X105220000Y-107400000D03*
X106490000Y-107400000D03*
X104920000Y-106130000D03*
X106190000Y-106130000D03*
X105220000Y-104860000D03*
D17*
X106490000Y-104860000D03*
D18*
X119128560Y-69301540D03*
X119128560Y-72598460D03*
X114231440Y-72598460D03*
X114231440Y-69301540D03*
X180778560Y-69371540D03*
X180778560Y-72668460D03*
X175881440Y-72668460D03*
X175881440Y-69371540D03*
D19*
X194770000Y-91000000D03*
X194770000Y-90250000D03*
X194770000Y-88000000D03*
X194770000Y-88750000D03*
X194770000Y-89500000D03*
X194770000Y-91750000D03*
X192170000Y-88000000D03*
X192170000Y-88750000D03*
X192170000Y-89500000D03*
X192170000Y-90250000D03*
X192170000Y-91000000D03*
X192170000Y-91750000D03*
X99410000Y-91750000D03*
X99410000Y-91000000D03*
X99410000Y-90250000D03*
X99410000Y-89500000D03*
X99410000Y-88750000D03*
X99410000Y-88000000D03*
X102010000Y-91750000D03*
X102010000Y-89500000D03*
X102010000Y-88750000D03*
X102010000Y-88000000D03*
X102010000Y-90250000D03*
X102010000Y-91000000D03*
D20*
X126170000Y-98930000D03*
X128670000Y-84430000D03*
X123670000Y-84430000D03*
X123670000Y-98930000D03*
X128670000Y-98930000D03*
D21*
X131770000Y-91430000D03*
X120570000Y-91430000D03*
D22*
X106480000Y-118390000D03*
D23*
X106505506Y-118015868D02*
X106454494Y-118764132D01*
D24*
X108990000Y-119540000D03*
X103990000Y-117440000D03*
D22*
X111490000Y-117640000D03*
X112145005Y-116910004D03*
D23*
X112800000Y-116180000D02*
X111490010Y-117640008D01*
D22*
X125555000Y-118410000D03*
D23*
X125580506Y-118035868D02*
X125529494Y-118784132D01*
D24*
X128065000Y-119560000D03*
X123065000Y-117460000D03*
D22*
X130565000Y-117660000D03*
X131220005Y-116930004D03*
D23*
X131875000Y-116200000D02*
X130565010Y-117660008D01*
D22*
X144605000Y-118410000D03*
D23*
X144630506Y-118035868D02*
X144579494Y-118784132D01*
D24*
X147115000Y-119560000D03*
X142115000Y-117460000D03*
D22*
X149615000Y-117660000D03*
X150270005Y-116930004D03*
D23*
X150925000Y-116200000D02*
X149615010Y-117660008D01*
D22*
X163655000Y-118410000D03*
D23*
X163680506Y-118035868D02*
X163629494Y-118784132D01*
D24*
X166165000Y-119560000D03*
X161165000Y-117460000D03*
D22*
X168665000Y-117660000D03*
X169320005Y-116930004D03*
D23*
X169975000Y-116200000D02*
X168665010Y-117660008D01*
D22*
X182705000Y-118410000D03*
D23*
X182730506Y-118035868D02*
X182679494Y-118784132D01*
D24*
X185215000Y-119560000D03*
X180215000Y-117460000D03*
D22*
X187715000Y-117660000D03*
X188370005Y-116930004D03*
D23*
X189025000Y-116200000D02*
X187715010Y-117660008D01*
D24*
X139150000Y-72000000D03*
D25*
X126450000Y-72000000D03*
D26*
X191340000Y-69710000D03*
D27*
X191340000Y-72250000D03*
D26*
X188800000Y-69710000D03*
D27*
X188800000Y-72250000D03*
X186260000Y-69710000D03*
X186260000Y-72250000D03*
D26*
X107990000Y-69710000D03*
D27*
X107990000Y-72250000D03*
D26*
X105450000Y-69710000D03*
D27*
X105450000Y-72250000D03*
X102910000Y-69710000D03*
X102910000Y-72250000D03*
D28*
X155130000Y-68090000D03*
X147150000Y-68090000D03*
D29*
X99650000Y-79645000D03*
X99650000Y-86095000D03*
D30*
X164430000Y-70340000D03*
X164430000Y-72880000D03*
X164430000Y-75420000D03*
X164430000Y-77960000D03*
D31*
X171870000Y-121040000D03*
D27*
X174410000Y-121040000D03*
X176950000Y-121040000D03*
X179490000Y-121040000D03*
X122350000Y-121050000D03*
X119810000Y-121050000D03*
X117270000Y-121050000D03*
D31*
X114730000Y-121050000D03*
D32*
X112020000Y-69290000D03*
X185100000Y-78290000D03*
X185100000Y-80760000D03*
X190280000Y-89190000D03*
X146320000Y-71400000D03*
X146320000Y-74370000D03*
X187820000Y-84900000D03*
X192490000Y-84870000D03*
X190260000Y-91850000D03*
X143090000Y-96910000D03*
X143100000Y-94140000D03*
X106300000Y-85520000D03*
X173150000Y-83770000D03*
X173140000Y-80520000D03*
X139270000Y-80600000D03*
X139250000Y-83370000D03*
X106300000Y-79720000D03*
X139480000Y-111910000D03*
X160020000Y-80620000D03*
X177580000Y-72100000D03*
X176870000Y-76370000D03*
X173750000Y-76360000D03*
X99410000Y-107440000D03*
X99050000Y-111050000D03*
X110800000Y-107680000D03*
X116590000Y-114690000D03*
X123150000Y-108030000D03*
X123140000Y-101740000D03*
X111830000Y-82890000D03*
X111820000Y-79790000D03*
X112180000Y-99560000D03*
X115120000Y-102660000D03*
X114270000Y-84200000D03*
X100710000Y-91790000D03*
X106290000Y-91280000D03*
X117750000Y-107890000D03*
X119780000Y-97900000D03*
X119810000Y-100040000D03*
X115320000Y-107910000D03*
X168770000Y-99920000D03*
X169040000Y-111860000D03*
X151020000Y-68320000D03*
X151060000Y-64550000D03*
X114500000Y-91480000D03*
X119100000Y-93470000D03*
X125950000Y-74880000D03*
X123440000Y-72280000D03*
X120180000Y-65500000D03*
X123080000Y-110530000D03*
X127570000Y-110530000D03*
X142300000Y-110530000D03*
X146730000Y-110530000D03*
X161250000Y-110530000D03*
X166060000Y-110530000D03*
X180090000Y-110530000D03*
X184820000Y-110530000D03*
X100100000Y-75590000D03*
X117330000Y-72620000D03*
X122230000Y-80670000D03*
X175190000Y-80120000D03*
X175190000Y-83260000D03*
X180320000Y-90220000D03*
X151050000Y-76610000D03*
X151830000Y-72880000D03*
X151830000Y-101960000D03*
X103170000Y-111680000D03*
X112860000Y-111910000D03*
X112900000Y-109460000D03*
X116440000Y-97750000D03*
X115890000Y-84590000D03*
X116440000Y-93900000D03*
X182550000Y-77630000D03*
X182590000Y-79540000D03*
X183940000Y-88570000D03*
X185550000Y-84340000D03*
X183460000Y-87160000D03*
X100725000Y-90125000D03*
X146280000Y-82870000D03*
X187660000Y-82800000D03*
X187660000Y-78590000D03*
X145310000Y-88540000D03*
X111610000Y-95470000D03*
X114240000Y-88430000D03*
X134100000Y-86290000D03*
X134210000Y-80630000D03*
X118300000Y-99500000D03*
X118340000Y-86300000D03*
X103555000Y-91695000D03*
X190620000Y-94060000D03*
X129310000Y-102240000D03*
X176090000Y-102820000D03*
X194570000Y-92920000D03*
X102500000Y-103060000D03*
X99420000Y-106150000D03*
X106640000Y-102630000D03*
X104460000Y-102770000D03*
X152080000Y-80560000D03*
X146040000Y-90640000D03*
X153200000Y-80550000D03*
X145310000Y-91340000D03*
X149860000Y-76570000D03*
X145310000Y-89940000D03*
X147750000Y-80550000D03*
X146030000Y-89240000D03*
X188040000Y-86570000D03*
X167630000Y-70600000D03*
X169170000Y-70610000D03*
X177000000Y-87880000D03*
X106290000Y-88760000D03*
X168410000Y-69220000D03*
X177330000Y-89220000D03*
X106270000Y-89770000D03*
X186960000Y-91310000D03*
X137650000Y-86590000D03*
X140860000Y-87590000D03*
X116550000Y-99975000D03*
X112810000Y-83415000D03*
X116550000Y-101025000D03*
X112810000Y-82365000D03*
X109160000Y-66480000D03*
X111100000Y-87730000D03*
X112170000Y-87780000D03*
X109910000Y-67220000D03*
X109260000Y-88560000D03*
X110010000Y-87720000D03*
X120930000Y-69290000D03*
X174000000Y-71380000D03*
X164680000Y-107250000D03*
X112140000Y-94610000D03*
X124590000Y-95950000D03*
X109780000Y-107950000D03*
X110920000Y-109040000D03*
X126580000Y-107410000D03*
X128820000Y-107010000D03*
X147880000Y-106290000D03*
X145610000Y-106960000D03*
X166910000Y-105520000D03*
X183690000Y-107000000D03*
X182710000Y-104580000D03*
X121460000Y-111780000D03*
X151380000Y-98170000D03*
X136100000Y-76370000D03*
X129220000Y-76360000D03*
X132630000Y-76370000D03*
X160620000Y-92920000D03*
X154080000Y-86190000D03*
X160320000Y-88950000D03*
X193390000Y-89260000D03*
X139680000Y-103210000D03*
X103770000Y-86930000D03*
X103770000Y-85930000D03*
X120240000Y-78900000D03*
X186460000Y-81600000D03*
X190110000Y-75430000D03*
X178160000Y-102330000D03*
X173080000Y-100320000D03*
X179080000Y-68750000D03*
X109930000Y-98720000D03*
X108830000Y-98730000D03*
X141360000Y-94150000D03*
X141340000Y-102810000D03*
X109510000Y-105780000D03*
X102700000Y-106300000D03*
X103500000Y-103530000D03*
X111030000Y-98720000D03*
X111140000Y-96390000D03*
X118570000Y-102490000D03*
X111120000Y-97400000D03*
X117860000Y-103210000D03*
X102710000Y-107430000D03*
X114360000Y-111300000D03*
X117870000Y-111310000D03*
X119110000Y-76850000D03*
D33*
X112031540Y-69301540D02*
X112020000Y-69290000D01*
X114231440Y-69301540D02*
X112031540Y-69301540D01*
X99510000Y-89500000D02*
X98690000Y-89500000D01*
X98690000Y-89500000D02*
X98470000Y-89720000D01*
X98470000Y-89720000D02*
X98470000Y-91620000D01*
X98600000Y-91750000D02*
X99510000Y-91750000D01*
X98470000Y-91620000D02*
X98600000Y-91750000D01*
X192270000Y-89500000D02*
X191050000Y-89500000D01*
D34*
X185100000Y-78290000D02*
X185100000Y-80760000D01*
D33*
X191050000Y-89500000D02*
X190590000Y-89500000D01*
X190590000Y-89500000D02*
X190280000Y-89190000D01*
D35*
X146320000Y-71400000D02*
X146320000Y-74370000D01*
D34*
X185100000Y-80760000D02*
X185100000Y-82180000D01*
X185100000Y-82180000D02*
X187820000Y-84900000D01*
X187820000Y-84900000D02*
X192460000Y-84900000D01*
X192460000Y-84900000D02*
X192490000Y-84870000D01*
X190280000Y-89190000D02*
X190280000Y-91830000D01*
X190280000Y-91830000D02*
X190260000Y-91850000D01*
D33*
X190360000Y-91750000D02*
X190260000Y-91850000D01*
X192270000Y-91750000D02*
X190360000Y-91750000D01*
D36*
X143090000Y-96910000D02*
X143090000Y-94150000D01*
X143090000Y-94150000D02*
X143100000Y-94140000D01*
D34*
X173150000Y-83770000D02*
X173150000Y-80530000D01*
X173150000Y-80530000D02*
X173140000Y-80520000D01*
X139270000Y-80600000D02*
X139270000Y-83350000D01*
X139270000Y-83350000D02*
X139250000Y-83370000D01*
X106300000Y-85520000D02*
X106300000Y-79720000D01*
D36*
X143090000Y-96910000D02*
X143090000Y-101100000D01*
X143090000Y-101100000D02*
X143090000Y-104440000D01*
X143090000Y-104440000D02*
X139490000Y-108040000D01*
X139490000Y-108040000D02*
X139490000Y-111900000D01*
X139490000Y-111900000D02*
X139480000Y-111910000D01*
D34*
X160020000Y-80620000D02*
X160020000Y-84400000D01*
D33*
X175881440Y-69371540D02*
X176881540Y-69371540D01*
X177580000Y-70070000D02*
X177580000Y-72100000D01*
X176881540Y-69371540D02*
X177580000Y-70070000D01*
D34*
X176870000Y-76370000D02*
X173760000Y-76370000D01*
X173760000Y-76370000D02*
X173750000Y-76360000D01*
D36*
X99410000Y-107440000D02*
X99050000Y-107800000D01*
X99050000Y-107800000D02*
X99050000Y-111050000D01*
D33*
X106440000Y-107400000D02*
X108320000Y-107400000D01*
X108320000Y-107400000D02*
X108870000Y-106850000D01*
X108870000Y-106850000D02*
X109970000Y-106850000D01*
X109970000Y-106850000D02*
X110800000Y-107680000D01*
D36*
X123150000Y-108030000D02*
X123150000Y-101750000D01*
X123150000Y-101750000D02*
X123140000Y-101740000D01*
X111830000Y-82890000D02*
X111830000Y-79800000D01*
X111830000Y-79800000D02*
X111820000Y-79790000D01*
X112180000Y-99560000D02*
X112180000Y-99720000D01*
X112180000Y-99720000D02*
X115120000Y-102660000D01*
X114340000Y-89910000D02*
X115050000Y-89200000D01*
X115050000Y-89200000D02*
X115050000Y-84980000D01*
X115050000Y-84980000D02*
X114270000Y-84200000D01*
X111830000Y-82890000D02*
X111830000Y-84050000D01*
X111980000Y-84200000D02*
X114270000Y-84200000D01*
X111830000Y-84050000D02*
X111980000Y-84200000D01*
D33*
X99550000Y-91790000D02*
X99510000Y-91750000D01*
X100710000Y-91790000D02*
X99550000Y-91790000D01*
D34*
X106290000Y-91280000D02*
X106910000Y-91280000D01*
X106910000Y-91280000D02*
X107220000Y-90970000D01*
X107220000Y-90970000D02*
X107220000Y-86520000D01*
D36*
X106300000Y-85600000D02*
X106300000Y-85520000D01*
D34*
X107220000Y-86520000D02*
X106300000Y-85600000D01*
D36*
X115120000Y-102660000D02*
X115330000Y-102660000D01*
X115330000Y-102660000D02*
X117750000Y-105080000D01*
X117750000Y-105080000D02*
X117750000Y-107890000D01*
X119780000Y-97900000D02*
X119810000Y-97930000D01*
X119810000Y-97930000D02*
X119810000Y-100040000D01*
D33*
X116590000Y-113640000D02*
X116590000Y-114690000D01*
X115320000Y-112370000D02*
X116590000Y-113640000D01*
X115320000Y-107700000D02*
X115320000Y-112370000D01*
D37*
X168770000Y-99920000D02*
X168770000Y-111590000D01*
X168770000Y-111590000D02*
X169040000Y-111860000D01*
X151020000Y-68320000D02*
X151020000Y-64590000D01*
X151020000Y-64590000D02*
X151060000Y-64550000D01*
D36*
X114340000Y-89910000D02*
X114340000Y-91320000D01*
X114340000Y-91320000D02*
X114500000Y-91480000D01*
X119780000Y-97900000D02*
X119780000Y-94150000D01*
X119780000Y-94150000D02*
X119100000Y-93470000D01*
X125950000Y-74880000D02*
X125950000Y-74790000D01*
X125950000Y-74790000D02*
X123440000Y-72280000D01*
X123440000Y-72280000D02*
X123440000Y-68760000D01*
X123440000Y-68760000D02*
X120180000Y-65500000D01*
D33*
X123080000Y-110530000D02*
X127570000Y-110530000D01*
X142300000Y-110530000D02*
X146730000Y-110530000D01*
X161250000Y-110530000D02*
X166060000Y-110530000D01*
X180090000Y-110530000D02*
X184820000Y-110530000D01*
X102910000Y-69710000D02*
X100380000Y-69710000D01*
X100380000Y-69710000D02*
X100100000Y-69990000D01*
X100100000Y-69990000D02*
X100100000Y-75590000D01*
D34*
X119128560Y-72598460D02*
X117351540Y-72598460D01*
X117351540Y-72598460D02*
X117330000Y-72620000D01*
X117330000Y-72620000D02*
X117330000Y-66070000D01*
X117330000Y-66070000D02*
X116640000Y-65380000D01*
X116640000Y-65380000D02*
X103870000Y-65380000D01*
X102910000Y-66340000D02*
X102910000Y-69710000D01*
X103870000Y-65380000D02*
X102910000Y-66340000D01*
X119128560Y-72598460D02*
X121528460Y-72598460D01*
X121528460Y-72598460D02*
X122058460Y-72598460D01*
X122058460Y-72598460D02*
X122230000Y-72770000D01*
X122230000Y-72770000D02*
X122230000Y-80670000D01*
X175190000Y-80120000D02*
X175190000Y-83260000D01*
D33*
X175190000Y-83260000D02*
X175190000Y-85090000D01*
X175190000Y-85090000D02*
X180320000Y-90220000D01*
D36*
X151050000Y-73660000D02*
X151830000Y-72880000D01*
X151050000Y-76610000D02*
X151050000Y-73660000D01*
D34*
X162660000Y-72880000D02*
X164430000Y-72880000D01*
X161250000Y-74290000D02*
X162660000Y-72880000D01*
D36*
X161250000Y-101600000D02*
X161250000Y-101800000D01*
D34*
X161250000Y-110530000D02*
X161250000Y-101600000D01*
D36*
X161090000Y-101960000D02*
X151830000Y-101960000D01*
X161250000Y-101800000D02*
X161090000Y-101960000D01*
D33*
X180778560Y-72668460D02*
X184181540Y-72668460D01*
X184181540Y-72668460D02*
X184510000Y-72340000D01*
X184510000Y-72340000D02*
X184510000Y-70450000D01*
X184510000Y-70450000D02*
X185250000Y-69710000D01*
X185250000Y-69710000D02*
X186250000Y-69710000D01*
X103170000Y-111680000D02*
X103250000Y-111600000D01*
X103250000Y-111600000D02*
X107150000Y-111600000D01*
X107150000Y-111600000D02*
X107650000Y-111100000D01*
X107650000Y-111100000D02*
X112050000Y-111100000D01*
X112050000Y-111100000D02*
X112860000Y-111910000D01*
X106440000Y-104860000D02*
X111870000Y-104860000D01*
X111870000Y-104860000D02*
X112900000Y-105890000D01*
X112900000Y-105890000D02*
X112900000Y-109460000D01*
D37*
X116440000Y-85140000D02*
X115890000Y-84590000D01*
X116440000Y-97750000D02*
X116440000Y-93900000D01*
X116440000Y-93900000D02*
X116440000Y-85140000D01*
D34*
X182550000Y-77630000D02*
X182590000Y-77670000D01*
X182590000Y-77670000D02*
X182590000Y-79540000D01*
D33*
X99510000Y-88750000D02*
X100600000Y-88750000D01*
X100600000Y-88750000D02*
X100740000Y-88890000D01*
X100740000Y-88890000D02*
X100740000Y-89430000D01*
X100740000Y-89430000D02*
X100740000Y-90110000D01*
X100600000Y-90250000D02*
X99510000Y-90250000D01*
X100740000Y-90110000D02*
X100725000Y-90125000D01*
D36*
X185290000Y-88570000D02*
X183940000Y-88570000D01*
X185550000Y-84340000D02*
X185550000Y-88310000D01*
X185550000Y-88310000D02*
X185290000Y-88570000D01*
X183940000Y-87640000D02*
X183940000Y-88570000D01*
X183460000Y-87160000D02*
X183940000Y-87640000D01*
D33*
X100725000Y-90125000D02*
X100600000Y-90250000D01*
X146270000Y-82880000D02*
X146280000Y-82870000D01*
X187660000Y-82800000D02*
X187660000Y-78590000D01*
X146280000Y-82870000D02*
X146280000Y-86630000D01*
X146280000Y-86630000D02*
X146280000Y-87570000D01*
X146280000Y-87570000D02*
X145310000Y-88540000D01*
X111610000Y-95470000D02*
X111620000Y-95460000D01*
X111620000Y-95460000D02*
X112440000Y-95460000D01*
X112440000Y-95460000D02*
X113680000Y-94220000D01*
X113680000Y-94220000D02*
X113680000Y-88990000D01*
X113680000Y-88990000D02*
X114240000Y-88430000D01*
D37*
X134100000Y-86290000D02*
X134210000Y-86180000D01*
X134210000Y-86180000D02*
X134210000Y-80630000D01*
D33*
X118340000Y-99460000D02*
X118340000Y-86300000D01*
X118300000Y-99500000D02*
X118340000Y-99460000D01*
X103500000Y-91750000D02*
X103555000Y-91695000D01*
X176090000Y-102820000D02*
X176090000Y-96450000D01*
X176090000Y-96450000D02*
X176670000Y-95870000D01*
X176670000Y-95870000D02*
X183170000Y-95870000D01*
X184980000Y-94060000D02*
X190620000Y-94060000D01*
X183170000Y-95870000D02*
X184980000Y-94060000D01*
X129310000Y-102240000D02*
X138370000Y-102240000D01*
X104890000Y-105140000D02*
X105170000Y-104860000D01*
X102500000Y-103060000D02*
X102500000Y-103550000D01*
X102500000Y-103550000D02*
X103340000Y-104390000D01*
X104700000Y-104390000D02*
X105170000Y-104860000D01*
X103340000Y-104390000D02*
X104700000Y-104390000D01*
X99420000Y-106150000D02*
X99440000Y-106130000D01*
X106640000Y-102630000D02*
X104600000Y-102630000D01*
X104600000Y-102630000D02*
X104460000Y-102770000D01*
X99420000Y-106150000D02*
X99420000Y-105540000D01*
X99420000Y-105540000D02*
X99810000Y-105150000D01*
X99810000Y-105150000D02*
X103970000Y-105150000D01*
X103970000Y-105150000D02*
X104210000Y-105390000D01*
X104210000Y-105390000D02*
X104210000Y-105970000D01*
X104370000Y-106130000D02*
X104970000Y-106130000D01*
X104210000Y-105970000D02*
X104370000Y-106130000D01*
X146040000Y-90640000D02*
X146170000Y-90640000D01*
X146320000Y-90640000D02*
X146040000Y-90640000D01*
X149070000Y-87890000D02*
X146320000Y-90640000D01*
X152080000Y-80560000D02*
X149070000Y-83570000D01*
X149070000Y-83570000D02*
X149070000Y-87890000D01*
X153210000Y-80560000D02*
X153200000Y-80550000D01*
X145310000Y-91340000D02*
X146320000Y-91340000D01*
X146320000Y-91340000D02*
X149700000Y-87960000D01*
X149700000Y-84050000D02*
X153200000Y-80550000D01*
X149700000Y-87960000D02*
X149700000Y-84050000D01*
X145310000Y-89940000D02*
X146320000Y-89940000D01*
X146320000Y-89940000D02*
X148530000Y-87730000D01*
X148530000Y-77900000D02*
X149860000Y-76570000D01*
X148530000Y-87730000D02*
X148530000Y-77900000D01*
X147750000Y-80550000D02*
X147750000Y-86660000D01*
X147750000Y-86660000D02*
X147750000Y-87510000D01*
X146030000Y-89230000D02*
X147750000Y-87510000D01*
X146030000Y-89240000D02*
X146030000Y-89230000D01*
X194670000Y-88750000D02*
X193880000Y-88750000D01*
X193880000Y-88750000D02*
X193860000Y-88750000D01*
X193860000Y-88750000D02*
X193460000Y-88350000D01*
X193460000Y-88350000D02*
X193460000Y-87250000D01*
X193460000Y-87250000D02*
X192780000Y-86570000D01*
X192780000Y-86570000D02*
X188040000Y-86570000D01*
X164430000Y-75420000D02*
X167360000Y-75420000D01*
X167360000Y-75420000D02*
X167630000Y-75150000D01*
X167630000Y-75150000D02*
X167630000Y-70600000D01*
X169170000Y-70610000D02*
X169060000Y-70720000D01*
X177000000Y-87880000D02*
X174070000Y-84950000D01*
X174070000Y-84950000D02*
X174070000Y-79250000D01*
X169170000Y-74350000D02*
X169170000Y-70610000D01*
X174070000Y-79250000D02*
X169170000Y-74350000D01*
X106180000Y-88760000D02*
X105450000Y-88030000D01*
X106290000Y-88760000D02*
X106180000Y-88760000D01*
X105450000Y-88030000D02*
X105450000Y-72250000D01*
X105050000Y-74200000D02*
X104190000Y-73340000D01*
X104190000Y-70970000D02*
X105450000Y-69710000D01*
X104190000Y-73340000D02*
X104190000Y-70970000D01*
X167920000Y-77960000D02*
X164430000Y-77960000D01*
X168410000Y-69220000D02*
X168410000Y-77470000D01*
X168410000Y-77470000D02*
X167920000Y-77960000D01*
X168410000Y-77470000D02*
X168410000Y-80300000D01*
X168410000Y-80300000D02*
X177330000Y-89220000D01*
X105920000Y-89770000D02*
X105050000Y-88900000D01*
X106270000Y-89770000D02*
X105920000Y-89770000D01*
X105050000Y-88900000D02*
X105050000Y-74200000D01*
X194670000Y-88000000D02*
X194670000Y-87260000D01*
X194670000Y-87260000D02*
X193140000Y-85730000D01*
X193140000Y-85730000D02*
X187620000Y-85730000D01*
X187620000Y-85730000D02*
X186960000Y-86390000D01*
X186960000Y-86390000D02*
X186960000Y-91310000D01*
X101910000Y-88000000D02*
X101910000Y-87890000D01*
X137650000Y-86590000D02*
X139860000Y-86590000D01*
X139860000Y-86590000D02*
X140860000Y-87590000D01*
D38*
X116963603Y-99975000D02*
X117145000Y-99793603D01*
X116550000Y-99975000D02*
X116963603Y-99975000D01*
X117145000Y-99793603D02*
X117145000Y-84353200D01*
X113110000Y-83115000D02*
X112810000Y-83415000D01*
X115906800Y-83115000D02*
X113110000Y-83115000D01*
X117145000Y-84353200D02*
X115906800Y-83115000D01*
X117595000Y-99980000D02*
X117595000Y-84166800D01*
X116550000Y-101025000D02*
X117595000Y-99980000D01*
X117595000Y-84166800D02*
X116093200Y-82665000D01*
X116093200Y-82665000D02*
X113110000Y-82665000D01*
X113110000Y-82665000D02*
X112810000Y-82365000D01*
D33*
X109160000Y-67150000D02*
X109160000Y-66670000D01*
X109160000Y-66480000D02*
X109160000Y-67310000D01*
X109160000Y-67310000D02*
X109160000Y-67150000D01*
X111100000Y-87730000D02*
X110050000Y-86680000D01*
X109160000Y-68630000D02*
X109160000Y-67310000D01*
X109750000Y-69220000D02*
X110050000Y-69520000D01*
X110050000Y-86680000D02*
X110050000Y-69520000D01*
X109750000Y-69220000D02*
X109160000Y-68630000D01*
X109890000Y-69360000D02*
X109750000Y-69220000D01*
X112170000Y-87780000D02*
X110630000Y-86240000D01*
X110630000Y-86240000D02*
X110630000Y-67940000D01*
X110630000Y-67940000D02*
X109910000Y-67220000D01*
X107990000Y-87290000D02*
X107990000Y-72250000D01*
X109260000Y-88560000D02*
X107990000Y-87290000D01*
X108790000Y-69710000D02*
X107990000Y-69710000D01*
X109600000Y-70520000D02*
X108790000Y-69710000D01*
X109600000Y-87310000D02*
X109600000Y-70520000D01*
X110010000Y-87720000D02*
X109600000Y-87310000D01*
X119140100Y-69290000D02*
X119128560Y-69301540D01*
X120930000Y-69290000D02*
X119140100Y-69290000D01*
X175881440Y-72668460D02*
X175881440Y-71871440D01*
X175881440Y-71871440D02*
X175390000Y-71380000D01*
X175390000Y-71380000D02*
X174000000Y-71380000D01*
X165403000Y-108910000D02*
X165403000Y-107973000D01*
X165403000Y-107973000D02*
X164680000Y-107250000D01*
X111831540Y-72598460D02*
X114231440Y-72598460D01*
X111040000Y-73390000D02*
X111831540Y-72598460D01*
X111040000Y-85590000D02*
X111040000Y-73390000D01*
X112140000Y-94610000D02*
X113020000Y-94120000D01*
X113020000Y-94120000D02*
X113020000Y-87570000D01*
X113020000Y-87570000D02*
X111040000Y-85590000D01*
X123560000Y-84540000D02*
X123670000Y-84430000D01*
X124590000Y-95950000D02*
X124600000Y-95940000D01*
X124600000Y-85360000D02*
X123670000Y-84430000D01*
X124600000Y-95940000D02*
X124600000Y-85360000D01*
X109770000Y-108898000D02*
X109782000Y-108910000D01*
X109782000Y-107952000D02*
X109782000Y-108910000D01*
X109780000Y-107950000D02*
X109782000Y-107952000D01*
X108258000Y-109678000D02*
X108258000Y-108910000D01*
X108420000Y-109840000D02*
X108258000Y-109678000D01*
X110120000Y-109840000D02*
X110920000Y-109040000D01*
X110110000Y-109840000D02*
X110120000Y-109840000D01*
X110110000Y-109840000D02*
X108420000Y-109840000D01*
X127303000Y-108910000D02*
X127303000Y-108133000D01*
X127303000Y-108133000D02*
X126580000Y-107410000D01*
X128820000Y-107010000D02*
X128827000Y-107017000D01*
X128827000Y-107017000D02*
X128827000Y-108910000D01*
X147877000Y-106293000D02*
X147877000Y-108910000D01*
X147880000Y-106290000D02*
X147877000Y-106293000D01*
X146353000Y-108910000D02*
X146353000Y-107703000D01*
X146353000Y-107703000D02*
X145610000Y-106960000D01*
X166927000Y-105537000D02*
X166927000Y-108910000D01*
X166910000Y-105520000D02*
X166927000Y-105537000D01*
X184453000Y-108910000D02*
X184453000Y-107763000D01*
X184453000Y-107763000D02*
X183690000Y-107000000D01*
X185980000Y-108907000D02*
X185977000Y-108910000D01*
X185977000Y-108910000D02*
X185977000Y-107587000D01*
X185977000Y-107587000D02*
X182970000Y-104580000D01*
X182970000Y-104580000D02*
X182710000Y-104580000D01*
D37*
X150120000Y-96910000D02*
X143090000Y-96910000D01*
X151380000Y-98170000D02*
X150120000Y-96910000D01*
D34*
X136100000Y-76370000D02*
X132630000Y-76370000D01*
X129230000Y-76370000D02*
X129220000Y-76360000D01*
X132630000Y-76370000D02*
X129230000Y-76370000D01*
D33*
X160650000Y-92890000D02*
X160620000Y-92920000D01*
X161250000Y-92890000D02*
X160650000Y-92890000D01*
D34*
X161250000Y-92890000D02*
X161250000Y-74290000D01*
X161250000Y-101600000D02*
X161250000Y-92890000D01*
D33*
X154080000Y-86190000D02*
X159200000Y-86190000D01*
X159200000Y-86190000D02*
X160320000Y-87310000D01*
X160320000Y-87310000D02*
X160320000Y-88950000D01*
X192270000Y-88750000D02*
X192880000Y-88750000D01*
X192880000Y-88750000D02*
X193390000Y-89260000D01*
X192270000Y-90250000D02*
X193040000Y-90250000D01*
X193390000Y-89900000D02*
X193390000Y-89260000D01*
X193040000Y-90250000D02*
X193390000Y-89900000D01*
X101910000Y-89500000D02*
X103320000Y-89500000D01*
X103555000Y-89735000D02*
X103555000Y-91695000D01*
X103320000Y-89500000D02*
X103555000Y-89735000D01*
X138370000Y-102240000D02*
X138620000Y-102240000D01*
X138620000Y-102240000D02*
X139590000Y-103210000D01*
X139590000Y-103210000D02*
X139680000Y-103210000D01*
X194670000Y-89500000D02*
X194150000Y-89500000D01*
X194150000Y-89500000D02*
X193770000Y-89880000D01*
X193770000Y-89880000D02*
X193770000Y-92590000D01*
X194100000Y-92920000D02*
X194570000Y-92920000D01*
X193770000Y-92590000D02*
X194100000Y-92920000D01*
X102010000Y-88750000D02*
X103130000Y-88750000D01*
X103130000Y-88750000D02*
X103770000Y-88110000D01*
X103770000Y-88110000D02*
X103770000Y-86930000D01*
X102010000Y-88000000D02*
X102010000Y-87690000D01*
X102010000Y-87690000D02*
X103770000Y-85930000D01*
D36*
X121460000Y-111780000D02*
X121460000Y-96140000D01*
X121460000Y-96140000D02*
X124020000Y-93580000D01*
X124020000Y-93580000D02*
X124020000Y-89530000D01*
X120240000Y-85750000D02*
X120240000Y-78900000D01*
X124020000Y-89530000D02*
X120240000Y-85750000D01*
D34*
X186460000Y-81600000D02*
X186460000Y-78990000D01*
X186460000Y-78990000D02*
X186460000Y-75820000D01*
X186460000Y-75820000D02*
X186850000Y-75430000D01*
X186850000Y-75430000D02*
X190110000Y-75430000D01*
D33*
X178170000Y-102340000D02*
X178160000Y-102330000D01*
X178160000Y-119730000D02*
X179500000Y-121070000D01*
X178160000Y-102330000D02*
X178160000Y-119730000D01*
X173090000Y-100330000D02*
X173080000Y-100320000D01*
X173090000Y-100320000D02*
X174080000Y-101310000D01*
X173080000Y-100320000D02*
X173090000Y-100320000D01*
X174080000Y-101310000D02*
X174080000Y-117040000D01*
X174080000Y-117040000D02*
X171880000Y-119240000D01*
X171880000Y-119240000D02*
X171880000Y-121070000D01*
X180778560Y-69371540D02*
X179701540Y-69371540D01*
X179701540Y-69371540D02*
X179080000Y-68750000D01*
X120880000Y-119570000D02*
X122380000Y-121070000D01*
X120880000Y-116600000D02*
X120880000Y-119570000D01*
X109930000Y-98720000D02*
X109930000Y-102290000D01*
X109930000Y-102290000D02*
X111080000Y-103440000D01*
X111080000Y-103440000D02*
X115340000Y-103440000D01*
X116485000Y-104585000D02*
X116485000Y-112205000D01*
X115340000Y-103440000D02*
X116485000Y-104585000D01*
X116485000Y-112205000D02*
X120880000Y-116600000D01*
X117990000Y-119220000D02*
X119840000Y-121070000D01*
X117990000Y-114370000D02*
X117990000Y-119220000D01*
X108830000Y-98730000D02*
X108830000Y-101730000D01*
X108830000Y-101730000D02*
X110920000Y-103820000D01*
X110920000Y-103820000D02*
X115180000Y-103820000D01*
X115180000Y-103820000D02*
X116100000Y-104740000D01*
X116100000Y-112480000D02*
X116190000Y-112570000D01*
X116100000Y-104740000D02*
X116100000Y-112480000D01*
X116190000Y-112570000D02*
X117990000Y-114370000D01*
X141360000Y-102790000D02*
X141360000Y-94150000D01*
X141340000Y-102810000D02*
X141360000Y-102790000D01*
X109510000Y-105780000D02*
X109700000Y-105780000D01*
X109960000Y-105780000D02*
X109510000Y-105780000D01*
X105170000Y-109940000D02*
X105170000Y-110290000D01*
X105170000Y-110290000D02*
X105630000Y-110750000D01*
X105630000Y-110750000D02*
X106800000Y-110750000D01*
X106800000Y-110750000D02*
X107320000Y-110230000D01*
X107320000Y-110230000D02*
X110810000Y-110230000D01*
X110810000Y-110230000D02*
X111640000Y-109400000D01*
X111640000Y-107460000D02*
X111510000Y-107330000D01*
X111640000Y-109400000D02*
X111640000Y-107460000D01*
X111650000Y-107470000D02*
X111510000Y-107330000D01*
X111510000Y-107330000D02*
X109960000Y-105780000D01*
X104260000Y-107400000D02*
X105170000Y-107400000D01*
X104030000Y-107170000D02*
X104260000Y-107400000D01*
X104030000Y-106640000D02*
X104030000Y-107170000D01*
X102700000Y-106300000D02*
X103690000Y-106300000D01*
X103690000Y-106300000D02*
X104030000Y-106640000D01*
X107800000Y-103120000D02*
X107390000Y-103530000D01*
X108260000Y-97850000D02*
X107800000Y-98310000D01*
X107390000Y-103530000D02*
X103500000Y-103530000D01*
X107800000Y-98310000D02*
X107800000Y-103120000D01*
X111030000Y-98720000D02*
X111030000Y-98700000D01*
X110180000Y-97850000D02*
X108260000Y-97850000D01*
X111030000Y-98700000D02*
X110180000Y-97850000D01*
X111140000Y-96390000D02*
X112010000Y-97260000D01*
X112010000Y-97260000D02*
X112010000Y-97740000D01*
X112010000Y-97740000D02*
X116760000Y-102490000D01*
X116760000Y-102490000D02*
X118570000Y-102490000D01*
X111120000Y-97400000D02*
X116930000Y-103210000D01*
X116930000Y-103210000D02*
X117860000Y-103210000D01*
D36*
X102710000Y-107430000D02*
X102700000Y-107440000D01*
X102710000Y-107430000D02*
X102710000Y-109500000D01*
X117870000Y-111310000D02*
X120730000Y-108450000D01*
X120730000Y-108450000D02*
X120730000Y-95990000D01*
X120730000Y-95990000D02*
X123450000Y-93270000D01*
X123450000Y-93270000D02*
X123450000Y-89800000D01*
X123450000Y-89800000D02*
X119110000Y-85460000D01*
X119110000Y-85460000D02*
X119110000Y-76850000D01*
X114360000Y-111300000D02*
X114020000Y-111300000D01*
X114020000Y-111300000D02*
X113370000Y-110650000D01*
X113370000Y-110650000D02*
X107510000Y-110650000D01*
X107510000Y-110650000D02*
X106980000Y-111180000D01*
X104390000Y-111180000D02*
X104150000Y-110940000D01*
X106980000Y-111180000D02*
X104390000Y-111180000D01*
X102710000Y-109500000D02*
X104150000Y-110940000D01*
M02*
