G04 #@! TF.GenerationSoftware,KiCad,Pcbnew,(5.1.0)-1*
G04 #@! TF.CreationDate,2019-06-18T01:36:36-06:00*
G04 #@! TF.ProjectId,laser-theremin,6c617365-722d-4746-9865-72656d696e2e,rev?*
G04 #@! TF.SameCoordinates,Original*
G04 #@! TF.FileFunction,Profile,NP*
%FSLAX46Y46*%
G04 Gerber Fmt 4.6, Leading zero omitted, Abs format (unit mm)*
G04 Created by KiCad (PCBNEW (5.1.0)-1) date 2019-06-18 01:36:36*
%MOMM*%
%LPD*%
G04 APERTURE LIST*
%ADD10C,0.100000*%
%ADD11C,0.150000*%
%ADD12C,0.300000*%
%ADD13C,0.400000*%
%ADD14C,0.200000*%
G04 APERTURE END LIST*
D10*
D11*
X177002200Y-166007200D02*
X177002200Y-198007200D01*
X285002200Y-198007200D01*
X285002200Y-166007200D01*
X177002200Y-166007200D01*
D10*
D11*
X10000000Y-10000000D02*
X10000000Y-200007200D01*
X287002200Y-200007200D01*
X287002200Y-10000000D01*
X10000000Y-10000000D01*
D10*
D11*
X12000000Y-12000000D02*
X12000000Y-198007200D01*
X285002200Y-198007200D01*
X285002200Y-12000000D01*
X12000000Y-12000000D01*
D10*
D11*
X60000000Y-12000000D02*
X60000000Y-10000000D01*
D10*
D11*
X110000000Y-12000000D02*
X110000000Y-10000000D01*
D10*
D11*
X160000000Y-12000000D02*
X160000000Y-10000000D01*
D10*
D11*
X210000000Y-12000000D02*
X210000000Y-10000000D01*
D10*
D11*
X260000000Y-12000000D02*
X260000000Y-10000000D01*
D10*
D11*
X36065476Y-11588095D02*
X35322619Y-11588095D01*
X35694047Y-11588095D02*
X35694047Y-10288095D01*
X35570238Y-10473809D01*
X35446428Y-10597619D01*
X35322619Y-10659523D01*
D10*
D11*
X85322619Y-10411904D02*
X85384523Y-10350000D01*
X85508333Y-10288095D01*
X85817857Y-10288095D01*
X85941666Y-10350000D01*
X86003571Y-10411904D01*
X86065476Y-10535714D01*
X86065476Y-10659523D01*
X86003571Y-10845238D01*
X85260714Y-11588095D01*
X86065476Y-11588095D01*
D10*
D11*
X135260714Y-10288095D02*
X136065476Y-10288095D01*
X135632142Y-10783333D01*
X135817857Y-10783333D01*
X135941666Y-10845238D01*
X136003571Y-10907142D01*
X136065476Y-11030952D01*
X136065476Y-11340476D01*
X136003571Y-11464285D01*
X135941666Y-11526190D01*
X135817857Y-11588095D01*
X135446428Y-11588095D01*
X135322619Y-11526190D01*
X135260714Y-11464285D01*
D10*
D11*
X185941666Y-10721428D02*
X185941666Y-11588095D01*
X185632142Y-10226190D02*
X185322619Y-11154761D01*
X186127380Y-11154761D01*
D10*
D11*
X236003571Y-10288095D02*
X235384523Y-10288095D01*
X235322619Y-10907142D01*
X235384523Y-10845238D01*
X235508333Y-10783333D01*
X235817857Y-10783333D01*
X235941666Y-10845238D01*
X236003571Y-10907142D01*
X236065476Y-11030952D01*
X236065476Y-11340476D01*
X236003571Y-11464285D01*
X235941666Y-11526190D01*
X235817857Y-11588095D01*
X235508333Y-11588095D01*
X235384523Y-11526190D01*
X235322619Y-11464285D01*
D10*
D11*
X285941666Y-10288095D02*
X285694047Y-10288095D01*
X285570238Y-10350000D01*
X285508333Y-10411904D01*
X285384523Y-10597619D01*
X285322619Y-10845238D01*
X285322619Y-11340476D01*
X285384523Y-11464285D01*
X285446428Y-11526190D01*
X285570238Y-11588095D01*
X285817857Y-11588095D01*
X285941666Y-11526190D01*
X286003571Y-11464285D01*
X286065476Y-11340476D01*
X286065476Y-11030952D01*
X286003571Y-10907142D01*
X285941666Y-10845238D01*
X285817857Y-10783333D01*
X285570238Y-10783333D01*
X285446428Y-10845238D01*
X285384523Y-10907142D01*
X285322619Y-11030952D01*
D10*
D11*
X60000000Y-198007200D02*
X60000000Y-200007200D01*
D10*
D11*
X110000000Y-198007200D02*
X110000000Y-200007200D01*
D10*
D11*
X160000000Y-198007200D02*
X160000000Y-200007200D01*
D10*
D11*
X210000000Y-198007200D02*
X210000000Y-200007200D01*
D10*
D11*
X260000000Y-198007200D02*
X260000000Y-200007200D01*
D10*
D11*
X36065476Y-199595295D02*
X35322619Y-199595295D01*
X35694047Y-199595295D02*
X35694047Y-198295295D01*
X35570238Y-198481009D01*
X35446428Y-198604819D01*
X35322619Y-198666723D01*
D10*
D11*
X85322619Y-198419104D02*
X85384523Y-198357200D01*
X85508333Y-198295295D01*
X85817857Y-198295295D01*
X85941666Y-198357200D01*
X86003571Y-198419104D01*
X86065476Y-198542914D01*
X86065476Y-198666723D01*
X86003571Y-198852438D01*
X85260714Y-199595295D01*
X86065476Y-199595295D01*
D10*
D11*
X135260714Y-198295295D02*
X136065476Y-198295295D01*
X135632142Y-198790533D01*
X135817857Y-198790533D01*
X135941666Y-198852438D01*
X136003571Y-198914342D01*
X136065476Y-199038152D01*
X136065476Y-199347676D01*
X136003571Y-199471485D01*
X135941666Y-199533390D01*
X135817857Y-199595295D01*
X135446428Y-199595295D01*
X135322619Y-199533390D01*
X135260714Y-199471485D01*
D10*
D11*
X185941666Y-198728628D02*
X185941666Y-199595295D01*
X185632142Y-198233390D02*
X185322619Y-199161961D01*
X186127380Y-199161961D01*
D10*
D11*
X236003571Y-198295295D02*
X235384523Y-198295295D01*
X235322619Y-198914342D01*
X235384523Y-198852438D01*
X235508333Y-198790533D01*
X235817857Y-198790533D01*
X235941666Y-198852438D01*
X236003571Y-198914342D01*
X236065476Y-199038152D01*
X236065476Y-199347676D01*
X236003571Y-199471485D01*
X235941666Y-199533390D01*
X235817857Y-199595295D01*
X235508333Y-199595295D01*
X235384523Y-199533390D01*
X235322619Y-199471485D01*
D10*
D11*
X285941666Y-198295295D02*
X285694047Y-198295295D01*
X285570238Y-198357200D01*
X285508333Y-198419104D01*
X285384523Y-198604819D01*
X285322619Y-198852438D01*
X285322619Y-199347676D01*
X285384523Y-199471485D01*
X285446428Y-199533390D01*
X285570238Y-199595295D01*
X285817857Y-199595295D01*
X285941666Y-199533390D01*
X286003571Y-199471485D01*
X286065476Y-199347676D01*
X286065476Y-199038152D01*
X286003571Y-198914342D01*
X285941666Y-198852438D01*
X285817857Y-198790533D01*
X285570238Y-198790533D01*
X285446428Y-198852438D01*
X285384523Y-198914342D01*
X285322619Y-199038152D01*
D10*
D11*
X10000000Y-60000000D02*
X12000000Y-60000000D01*
D10*
D11*
X10000000Y-110000000D02*
X12000000Y-110000000D01*
D10*
D11*
X10000000Y-160000000D02*
X12000000Y-160000000D01*
D10*
D11*
X10690476Y-35216666D02*
X11309523Y-35216666D01*
X10566666Y-35588095D02*
X11000000Y-34288095D01*
X11433333Y-35588095D01*
D10*
D11*
X11092857Y-84907142D02*
X11278571Y-84969047D01*
X11340476Y-85030952D01*
X11402380Y-85154761D01*
X11402380Y-85340476D01*
X11340476Y-85464285D01*
X11278571Y-85526190D01*
X11154761Y-85588095D01*
X10659523Y-85588095D01*
X10659523Y-84288095D01*
X11092857Y-84288095D01*
X11216666Y-84350000D01*
X11278571Y-84411904D01*
X11340476Y-84535714D01*
X11340476Y-84659523D01*
X11278571Y-84783333D01*
X11216666Y-84845238D01*
X11092857Y-84907142D01*
X10659523Y-84907142D01*
D10*
D11*
X11402380Y-135464285D02*
X11340476Y-135526190D01*
X11154761Y-135588095D01*
X11030952Y-135588095D01*
X10845238Y-135526190D01*
X10721428Y-135402380D01*
X10659523Y-135278571D01*
X10597619Y-135030952D01*
X10597619Y-134845238D01*
X10659523Y-134597619D01*
X10721428Y-134473809D01*
X10845238Y-134350000D01*
X11030952Y-134288095D01*
X11154761Y-134288095D01*
X11340476Y-134350000D01*
X11402380Y-134411904D01*
D10*
D11*
X10659523Y-185588095D02*
X10659523Y-184288095D01*
X10969047Y-184288095D01*
X11154761Y-184350000D01*
X11278571Y-184473809D01*
X11340476Y-184597619D01*
X11402380Y-184845238D01*
X11402380Y-185030952D01*
X11340476Y-185278571D01*
X11278571Y-185402380D01*
X11154761Y-185526190D01*
X10969047Y-185588095D01*
X10659523Y-185588095D01*
D10*
D11*
X287002200Y-60000000D02*
X285002200Y-60000000D01*
D10*
D11*
X287002200Y-110000000D02*
X285002200Y-110000000D01*
D10*
D11*
X287002200Y-160000000D02*
X285002200Y-160000000D01*
D10*
D11*
X285692676Y-35216666D02*
X286311723Y-35216666D01*
X285568866Y-35588095D02*
X286002200Y-34288095D01*
X286435533Y-35588095D01*
D10*
D11*
X286095057Y-84907142D02*
X286280771Y-84969047D01*
X286342676Y-85030952D01*
X286404580Y-85154761D01*
X286404580Y-85340476D01*
X286342676Y-85464285D01*
X286280771Y-85526190D01*
X286156961Y-85588095D01*
X285661723Y-85588095D01*
X285661723Y-84288095D01*
X286095057Y-84288095D01*
X286218866Y-84350000D01*
X286280771Y-84411904D01*
X286342676Y-84535714D01*
X286342676Y-84659523D01*
X286280771Y-84783333D01*
X286218866Y-84845238D01*
X286095057Y-84907142D01*
X285661723Y-84907142D01*
D10*
D11*
X286404580Y-135464285D02*
X286342676Y-135526190D01*
X286156961Y-135588095D01*
X286033152Y-135588095D01*
X285847438Y-135526190D01*
X285723628Y-135402380D01*
X285661723Y-135278571D01*
X285599819Y-135030952D01*
X285599819Y-134845238D01*
X285661723Y-134597619D01*
X285723628Y-134473809D01*
X285847438Y-134350000D01*
X286033152Y-134288095D01*
X286156961Y-134288095D01*
X286342676Y-134350000D01*
X286404580Y-134411904D01*
D10*
D11*
X285661723Y-185588095D02*
X285661723Y-184288095D01*
X285971247Y-184288095D01*
X286156961Y-184350000D01*
X286280771Y-184473809D01*
X286342676Y-184597619D01*
X286404580Y-184845238D01*
X286404580Y-185030952D01*
X286342676Y-185278571D01*
X286280771Y-185402380D01*
X286156961Y-185526190D01*
X285971247Y-185588095D01*
X285661723Y-185588095D01*
D10*
D11*
X200434342Y-193785771D02*
X200434342Y-192285771D01*
X200791485Y-192285771D01*
X201005771Y-192357200D01*
X201148628Y-192500057D01*
X201220057Y-192642914D01*
X201291485Y-192928628D01*
X201291485Y-193142914D01*
X201220057Y-193428628D01*
X201148628Y-193571485D01*
X201005771Y-193714342D01*
X200791485Y-193785771D01*
X200434342Y-193785771D01*
X202577200Y-193785771D02*
X202577200Y-193000057D01*
X202505771Y-192857200D01*
X202362914Y-192785771D01*
X202077200Y-192785771D01*
X201934342Y-192857200D01*
X202577200Y-193714342D02*
X202434342Y-193785771D01*
X202077200Y-193785771D01*
X201934342Y-193714342D01*
X201862914Y-193571485D01*
X201862914Y-193428628D01*
X201934342Y-193285771D01*
X202077200Y-193214342D01*
X202434342Y-193214342D01*
X202577200Y-193142914D01*
X203077200Y-192785771D02*
X203648628Y-192785771D01*
X203291485Y-192285771D02*
X203291485Y-193571485D01*
X203362914Y-193714342D01*
X203505771Y-193785771D01*
X203648628Y-193785771D01*
X204720057Y-193714342D02*
X204577200Y-193785771D01*
X204291485Y-193785771D01*
X204148628Y-193714342D01*
X204077200Y-193571485D01*
X204077200Y-193000057D01*
X204148628Y-192857200D01*
X204291485Y-192785771D01*
X204577200Y-192785771D01*
X204720057Y-192857200D01*
X204791485Y-193000057D01*
X204791485Y-193142914D01*
X204077200Y-193285771D01*
X205434342Y-193642914D02*
X205505771Y-193714342D01*
X205434342Y-193785771D01*
X205362914Y-193714342D01*
X205434342Y-193642914D01*
X205434342Y-193785771D01*
X205434342Y-192857200D02*
X205505771Y-192928628D01*
X205434342Y-193000057D01*
X205362914Y-192928628D01*
X205434342Y-192857200D01*
X205434342Y-193000057D01*
D10*
D11*
X177002200Y-194507200D02*
X285002200Y-194507200D01*
D10*
D11*
X178434342Y-196585771D02*
X178434342Y-195085771D01*
X179291485Y-196585771D02*
X178648628Y-195728628D01*
X179291485Y-195085771D02*
X178434342Y-195942914D01*
X179934342Y-196585771D02*
X179934342Y-195585771D01*
X179934342Y-195085771D02*
X179862914Y-195157200D01*
X179934342Y-195228628D01*
X180005771Y-195157200D01*
X179934342Y-195085771D01*
X179934342Y-195228628D01*
X181505771Y-196442914D02*
X181434342Y-196514342D01*
X181220057Y-196585771D01*
X181077200Y-196585771D01*
X180862914Y-196514342D01*
X180720057Y-196371485D01*
X180648628Y-196228628D01*
X180577200Y-195942914D01*
X180577200Y-195728628D01*
X180648628Y-195442914D01*
X180720057Y-195300057D01*
X180862914Y-195157200D01*
X181077200Y-195085771D01*
X181220057Y-195085771D01*
X181434342Y-195157200D01*
X181505771Y-195228628D01*
X182791485Y-196585771D02*
X182791485Y-195800057D01*
X182720057Y-195657200D01*
X182577200Y-195585771D01*
X182291485Y-195585771D01*
X182148628Y-195657200D01*
X182791485Y-196514342D02*
X182648628Y-196585771D01*
X182291485Y-196585771D01*
X182148628Y-196514342D01*
X182077200Y-196371485D01*
X182077200Y-196228628D01*
X182148628Y-196085771D01*
X182291485Y-196014342D01*
X182648628Y-196014342D01*
X182791485Y-195942914D01*
X184148628Y-196585771D02*
X184148628Y-195085771D01*
X184148628Y-196514342D02*
X184005771Y-196585771D01*
X183720057Y-196585771D01*
X183577200Y-196514342D01*
X183505771Y-196442914D01*
X183434342Y-196300057D01*
X183434342Y-195871485D01*
X183505771Y-195728628D01*
X183577200Y-195657200D01*
X183720057Y-195585771D01*
X184005771Y-195585771D01*
X184148628Y-195657200D01*
X186005771Y-195800057D02*
X186505771Y-195800057D01*
X186720057Y-196585771D02*
X186005771Y-196585771D01*
X186005771Y-195085771D01*
X186720057Y-195085771D01*
X187362914Y-196442914D02*
X187434342Y-196514342D01*
X187362914Y-196585771D01*
X187291485Y-196514342D01*
X187362914Y-196442914D01*
X187362914Y-196585771D01*
X188077200Y-196585771D02*
X188077200Y-195085771D01*
X188434342Y-195085771D01*
X188648628Y-195157200D01*
X188791485Y-195300057D01*
X188862914Y-195442914D01*
X188934342Y-195728628D01*
X188934342Y-195942914D01*
X188862914Y-196228628D01*
X188791485Y-196371485D01*
X188648628Y-196514342D01*
X188434342Y-196585771D01*
X188077200Y-196585771D01*
X189577200Y-196442914D02*
X189648628Y-196514342D01*
X189577200Y-196585771D01*
X189505771Y-196514342D01*
X189577200Y-196442914D01*
X189577200Y-196585771D01*
X190220057Y-196157200D02*
X190934342Y-196157200D01*
X190077200Y-196585771D02*
X190577200Y-195085771D01*
X191077200Y-196585771D01*
X191577200Y-196442914D02*
X191648628Y-196514342D01*
X191577200Y-196585771D01*
X191505771Y-196514342D01*
X191577200Y-196442914D01*
X191577200Y-196585771D01*
X194577200Y-196585771D02*
X194577200Y-195085771D01*
X194720057Y-196014342D02*
X195148628Y-196585771D01*
X195148628Y-195585771D02*
X194577200Y-196157200D01*
X195791485Y-196585771D02*
X195791485Y-195585771D01*
X195791485Y-195085771D02*
X195720057Y-195157200D01*
X195791485Y-195228628D01*
X195862914Y-195157200D01*
X195791485Y-195085771D01*
X195791485Y-195228628D01*
X197148628Y-196514342D02*
X197005771Y-196585771D01*
X196720057Y-196585771D01*
X196577200Y-196514342D01*
X196505771Y-196442914D01*
X196434342Y-196300057D01*
X196434342Y-195871485D01*
X196505771Y-195728628D01*
X196577200Y-195657200D01*
X196720057Y-195585771D01*
X197005771Y-195585771D01*
X197148628Y-195657200D01*
X198434342Y-196585771D02*
X198434342Y-195800057D01*
X198362914Y-195657200D01*
X198220057Y-195585771D01*
X197934342Y-195585771D01*
X197791485Y-195657200D01*
X198434342Y-196514342D02*
X198291485Y-196585771D01*
X197934342Y-196585771D01*
X197791485Y-196514342D01*
X197720057Y-196371485D01*
X197720057Y-196228628D01*
X197791485Y-196085771D01*
X197934342Y-196014342D01*
X198291485Y-196014342D01*
X198434342Y-195942914D01*
X199791485Y-196585771D02*
X199791485Y-195085771D01*
X199791485Y-196514342D02*
X199648628Y-196585771D01*
X199362914Y-196585771D01*
X199220057Y-196514342D01*
X199148628Y-196442914D01*
X199077200Y-196300057D01*
X199077200Y-195871485D01*
X199148628Y-195728628D01*
X199220057Y-195657200D01*
X199362914Y-195585771D01*
X199648628Y-195585771D01*
X199791485Y-195657200D01*
X202077200Y-197157200D02*
X202005771Y-197085771D01*
X201862914Y-196871485D01*
X201791485Y-196728628D01*
X201720057Y-196514342D01*
X201648628Y-196157200D01*
X201648628Y-195871485D01*
X201720057Y-195514342D01*
X201791485Y-195300057D01*
X201862914Y-195157200D01*
X202005771Y-194942914D01*
X202077200Y-194871485D01*
X203362914Y-195085771D02*
X202648628Y-195085771D01*
X202577200Y-195800057D01*
X202648628Y-195728628D01*
X202791485Y-195657200D01*
X203148628Y-195657200D01*
X203291485Y-195728628D01*
X203362914Y-195800057D01*
X203434342Y-195942914D01*
X203434342Y-196300057D01*
X203362914Y-196442914D01*
X203291485Y-196514342D01*
X203148628Y-196585771D01*
X202791485Y-196585771D01*
X202648628Y-196514342D01*
X202577200Y-196442914D01*
X204077200Y-196442914D02*
X204148628Y-196514342D01*
X204077200Y-196585771D01*
X204005771Y-196514342D01*
X204077200Y-196442914D01*
X204077200Y-196585771D01*
X205577200Y-196585771D02*
X204720057Y-196585771D01*
X205148628Y-196585771D02*
X205148628Y-195085771D01*
X205005771Y-195300057D01*
X204862914Y-195442914D01*
X204720057Y-195514342D01*
X206220057Y-196442914D02*
X206291485Y-196514342D01*
X206220057Y-196585771D01*
X206148628Y-196514342D01*
X206220057Y-196442914D01*
X206220057Y-196585771D01*
X207220057Y-195085771D02*
X207362914Y-195085771D01*
X207505771Y-195157200D01*
X207577200Y-195228628D01*
X207648628Y-195371485D01*
X207720057Y-195657200D01*
X207720057Y-196014342D01*
X207648628Y-196300057D01*
X207577200Y-196442914D01*
X207505771Y-196514342D01*
X207362914Y-196585771D01*
X207220057Y-196585771D01*
X207077200Y-196514342D01*
X207005771Y-196442914D01*
X206934342Y-196300057D01*
X206862914Y-196014342D01*
X206862914Y-195657200D01*
X206934342Y-195371485D01*
X207005771Y-195228628D01*
X207077200Y-195157200D01*
X207220057Y-195085771D01*
X208220057Y-197157200D02*
X208291485Y-197085771D01*
X208434342Y-196871485D01*
X208505771Y-196728628D01*
X208577200Y-196514342D01*
X208648628Y-196157200D01*
X208648628Y-195871485D01*
X208577200Y-195514342D01*
X208505771Y-195300057D01*
X208434342Y-195157200D01*
X208291485Y-194942914D01*
X208220057Y-194871485D01*
X209362914Y-196014342D02*
X210505771Y-196014342D01*
X212005771Y-196585771D02*
X211148628Y-196585771D01*
X211577200Y-196585771D02*
X211577200Y-195085771D01*
X211434342Y-195300057D01*
X211291485Y-195442914D01*
X211148628Y-195514342D01*
D10*
D11*
X177002200Y-191507200D02*
X285002200Y-191507200D01*
D10*
D12*
X264411485Y-193785771D02*
X263911485Y-193071485D01*
X263554342Y-193785771D02*
X263554342Y-192285771D01*
X264125771Y-192285771D01*
X264268628Y-192357200D01*
X264340057Y-192428628D01*
X264411485Y-192571485D01*
X264411485Y-192785771D01*
X264340057Y-192928628D01*
X264268628Y-193000057D01*
X264125771Y-193071485D01*
X263554342Y-193071485D01*
X265625771Y-193714342D02*
X265482914Y-193785771D01*
X265197200Y-193785771D01*
X265054342Y-193714342D01*
X264982914Y-193571485D01*
X264982914Y-193000057D01*
X265054342Y-192857200D01*
X265197200Y-192785771D01*
X265482914Y-192785771D01*
X265625771Y-192857200D01*
X265697200Y-193000057D01*
X265697200Y-193142914D01*
X264982914Y-193285771D01*
X266197200Y-192785771D02*
X266554342Y-193785771D01*
X266911485Y-192785771D01*
X267482914Y-193642914D02*
X267554342Y-193714342D01*
X267482914Y-193785771D01*
X267411485Y-193714342D01*
X267482914Y-193642914D01*
X267482914Y-193785771D01*
X267482914Y-192857200D02*
X267554342Y-192928628D01*
X267482914Y-193000057D01*
X267411485Y-192928628D01*
X267482914Y-192857200D01*
X267482914Y-193000057D01*
D10*
D11*
X178362914Y-193714342D02*
X178577200Y-193785771D01*
X178934342Y-193785771D01*
X179077200Y-193714342D01*
X179148628Y-193642914D01*
X179220057Y-193500057D01*
X179220057Y-193357200D01*
X179148628Y-193214342D01*
X179077200Y-193142914D01*
X178934342Y-193071485D01*
X178648628Y-193000057D01*
X178505771Y-192928628D01*
X178434342Y-192857200D01*
X178362914Y-192714342D01*
X178362914Y-192571485D01*
X178434342Y-192428628D01*
X178505771Y-192357200D01*
X178648628Y-192285771D01*
X179005771Y-192285771D01*
X179220057Y-192357200D01*
X179862914Y-193785771D02*
X179862914Y-192785771D01*
X179862914Y-192285771D02*
X179791485Y-192357200D01*
X179862914Y-192428628D01*
X179934342Y-192357200D01*
X179862914Y-192285771D01*
X179862914Y-192428628D01*
X180434342Y-192785771D02*
X181220057Y-192785771D01*
X180434342Y-193785771D01*
X181220057Y-193785771D01*
X182362914Y-193714342D02*
X182220057Y-193785771D01*
X181934342Y-193785771D01*
X181791485Y-193714342D01*
X181720057Y-193571485D01*
X181720057Y-193000057D01*
X181791485Y-192857200D01*
X181934342Y-192785771D01*
X182220057Y-192785771D01*
X182362914Y-192857200D01*
X182434342Y-193000057D01*
X182434342Y-193142914D01*
X181720057Y-193285771D01*
X183077200Y-193642914D02*
X183148628Y-193714342D01*
X183077200Y-193785771D01*
X183005771Y-193714342D01*
X183077200Y-193642914D01*
X183077200Y-193785771D01*
X183077200Y-192857200D02*
X183148628Y-192928628D01*
X183077200Y-193000057D01*
X183005771Y-192928628D01*
X183077200Y-192857200D01*
X183077200Y-193000057D01*
X184862914Y-193357200D02*
X185577200Y-193357200D01*
X184720057Y-193785771D02*
X185220057Y-192285771D01*
X185720057Y-193785771D01*
X186862914Y-192785771D02*
X186862914Y-193785771D01*
X186505771Y-192214342D02*
X186148628Y-193285771D01*
X187077200Y-193285771D01*
D10*
D11*
X263434342Y-196585771D02*
X263434342Y-195085771D01*
X264791485Y-196585771D02*
X264791485Y-195085771D01*
X264791485Y-196514342D02*
X264648628Y-196585771D01*
X264362914Y-196585771D01*
X264220057Y-196514342D01*
X264148628Y-196442914D01*
X264077200Y-196300057D01*
X264077200Y-195871485D01*
X264148628Y-195728628D01*
X264220057Y-195657200D01*
X264362914Y-195585771D01*
X264648628Y-195585771D01*
X264791485Y-195657200D01*
X265505771Y-196442914D02*
X265577200Y-196514342D01*
X265505771Y-196585771D01*
X265434342Y-196514342D01*
X265505771Y-196442914D01*
X265505771Y-196585771D01*
X265505771Y-195657200D02*
X265577200Y-195728628D01*
X265505771Y-195800057D01*
X265434342Y-195728628D01*
X265505771Y-195657200D01*
X265505771Y-195800057D01*
X268148628Y-196585771D02*
X267291485Y-196585771D01*
X267720057Y-196585771D02*
X267720057Y-195085771D01*
X267577200Y-195300057D01*
X267434342Y-195442914D01*
X267291485Y-195514342D01*
X269862914Y-195014342D02*
X268577200Y-196942914D01*
X271148628Y-196585771D02*
X270291485Y-196585771D01*
X270720057Y-196585771D02*
X270720057Y-195085771D01*
X270577200Y-195300057D01*
X270434342Y-195442914D01*
X270291485Y-195514342D01*
D10*
D11*
X177002200Y-187507200D02*
X285002200Y-187507200D01*
D10*
D13*
X178714580Y-188211961D02*
X179857438Y-188211961D01*
X179036009Y-190211961D02*
X179286009Y-188211961D01*
X180274104Y-190211961D02*
X180440771Y-188878628D01*
X180524104Y-188211961D02*
X180416961Y-188307200D01*
X180500295Y-188402438D01*
X180607438Y-188307200D01*
X180524104Y-188211961D01*
X180500295Y-188402438D01*
X181107438Y-188878628D02*
X181869342Y-188878628D01*
X181476485Y-188211961D02*
X181262200Y-189926247D01*
X181333628Y-190116723D01*
X181512200Y-190211961D01*
X181702676Y-190211961D01*
X182655057Y-190211961D02*
X182476485Y-190116723D01*
X182405057Y-189926247D01*
X182619342Y-188211961D01*
X184190771Y-190116723D02*
X183988390Y-190211961D01*
X183607438Y-190211961D01*
X183428866Y-190116723D01*
X183357438Y-189926247D01*
X183452676Y-189164342D01*
X183571723Y-188973866D01*
X183774104Y-188878628D01*
X184155057Y-188878628D01*
X184333628Y-188973866D01*
X184405057Y-189164342D01*
X184381247Y-189354819D01*
X183405057Y-189545295D01*
X185155057Y-190021485D02*
X185238390Y-190116723D01*
X185131247Y-190211961D01*
X185047914Y-190116723D01*
X185155057Y-190021485D01*
X185131247Y-190211961D01*
X185286009Y-188973866D02*
X185369342Y-189069104D01*
X185262200Y-189164342D01*
X185178866Y-189069104D01*
X185286009Y-188973866D01*
X185262200Y-189164342D01*
D10*
D11*
X178934342Y-185600057D02*
X178434342Y-185600057D01*
X178434342Y-186385771D02*
X178434342Y-184885771D01*
X179148628Y-184885771D01*
X179720057Y-186385771D02*
X179720057Y-185385771D01*
X179720057Y-184885771D02*
X179648628Y-184957200D01*
X179720057Y-185028628D01*
X179791485Y-184957200D01*
X179720057Y-184885771D01*
X179720057Y-185028628D01*
X180648628Y-186385771D02*
X180505771Y-186314342D01*
X180434342Y-186171485D01*
X180434342Y-184885771D01*
X181791485Y-186314342D02*
X181648628Y-186385771D01*
X181362914Y-186385771D01*
X181220057Y-186314342D01*
X181148628Y-186171485D01*
X181148628Y-185600057D01*
X181220057Y-185457200D01*
X181362914Y-185385771D01*
X181648628Y-185385771D01*
X181791485Y-185457200D01*
X181862914Y-185600057D01*
X181862914Y-185742914D01*
X181148628Y-185885771D01*
X182505771Y-186242914D02*
X182577200Y-186314342D01*
X182505771Y-186385771D01*
X182434342Y-186314342D01*
X182505771Y-186242914D01*
X182505771Y-186385771D01*
X182505771Y-185457200D02*
X182577200Y-185528628D01*
X182505771Y-185600057D01*
X182434342Y-185528628D01*
X182505771Y-185457200D01*
X182505771Y-185600057D01*
X184577200Y-186385771D02*
X184434342Y-186314342D01*
X184362914Y-186171485D01*
X184362914Y-184885771D01*
X185791485Y-186385771D02*
X185791485Y-185600057D01*
X185720057Y-185457200D01*
X185577200Y-185385771D01*
X185291485Y-185385771D01*
X185148628Y-185457200D01*
X185791485Y-186314342D02*
X185648628Y-186385771D01*
X185291485Y-186385771D01*
X185148628Y-186314342D01*
X185077200Y-186171485D01*
X185077200Y-186028628D01*
X185148628Y-185885771D01*
X185291485Y-185814342D01*
X185648628Y-185814342D01*
X185791485Y-185742914D01*
X186434342Y-186314342D02*
X186577200Y-186385771D01*
X186862914Y-186385771D01*
X187005771Y-186314342D01*
X187077200Y-186171485D01*
X187077200Y-186100057D01*
X187005771Y-185957200D01*
X186862914Y-185885771D01*
X186648628Y-185885771D01*
X186505771Y-185814342D01*
X186434342Y-185671485D01*
X186434342Y-185600057D01*
X186505771Y-185457200D01*
X186648628Y-185385771D01*
X186862914Y-185385771D01*
X187005771Y-185457200D01*
X188291485Y-186314342D02*
X188148628Y-186385771D01*
X187862914Y-186385771D01*
X187720057Y-186314342D01*
X187648628Y-186171485D01*
X187648628Y-185600057D01*
X187720057Y-185457200D01*
X187862914Y-185385771D01*
X188148628Y-185385771D01*
X188291485Y-185457200D01*
X188362914Y-185600057D01*
X188362914Y-185742914D01*
X187648628Y-185885771D01*
X189005771Y-186385771D02*
X189005771Y-185385771D01*
X189005771Y-185671485D02*
X189077200Y-185528628D01*
X189148628Y-185457200D01*
X189291485Y-185385771D01*
X189434342Y-185385771D01*
X189934342Y-185814342D02*
X191077200Y-185814342D01*
X191577200Y-185385771D02*
X192148628Y-185385771D01*
X191791485Y-184885771D02*
X191791485Y-186171485D01*
X191862914Y-186314342D01*
X192005771Y-186385771D01*
X192148628Y-186385771D01*
X192648628Y-186385771D02*
X192648628Y-184885771D01*
X193291485Y-186385771D02*
X193291485Y-185600057D01*
X193220057Y-185457200D01*
X193077200Y-185385771D01*
X192862914Y-185385771D01*
X192720057Y-185457200D01*
X192648628Y-185528628D01*
X194577200Y-186314342D02*
X194434342Y-186385771D01*
X194148628Y-186385771D01*
X194005771Y-186314342D01*
X193934342Y-186171485D01*
X193934342Y-185600057D01*
X194005771Y-185457200D01*
X194148628Y-185385771D01*
X194434342Y-185385771D01*
X194577200Y-185457200D01*
X194648628Y-185600057D01*
X194648628Y-185742914D01*
X193934342Y-185885771D01*
X195291485Y-186385771D02*
X195291485Y-185385771D01*
X195291485Y-185671485D02*
X195362914Y-185528628D01*
X195434342Y-185457200D01*
X195577200Y-185385771D01*
X195720057Y-185385771D01*
X196791485Y-186314342D02*
X196648628Y-186385771D01*
X196362914Y-186385771D01*
X196220057Y-186314342D01*
X196148628Y-186171485D01*
X196148628Y-185600057D01*
X196220057Y-185457200D01*
X196362914Y-185385771D01*
X196648628Y-185385771D01*
X196791485Y-185457200D01*
X196862914Y-185600057D01*
X196862914Y-185742914D01*
X196148628Y-185885771D01*
X197505771Y-186385771D02*
X197505771Y-185385771D01*
X197505771Y-185528628D02*
X197577200Y-185457200D01*
X197720057Y-185385771D01*
X197934342Y-185385771D01*
X198077200Y-185457200D01*
X198148628Y-185600057D01*
X198148628Y-186385771D01*
X198148628Y-185600057D02*
X198220057Y-185457200D01*
X198362914Y-185385771D01*
X198577200Y-185385771D01*
X198720057Y-185457200D01*
X198791485Y-185600057D01*
X198791485Y-186385771D01*
X199505771Y-186385771D02*
X199505771Y-185385771D01*
X199505771Y-184885771D02*
X199434342Y-184957200D01*
X199505771Y-185028628D01*
X199577200Y-184957200D01*
X199505771Y-184885771D01*
X199505771Y-185028628D01*
X200220057Y-185385771D02*
X200220057Y-186385771D01*
X200220057Y-185528628D02*
X200291485Y-185457200D01*
X200434342Y-185385771D01*
X200648628Y-185385771D01*
X200791485Y-185457200D01*
X200862914Y-185600057D01*
X200862914Y-186385771D01*
X201577200Y-186242914D02*
X201648628Y-186314342D01*
X201577200Y-186385771D01*
X201505771Y-186314342D01*
X201577200Y-186242914D01*
X201577200Y-186385771D01*
X202291485Y-186385771D02*
X202291485Y-184885771D01*
X202434342Y-185814342D02*
X202862914Y-186385771D01*
X202862914Y-185385771D02*
X202291485Y-185957200D01*
X203505771Y-186385771D02*
X203505771Y-185385771D01*
X203505771Y-184885771D02*
X203434342Y-184957200D01*
X203505771Y-185028628D01*
X203577200Y-184957200D01*
X203505771Y-184885771D01*
X203505771Y-185028628D01*
X204862914Y-186314342D02*
X204720057Y-186385771D01*
X204434342Y-186385771D01*
X204291485Y-186314342D01*
X204220057Y-186242914D01*
X204148628Y-186100057D01*
X204148628Y-185671485D01*
X204220057Y-185528628D01*
X204291485Y-185457200D01*
X204434342Y-185385771D01*
X204720057Y-185385771D01*
X204862914Y-185457200D01*
X206148628Y-186385771D02*
X206148628Y-185600057D01*
X206077200Y-185457200D01*
X205934342Y-185385771D01*
X205648628Y-185385771D01*
X205505771Y-185457200D01*
X206148628Y-186314342D02*
X206005771Y-186385771D01*
X205648628Y-186385771D01*
X205505771Y-186314342D01*
X205434342Y-186171485D01*
X205434342Y-186028628D01*
X205505771Y-185885771D01*
X205648628Y-185814342D01*
X206005771Y-185814342D01*
X206148628Y-185742914D01*
X207505771Y-186385771D02*
X207505771Y-184885771D01*
X207505771Y-186314342D02*
X207362914Y-186385771D01*
X207077200Y-186385771D01*
X206934342Y-186314342D01*
X206862914Y-186242914D01*
X206791485Y-186100057D01*
X206791485Y-185671485D01*
X206862914Y-185528628D01*
X206934342Y-185457200D01*
X207077200Y-185385771D01*
X207362914Y-185385771D01*
X207505771Y-185457200D01*
X207862914Y-186528628D02*
X209005771Y-186528628D01*
X209362914Y-185385771D02*
X209362914Y-186885771D01*
X209362914Y-185457200D02*
X209505771Y-185385771D01*
X209791485Y-185385771D01*
X209934342Y-185457200D01*
X210005771Y-185528628D01*
X210077200Y-185671485D01*
X210077200Y-186100057D01*
X210005771Y-186242914D01*
X209934342Y-186314342D01*
X209791485Y-186385771D01*
X209505771Y-186385771D01*
X209362914Y-186314342D01*
X211362914Y-186314342D02*
X211220057Y-186385771D01*
X210934342Y-186385771D01*
X210791485Y-186314342D01*
X210720057Y-186242914D01*
X210648628Y-186100057D01*
X210648628Y-185671485D01*
X210720057Y-185528628D01*
X210791485Y-185457200D01*
X210934342Y-185385771D01*
X211220057Y-185385771D01*
X211362914Y-185457200D01*
X212005771Y-186385771D02*
X212005771Y-184885771D01*
X212005771Y-185457200D02*
X212148628Y-185385771D01*
X212434342Y-185385771D01*
X212577200Y-185457200D01*
X212648628Y-185528628D01*
X212720057Y-185671485D01*
X212720057Y-186100057D01*
X212648628Y-186242914D01*
X212577200Y-186314342D01*
X212434342Y-186385771D01*
X212148628Y-186385771D01*
X212005771Y-186314342D01*
D10*
D11*
X177002200Y-181507200D02*
X285002200Y-181507200D01*
D10*
D11*
X178362914Y-183614342D02*
X178577200Y-183685771D01*
X178934342Y-183685771D01*
X179077200Y-183614342D01*
X179148628Y-183542914D01*
X179220057Y-183400057D01*
X179220057Y-183257200D01*
X179148628Y-183114342D01*
X179077200Y-183042914D01*
X178934342Y-182971485D01*
X178648628Y-182900057D01*
X178505771Y-182828628D01*
X178434342Y-182757200D01*
X178362914Y-182614342D01*
X178362914Y-182471485D01*
X178434342Y-182328628D01*
X178505771Y-182257200D01*
X178648628Y-182185771D01*
X179005771Y-182185771D01*
X179220057Y-182257200D01*
X179862914Y-183685771D02*
X179862914Y-182185771D01*
X180505771Y-183685771D02*
X180505771Y-182900057D01*
X180434342Y-182757200D01*
X180291485Y-182685771D01*
X180077200Y-182685771D01*
X179934342Y-182757200D01*
X179862914Y-182828628D01*
X181791485Y-183614342D02*
X181648628Y-183685771D01*
X181362914Y-183685771D01*
X181220057Y-183614342D01*
X181148628Y-183471485D01*
X181148628Y-182900057D01*
X181220057Y-182757200D01*
X181362914Y-182685771D01*
X181648628Y-182685771D01*
X181791485Y-182757200D01*
X181862914Y-182900057D01*
X181862914Y-183042914D01*
X181148628Y-183185771D01*
X183077200Y-183614342D02*
X182934342Y-183685771D01*
X182648628Y-183685771D01*
X182505771Y-183614342D01*
X182434342Y-183471485D01*
X182434342Y-182900057D01*
X182505771Y-182757200D01*
X182648628Y-182685771D01*
X182934342Y-182685771D01*
X183077200Y-182757200D01*
X183148628Y-182900057D01*
X183148628Y-183042914D01*
X182434342Y-183185771D01*
X183577200Y-182685771D02*
X184148628Y-182685771D01*
X183791485Y-182185771D02*
X183791485Y-183471485D01*
X183862914Y-183614342D01*
X184005771Y-183685771D01*
X184148628Y-183685771D01*
X184648628Y-183542914D02*
X184720057Y-183614342D01*
X184648628Y-183685771D01*
X184577200Y-183614342D01*
X184648628Y-183542914D01*
X184648628Y-183685771D01*
X184648628Y-182757200D02*
X184720057Y-182828628D01*
X184648628Y-182900057D01*
X184577200Y-182828628D01*
X184648628Y-182757200D01*
X184648628Y-182900057D01*
D10*
D11*
X197002200Y-191507200D02*
X197002200Y-194507200D01*
D10*
D11*
X261002200Y-191507200D02*
X261002200Y-198007200D01*
X171360000Y-65270000D02*
G75*
G03X171360000Y-65270000I-1600000J0D01*
G01*
X125910000Y-65270000D02*
G75*
G03X125910000Y-65270000I-1600000J0D01*
G01*
D14*
X196149489Y-68185808D02*
X196136510Y-68132693D01*
X195897743Y-67264824D02*
X195850187Y-67139795D01*
X196123640Y-68079524D02*
X196110817Y-68026327D01*
X196228312Y-68502952D02*
X196227009Y-68492162D01*
X196230000Y-69152768D02*
X196230000Y-68998460D01*
X196225342Y-68481424D02*
X196223314Y-68470745D01*
X196230000Y-69615692D02*
X196230000Y-69461384D01*
X186301690Y-63868256D02*
X185357255Y-63867877D01*
X196230000Y-68689843D02*
X196230000Y-68535535D01*
X189134993Y-63869392D02*
X188190559Y-63869013D01*
X194971557Y-65673337D02*
X194461701Y-65137519D01*
X183468386Y-63867120D02*
X183468752Y-63859457D01*
X196230000Y-68535535D02*
X196229812Y-68524647D01*
X183468752Y-63859457D02*
X183469259Y-63851801D01*
X184412821Y-63867498D02*
X183468386Y-63867120D01*
X196230000Y-68844151D02*
X196230000Y-68689843D01*
X196048689Y-67772823D02*
X196015384Y-67645387D01*
X196230000Y-69770000D02*
X196230000Y-69615692D01*
X185357255Y-63867877D02*
X184412821Y-63867498D01*
X191023863Y-63870150D02*
X190079428Y-63869771D01*
X193258158Y-64344098D02*
X192568551Y-64089247D01*
X187246124Y-63868635D02*
X186301690Y-63868256D01*
X188190559Y-63869013D02*
X187246124Y-63868635D01*
X190079428Y-63869771D02*
X189134993Y-63869392D01*
X191823106Y-63930806D02*
X191023863Y-63870150D01*
X196080256Y-67899927D02*
X196048689Y-67772823D01*
X195850187Y-67139795D02*
X195797243Y-67016301D01*
X196015384Y-67645387D02*
X195979611Y-67517993D01*
X196110817Y-68026327D02*
X196080256Y-67899927D01*
X196223314Y-68470745D02*
X196220929Y-68460136D01*
X193889888Y-64693981D02*
X193258158Y-64344098D01*
X192568551Y-64089247D02*
X191823106Y-63930806D01*
X195797243Y-67016301D02*
X195417418Y-66300056D01*
X195979611Y-67517993D02*
X195940641Y-67391014D01*
X196227009Y-68492162D02*
X196225342Y-68481424D01*
X196230000Y-69461384D02*
X196230000Y-69307076D01*
X196189701Y-68344551D02*
X196176023Y-68291764D01*
X196229248Y-68513783D02*
X196228312Y-68502952D01*
X194461701Y-65137519D02*
X193889888Y-64693981D01*
X195417418Y-66300056D02*
X194971557Y-65673337D01*
X196229812Y-68524647D02*
X196229248Y-68513783D01*
X196162639Y-68238840D02*
X196149489Y-68185808D01*
X196176023Y-68291764D02*
X196162639Y-68238840D01*
X196136510Y-68132693D02*
X196123640Y-68079524D01*
X196230000Y-69307076D02*
X196230000Y-69152768D01*
X196218191Y-68449605D02*
X196203737Y-68397174D01*
X196230000Y-68998460D02*
X196230000Y-68844151D01*
X195940641Y-67391014D02*
X195897743Y-67264824D01*
X196203737Y-68397174D02*
X196189701Y-68344551D01*
X196220929Y-68460136D02*
X196218191Y-68449605D01*
X196788307Y-77628269D02*
X196821469Y-77487625D01*
X196230000Y-108322835D02*
X196230000Y-103306614D01*
X196230000Y-113339055D02*
X196230000Y-108322835D01*
X196210990Y-118463638D02*
X196216753Y-118446144D01*
X196216753Y-118446144D02*
X196221493Y-118428368D01*
X196832908Y-74833239D02*
X196832908Y-73997753D01*
X196473013Y-78084550D02*
X196575773Y-77989768D01*
X196230000Y-93274171D02*
X196230000Y-88257949D01*
X196229463Y-118373763D02*
X196230000Y-118355277D01*
X196193086Y-118503979D02*
X196195253Y-118499862D01*
X196832908Y-76504209D02*
X196832908Y-75668724D01*
X196735150Y-77759956D02*
X196788307Y-77628269D01*
X196225198Y-118410351D02*
X196227859Y-118392135D01*
X196204214Y-118480809D02*
X196210990Y-118463638D01*
X196663729Y-70114494D02*
X196575773Y-70005739D01*
X196575773Y-70005739D02*
X196473013Y-69910957D01*
X196832908Y-75668724D02*
X196832908Y-74833239D01*
X196227859Y-118392135D02*
X196229463Y-118373763D01*
X196735150Y-70235551D02*
X196663729Y-70114494D01*
X196788307Y-70367237D02*
X196735150Y-70235551D01*
X196832908Y-72326783D02*
X196832908Y-71491297D01*
X196821469Y-70507882D02*
X196788307Y-70367237D01*
X196832908Y-70655812D02*
X196821469Y-70507882D01*
X196832908Y-71491297D02*
X196832908Y-70655812D01*
X196832908Y-73162268D02*
X196832908Y-72326783D01*
X196832908Y-77339695D02*
X196832908Y-76504209D01*
X196663729Y-77881013D02*
X196735150Y-77759956D01*
X196575773Y-77989768D02*
X196663729Y-77881013D01*
X196357179Y-78163687D02*
X196473013Y-78084550D01*
X196190263Y-118509341D02*
X196193086Y-118503979D01*
X196230000Y-78225507D02*
X196357179Y-78163687D01*
X196230000Y-83241728D02*
X196230000Y-78225507D01*
X196230000Y-88257949D02*
X196230000Y-83241728D01*
X196187113Y-118515327D02*
X196190263Y-118509341D01*
X196183963Y-118521312D02*
X196187113Y-118515327D01*
X196230000Y-118355277D02*
X196230000Y-113339055D01*
X196230000Y-98290392D02*
X196230000Y-93274171D01*
X196221493Y-118428368D02*
X196225198Y-118410351D01*
X196181140Y-118526675D02*
X196183963Y-118521312D01*
X196195253Y-118499862D02*
X196196436Y-118497613D01*
X196230000Y-103306614D02*
X196230000Y-98290392D01*
X196196436Y-118497613D02*
X196204214Y-118480809D01*
X196832908Y-73997753D02*
X196832908Y-73162268D01*
X196821469Y-77487625D02*
X196832908Y-77339695D01*
X102592554Y-123007610D02*
X102606658Y-123012861D01*
X102679938Y-123028718D02*
X102694955Y-123029785D01*
X102586455Y-123005046D02*
X102592554Y-123007610D01*
X191574096Y-123029585D02*
X191583540Y-123028887D01*
X136026944Y-123030141D02*
X147132581Y-123030141D01*
X191859564Y-122969231D02*
X191898063Y-122960979D01*
X191592954Y-123027907D02*
X191602331Y-123026643D01*
X102710028Y-123030141D02*
X113815667Y-123030141D01*
X196178973Y-118530792D02*
X196181140Y-118526675D01*
X194024080Y-122074327D02*
X194575991Y-121640561D01*
X169343859Y-123030141D02*
X180449497Y-123030141D01*
X196177790Y-118533041D02*
X196178973Y-118530792D01*
X196172830Y-118542153D02*
X196173382Y-118541240D01*
X192407621Y-122842424D02*
X192502263Y-122815290D01*
X102635501Y-123021294D02*
X102650184Y-123024469D01*
X180449497Y-123030141D02*
X191555136Y-123030141D01*
X196173382Y-118541240D02*
X196174041Y-118540092D01*
X195767821Y-119966112D02*
X196009214Y-119285060D01*
X158238220Y-123030141D02*
X169343859Y-123030141D01*
X102694955Y-123029785D02*
X102710028Y-123030141D01*
X102606658Y-123012861D02*
X102620983Y-123017424D01*
X102574257Y-122999918D02*
X102580356Y-123002482D01*
X196176682Y-118535184D02*
X196177790Y-118533041D01*
X196175690Y-118537069D02*
X196176682Y-118535184D01*
X192029928Y-122932679D02*
X192123863Y-122912024D01*
X196174810Y-118538704D02*
X196175690Y-118537069D01*
X195448236Y-120586009D02*
X195767821Y-119966112D01*
X193395478Y-122445160D02*
X194024080Y-122074327D01*
X196174041Y-118540092D02*
X196174810Y-118538704D01*
X196172383Y-118542837D02*
X196172830Y-118542153D01*
X196172040Y-118543297D02*
X196172383Y-118542837D01*
X102650184Y-123024469D02*
X102665006Y-123026945D01*
X191936615Y-122952758D02*
X192029928Y-122932679D01*
X102620983Y-123017424D02*
X102635501Y-123021294D01*
X196009214Y-119285060D02*
X196172040Y-118543297D01*
X191602331Y-123026643D02*
X191611666Y-123025093D01*
X195050834Y-121144307D02*
X195448236Y-120586009D01*
X194575991Y-121640561D02*
X195050834Y-121144307D01*
X192123863Y-122912024D02*
X192218243Y-122890374D01*
X191898063Y-122960979D02*
X191936615Y-122952758D01*
X192502263Y-122815290D02*
X192596636Y-122785493D01*
X102580356Y-123002482D02*
X102586455Y-123005046D01*
X192218243Y-122890374D02*
X192312888Y-122867313D01*
X191583540Y-123028887D02*
X191592954Y-123027907D01*
X113815667Y-123030141D02*
X124921305Y-123030141D01*
X102568158Y-122997354D02*
X102574257Y-122999918D01*
X191668180Y-123012040D02*
X191706278Y-123003169D01*
X191564626Y-123030002D02*
X191574096Y-123029585D01*
X102665006Y-123026945D02*
X102679938Y-123028718D01*
X192690560Y-122752617D02*
X193395478Y-122445160D01*
X191555136Y-123030141D02*
X191564626Y-123030002D01*
X102562059Y-122994790D02*
X102568158Y-122997354D01*
X192596636Y-122785493D02*
X192690560Y-122752617D01*
X192312888Y-122867313D02*
X192407621Y-122842424D01*
X191744475Y-122994483D02*
X191782761Y-122985952D01*
X191706278Y-123003169D02*
X191744475Y-122994483D01*
X124921305Y-123030141D02*
X136026944Y-123030141D01*
X191821127Y-122977545D02*
X191859564Y-122969231D01*
X191782761Y-122985952D02*
X191821127Y-122977545D01*
X147132581Y-123030141D02*
X158238220Y-123030141D01*
X191630189Y-123021129D02*
X191668180Y-123012040D01*
X191620954Y-123023256D02*
X191630189Y-123021129D01*
X191611666Y-123025093D02*
X191620954Y-123023256D01*
X102555960Y-122992226D02*
X102562059Y-122994790D01*
X98605254Y-120166658D02*
X98970595Y-120798444D01*
X97446118Y-77636331D02*
X97502533Y-77770981D01*
X98155022Y-118920359D02*
X98175828Y-119009693D01*
X97578200Y-77894131D02*
X97671208Y-78003991D01*
X98135081Y-118831510D02*
X98155022Y-118920359D01*
X98115655Y-118743282D02*
X98135081Y-118831510D01*
X98089927Y-118626316D02*
X98098569Y-118665301D01*
X98035164Y-113340359D02*
X98035164Y-118355277D01*
X98042302Y-118422422D02*
X98044487Y-118431883D01*
X98038805Y-118403383D02*
X98040408Y-118412921D01*
X98035746Y-118374589D02*
X98036475Y-118384214D01*
X98035164Y-98295607D02*
X98035164Y-103310525D01*
X98035164Y-93280690D02*
X98035164Y-98295607D01*
X98035164Y-78235937D02*
X98035164Y-83250855D01*
X97398692Y-76504209D02*
X97398692Y-77339695D01*
X97398692Y-73162268D02*
X97398692Y-73997753D01*
X98035164Y-83250855D02*
X98035164Y-88265772D01*
X97398692Y-72326783D02*
X97398692Y-73162268D01*
X97502533Y-77770981D02*
X97578200Y-77894131D01*
X100452633Y-122233577D02*
X101073357Y-122557194D01*
X97901602Y-78176685D02*
X98035164Y-78235937D01*
X97398692Y-74833239D02*
X97398692Y-75668724D01*
X97398692Y-77339695D02*
X97410867Y-77491973D01*
X97410867Y-77491973D02*
X97446118Y-77636331D01*
X102549861Y-122989662D02*
X102555960Y-122992226D01*
X102543762Y-122987098D02*
X102549861Y-122989662D01*
X98035164Y-118355277D02*
X98035309Y-118364942D01*
X102522785Y-122977717D02*
X102528045Y-122980043D01*
X101073357Y-122557194D02*
X101756455Y-122802754D01*
X99400664Y-121353796D02*
X99894873Y-121832309D01*
X98970595Y-120798444D02*
X99400664Y-121353796D01*
X98063233Y-118509514D02*
X98072290Y-118548412D01*
X98053976Y-118470668D02*
X98063233Y-118509514D01*
X98035164Y-88265772D02*
X98035164Y-93280690D01*
X98036475Y-118384214D02*
X98037494Y-118393813D01*
X102538523Y-122984783D02*
X102543762Y-122987098D01*
X102528045Y-122980043D02*
X102533288Y-122982415D01*
X102512165Y-122973398D02*
X102517495Y-122975485D01*
X97398692Y-75668724D02*
X97398692Y-76504209D01*
X98305229Y-119458846D02*
X98605254Y-120166658D01*
X99894873Y-121832309D02*
X100452633Y-122233577D01*
X98246982Y-119279234D02*
X98274789Y-119369139D01*
X98035164Y-108325443D02*
X98035164Y-113340359D01*
X97671208Y-78003991D02*
X97779646Y-78098773D01*
X98197855Y-119099374D02*
X98221456Y-119189267D01*
X98081178Y-118587350D02*
X98089927Y-118626316D01*
X98037494Y-118393813D02*
X98038805Y-118403383D01*
X98035309Y-118364942D02*
X98035746Y-118374589D01*
X97779646Y-78098773D02*
X97901602Y-78176685D01*
X102533288Y-122982415D02*
X102538523Y-122984783D01*
X102517495Y-122975485D02*
X102522785Y-122977717D01*
X98035164Y-103310525D02*
X98035164Y-108325443D01*
X102506784Y-122971503D02*
X102512165Y-122973398D01*
X102501341Y-122969850D02*
X102506784Y-122971503D01*
X101756455Y-122802754D02*
X102501341Y-122969850D01*
X98040408Y-118412921D02*
X98042302Y-118422422D01*
X98274789Y-119369139D02*
X98305229Y-119458846D01*
X98072290Y-118548412D02*
X98081178Y-118587350D01*
X98221456Y-119189267D02*
X98246982Y-119279234D01*
X98098569Y-118665301D02*
X98107135Y-118704293D01*
X98107135Y-118704293D02*
X98115655Y-118743282D01*
X98175828Y-119009693D02*
X98197855Y-119099374D01*
X98044487Y-118431883D02*
X98053976Y-118470668D01*
X97398692Y-73997753D02*
X97398692Y-74833239D01*
X97671208Y-69991515D02*
X97578200Y-70101376D01*
X97901602Y-69818822D02*
X97779646Y-69896734D01*
X110798844Y-63738441D02*
X110797511Y-63799330D01*
X108917004Y-63860671D02*
X107976311Y-63860671D01*
X98227651Y-67683889D02*
X98201761Y-67786453D01*
X109857697Y-63860671D02*
X108917004Y-63860671D01*
X110827802Y-63500047D02*
X110816867Y-63558806D01*
X110798390Y-63860671D02*
X109857697Y-63860671D01*
X98255392Y-67581166D02*
X98227651Y-67683889D01*
X100266601Y-64792050D02*
X99660321Y-65284869D01*
X100941226Y-64396129D02*
X100266601Y-64792050D01*
X98110379Y-68182908D02*
X98099957Y-68228621D01*
X107035618Y-63860671D02*
X106094925Y-63860671D01*
X97398692Y-71491297D02*
X97398692Y-72326783D01*
X110808447Y-63618146D02*
X110802464Y-63678035D01*
X98120724Y-68137176D02*
X98110379Y-68182908D01*
X99132617Y-65867492D02*
X98693721Y-66532827D01*
X97779646Y-69896734D02*
X97671208Y-69991515D01*
X98153869Y-67990401D02*
X98131038Y-68091435D01*
X98056595Y-68411112D02*
X98045108Y-68456598D01*
X98078702Y-68319958D02*
X98067778Y-68365562D01*
X103272845Y-63860671D02*
X102454580Y-63923346D01*
X98039094Y-68485903D02*
X98037689Y-68495775D01*
X97398692Y-70655812D02*
X97398692Y-71491297D01*
X98035164Y-69453561D02*
X98035164Y-69606565D01*
X101673963Y-64104196D02*
X100941226Y-64396129D01*
X98035164Y-68688540D02*
X98035164Y-68841544D01*
X110802464Y-63678035D02*
X110798844Y-63738441D01*
X98040801Y-68476077D02*
X98039094Y-68485903D01*
X105154231Y-63860671D02*
X104213538Y-63860671D01*
X97446118Y-70359175D02*
X97410867Y-70503534D01*
X97578200Y-70101376D02*
X97502533Y-70224526D01*
X98089414Y-68274308D02*
X98078702Y-68319958D01*
X99660321Y-65284869D02*
X99132617Y-65867492D01*
X98035323Y-68525572D02*
X98035164Y-68535535D01*
X98693721Y-66532827D02*
X98353865Y-67273780D01*
X98035800Y-68515619D02*
X98035323Y-68525572D01*
X97410867Y-70503534D02*
X97398692Y-70655812D01*
X97502533Y-70224526D02*
X97446118Y-70359175D01*
X107976311Y-63860671D02*
X107035618Y-63860671D01*
X98035164Y-69300557D02*
X98035164Y-69453561D01*
X98035164Y-68535535D02*
X98035164Y-68688540D01*
X98035164Y-69759570D02*
X97901602Y-69818822D01*
X98036589Y-68505683D02*
X98035800Y-68515619D01*
X98067778Y-68365562D02*
X98056595Y-68411112D01*
X98035164Y-69606565D02*
X98035164Y-69759570D01*
X98131038Y-68091435D02*
X98120724Y-68137176D01*
X98201761Y-67786453D02*
X98177305Y-67888682D01*
X98035164Y-68841544D02*
X98035164Y-68994548D01*
X98037689Y-68495775D02*
X98036589Y-68505683D01*
X98177305Y-67888682D02*
X98153869Y-67990401D01*
X98353865Y-67273780D02*
X98318084Y-67375936D01*
X98318084Y-67375936D02*
X98285397Y-67478456D01*
X98035164Y-69147552D02*
X98035164Y-69300557D01*
X106094925Y-63860671D02*
X105154231Y-63860671D01*
X98035164Y-68994548D02*
X98035164Y-69147552D01*
X98285397Y-67478456D02*
X98255392Y-67581166D01*
X110797511Y-63799330D02*
X110798390Y-63860671D01*
X98042807Y-68466306D02*
X98040801Y-68476077D01*
X104213538Y-63860671D02*
X103272845Y-63860671D01*
X98045108Y-68456598D02*
X98042807Y-68466306D01*
X98099957Y-68228621D02*
X98089414Y-68274308D01*
X102454580Y-63923346D02*
X101673963Y-64104196D01*
X110816867Y-63558806D02*
X110808447Y-63618146D01*
X111250464Y-62711998D02*
X111220969Y-62745210D01*
X111341201Y-62615562D02*
X111335335Y-62621680D01*
X120302070Y-62597207D02*
X111358799Y-62597207D01*
X182945892Y-62638404D02*
X182940046Y-62632519D01*
X165018424Y-62597207D02*
X156075153Y-62597207D01*
X129245341Y-62597207D02*
X120302070Y-62597207D01*
X183398370Y-63345037D02*
X183341278Y-63197706D01*
X182904967Y-62597207D02*
X173961695Y-62597207D01*
X183341278Y-63197706D02*
X183268009Y-63053841D01*
X182928353Y-62620748D02*
X182922506Y-62614863D01*
X182910813Y-62603092D02*
X182904967Y-62597207D01*
X110961680Y-63124381D02*
X110950282Y-63149613D01*
X156075153Y-62597207D02*
X147131882Y-62597207D01*
X110841326Y-63441903D02*
X110827802Y-63500047D01*
X110934869Y-63181123D02*
X110920557Y-63212018D01*
X111137147Y-62846248D02*
X111110711Y-62880462D01*
X182922506Y-62614863D02*
X182916660Y-62608977D01*
X110884177Y-63301006D02*
X110874217Y-63329429D01*
X111335335Y-62621680D02*
X111329469Y-62627799D01*
X183471855Y-63813991D02*
X183471979Y-63806596D01*
X183469259Y-63851801D02*
X183469847Y-63844162D01*
X110950282Y-63149613D02*
X110934869Y-63181123D01*
X111022930Y-63011328D02*
X111005290Y-63041327D01*
X111358799Y-62597207D02*
X111352933Y-62603325D01*
X183178623Y-62913568D02*
X183073179Y-62777009D01*
X183439224Y-63495712D02*
X183398370Y-63345037D01*
X138188612Y-62597207D02*
X129245341Y-62597207D01*
X182916660Y-62608977D02*
X182910813Y-62603092D01*
X110857515Y-63384405D02*
X110841326Y-63441903D01*
X110865332Y-63357229D02*
X110857515Y-63384405D01*
X110874217Y-63329429D02*
X110865332Y-63357229D01*
X182940046Y-62632519D02*
X182934199Y-62626633D01*
X183073179Y-62777009D02*
X182951739Y-62644289D01*
X110895217Y-63271962D02*
X110884177Y-63301006D01*
X110907341Y-63242299D02*
X110895217Y-63271962D01*
X110920557Y-63212018D02*
X110907341Y-63242299D01*
X111311872Y-62646154D02*
X111280760Y-62678986D01*
X111323603Y-62633917D02*
X111317737Y-62640036D01*
X110974654Y-63097895D02*
X110961680Y-63124381D01*
X110989194Y-63070196D02*
X110974654Y-63097895D01*
X111005290Y-63041327D02*
X110989194Y-63070196D01*
X111042102Y-62980242D02*
X111022930Y-63011328D01*
X111317737Y-62640036D02*
X111311872Y-62646154D01*
X111085004Y-62914976D02*
X111062798Y-62948111D01*
X183471522Y-63821455D02*
X183471855Y-63813991D01*
X111110711Y-62880462D02*
X111085004Y-62914976D01*
X111220969Y-62745210D02*
X111192261Y-62778642D01*
X111164325Y-62812315D02*
X111137147Y-62846248D01*
X111352933Y-62603325D02*
X111347067Y-62609443D01*
X183471037Y-63828979D02*
X183471522Y-63821455D01*
X183470459Y-63836552D02*
X183471037Y-63828979D01*
X147131882Y-62597207D02*
X138188612Y-62597207D01*
X173961695Y-62597207D02*
X165018424Y-62597207D01*
X183268009Y-63053841D02*
X183178623Y-62913568D01*
X183469847Y-63844162D02*
X183470459Y-63836552D01*
X183471979Y-63806596D02*
X183463781Y-63649606D01*
X111329469Y-62627799D02*
X111323603Y-62633917D01*
X182951739Y-62644289D02*
X182945892Y-62638404D01*
X111280760Y-62678986D02*
X111250464Y-62711998D01*
X182934199Y-62626633D02*
X182928353Y-62620748D01*
X183463781Y-63649606D02*
X183439224Y-63495712D01*
X111192261Y-62778642D02*
X111164325Y-62812315D01*
X111347067Y-62609443D02*
X111341201Y-62615562D01*
X111062798Y-62948111D02*
X111042102Y-62980242D01*
X196473013Y-69910957D02*
X196357179Y-69831820D01*
X196357179Y-69831820D02*
X196230000Y-69770000D01*
X196230000Y-69770000D02*
X196230000Y-69770000D01*
M02*
