M48
; DRILL file {KiCad (5.1.0)-1} date 6/18/2019 1:36:42 AM
; FORMAT={3:3/ absolute / metric / suppress leading zeros}
; #@! TF.CreationDate,2019-06-18T01:36:42-06:00
; #@! TF.GenerationSoftware,Kicad,Pcbnew,(5.1.0)-1
FMAT,2
METRIC,TZ
T1C0.400
T2C0.450
T3C0.650
T4C0.800
T5C1.000
T6C1.020
T7C1.200
T8C1.470
T9C2.000
T10C0.500
T11C0.900
T12C0.986
T13C0.988
T14C1.000
T15C1.200
T16C1.500
T17C1.750
T18C3.988
%
G90
G05
T1
X99050Y-111050
X99410Y-107440
X99420Y-106150
X100100Y-75590
X100710Y-91790
X100725Y-90125
X102500Y-103060
X102700Y-106300
X102710Y-107430
X103170Y-111680
X103500Y-103530
X103555Y-91695
X103770Y-85930
X103770Y-86930
X104460Y-102770
X106270Y-89770
X106290Y-88760
X106290Y-91280
X106300Y-79720
X106300Y-85520
X106640Y-102630
X108830Y-98730
X109160Y-66480
X109260Y-88560
X109510Y-105780
X109780Y-107950
X109910Y-67220
X109930Y-98720
X110010Y-87720
X110800Y-107680
X110920Y-109040
X111030Y-98720
X111100Y-87730
X111120Y-97400
X111140Y-96390
X111610Y-95470
X111820Y-79790
X111830Y-82890
X112020Y-69290
X112140Y-94610
X112170Y-87780
X112180Y-99560
X112810Y-82365
X112810Y-83415
X112860Y-111910
X112900Y-109460
X114240Y-88430
X114270Y-84200
X114360Y-111300
X114500Y-91480
X115120Y-102660
X115320Y-107910
X115890Y-84590
X116440Y-93900
X116440Y-97750
X116550Y-99975
X116550Y-101025
X116590Y-114690
X117330Y-72620
X117750Y-107890
X117860Y-103210
X117870Y-111310
X118300Y-99500
X118340Y-86300
X118570Y-102490
X119100Y-93470
X119110Y-76850
X119780Y-97900
X119810Y-100040
X120180Y-65500
X120240Y-78900
X120930Y-69290
X121460Y-111780
X122230Y-80670
X123080Y-110530
X123140Y-101740
X123150Y-108030
X123440Y-72280
X124590Y-95950
X125950Y-74880
X126580Y-107410
X127570Y-110530
X128820Y-107010
X129220Y-76360
X129310Y-102240
X132630Y-76370
X134100Y-86290
X134210Y-80630
X136100Y-76370
X137650Y-86590
X139250Y-83370
X139270Y-80600
X139480Y-111910
X139680Y-103210
X140860Y-87590
X141340Y-102810
X141360Y-94150
X142300Y-110530
X143090Y-96910
X143100Y-94140
X145310Y-88540
X145310Y-89940
X145310Y-91340
X145610Y-106960
X146030Y-89240
X146040Y-90640
X146280Y-82870
X146320Y-71400
X146320Y-74370
X146730Y-110530
X147750Y-80550
X147880Y-106290
X149860Y-76570
X151020Y-68320
X151050Y-76610
X151060Y-64550
X151380Y-98170
X151830Y-72880
X151830Y-101960
X152080Y-80560
X153200Y-80550
X154080Y-86190
X160020Y-80620
X160320Y-88950
X160620Y-92920
X161250Y-110530
X164680Y-107250
X166060Y-110530
X166910Y-105520
X167630Y-70600
X168410Y-69220
X168770Y-99920
X169040Y-111860
X169170Y-70610
X173080Y-100320
X173140Y-80520
X173150Y-83770
X173750Y-76360
X174000Y-71380
X175190Y-80120
X175190Y-83260
X176090Y-102820
X176870Y-76370
X177000Y-87880
X177330Y-89220
X177580Y-72100
X178160Y-102330
X179080Y-68750
X180090Y-110530
X180320Y-90220
X182550Y-77630
X182590Y-79540
X182710Y-104580
X183460Y-87160
X183690Y-107000
X183940Y-88570
X184820Y-110530
X185100Y-78290
X185100Y-80760
X185550Y-84340
X186460Y-81600
X186960Y-91310
X187660Y-78590
X187660Y-82800
X187820Y-84900
X188040Y-86570
X190110Y-75430
X190260Y-91850
X190280Y-89190
X190620Y-94060
X192490Y-84870
X193390Y-89260
X194570Y-92920
T3
X104920Y-106130
X104920Y-108670
X105220Y-104860
X105220Y-107400
X105220Y-109940
X106190Y-106130
X106190Y-108670
X106490Y-104860
X106490Y-107400
X106490Y-109940
T4
X164430Y-70340
X164430Y-72880
X164430Y-75420
X164430Y-77960
T5
X114730Y-121050
X117270Y-121050
X119810Y-121050
X122350Y-121050
X186260Y-69710
X186260Y-72250
X188800Y-69710
X188800Y-72250
X191340Y-69710
X191340Y-72250
X123670Y-84430
X123670Y-98930
X126170Y-98930
X128670Y-84430
X128670Y-98930
X171870Y-121040
X174410Y-121040
X176950Y-121040
X179490Y-121040
X102910Y-69710
X102910Y-72250
X105450Y-69710
X105450Y-72250
X107990Y-69710
X107990Y-72250
T6
X126450Y-72000
X139150Y-72000
T7
X142115Y-117460
X147115Y-119560
X103990Y-117440
X108990Y-119540
X161165Y-117460
X166165Y-119560
X180215Y-117460
X185215Y-119560
X123065Y-117460
X128065Y-119560
T8
X149615Y-117660
X150925Y-116200
X111490Y-117640
X112800Y-116180
X168665Y-117660
X169975Y-116200
X187715Y-117660
X189025Y-116200
X130565Y-117660
X131875Y-116200
T10
X101850Y-80870
X101850Y-84870
T11
X192860Y-76170
X192860Y-82970
T12
X99974Y-104250
X102006Y-104250
T13
X100990Y-111870
T14
X147150Y-68090
X155130Y-68090
X186707Y-99710
X193708Y-99710
T15
X152335Y-109460
X114210Y-109440
X171385Y-109460
X190435Y-109460
X133285Y-109460
T16
X163014Y-88960
X163014Y-94960
X164210Y-91960
X164746Y-89960
X164746Y-93960
X165210Y-86764
X165210Y-97156
X166210Y-88496
X166210Y-91960
X166210Y-95424
X167210Y-90228
X167210Y-93692
X168210Y-87960
X168210Y-91960
X168210Y-95960
X169210Y-90228
X169210Y-93692
X170210Y-88496
X170210Y-91960
X170210Y-95424
X171210Y-86764
X171210Y-97156
X171674Y-89960
X171674Y-93960
X172210Y-91960
X173406Y-88960
X173406Y-94960
T18
X128065Y-113660
X147115Y-113660
X108990Y-113640
X166165Y-113660
X185215Y-113660
T2
G00X100200Y-79645
M15
G01X99100Y-79645
M16
G05
G00X100200Y-86095
M15
G01X99100Y-86095
M16
G05
T8
G00X144633Y-117996
M15
G01X144577Y-118824
M16
G05
G00X106508Y-117976
M15
G01X106452Y-118804
M16
G05
G00X163683Y-117996
M15
G01X163627Y-118824
M16
G05
G00X182733Y-117996
M15
G01X182677Y-118824
M16
G05
G00X125583Y-117996
M15
G01X125527Y-118824
M16
G05
T9
G00X120570Y-91180
M15
G01X120570Y-91680
M16
G05
G00X131770Y-91180
M15
G01X131770Y-91680
M16
G05
T17
G00X180135Y-113660
M15
G01X179735Y-113660
M16
G05
G00X190695Y-113660
M15
G01X190295Y-113660
M16
G05
G00X122985Y-113660
M15
G01X122585Y-113660
M16
G05
G00X133545Y-113660
M15
G01X133145Y-113660
M16
G05
G00X142035Y-113660
M15
G01X141635Y-113660
M16
G05
G00X152595Y-113660
M15
G01X152195Y-113660
M16
G05
G00X103910Y-113640
M15
G01X103510Y-113640
M16
G05
G00X114470Y-113640
M15
G01X114070Y-113640
M16
G05
G00X161085Y-113660
M15
G01X160685Y-113660
M16
G05
G00X171645Y-113660
M15
G01X171245Y-113660
M16
G05
T0
M30
